<?xml version="1.0" encoding="utf-8"?>
<!-- Generator: Adobe Illustrator 19.1.1, SVG Export Plug-In . SVG Version: 6.00 Build 0)  -->
<svg version="1.1" id="Слой_1" xmlns="http://www.w3.org/2000/svg" xmlns:xlink="http://www.w3.org/1999/xlink" x="0px" y="0px"
	 viewBox="0 0 67.7 71.4" style="enable-background:new 0 0 67.7 71.4;" xml:space="preserve">
<style type="text/css">
	.st0{fill:#242424;}
	.st1{fill:#EF3B57;}
	.st2{fill:none;stroke:#F7F7F7;stroke-miterlimit:10;}
	.st3{fill:#EF3B57;stroke:#33499F;stroke-width:0.75;stroke-miterlimit:10;}
	.st4{fill:none;stroke:#242424;stroke-miterlimit:10;}
	.st5{fill:#F7F7F7;}
	.st6{fill:none;stroke:#ED1438;stroke-width:2;stroke-linecap:round;stroke-miterlimit:10;stroke-dasharray:2.012,4.023;}
	.st7{fill:#FFFFFF;}
	.st8{fill:none;stroke:#ED1438;stroke-width:4;stroke-miterlimit:10;}
	.st9{fill:none;stroke:#04A94D;stroke-width:3;stroke-linecap:round;stroke-linejoin:round;stroke-miterlimit:10;}
	.st10{fill:#04A94D;}
	.st11{fill:none;stroke:#04A94D;stroke-miterlimit:10;}
	.st12{fill:none;stroke:#04A94D;stroke-width:3;stroke-linejoin:round;stroke-miterlimit:10;}
	.st13{fill:none;stroke:#04A94D;stroke-width:2.485;stroke-linejoin:round;stroke-miterlimit:10;}
	.st14{fill:none;stroke:#04A94D;stroke-width:1.657;stroke-miterlimit:10;}
	.st15{fill:none;stroke:#04A94D;stroke-width:3;stroke-linejoin:bevel;stroke-miterlimit:10;}
	.st16{fill:none;stroke:#04A94D;stroke-width:3;stroke-miterlimit:10;}
	.st17{fill:none;stroke:#929497;stroke-width:0.5;stroke-miterlimit:10;}
	.st18{fill:none;stroke:#929497;stroke-width:0.5;stroke-miterlimit:10;stroke-dasharray:10.988,4.578;}
	.st19{fill:none;stroke:#929497;stroke-width:0.5;stroke-miterlimit:10;stroke-dasharray:10.399,10.399;}
	.st20{fill:none;stroke:#ED1438;stroke-width:2;stroke-miterlimit:10;}
	.st21{fill:none;stroke:#04A94D;stroke-width:1.699;stroke-miterlimit:10;}
	.st22{fill:none;stroke:#060E9F;stroke-width:2.725;stroke-miterlimit:10;}
	.st23{fill:none;stroke:#060E9F;stroke-width:1.09;stroke-miterlimit:10;}
	.st24{fill:none;stroke:#ED1438;stroke-width:3.736;stroke-miterlimit:10;}
	.st25{fill:none;stroke:#ED1438;stroke-width:3.736;stroke-miterlimit:10;stroke-dasharray:3.794,5.691;}
	.st26{fill:none;stroke:#ED1438;stroke-width:3.379;stroke-miterlimit:10;}
	.st27{fill:none;stroke:#ED1438;stroke-width:3.379;stroke-miterlimit:10;stroke-dasharray:3.431,5.147;}
	.st28{fill:none;stroke:#ED1438;stroke-width:3.568;stroke-miterlimit:10;}
	.st29{fill:none;stroke:#ED1438;stroke-width:3.568;stroke-miterlimit:10;stroke-dasharray:3.624,5.435;}
	.st30{fill:none;stroke:#ED1438;stroke-width:8.537;stroke-miterlimit:10;}
	.st31{fill:none;stroke:#ED1438;stroke-width:3.341;stroke-miterlimit:10;}
	.st32{fill:none;stroke:#ED1438;stroke-width:3.341;stroke-miterlimit:10;stroke-dasharray:3.3,4.95;}
	.st33{fill:none;stroke:#ED1438;stroke-width:3.236;stroke-miterlimit:10;}
	.st34{fill:none;stroke:#ED1438;stroke-width:3.236;stroke-miterlimit:10;stroke-dasharray:3.094,4.641;}
	.st35{fill:none;stroke:#04A94D;stroke-width:2;stroke-miterlimit:10;}
	.st36{fill:none;stroke:#04A94D;stroke-width:2;stroke-linejoin:bevel;stroke-miterlimit:10;}
	.st37{fill:none;stroke:#FFFFFF;stroke-width:2;stroke-miterlimit:10;}
	.st38{fill:#5B719A;}
	.st39{fill:#DB831C;}
	.st40{fill:#5266AB;}
</style>
<g>
	<rect x="-493.5" y="-6.8" class="st0" width="30.5" height="2"/>
	<rect x="-493.5" y="13.5" class="st0" width="30.5" height="2"/>
	<rect x="-489.5" y="3.4" class="st0" width="22.4" height="2"/>
</g>
<g>
	
		<rect x="-402.5" y="3.2" transform="matrix(0.7071 -0.7071 0.7071 0.7071 -116.3949 -272.5961)" class="st0" width="30.5" height="2"/>
	
		<rect x="-402.5" y="3.2" transform="matrix(-0.7071 -0.7071 0.7071 -0.7071 -664.0491 -266.6521)" class="st0" width="30.5" height="2"/>
</g>
<g>
	
		<rect x="-371.5" y="3.2" transform="matrix(0.7071 -0.7071 0.7071 0.7071 -107.3152 -250.6758)" class="st1" width="30.5" height="2"/>
	
		<rect x="-371.5" y="3.2" transform="matrix(-0.7071 -0.7071 0.7071 -0.7071 -611.1288 -244.7318)" class="st1" width="30.5" height="2"/>
</g>
<g>
	
		<rect x="-119.4" y="29.9" transform="matrix(0.7071 -0.7071 0.7071 0.7071 -54.3085 -70.2482)" class="st1" width="14.9" height="1"/>
	
		<rect x="-119.4" y="29.9" transform="matrix(-0.7071 -0.7071 0.7071 -0.7071 -212.6316 -27.2107)" class="st1" width="14.9" height="1"/>
</g>
<g>
	<rect x="-452.5" y="-6.8" class="st1" width="30.5" height="2"/>
	<rect x="-452.5" y="13.5" class="st1" width="30.5" height="2"/>
	<rect x="-448.5" y="3.4" class="st1" width="22.4" height="2"/>
</g>
<g>
	<path class="st2" d="M-453.8,38.4c0-4.3-4.1-7.7-9.2-7.7s-9.2,3.5-9.2,7.7v14.5c0,4.3,4.1,7.7,9.2,7.7s9.2-3.5,9.2-7.7V38.4z"/>
	<line class="st2" x1="-463" y1="35.5" x2="-463" y2="45"/>
</g>
<g>
	<path class="st1" d="M-461,151.6c-7.8,0-14.1-6.4-14.1-14.4s6.3-14.4,14.1-14.4s14.1,6.4,14.1,14.4S-453.3,151.6-461,151.6z
		 M-461,123.6c-7.3,0-13.3,6.1-13.3,13.6s6,13.6,13.3,13.6s13.3-6.1,13.3-13.6S-453.7,123.6-461,123.6z"/>
	<path class="st1" d="M-461,182l-19.8-23c-3-3.2-5.1-6.5-6.4-10.1c-1.4-3.9-1.9-7.7-1.6-11.3c0.9-13.1,11.5-26.7,27.8-26.7
		c7.5,0,14.5,3,19.7,8.4c4.7,5,7.7,11.6,8.1,18.3c0.3,3.6-0.3,7.5-1.6,11.3c-1.3,3.7-3.5,7-6.5,10.1L-461,182z M-461,111.6
		c-15.8,0-26.1,13.2-27,26.1c-0.3,3.5,0.2,7.1,1.6,10.9c1.3,3.5,3.3,6.8,6.2,9.9l19.2,22.4l19.1-22.4c3-3.1,5-6.3,6.3-9.9l0,0
		c1.3-3.6,1.9-7.4,1.6-10.9C-435,121.3-448.5,111.6-461,111.6z"/>
</g>
<g>
	<path class="st1" d="M-252.1,171.2c-0.2,0-0.5-0.1-0.6-0.4c-0.2-0.2-0.2-0.5-0.1-0.7c0.4-0.8,0.2-1.7-0.5-2.5
		c-0.2-0.2-0.2-0.4-0.2-0.6c0-0.4,0.4-0.7,0.8-1c0.3-0.2,0.6-0.2,1-0.2c0.1,0,0.1,0,0.2,0c0.3-1.9,0.1-3.3-0.4-4.1
		c-0.1-0.2-0.2-0.4-0.2-0.5c0,0,0-0.1-0.1-0.2c-0.4,0.1-0.6,0.1-0.8,0.2c-0.3,0.1-0.5,0.2-1.1,0.1c0.2,0.3,0.5,0.6,0.3,0.9
		c-0.2,0.3-0.6,0.4-0.9,0.4c-0.2,0-0.4,0-0.7,0c-1.9-0.2-3.1-0.7-3.9-1.5c0-0.1-0.1-0.1-0.2-0.3c-0.6-0.7-2.2-2.7-3.7-2.7
		c-0.8,0-1.4,0.6-1.9,1.8c0,0.1,0.2,0.2,0.3,0.2c0.2,0.1,0.4,0.3,0.5,0.5c0,0.1,0,0.3-0.1,0.4c-0.4,0.4-0.4,1-0.3,1.5
		c0,0.5,0,1-0.3,1.3c-0.7,0.8-1.6,1.2-2.5,1.2c-0.6,0-1.2-0.2-1.6-0.3c-0.2-0.1-0.5-0.1-0.6-0.1c-0.8,0.8-2.9,1.9-4.4,1.9
		c-0.9,0-1.5-0.4-1.7-1.2c-0.2,0-0.5,0-0.7-0.1c-0.4-0.3-0.9-0.2-1.4,0c-0.3,0.1-0.7,0.2-1.1,0.2c-0.5,0-0.8-0.1-1.2-0.5
		c-0.9-0.9-1.2-1.3-1.2-1.6c-0.3-0.2-0.8-0.4-1.6-0.8c-0.1,0.1-0.1,0.3-0.3,0.4c-0.2,0.2-0.2,0.4-0.1,0.7c0.1,0.4,0.1,0.9-0.4,1.3
		c-0.3,0.2-0.6,0.4-1,0.4c-1.2,0-2.5-1.3-2.8-1.5c-0.2-0.2-0.7-0.3-1.3-0.3c-1.3,0-3,0.5-3.7,0.9c-0.1,0.1-0.3,0.1-0.5,0.1
		c-1,0-2.4-1.2-2.8-2c-0.1-0.2-0.1-0.4-0.2-0.6c-0.2-0.6-0.2-0.8-0.5-0.8c-1.2-0.1-1.4-0.4-1.6-0.7c-0.1-0.1-0.1-0.2-0.3-0.3
		c0,0-0.1,0.1-0.1,0.1c-0.2,0.2-0.3,0.3-0.5,0.3h-0.3l-0.1-0.3c-0.2-0.9-0.3-1.7-0.3-2.5c-0.1-1.2-0.1-2.2-0.7-3
		c0,0-0.2,0.1-0.3,0.2c-0.3,0.2-0.7,0.5-1.1,0.5c-0.4,0-0.7-0.2-1.1-0.6c-0.1-0.2-0.3-0.3-0.2-0.5l0.1-0.2l0.3-0.1c0,0,0,0,0.1,0
		c0-0.1,0-0.1,0-0.2c-0.1,0-0.3,0-0.5-0.1l-0.2-0.1l-0.1-0.2c0-0.1,0-0.2,0-0.3c-0.1,0-0.1-0.1-0.2-0.1c-0.2-0.1-0.7-0.3-0.6-0.9
		c0-0.3,0.2-0.5,0.4-0.8c0-0.1,0.1-0.1,0.2-0.2c-0.1-0.1-0.2-0.2-0.3-0.3c-0.2-0.3-0.3-0.4-0.5-0.3c-1.3,0.4-4.9-1-6.1-1.9
		c-0.1,0.2-0.1,0.3-0.1,0.4c-0.2,0.6-0.4,0.9-1.3,1.2c-0.2,0.1-0.4,0.1-0.6,0.1c0.1,0,0.2,0.1,0.3,0.3c0.2,0.6,0.1,1,0,1.2
		c-0.2,0.3-0.6,0.5-1,0.5c-0.6,0-1.4-0.3-1.8-0.8c-0.1-0.2-0.2-0.3-0.3-0.5c-0.4-0.6-0.8-1.3-2.2-1.9c-0.1,0-0.6-0.4-0.9-0.7
		c-0.4-0.5-0.2-1,0-1.2c0.2-0.3,0.2-0.4,0.1-0.7c-0.3-0.6-0.8-1.2-1-1.5l-0.1-0.1c-0.1-0.2-1-0.4-1.8-0.4c-0.3,0-0.4,0-0.5,0
		c-0.3,0.1-0.5,0.2-0.6,0.2c-0.1,0-0.2,0.1-0.2,0.1h-0.2l-0.2-0.3l0-0.2c0-0.1,0-0.2-0.1-0.6c-0.2,0.1-0.5,0.3-1.2,0.8
		c-0.2,0.2-0.6,0.2-0.9,0.2c0,0-0.1,0-0.1,0c0.1,0.3,0.1,0.5-0.1,0.8c0.2,0.1,0.3,0.2,0.4,0.5c0.1,0.6-0.1,1.7-0.5,2.1
		c-0.1,0.1-0.2,0.2-0.4,0.3c0,0.1,0,0.2,0,0.3c-0.1,0.2-0.2,0.3-0.4,0.4c-0.5,0.2-0.8,0.3-1,0.3c-0.5,0-0.6-0.5-0.6-0.6
		c0-0.1,0-0.2-0.1-0.3c0,0-0.1,0-0.2,0c-0.3,0-0.6,0.1-0.9,0.4l-0.1,0.1l-0.2,0c-0.1,0-0.3-0.1-0.4-0.1c0,0,0,0.1,0,0.1
		c0,0.1,0,0.2,0,0.3c0.1,0.1,0.2,0.1,0.3,0.3l0.1,0.2l-0.1,0.2c-0.2,0.3-0.5,0.3-0.7,0.4c-0.1,0-0.2,0-0.2,0.1
		c-0.1,0.2-0.2,0.5-0.2,0.9c-0.1,0.7-0.3,1.4-0.9,1.8c-0.6,0.4-1.1,0.3-1.5-0.1c-0.8-0.9-0.5-3.5-0.5-3.5c0.1-0.7-0.2-1.2-0.5-1.9
		c-0.2-0.3-0.4-0.7-0.5-1.1c-0.3-0.8-0.8-1.5-1.3-2.2l-0.3-0.4c-0.6-0.9-0.4-1.8-0.2-2.7c0.1-0.4,0.1-0.8,0.2-1.1c0-0.1,0-0.3,0-0.4
		c0-0.1,0-0.2,0-0.3c0,0-0.1-0.3-0.5-0.6c-1.1-0.7-2.3-1.6-1.7-2.5c0.3-0.4,0.3-0.6,0.3-0.8c0-0.3,0.1-0.5,0.4-0.9
		c0.1-0.1,0.3-0.3,0.6-0.3c0.6,0,1.8,0.5,2,0.9c0.3,0.8,0.2,1.1,0,1.4c-0.1,0.1-0.2,0.3-0.2,0.6c-0.1,1,1.6,1.6,2.5,1.9
		c0,0,0,0,0.1,0c0-0.3,0-0.6,0.3-0.8c0.1-0.1,0.3-0.2,0.5-0.2c0.5,0,1.1,0.4,2,1.1c0,0,0.2-0.1,0.2-0.3c0,0,0,0,0-0.1
		c0-0.1-0.1-0.3,0.1-0.4c0.1-0.2,0.4-0.2,0.9-0.3c0.2,0,0.4,0,0.5,0c-0.3-0.3-0.8-0.9-0.6-1.7c0.1-0.2,0.1-0.3,0.2-0.4
		c0-0.1,0.1-0.2,0.1-0.2c-1.6-2.3-0.5-3.4,0.2-4.1c0.4-0.4,0.5-0.6,0.5-0.8c0,0-0.1-0.1-0.2-0.1c-0.2-0.1-0.5-0.2-0.6-0.6
		c-0.3-0.6,0.3-0.9,0.5-1.1l0.1-0.1c0.6-0.4,0.8-0.5,1-0.5c0.2,0,0.4,0.1,0.4,0.4c0,0.1,0.1,0.2,0.3,0.3c0-0.1,0.1-0.2,0.1-0.4
		c0.1-0.3,0.1-0.7,0.3-1c0.2-0.3,0.5-0.6,0.8-0.9c0.4-0.4,0.7-0.7,0.6-0.9c-0.1-0.3,0.1-0.5,0.2-0.6c0,0,0,0,0-0.1
		c-0.1-0.3-0.4-0.7,0-1.2c0.4-0.5,1.3-1.2,2-1.5l0.3-0.1c1-0.4,1.7-0.7,2.9-0.3c0.4,0.1,0.6,0.3,0.8,0.5c0-0.1,0-0.2,0-0.3
		c0-0.7,0-0.8,0.1-0.9c0.2-0.2,0.5-0.3,0.8-0.3c0.6,0,1.1,0.4,1.7,0.8c0.7,0.5,1.4,1,2,0.7c0.5-0.2,0.6-0.3,0.8-0.6
		c0.1-0.2,0.3-0.4,0.6-0.7c0.9-0.8,4-1.8,4.7-2.1c0,0,0-0.2,0-0.3c0-0.3,0.1-0.7,0.5-0.9c0.3-0.1,0.6-0.2,0.9-0.2
		c0.8,0,1.8,0.3,2.3,1c0.3,0.4,0.4,0.9,0.2,1.4c-0.1,0.3-0.2,0.4-0.3,0.4c0,0,0,0.1,0,0.1c0.4,1.8,0.1,3.5-0.6,4.4
		c-0.8,1-2.1,1.1-2.9,0.2c-0.6-0.7-0.9-1.9-0.8-3.4c-0.1,0.2-0.3,0.4-0.4,0.5c-0.5,0.7-1,1.4-1.5,1.8c-0.1,0.1-0.2,0.3-0.2,0.7
		c0,0.3,0,0.5,0.1,0.6c0,0,0.1-0.1,0.2-0.2c0,0,0-0.1,0.1-0.2c0.1-0.3,0.1-0.7,0.5-1c0.4-0.3,0.9-0.1,1.2,0.4c0.2,0.5,0,0.9-0.1,1.2
		c0,0.1-0.1,0.2-0.1,0.3c0,0,0,0,0,0c0.1-0.2,0.2-0.3,0.3-0.3c0.3-0.1,0.5-0.2,0.7-0.2c0.7,0,1,0.4,1.3,0.8c0.2,0.3,0.4,0.5,0.6,0.5
		c0.3,0,0.8-0.2,1.9-1.3c0,0,0.1-0.2,0.1-0.3c0.1-0.3,0.2-0.6,0.6-0.6h0.1l0.1,0.1c0.9,0.5,1.3,1,1.2,1.5c-0.1,0.8-1.2,1.3-1.7,1.4
		c-0.2,0.1-0.4,0.3-0.4,0.5c0.1,0,0.3-0.1,0.5-0.2c0.3-0.2,0.5-0.1,0.6,0l0.2,0c0.2,0,0.4,0.1,0.5,0.3c0,0,0,0.1,0.2,0.1
		c2.4,0.4,2.5,0.4,2.6,0.8c0.1,0.2-0.1,0.4-0.1,0.5c0.1,0.1,0.5,0.4,1.9,1c0.2,0.1,0.3,0.3,0.3,0.5c0-0.1,0-0.2,0.1-0.3
		c0-0.4,0.1-1.1,0.9-1.1c0,0,0,0,0,0c0.5,0,0.6,0.5,1,2c0.2,0.8,0.6,2.4,0.9,2.6c0,0,0,0,0,0c-0.2-0.8,0.2-1.9,1-2.1l0.1-0.4
		l-0.2,0.3c-0.1-0.1-0.3-0.3-0.2-0.6c0.2-0.7,2.2-2.7,3.3-2.7c0.4,0,0.7,0.2,0.8,0.7c0.1,0.4-0.1,0.6-1.4,1.9l-0.3,0.3
		c-0.4,0.4-0.8,1.3-1.2,2.2c-0.6,1.4-1.3,3-2.4,3.6c0.1,0.1,0.3,0.2,0.4,0.3c0,0,0.1,0,0.1,0c0.5,0,1.3-0.6,1.4-0.9
		c0.2-0.2,0.4-0.6,0.8-0.6c0.2,0,0.5,0.1,0.8,0.3c0.3,0.2,0.5,0.2,0.5,0.2c0,0,0-0.1,0-0.1c0-0.1,0-0.3-0.8-0.9
		c-1.1-0.9-0.2-2.4,0.6-3.7l0.1-0.1c0.2-0.4,0.4-0.6,0.4-0.7c0.2-0.4,0.3-0.5,1-1.1c0,0,0.2-0.2,0.3-0.2h0.2l0.1,0.1
		c0.2,0.2,0.1,0.5,0,1.1c-0.1,0.3-0.2,1-0.1,1.3c0.1-0.1,0.3-0.3,0.3-0.5c-0.1-0.2-0.1-0.4-0.1-0.6c0.1-0.2,0.3-0.3,0.4-0.3
		c0.1,0,0.3,0,0.5,0.3c0.4,0.5,0.6,0.8,0.8,0.9c0,0,0,0,0-0.1c0-0.1-0.1-0.3-0.2-0.4c-0.1-0.2-0.3-0.4-0.2-0.7
		c0-0.2,0.1-0.4,0.4-0.5c0.5-0.3,1.5-0.7,2.1-0.9c0.2-0.1,0.3-0.1,0.3-0.1c0.4-0.2,0.8-0.4,1.2-0.6c0.8-0.4,1.5-0.8,2.4-0.8
		c0.2,0,0.4,0,0.7,0.1c0.4,0.1,0.5,0.3,0.5,0.5c0,0,0,0,0,0c0-0.1,0.1-0.2,0.1-0.2c0.1-0.3,0.5-0.3,0.8-0.2c0-0.1,0-0.2,0.1-0.3
		c0.2-0.7,0.3-1,1-1.4l0.2,0c0.4,0,4.1,1.9,4.2,3.2c0,0.4-0.2,0.9-1.3,1.1c-0.3,0-0.5,0.2-0.7,0.7l-0.2,0.3
		c-0.2,0.3-0.5,0.8-0.6,1.1c0.3,0,0.7-0.1,0.7-0.1c0.1-0.1,0.1-0.2,0.2-0.5c0-0.3,0.1-0.7,0.5-1.1c0.1-0.1,0.2-0.1,0.4-0.1
		c0.3,0,0.6,0.1,0.7,0.3c0.1,0.1,0.1,0.3,0.1,0.6c0,0.1,0,0.2,0,0.4c0.1,0,0.2-0.1,0.3-0.2c0.3-0.1,0.5-0.3,0.8-0.3
		c0.2,0,0.5,0.1,0.8,0.5c0.1,0.2,0.9,0.1,1.1-0.1c0.1-0.1,0-0.4-0.1-0.5c-0.1-0.3-0.2-0.6,0-0.8c0.1-0.1,0.2-0.2,0.5-0.2
		c0.2,0,0.4,0,0.5,0c0.2,0,0.5,0,0.7,0c0.9,0,1.5,0.5,1.9,1.6c0.5,1.1,0.7,1.5,0.8,1.6c0.1-0.2,0.2-0.8,0.3-1.1
		c0.1-0.6,0.2-0.9,0.4-1c0.4-0.2,0.8,0,1.1,0.2c0.1,0.1,0.2,0.2,0.3,0.2c0,0,0.2-0.1,0.4-0.5c0.2-0.4,0-0.9-0.3-1.4
		c-0.1-0.1-0.1-0.2-0.2-0.3c-0.3,0-0.5-0.1-0.6-0.3c-0.3-0.5-0.5-0.8-0.6-1.3c0,0,0,0,0,0c-0.2,0.1-0.5,0.2-0.6,0.2
		c-0.8,0-1.4-0.7-1.4-1.4c0-0.4,0.2-0.8,0.9-1c-0.1-0.1-0.1-0.3,0-0.5l0.1-0.2l0.2-0.1c0.3-0.1,0.6-0.1,0.9-0.1c0.7,0,1,0.3,1.1,0.5
		c0.2,0.5,0.1,1.1-0.5,1.9c0,0,0.1,0,0.1,0l0.2,0c1.7,0.5,1.8,0.6,1.9,0.8l0,0.1c1.1-0.4,2.4-0.6,3.1-0.3c0.3,0.1,0.5,0.2,0.6,0.3
		c0.1,0.1,0.3,0.1,0.3,0.1c0,0,0.1,0,0.3-0.3c0.9-1,2-1.4,3-1.8c0.9-0.3,1.6-0.6,1.9-1.2c0.1-0.1,0.1-0.2,0.2-0.4
		c0.2-0.3,0.3-0.4,0.1-0.7c-0.2-0.3-0.2-0.6,0-0.9c0.2-0.3,0.5-0.4,0.8-0.4c-0.2-0.3-0.3-0.6,0.1-1c0.4-0.4,0.6-0.7,0.9-1.1
		c0.6-0.9,1.3-1.8,3.1-2.9c0.6-0.4,1.8-0.5,2.6-0.7c0.1,0,0.2,0,0.3,0c-0.1-0.1-0.2-0.3-0.2-0.4c-0.1-0.7,0.1-1.4,0.6-1.9
		c0.4-0.4,0.9-0.7,1.4-0.7c0.3,0,0.7,0.1,0.8,0.7c0.2,0.9,0.8,1.5,1.2,1.9c0.3,0.3,0.6,0.6,0.4,0.9c-1,1.5-1.3,1.6-1.8,1.7
		c-0.1,0-0.3,0-0.6,0.2c-0.4,0.2-0.6,0.2-0.8,0.2c-0.1,0-0.2,0-0.4-0.1c0,0.2,0,0.5,0,0.7c0.2-0.2,0.5-0.3,0.9-0.1
		c0.6,0.3,0.6,0.4,0.8,0.9c0,0.1,0,0.2,0.1,0.4c0,0.2,0.1,0.4,0.1,0.5c0.3,0,0.7,0,1.2-0.1c0.8-0.1,1.4-0.1,1.6,0
		c0.3,0.1,0.4,0.4,0.5,0.6c0,0.2,0,0.4-0.2,0.5c-0.5,0.4-0.6,1.6-0.4,3.4c0,0.3,0.3,0.7,0.5,1.2c0.5,0.8,1,1.8,0.3,2.4
		c-0.9,0.8-0.9,1.1-1,1.7c0,0.3-0.1,0.6-0.2,1c-0.1,0.4-0.4,0.4-0.5,0.5c-0.2,0.9,0,2.5,0.2,3c0,0,0,0,0,0c0.1-0.2,0.2-0.6,0.7-0.6
		c0.3,0,0.6,0.2,1,0.7c0.1,0.1,0.4,0.2,0.6,0.3c0.4,0.1,0.8,0.2,0.9,0.6c0.1,0.2,0.1,0.4,0,0.7c-0.1,0.2-0.2,0.3-0.3,0.4
		c0.1,0.1,0.2,0.2,0.4,0.3c0.3,0.2,0.7,0.4,0.8,0.9c0.1,0.3,0,0.7-0.4,1.2c-0.1,0.1-0.1,0.1-0.1,0.1c0,0,0.2,0.1,0.3,0.2
		c0.4,0.2,0.8,0.5,0.9,1.1c0,0.3,0.3,0.9,0.5,1.5c0.6,1.6,1,2.7,0.6,3.3c-0.2,0.2-0.6,0.5-1.3,0.3c-6.7-1.7-6.7-4.2-6.8-6.1
		c0-0.5,0-0.9-0.1-1.3c-0.5-2-0.6-4.8-0.2-6.7c0-0.1-0.2-0.6-0.7-1.1c-0.3-0.3-0.6-0.5-0.7-0.5c0,0-0.1,0-0.1,0.1
		c0,0,0.1,0.1,0.1,0.1c0.5,0.5,1.3,1.4,0.7,3.8l-0.1,0.3l-0.3,0.1c-0.3,0-0.5-0.3-0.9-0.8c-0.1-0.1-0.2-0.2-0.3-0.3
		c-0.2,0.3-0.5,0.4-0.7,0.5c-0.1,0-0.1,0-0.1,0c-0.9,0.8-0.5,1.9,0.2,3.3c0.2-0.2,0.6-0.3,1,0c0.3,0.2,0.4,0.6,0.4,1.1
		c-0.1,0.5-0.3,1.1-0.7,1.3l0,0c-0.1,0.3-0.4,0.9-1.1,0.9c-0.2,0-0.4-0.1-0.6-0.2c-0.1-0.1-0.2-0.2-0.3-0.3l0,0l-0.2,0
		c-0.4,0.1-0.6,0-0.8,0c0,0,0,0,0,0c0,0,0,0,0.1,0.1c0.2,0.2,0.5,0.5,0.3,0.8c-0.1,0.3-0.5,0.3-0.8,0.2c-0.1,0-0.1-0.1-0.2-0.1
		c0,0,0,0-0.1,0.1c-0.1,0.1-0.3,0.3-0.8,0.6c-2.4,1.5-3.4,6.1-3.6,9c0.4-0.3,0.9-0.5,1.2-0.2c0.1,0.1,0.2,0.2,0.4,0.4
		c0.1,0.1,0.2,0.2,0.3,0.4c0,0,0-0.1,0-0.1c-0.1-0.3-0.1-0.6,0.1-0.9c0.2-0.3,0.5-0.4,1-0.4c0.4,0,0.9,0.1,1.4,0.2
		c0.3,0.1,0.6,0.1,0.8,0.2c0-0.2-0.2-0.7-0.4-1c-0.4-0.3-0.4-0.5-0.4-0.7c0.1-0.5,0.8-0.6,1-0.6c0.1,0,0.3,0,0.3,0.1
		c0.6,0.4,1,1.2,1.5,2c0.4,0.6,0.7,1.3,1.1,1.6c0.1,0.1,0.8,0.4,1.3,0.6c1.6,0.6,2.5,1,2.3,1.7c-0.2,0.6-0.7,0.6-1.1,0.7
		c-0.1,0-0.2,0-0.2,0c0,0.4,0.3,0.9,0.7,1.3c0.2,0.2,0.5,0.3,0.8,0.5c0.6,0.2,1.4,0.5,1.2,2c0,0.3-0.2,0.5-0.5,0.5
		c-0.3,0-0.6-0.2-0.9-0.3c-0.2-0.1-0.3-0.2-0.5-0.2c0,0,0,0-0.1,0c0,0.1,0,0.3,0,0.4c0,0.5,0,1.2-0.6,1.5l-0.1,0l-0.1,0
		c-0.6,0-1.2-1.2-2.7-4.8c-0.5-1.1-0.9-2.3-1.1-2.5c-0.1-0.1-0.1-0.1-0.1-0.2c0.1,0.8,0.4,1.5,0.8,2.3c1.1,2,1,6.8-0.3,9.9
		c-0.7,1.7-1.7,2.8-2.8,3.2l-0.1,0c-0.2,0-0.3-0.1-0.3-0.2c0,0-0.1,0.1-0.1,0.1c-0.1,0.1-0.1,0.3-0.2,0.4
		C-251.4,170.7-251.6,171.2-252.1,171.2L-252.1,171.2z M-252.2,166.5l-0.1,0c-0.2,0.1-0.5,0.4-0.5,0.5c0.9,1,1.1,2.3,0.6,3.3
		c0,0,0,0,0.1,0.1c0-0.1,0.1-0.3,0.1-0.4c0.1-0.2,0.2-0.5,0.3-0.7c0.1-0.1,0.1-0.1,0.3-0.4l0.3-0.4l0.2,0c0.3,0,0.4,0.2,0.4,0.4
		c0.9-0.4,1.6-1.7,2-2.6c1.2-3,1.4-7.5,0.4-9.3c-0.6-1.2-0.9-2.1-1-3.3c0-0.1,0-0.3,0.1-0.4l0.1-0.1l0.2,0c0.2,0,0.4,0.1,1.1,0.9
		c0.2,0.3,0.6,1.2,1.2,2.7c0.6,1.4,1.6,3.8,2,4.3c0.1-0.2,0.1-0.5,0.1-0.8c0-0.3,0-0.5,0.1-0.7c0.1-0.4,0.4-0.5,0.6-0.5
		c0.2,0,0.3,0.1,0.5,0.1c0.2,0.1,0.4,0.2,0.6,0.3c0.1,0.1,0.3,0.2,0.4,0.2c0.1-0.7-0.2-0.8-0.8-1c-0.3-0.1-0.7-0.3-1.1-0.6
		c-0.5-0.4-1-1.2-0.9-2c0-0.5,0.6-0.5,0.9-0.6c0.1,0,0.4,0,0.5-0.1c-0.3-0.2-1.3-0.6-1.8-0.9c-0.8-0.3-1.3-0.5-1.5-0.7
		c-0.5-0.4-0.8-1.1-1.2-1.8c-0.4-0.7-0.8-1.4-1.2-1.8c0,0-0.1,0-0.1,0c0.2,0.2,0.6,1.2,0.6,1.6c0,0.3-0.1,0.5-0.2,0.6
		c-0.3,0.2-0.8,0.1-1.4-0.1c-0.6-0.2-1.4-0.3-1.6-0.1c0,0,0,0.2,0.1,0.3c0.1,0.3,0.2,1-0.4,1.1l-0.1,0c-0.3,0-0.5-0.3-1-0.8
		c-0.1-0.1-0.2-0.2-0.2-0.3c-0.1,0-0.4,0.2-0.5,0.3c-0.2,0.2-0.4,0.3-0.6,0.3h-0.2l-0.2-0.1c-0.1-0.1-0.1-0.2-0.1-0.4
		c0.2-3.6,1.4-8.4,4-10c0.5-0.3,0.6-0.4,0.7-0.5c0.1-0.1,0.2-0.1,0.3-0.2c0.1,0,0.1-0.1,0.2-0.1c-0.1-0.2-0.1-0.4,0-0.6
		c0.1-0.2,0.3-0.5,0.6-0.5c0,0,0.1,0,0.1,0c0.1,0,0.2,0,0.3,0c0-0.3,0.2-0.4,0.3-0.4c0.1,0,0.1,0,0.2-0.1c0.2-0.1,0.5-0.3,0.7,0.3
		l0,0.2c0,0.2,0,0.3,0.1,0.3c0.1,0.1,0.2,0.1,0.2,0.1c0.2,0,0.3-0.3,0.4-0.5c0.1-0.1,0.1-0.2,0.2-0.3c0.2-0.1,0.4-0.5,0.4-0.8
		c0-0.2,0-0.4-0.1-0.5c0-0.1,0,0,0,0c-0.1,0.1-0.2,0.3-0.5,0.3c-0.3,0-0.4-0.3-0.5-0.4c-0.7-1.4-1.6-3.2-0.2-4.4
		c0.2-0.2,0.3-0.2,0.5-0.2c0.2,0,0.2-0.1,0.3-0.4c0.1-0.3,0.3-0.4,0.4-0.4c0.3,0,0.5,0.3,1,0.9c0,0,0.1,0.1,0.1,0.2
		c0.3-1.6-0.3-2.2-0.7-2.6c-0.2-0.2-0.4-0.4-0.3-0.7c0-0.3,0.3-0.4,0.5-0.6c0.1-0.1,0.3-0.1,0.4-0.1c0.6,0,1.2,0.7,1.5,1
		c0.2,0.2,0.7,1,0.6,1.5c-0.4,1.8-0.3,4.5,0.2,6.4c0.1,0.5,0.1,0.9,0.2,1.4c0.1,1.8,0.1,3.9,6.3,5.5c0.3,0.1,0.5,0,0.5,0
		c0.2-0.3-0.3-1.8-0.7-2.6c-0.3-0.7-0.5-1.2-0.5-1.6c0-0.2-0.2-0.4-0.6-0.5c-0.3-0.1-0.6-0.3-0.7-0.7c-0.1-0.2,0-0.4,0.2-0.7
		c0.2-0.3,0.3-0.5,0.3-0.7c0-0.1-0.2-0.3-0.4-0.4c-0.4-0.2-1-0.6-0.8-1.5l0.1-0.3c-0.1,0-0.1,0-0.2-0.1c-0.4-0.1-0.8-0.2-1-0.5
		c-0.2-0.2-0.3-0.3-0.3-0.4c0,0,0,0.1,0,0.1c-0.1,0.2-0.2,0.7-0.7,0.7c-0.1,0-0.3,0-0.5-0.3c-0.5-0.7-0.7-2.8-0.4-3.9
		c0.1-0.3,0.4-0.4,0.5-0.4c0.1-0.3,0.1-0.6,0.1-0.8c0.1-0.8,0.2-1.2,1.2-2.2c0.2-0.2-0.1-0.9-0.5-1.5c-0.3-0.5-0.6-1-0.6-1.5
		c-0.2-2,0-3.3,0.6-3.9c0,0,0,0,0,0c0,0-0.1,0-0.2,0c-0.3,0-0.7,0-1.1,0.1c-0.4,0-0.9,0.1-1.2,0.1c-0.3,0-0.5,0-0.6-0.2
		c-0.1-0.1-0.1-0.3-0.1-0.3c0-0.1,0-0.2-0.1-0.5c0-0.2-0.1-0.3-0.1-0.4c0-0.1,0-0.2-0.1-0.2c0,0-0.2-0.1-0.3-0.2c-0.1,0-0.1,0-0.1,0
		c0,0,0,0-0.1,0.1c-0.1,0.1-0.4,0.3-0.7,0.2c-0.6-0.2-0.4-1.7-0.4-1.7c0.1-0.3,0.2-0.5,0.4-0.5c0.5,0,0.7,0.1,0.8,0.1
		c0.1,0,0.2,0,0.3-0.1c0.4-0.3,0.7-0.3,0.9-0.3c0.2,0,0.3,0,1.1-1.2c-0.1-0.1-0.1-0.1-0.2-0.2c-0.4-0.4-1.1-1.2-1.4-2.2
		c0-0.1-0.1-0.1-0.1-0.1c0,0,0,0,0,0c-0.2,0-0.6,0.1-0.8,0.5c-0.2,0.2-0.5,0.7-0.4,1.3c0,0.1,0.1,0.1,0.2,0.2
		c0.1,0.1,0.3,0.2,0.4,0.4l0.1,0.2l-0.1,0.2c-0.1,0.2-0.4,0.3-1.2,0.4c-0.7,0.1-1.8,0.3-2.3,0.6c-1.6,1-2.2,1.8-2.9,2.7
		c-0.3,0.4-0.6,0.8-1,1.2c0,0.1,0.1,0.2,0.1,0.3c0.1,0.2,0.3,0.4,0.2,0.6c-0.1,0.3-0.4,0.3-0.6,0.3c-0.1,0-0.5,0-0.5,0.1
		c0,0,0,0.1,0.1,0.2c0.3,0.7,0,1.2-0.2,1.5c-0.1,0.1-0.1,0.2-0.1,0.2c-0.4,0.9-1.3,1.3-2.3,1.6c-0.9,0.4-1.9,0.7-2.7,1.6
		c-0.2,0.3-0.5,0.5-0.8,0.5c-0.2,0-0.4-0.1-0.6-0.2c-0.1-0.1-0.3-0.2-0.6-0.2c-0.7-0.3-2.7,0.2-3.6,0.8c0,0,0,0.1,0.1,0.1
		c0.3,0.4,0.7,1.3,0.3,2.1c-0.2,0.4-0.5,0.9-1,0.9c-0.3,0-0.5-0.2-0.7-0.3c-0.1-0.1-0.2-0.1-0.3-0.2c0,0.1-0.1,0.4-0.1,0.5
		c-0.2,0.8-0.3,1.7-1,1.7c-0.4,0-0.8-0.4-1.5-2.1c-0.4-1.1-0.8-1.1-1.3-1.1c-0.2,0-0.4,0-0.6,0c-0.1,0-0.3,0-0.4,0c0,0,0,0.1,0,0.1
		c0.1,0.3,0.3,0.8,0,1.2c-0.2,0.3-0.7,0.6-1.3,0.6c-0.5,0-0.8-0.2-1-0.5c-0.1-0.1-0.1-0.1-0.2-0.1c-0.1,0-0.3,0.1-0.5,0.2
		c-0.2,0.1-0.5,0.3-0.8,0.3c0,0,0,0,0,0c-0.5,0-0.5-0.6-0.6-1.1c0-0.1,0-0.1,0-0.2c0,0-0.1,0-0.1,0c-0.2,0.1-0.2,0.3-0.2,0.6
		c0,0.3-0.1,0.6-0.4,0.9c-0.3,0.3-1.1,0.3-1.2,0.3c-0.3,0-0.5,0-0.7-0.1l-0.2-0.1l-0.1-0.2c-0.1-0.4,0.6-1.5,0.8-1.8l0.2-0.2
		c0.3-0.5,0.6-0.9,1.2-1c0.6-0.1,0.7-0.2,0.7-0.3c0-0.6-2.6-2.2-3.5-2.5c-0.4,0.2-0.4,0.3-0.5,0.8c0,0.2-0.1,0.3-0.1,0.6
		c-0.1,0.3-0.5,0.4-0.8,0.2c0,0,0,0,0,0c0,0,0,0,0,0c-0.1,0.2-0.2,0.6-0.6,0.6c-0.1,0-0.3-0.1-0.5-0.2c-0.2-0.1-0.3-0.3-0.3-0.4
		c-0.2,0-0.3,0-0.5,0c-0.7,0-1.3,0.3-2,0.7c-0.4,0.2-0.8,0.4-1.2,0.6c-0.1,0-0.2,0.1-0.4,0.1c-0.5,0.2-1.5,0.5-1.9,0.8
		c0,0-0.1,0-0.1,0.1c0,0,0.1,0.1,0.1,0.1c0.1,0.2,0.4,0.5,0.3,0.9c0,0.7-0.4,0.8-0.6,0.8c-0.3,0-0.6-0.2-1-0.7c0,0,0,0,0,0.1
		c-0.1,0.3-0.5,0.8-1,0.8l-0.2,0c-0.7-0.2-0.5-1.2-0.4-2c-0.2,0.2-0.2,0.3-0.3,0.5c-0.1,0.2-0.2,0.4-0.5,0.8l-0.1,0.1
		c-0.9,1.3-1.4,2.2-0.8,2.7c1.1,0.9,1.3,1.3,1,1.8c-0.1,0.3-0.4,0.5-0.7,0.5c-0.2,0-0.6-0.1-0.9-0.4c-0.2-0.2-0.3-0.2-0.3-0.2
		c0,0-0.1,0-0.3,0.2c-0.2,0.3-1.2,1.2-2,1.2c-0.2,0-0.4,0-0.5-0.1c-0.3-0.2-0.6-0.3-0.8-0.4c-0.2-0.1-0.5-0.2-0.4-0.5
		c0-0.3,0.3-0.4,0.6-0.5c1-0.3,1.7-1.9,2.3-3.3c0.4-1,0.8-1.9,1.3-2.4l0.3-0.3c0.7-0.7,1.1-1.2,1.2-1.3c0-0.1-0.1-0.1-0.1-0.1
		c-0.7,0-2.2,1.5-2.5,2c0.2,0.2,0.3,0.4,0.2,0.7c0,0.3-0.2,0.5-0.5,0.6c-0.4,0.1-0.6,0.9-0.5,1.3c0,0.2,0,0.3-0.1,0.5
		c-0.2,0.2-0.4,0.3-0.7,0.3l-0.2,0c-0.6-0.2-0.8-1.1-1.3-3.1c-0.1-0.5-0.3-1-0.4-1.4c0,0.1,0,0.2-0.1,0.4c0,0.4-0.1,0.9-0.7,1.2
		c-0.3,0.2-0.6,0.1-0.7-0.1c-0.2-0.2-0.1-0.4-0.1-0.6c0,0,0-0.1,0-0.1c-1.7-0.7-2.2-1.1-2.2-1.5c0-0.1,0-0.2,0-0.3
		c-0.5-0.1-1.4-0.3-1.9-0.3c-0.4-0.1-0.6-0.2-0.6-0.4c-0.2,0-0.3,0-0.4-0.1c-0.9,0.4-1.4,0.3-1.5-0.2c-0.1-0.5,0.3-1.2,0.8-1.4
		l0.1,0c1.1-0.4,1.2-0.7,1.2-0.8c0-0.1-0.2-0.4-0.6-0.7c0,0,0,0,0,0c-0.1,0.2-0.1,0.4-0.3,0.6c-1,1-1.8,1.5-2.4,1.5
		c-0.6,0-0.9-0.4-1.2-0.7c-0.4-0.5-0.6-0.7-1.2-0.4c0,0,0,0-0.1,0.1c-0.2,0.3-0.5,0.6-0.8,0.6c-0.2,0-0.5-0.1-0.5-0.8
		c0-0.3,0.1-0.5,0.2-0.7c0.1-0.3,0.2-0.5,0.1-0.6c0-0.1-0.1-0.2-0.1-0.2c-0.1,0.1-0.2,0.3-0.2,0.5c0,0.2-0.1,0.4-0.2,0.5
		c-0.3,0.3-0.5,0.5-0.8,0.5c-0.1,0-0.5-0.1-0.6-0.5c-0.2-0.6-0.1-1.7,0.4-2.1c0.4-0.3,1-1.1,1.4-1.7c0.7-1,0.9-1.3,1.3-1.3h0.2
		l0.2,0.1c0.2,0.2,0.2,0.5,0.1,0.7c-0.2,2,0.3,2.9,0.6,3.2c0.5,0.6,1.3,0.5,1.8-0.2c0.7-0.8,0.8-2.2,0.5-3.8
		c-0.1-0.2-0.2-0.8,0.4-0.9c0.1-0.3,0-0.5-0.1-0.8c-0.3-0.4-1-0.7-1.7-0.7c-0.2,0-0.5,0-0.6,0.1c0,0,0,0.2-0.1,0.3
		c0,0.3-0.1,0.8-0.6,0.9c-0.9,0.2-3.7,1.3-4.5,1.9c-0.3,0.2-0.4,0.4-0.5,0.6c-0.2,0.3-0.4,0.6-1.1,0.8c-0.2,0.1-0.4,0.1-0.6,0.1
		c-0.8,0-1.4-0.5-2-0.9c-0.5-0.4-1.1-0.8-1.4-0.6c0,0.1,0,0.2,0,0.4c0.1,0.9,0.1,1.1-0.1,1.3l-0.1,0.1l-0.3,0l-0.1-0.1
		c-0.2-0.2-0.4-0.3-0.5-0.4c-0.2-0.2-0.4-0.3-0.6-0.4c-1-0.3-1.5-0.1-2.4,0.3l-0.3,0.1c-0.6,0.2-1.3,0.9-1.7,1.3c0,0,0,0.1,0.1,0.3
		c0.1,0.1,0.1,0.2,0.2,0.3c0.1,0.3-0.1,0.5-0.2,0.6c0.1,0.6-0.4,1.1-0.8,1.5c-0.2,0.2-0.5,0.5-0.7,0.8c-0.1,0.2-0.2,0.5-0.2,0.8
		c-0.1,0.5-0.2,1-0.7,1l-0.2,0c-0.5-0.2-0.7-0.4-0.8-0.6c-0.1,0.1-0.3,0.2-0.5,0.3l-0.1,0.1c-0.1,0-0.2,0.1-0.2,0.2
		c0.1,0.1,0.2,0.2,0.3,0.2c0.2,0.1,0.5,0.2,0.6,0.5c0.2,0.7-0.2,1.1-0.6,1.5c-0.7,0.7-1.4,1.4-0.1,3.3c0.2,0.3,0,0.7-0.1,0.9
		c-0.1,0.1-0.1,0.2-0.1,0.2c-0.1,0.4,0.2,0.7,0.5,1.1c0.2,0.2,0.4,0.5,0.3,0.8c-0.1,0.3-0.5,0.4-1.3,0.5c-0.1,0-0.2,0-0.2,0
		c0,0.1,0,0.3-0.1,0.5c-0.2,0.2-0.5,0.5-0.9,0.5c-0.1,0-0.3,0-0.4-0.1c-1-0.9-1.4-0.9-1.6-0.9c-0.1,0.1-0.1,0.4-0.1,0.5
		c0,0.2,0,0.4-0.1,0.6l-0.1,0.1l-0.2,0l-0.1,0c-0.1,0-0.3-0.1-0.4-0.2c-1.1-0.4-3.1-1.1-3-2.6c0-0.5,0.2-0.7,0.3-0.9
		c0.1-0.2,0.2-0.2-0.1-0.7c-0.1-0.1-0.9-0.5-1.3-0.5c-0.2,0.3-0.3,0.4-0.3,0.5c0,0.2-0.1,0.5-0.4,1c-0.2,0.3,0.9,1.1,1.4,1.5
		c0.6,0.4,0.8,1,0.8,1.1c0,0.1,0,0.2,0,0.3c0,0.2,0.1,0.4,0,0.6c0,0.4-0.1,0.8-0.2,1.2c-0.2,0.8-0.3,1.5,0.1,2.1l0.3,0.4
		c0.5,0.7,1.1,1.5,1.4,2.3c0.1,0.4,0.3,0.7,0.5,1c0.4,0.7,0.7,1.4,0.6,2.3c-0.1,0.9,0,2.5,0.4,2.9c0.2,0.2,0.2,0.2,0.6,0
		c0.3-0.2,0.5-0.8,0.6-1.3c0.1-0.4,0.2-0.8,0.3-1.1c0.1-0.2,0.3-0.3,0.6-0.3c0-0.1,0-0.1,0-0.2c0-0.1,0-0.3,0-0.4
		c0-0.2,0-0.6,0.2-0.8c0.2-0.3,0.6-0.1,0.8,0c0.7-0.5,1.7-0.5,2-0.1c0.1,0.2,0.2,0.4,0.2,0.5c0,0,0,0,0,0c0.1,0,0.3-0.1,0.6-0.2
		c-0.1-0.2-0.2-0.4-0.2-0.6c0-0.1,0-0.5,0.4-0.5h0.3l0.1,0.3c0,0,0,0,0,0.1c0.2-0.2,0.4-1,0.4-1.5c0,0-0.1-0.1-0.1-0.1
		c-0.2-0.1-0.4-0.2-0.4-0.4l0-0.2l0.2-0.3c0.1-0.1,0.1-0.2,0.1-0.2c0,0,0,0,0,0c0,0,0-0.1-0.1-0.2c-0.1-0.2,0-0.4,0-0.5
		c0.2-0.3,0.5-0.3,0.8-0.3c0.1,0,0.4,0,0.4-0.1c1.1-0.9,1.5-1,1.7-1c0.2,0,0.4,0.1,0.5,0.3c0.1,0.3,0.2,0.5,0.2,0.6
		c0.1,0,0.2-0.1,0.3-0.1c0.2-0.1,0.4-0.1,0.7-0.1c0.7,0,1.9,0.2,2.3,0.7l0.1,0.1c0.3,0.3,0.8,0.9,1.1,1.7c0.3,0.6,0,1-0.1,1.3
		c-0.2,0.3-0.2,0.3-0.1,0.5c0.1,0.2,0.5,0.5,0.6,0.5c1.6,0.7,2.1,1.5,2.5,2.1c0.1,0.2,0.2,0.3,0.3,0.5c0.2,0.3,0.7,0.5,1.2,0.5
		c0.2,0,0.4-0.1,0.4-0.1c0.1-0.1,0-0.2,0-0.4c-0.2-0.1-0.3-0.2-0.5-0.5c-0.1-0.2-0.2-0.5,0-0.7c0.1-0.1,0.2-0.2,0.6-0.2
		c0.2,0,0.4,0,0.7,0c0.7-0.2,0.7-0.4,0.9-0.8c0.1-0.2,0.1-0.3,0.2-0.5c0.1-0.2,0.2-0.5,0.5-0.5c0.2,0,0.3,0.1,0.4,0.2
		c0.7,0.7,3.7,1.9,5.2,1.9c0.2,0,0.3,0,0.4,0c0.6-0.2,1,0.2,1.3,0.6c0.1,0.1,0.2,0.2,0.3,0.4c0.4,0.4,0,0.8-0.2,1.1
		c-0.1,0.1-0.2,0.3-0.2,0.4c0,0.1,0.1,0.1,0.2,0.2c0.2,0.1,0.4,0.2,0.6,0.4c0,0,0.1,0.1,0.1,0.1c0,0,0,0,0,0c0.2,0,0.4,0.1,0.5,0.4
		c0,0,0.3,0.9-0.1,1.1c0,0,0,0,0,0c0.4,0.3,0.7,0,1-0.2c0.3-0.2,0.5-0.4,0.8-0.4c0.2,0,0.4,0.1,0.6,0.3c0.7,1,0.8,2.2,0.9,3.4
		c0,0.6,0.1,1.2,0.2,1.9c0.1-0.1,0.3-0.2,0.4-0.2h0.1l0.1,0.1c0.4,0.2,0.6,0.5,0.7,0.6c0.1,0.2,0.2,0.3,1.1,0.4
		c0.8,0.1,1,0.8,1.1,1.3c0,0.2,0.1,0.4,0.2,0.5c0.2,0.6,1.5,1.6,2.1,1.6c0.1,0,0.1,0,0.1,0c0.7-0.4,2.5-1,4-1c0.8,0,1.4,0.2,1.8,0.5
		c0.5,0.5,1.5,1.3,2.3,1.3c0.2,0,0.4-0.1,0.6-0.2c0.2-0.2,0.2-0.3,0.1-0.7c-0.1-0.4-0.1-0.9,0.3-1.3c0.2-0.2,0.2-0.3,0.2-0.4
		c0.1-0.3,0.3-0.4,0.4-0.4c0.1,0,0.2,0,0.3,0.1c1.3,0.7,1.9,1,2.1,1.1c0.1,0.1,0.4,0.2,0.3,0.5l-0.1,0.3c0.1,0.2,0.4,0.4,0.7,0.8
		c0.4,0.4,0.9,0.3,1.6,0.1c0.7-0.2,1.5-0.3,2.1,0.1c0.1,0,0.1,0,0.2,0c0.1,0,0.1,0,0.2,0c0.2,0,0.5,0.1,0.6,0.5
		c0.1,0.3,0.3,0.7,1,0.7c1.3,0,3.1-1,3.9-1.7c0.3-0.2,0.7-0.2,1.3,0c0.4,0.1,0.9,0.3,1.4,0.3c0.7,0,1.4-0.3,2-0.9
		c0.1-0.1,0.1-0.5,0.1-0.7c0-0.6,0-1.2,0.4-1.8c0,0,0,0,0,0c-0.3-0.2-0.9-0.5-0.6-1.1c0.6-1.5,1.5-2.2,2.6-2.2
		c1.8,0,3.6,2.1,4.3,2.9c0.1,0.1,0.2,0.2,0.2,0.2c0.7,0.7,1.8,1.1,3.4,1.3c0.3,0,0.6,0,0.7,0c0-0.1-0.1-0.1-0.1-0.2
		c-0.2-0.3-0.5-0.5-0.3-0.9c0.1-0.3,0.5-0.3,0.6-0.3c0.1,0,0.2,0,0.3,0c0.5,0.1,0.6,0,0.9,0c0.2-0.1,0.5-0.2,1-0.2
		c0.5,0,0.6,0.4,0.7,0.6c0,0.1,0.1,0.3,0.2,0.4c0.7,1,0.8,2.5,0.5,4.8c0,0.2-0.2,0.5-0.6,0.5c-0.1,0-0.2,0-0.4,0
		C-252,166.6-252.1,166.5-252.2,166.5z M-265.5,128.6c0.1,0.2,0.2,0.4,0.4,0.7l0,0c0.2,0,0.4-0.2,0.7-0.4
		C-264.6,128.9-264.9,128.8-265.5,128.6z M-266.6,126.2c0.1,0.2,0.1,0.3,0,0.5l-0.1,0.2l-0.3,0c-0.2,0-0.6,0.1-0.6,0.3
		c0,0.3,0.3,0.6,0.7,0.6c0.2,0,0.4-0.1,0.6-0.4c0.7-0.9,0.5-1.2,0.5-1.2C-265.8,126.2-266.1,126.1-266.6,126.2z M-297.4,129.5
		l-0.1,0c-0.3-0.1-1.4-0.5-1.5-1.5c-0.2-1.1,0.9-2.4,3.2-3.9c0.5-0.3,1-0.5,1.5-0.5c0.4,0,0.8,0.1,1.2,0.2c0.4,0.1,0.7,0.2,1,0.1
		c0.8-0.2,1.2,0,1.5,0.2c0.2,0.1,0.4,0.2,0.8,0.2l0.2,0c0.4,0,0.8,0.1,1,0.2c0.3,0.2,0.4,0.4,0.4,0.7c0,0.8-1,1.5-2,1.3
		c-0.7-0.1-1.4-0.2-2-0.2c-2.7,0-3.7,1.5-4.3,2.4C-296.8,129.2-297,129.5-297.4,129.5L-297.4,129.5z M-294.3,124.3
		c-0.4,0-0.7,0.1-1.1,0.4c-2.7,1.8-3,2.8-2.9,3.2c0.1,0.5,0.7,0.8,1,0.9c0.1-0.1,0.2-0.3,0.3-0.4c0.6-1,1.8-2.8,4.9-2.8
		c0.6,0,1.4,0.1,2.1,0.2c0.6,0.1,1.1-0.3,1.1-0.6c0,0,0-0.1-0.1-0.1c-0.1,0-0.2-0.1-0.6-0.1l-0.2,0c-0.6,0-0.9-0.2-1.1-0.3
		c-0.3-0.1-0.5-0.2-1-0.1c-0.5,0.1-0.9,0-1.4-0.2C-293.7,124.4-294,124.3-294.3,124.3z M-301,128v-0.7c0.1,0,0.2,0,0.3-0.1
		c0,0,0-0.1,0-0.1c0-0.1-0.1-0.3-0.2-0.3v-0.7c0.6,0,0.9,0.5,0.9,1c0,0.3-0.1,0.5-0.3,0.7C-300.4,127.9-300.6,128-301,128z
		 M-279.9,127.4l-0.1-0.1l0-0.2c0,0,0.1-0.4,0.2-0.8c-0.3,0-0.6-0.4-0.8-0.6c-0.1-0.2-0.3-0.4-0.5-0.5c-0.4-0.2-0.7-0.5-0.7-0.8
		c-0.1-0.5,0.2-1,0.4-1.3c0.1-0.1,0.1-0.2,0.2-0.3c0.1-0.1,0.4-0.8,1-0.8c0.1,0,0.2,0,0.3,0.1c0.4,0.2,0.4,0.5,0.4,0.7
		c0,0.1,0,0.2,0.1,0.2l0.1,0.1l0,0.2c0,0.2-0.1,0.3-0.2,0.3c0,0-0.1,0.1-0.1,0.1c0.2,0,0.4,0.1,0.5,0.3c0.2,0.3,0.2,0.6,0.3,0.9
		c0.1,0,0.1,0,0.2,0v0.7c-0.2,0.1-0.7,1.3-0.8,1.6l-0.4,0L-279.9,127.4z M-280.2,122.6c-0.1,0-0.3,0.2-0.4,0.4
		c-0.1,0.1-0.1,0.2-0.2,0.4c-0.2,0.3-0.4,0.6-0.3,0.7c0,0.1,0.2,0.3,0.4,0.4c0.3,0.2,0.5,0.5,0.7,0.7c0.1,0.1,0.2,0.3,0.3,0.3
		c0.3-0.3,0.4-0.7,0.2-1.2c-0.1,0-0.1,0-0.1,0c-0.2,0-0.3-0.1-0.4-0.2c-0.2-0.3-0.1-0.6,0.1-1C-280.1,123-280.1,122.9-280.2,122.6
		C-280.2,122.7-280.2,122.7-280.2,122.6z M-328.5,121.3c-0.2,0-0.4-0.1-0.6-0.3c-0.5-0.7-0.4-2.1-0.3-2.7c0.1-0.3,0.3-0.4,0.7-0.4
		c0.2,0,0.5,0.1,0.6,0.2c0.1,0.1,0.8,0.5,0.9,0.9c0,0.2,0,0.3-0.1,0.4c0,0.1-0.1,0.1-0.2,0.1c0,0,0,0,0,0c0.3,0.4,0.6,0.8,0.4,1.3
		C-327.3,121.2-327.9,121.2-328.5,121.3L-328.5,121.3z M-328.8,118.5c-0.1,0.6-0.1,1.7,0.1,2c0,0.1,0.1,0.1,0.1,0.1v0.4l0-0.4
		c0.7,0,0.8-0.2,0.8-0.2c0-0.1-0.2-0.4-0.3-0.5c-0.2-0.3-0.5-0.6-0.4-0.9l0.1-0.3c0,0-0.1,0-0.1,0
		C-328.5,118.5-328.6,118.5-328.8,118.5C-328.7,118.5-328.7,118.5-328.8,118.5z M-253,119.6c-0.5,0-0.9-0.5-0.9-1.3
		c0-0.4,0.1-0.8,0.2-1.1c0.2-0.4,0.5-0.7,0.9-0.7v0.7c-0.1,0-0.2,0.1-0.2,0.3c-0.1,0.2-0.2,0.5-0.2,0.8c0,0.4,0.1,0.6,0.2,0.6V119.6
		z"/>
</g>
<g>
	<g>
		<path class="st1" d="M-205.7,180.2h-3.3c-2.1,0-4.4-1.6-4.6-5.1l-1.7-24.2c-2.4-0.5-4.1-2.5-4.3-5l-1-16.3
			c-0.1-1.7,0.4-3.4,1.6-4.7c1.2-1.3,2.8-2.1,4.5-2.2l1.5-0.1c-1.9-1.6-3-4-3-6.5c0-4.8,3.8-8.5,8.5-8.5c4.7,0,8.5,3.8,8.5,8.5
			c0,2.5-1.1,4.9-3,6.5l1.5,0.1c3.6,0.3,6.3,3.4,6.2,6.9l-1,16.3c-0.1,2.5-1.9,4.5-4.3,5l-1.7,24.2
			C-201.3,178.9-203.7,180.2-205.7,180.2z M-212.7,123.3l-1.8,0.1c-1.5,0.1-2.9,0.8-4,1.9c-1,1.2-1.5,2.6-1.4,4.2l1,16.3
			c0.2,2.2,1.8,4.1,4,4.4l0.3,0l1.7,24.8c0.2,3,2,4.4,3.8,4.4h3.3c1.7,0,3.7-1.1,3.8-4.4l1.7-24.8l0.3,0c2.2-0.3,3.9-2.2,4-4.4
			l1-16.4c0.2-3.1-2.3-5.8-5.5-6.1l-2.6-0.1h-1.3l1.1-0.7c2.2-1.4,3.5-3.9,3.5-6.5c0-4.3-3.5-7.8-7.8-7.8c-4.4,0-7.8,3.4-7.8,7.8
			c0,2.6,1.4,5.1,3.5,6.5l1.1,0.7H-212.7z"/>
	</g>
	<g>
		<path class="st1" d="M-176.7,180.2h-3.3c-2.1,0-4.4-1.6-4.6-5.1l-1.7-24.2c-2.4-0.5-4.1-2.5-4.3-5l-1-16.3
			c-0.1-1.7,0.4-3.4,1.6-4.7c1.2-1.3,2.8-2.1,4.5-2.2l1.5-0.1c-1.9-1.6-3-4-3-6.5c0-4.8,3.8-8.5,8.5-8.5c4.7,0,8.5,3.8,8.5,8.5
			c0,2.5-1.1,4.9-3,6.5l1.5,0.1c3.6,0.3,6.3,3.4,6.2,6.9l-1,16.3c-0.1,2.5-1.9,4.5-4.3,5l-1.7,24.2
			C-172.3,178.9-174.7,180.2-176.7,180.2z M-183.7,123.3l-1.8,0.1c-1.5,0.1-2.9,0.8-4,1.9c-1,1.2-1.5,2.6-1.4,4.2l1,16.3
			c0.2,2.2,1.8,4.1,4,4.4l0.3,0l1.7,24.8c0.2,3,2,4.4,3.8,4.4h3.3c1.7,0,3.7-1.1,3.8-4.4l1.7-24.8l0.3,0c2.2-0.3,3.9-2.2,4-4.4
			l1-16.4c0.2-3.1-2.3-5.8-5.5-6.1l-2.6-0.1h-1.3l1.1-0.7c2.2-1.4,3.5-3.9,3.5-6.5c0-4.3-3.5-7.8-7.8-7.8c-4.4,0-7.8,3.4-7.8,7.8
			c0,2.6,1.4,5.1,3.5,6.5l1.1,0.7H-183.7z"/>
	</g>
	<g>
		<path class="st1" d="M-147.7,180.2h-3.3c-2.1,0-4.4-1.6-4.6-5.1l-1.7-24.2c-2.4-0.5-4.1-2.5-4.3-5l-1-16.3
			c-0.1-1.7,0.4-3.4,1.6-4.7c1.2-1.3,2.8-2.1,4.5-2.2l1.5-0.1c-1.9-1.6-3-4-3-6.5c0-4.8,3.8-8.5,8.5-8.5c4.7,0,8.5,3.8,8.5,8.5
			c0,2.5-1.1,4.9-3,6.5l1.5,0.1c3.6,0.3,6.3,3.4,6.2,6.9l-1,16.3c-0.1,2.5-1.9,4.5-4.3,5l-1.7,24.2
			C-143.3,178.9-145.7,180.2-147.7,180.2z M-154.7,123.3l-1.8,0.1c-1.5,0.1-2.9,0.8-4,1.9c-1,1.2-1.5,2.6-1.4,4.2l1,16.3
			c0.2,2.2,1.8,4.1,4,4.4l0.3,0l1.7,24.8c0.2,3,2,4.4,3.8,4.4h3.3c1.7,0,3.7-1.1,3.8-4.4l1.7-24.8l0.3,0c2.2-0.3,3.9-2.2,4-4.4
			l1-16.4c0.2-3.1-2.3-5.8-5.5-6.1l-2.6-0.1h-1.3l1.1-0.7c2.2-1.4,3.5-3.9,3.5-6.5c0-4.3-3.5-7.8-7.8-7.8c-4.4,0-7.8,3.4-7.8,7.8
			c0,2.6,1.4,5.1,3.5,6.5l1.1,0.7H-154.7z"/>
	</g>
</g>
<g>
	<path class="st1" d="M-373.6,129c-3,0-5.4-2.4-5.4-5.4c0-1.6,0.7-3.1,2-4.2c0.7-0.5,1.4-0.9,2.2-1.1v-9.9c0-0.7,0.5-1.2,1.2-1.2
		s1.2,0.5,1.2,1.2v9.9c0.8,0.2,1.6,0.6,2.2,1.1c1.2,1,2,2.6,2,4.2C-368.2,126.6-370.6,129-373.6,129z M-373.6,108
		c-0.3,0-0.5,0.2-0.5,0.5v10.5l-0.3,0.1c-0.8,0.1-1.6,0.5-2.2,1c-1.1,0.9-1.7,2.2-1.7,3.6c0,2.6,2.1,4.7,4.7,4.7s4.7-2.1,4.7-4.7
		c0-1.4-0.6-2.7-1.7-3.6c-0.6-0.5-1.4-0.9-2.2-1l-0.3-0.1v-10.5C-373.1,108.2-373.3,108-373.6,108z"/>
	<path class="st1" d="M-405.6,129c-3,0-5.4-2.4-5.4-5.4c0-1.6,0.7-3.1,2-4.2c0.7-0.5,1.4-0.9,2.2-1.1v-9.9c0-0.7,0.5-1.2,1.2-1.2
		s1.2,0.5,1.2,1.2v9.9c0.8,0.2,1.6,0.6,2.2,1.1c1.2,1,2,2.6,2,4.2C-400.1,126.6-402.6,129-405.6,129z M-405.6,108
		c-0.3,0-0.5,0.2-0.5,0.5v10.5l-0.3,0.1c-0.8,0.1-1.6,0.5-2.2,1c-1.1,0.9-1.7,2.2-1.7,3.6c0,2.6,2.1,4.7,4.7,4.7s4.7-2.1,4.7-4.7
		c0-1.4-0.6-2.7-1.7-3.6c-0.6-0.5-1.4-0.9-2.2-1l-0.3-0.1v-10.5C-405.1,108.2-405.3,108-405.6,108z"/>
	<path class="st1" d="M-363.5,176.9h-52.1c-3.5,0-6.3-2.8-6.3-6.3v-32.5h64.7v32.5C-357.3,174.1-360.1,176.9-363.5,176.9z
		 M-421.2,138.9v31.8c0,3.1,2.5,5.5,5.5,5.5h52.1c3.1,0,5.5-2.5,5.5-5.5v-31.8H-421.2z M-357.3,133.2h-64.7v-13c0-0.4,0-0.9,0.1-1.3
		c0.2-1,0.7-1.9,1.3-2.7c0.1-0.2,0.3-0.3,0.4-0.4c0.9-0.9,2-1.5,3.2-1.7c0.4-0.1,0.8-0.1,1.3-0.1h5v0.8h-5c-0.4,0-0.8,0-1.1,0.1
		c-1.1,0.2-2,0.7-2.8,1.5c-0.1,0.1-0.2,0.3-0.4,0.4c-0.6,0.7-1,1.5-1.1,2.4c-0.1,0.4-0.1,0.7-0.1,1.1v12.2h63.2v-12.2
		c0-0.4,0-0.8-0.1-1.1c-0.4-2.2-2.1-3.9-4.3-4.3c-0.4-0.1-0.7-0.1-1.1-0.1h-5V114h5c0.4,0,0.9,0,1.3,0.1c2.5,0.5,4.4,2.4,4.9,4.9
		c0.1,0.4,0.1,0.8,0.1,1.3V133.2z"/>
	<path class="st3" d="M-400.5,112.7"/>
	<rect x="-400.5" y="114" class="st1" width="21.9" height="0.8"/>
</g>
<g>
	
		<image style="overflow:visible;" width="405" height="394" xlink:href="57BB905E.png"  transform="matrix(1 0 0 1 -489.6667 293.9496)">
	</image>
	
		<image style="overflow:visible;" width="203" height="388" xlink:href="57BB9062.png"  transform="matrix(1 0 0 1 -356.6667 297.9496)">
	</image>
	
		<image style="overflow:visible;" width="203" height="390" xlink:href="57BB9065.png"  transform="matrix(1 0 0 1 -356.6667 295.9496)">
	</image>
	
		<image style="overflow:visible;" width="73" height="162" xlink:href="57BB9066.png"  transform="matrix(1 0 0 1 -422.6667 297.9496)">
	</image>
	
		<image style="overflow:visible;" width="92" height="218" xlink:href="57BB9064.png"  transform="matrix(1 0 0 1 -486.6667 414.9496)">
	</image>
</g>
<g>
	<path class="st4" d="M-313,6.4c-1.2,0-2.3-0.2-3.4-0.5c-0.5-0.2-1.2,0-1.5,0.3l-2.2,1.6c-2.5-1.3-4.1-2.9-5.4-5.4l1.6-2.1
		c0.4-0.4,0.5-1,0.4-1.5c-0.4-1.1-0.5-2.2-0.5-3.4c0-0.8-0.7-1.5-1.5-1.5h-3.5c-0.8,0-1.5,0.7-1.5,1.5c0,9.6,7.9,17.5,17.5,17.5
		c0.8,0,1.5-0.7,1.5-1.5V7.9C-311.5,7-312.2,6.4-313,6.4z"/>
</g>
<g>
	<path class="st5" d="M-289,6.4c-1.2,0-2.3-0.2-3.4-0.5c-0.5-0.2-1.2,0-1.5,0.3l-2.2,1.6c-2.5-1.3-4.1-2.9-5.4-5.4l1.6-2.1
		c0.4-0.4,0.5-1,0.4-1.5c-0.4-1.1-0.5-2.2-0.5-3.4c0-0.8-0.7-1.5-1.5-1.5h-3.5c-0.8,0-1.5,0.7-1.5,1.5c0,9.6,7.9,17.5,17.5,17.5
		c0.8,0,1.5-0.7,1.5-1.5V7.9C-287.5,7-288.2,6.4-289,6.4z"/>
</g>
<g>
	<path class="st6" d="M34.2-20.1c31.3,0,56.7,25.4,56.7,56.7c0,31.3-25.4,56.7-56.7,56.7c-31.3,0-56.7-25.4-56.7-56.7
		C-22.4,5.3,2.9-20.1,34.2-20.1"/>
	<path class="st7" d="M34.2,99.3c-3.3,0-6-2.7-6-6c0-3.3,2.7-6,6-6c3.3,0,6,2.7,6,6"/>
	<path class="st7" d="M40.3,93.3c0,3.3-2.7,6-6,6"/>
	<path class="st8" d="M34.2,99.3c-3.3,0-6-2.7-6-6c0-3.3,2.7-6,6-6c3.3,0,6,2.7,6,6C40.3,96.6,37.6,99.3,34.2,99.3"/>
	<line class="st9" x1="34.7" y1="10" x2="34.7" y2="2.9"/>
	<line class="st9" x1="23.4" y1="12.2" x2="19.2" y2="6.5"/>
	<line class="st9" x1="14.6" y1="19.9" x2="8.5" y2="16.3"/>
	<line class="st9" x1="12.7" y1="42.1" x2="6.6" y2="45.6"/>
	<line class="st9" x1="11.3" y1="30.4" x2="4.2" y2="30.4"/>
	<line class="st9" x1="45" y1="12.2" x2="49.2" y2="6.5"/>
	<line class="st9" x1="53.8" y1="19.9" x2="59.9" y2="16.3"/>
	<line class="st9" x1="55.7" y1="42.1" x2="61.8" y2="45.6"/>
	<line class="st9" x1="57.1" y1="30.4" x2="64.2" y2="30.4"/>
	<path class="st9" d="M49.8,33.4c0-8.9-7.5-16.1-16.5-15.6c-7.6,0.4-13.9,6.4-14.7,13.9C18.1,37.1,20.3,42,24,45.2
		c2.2,1.9,3.6,4.7,3.6,7.6v8.9c0,3.7,3,6.6,6.6,6.6s6.6-3,6.6-6.6v-8.8c0-3,1.4-5.8,3.6-7.7C47.8,42.3,49.8,38.1,49.8,33.4z"/>
	<line class="st9" x1="28.3" y1="57.1" x2="40.1" y2="57.1"/>
	<polyline class="st9" points="25.2,33.8 32,40.6 42.5,30.1 	"/>
</g>
<g>
	<circle class="st6" cx="31.9" cy="161.2" r="56.7"/>
	<path class="st7" d="M92.6,175c0,3.3-2.7,6-6,6c-3.3,0-6-2.7-6-6c0-3.3,2.7-6,6-6C89.9,169,92.6,171.7,92.6,175"/>
	<circle class="st8" cx="86.6" cy="175" r="6"/>
	<path class="st7" d="M23.5,156.4l-10,2.4c-1.2,0.3-2.4,0.2-3.5-0.4l-5.7-3.4v17.9l22.4,13c3.5,2,7.8,1.9,11.1-0.2l9-5.5
		c1.3-0.8,1.6-2.7,0.5-3.9l-17.8-18.1C27.9,156.5,25.6,155.8,23.5,156.4"/>
	<path class="st9" d="M23.5,156.4l-10,2.4c-1.2,0.3-2.4,0.2-3.5-0.4l-5.7-3.4v17.9l22.4,13c3.5,2,7.8,1.9,11.1-0.2l9-5.5
		c1.3-0.8,1.6-2.7,0.5-3.9l-17.8-18.1C27.9,156.5,25.6,155.8,23.5,156.4z"/>
	<path class="st7" d="M59.5,154.9l-4.7,3c-1.5,0.9-3.2,1.2-4.9,0.7l-7.2-2.1c-2.8-0.8-5.9-0.2-8.2,1.7l-10.6,9l2.4,2
		c1.9,1.6,4.6,1.9,6.8,0.7l5.3-2.9l9.5,10.6l11.5-4.8L59.5,154.9z"/>
	<path class="st9" d="M59.5,154.9l-4.7,3c-1.5,0.9-3.2,1.2-4.9,0.7l-7.2-2.1c-2.8-0.8-5.9-0.2-8.2,1.7l-10.6,9l2.4,2
		c1.9,1.6,4.6,1.9,6.8,0.7l5.3-2.9l9.5,10.6l11.5-4.8L59.5,154.9z"/>
	<path class="st7" d="M24.4,187.4l-8.9-6.6c-1-0.8-1.2-2.2-0.5-3.2l1.1-1.5c0.8-1,2.2-1.2,3.2-0.5l8.9,6.6c1,0.8,1.2,2.2,0.5,3.2
		l-1.1,1.5C26.9,187.9,25.4,188.1,24.4,187.4"/>
	<path class="st9" d="M24.4,187.4l-8.9-6.6c-1-0.8-1.2-2.2-0.5-3.2l1.1-1.5c0.8-1,2.2-1.2,3.2-0.5l8.9,6.6c1,0.8,1.2,2.2,0.5,3.2
		l-1.1,1.5C26.9,187.9,25.4,188.1,24.4,187.4z"/>
	<line class="st7" x1="36.1" y1="144.6" x2="37.4" y2="134.6"/>
	<line class="st9" x1="36.1" y1="144.6" x2="37.4" y2="134.6"/>
	<line class="st7" x1="43.2" y1="147.2" x2="46.8" y2="140.1"/>
	<line class="st9" x1="43.2" y1="147.2" x2="46.8" y2="140.1"/>
	<line class="st7" x1="28.2" y1="144.6" x2="26.9" y2="134.6"/>
	<line class="st9" x1="28.2" y1="144.6" x2="26.9" y2="134.6"/>
	<line class="st7" x1="21.1" y1="147.2" x2="17.5" y2="140.1"/>
	<line class="st9" x1="21.1" y1="147.2" x2="17.5" y2="140.1"/>
</g>
<g>
	<path class="st6" d="M-19.7,289.1"/>
	<path class="st6" d="M-19.7,289.1c-0.4-2.6-0.5-5.2-0.5-7.8c0-31.3,25.4-56.7,56.7-56.7c31.3,0,56.7,25.4,56.7,56.7
		c0,31.3-25.4,56.7-56.7,56.7c-24.3,0-45.1-15.3-53.1-36.8"/>
	<circle class="st8" cx="-18.2" cy="295.1" r="6"/>
	<ellipse class="st9" cx="36.5" cy="275.4" rx="9.3" ry="9.4"/>
	<path class="st9" d="M54.9,312.5H18v-6c0-8.3,6.7-15,15-15h7.6c7.9,0,14.3,6.4,14.3,14.3V312.5z"/>
	<polygon class="st9" points="36.3,307.4 39.6,304.9 37.8,291.8 34.8,291.8 33,304.9 	"/>
	<line class="st9" x1="25.2" y1="312.5" x2="25.2" y2="304.5"/>
	<line class="st9" x1="48.2" y1="312.5" x2="48.2" y2="304.5"/>
	<circle class="st9" cx="23.2" cy="261" r="2.3"/>
	<circle class="st9" cx="36" cy="252.3" r="2.3"/>
	<circle class="st9" cx="49.7" cy="261.3" r="2.3"/>
	<line class="st9" x1="25" y1="259.8" x2="33.7" y2="254"/>
	<line class="st9" x1="47.7" y1="259.8" x2="39" y2="254"/>
</g>
<g>
	<circle class="st6" cx="33" cy="399.8" r="56.7"/>
	<path class="st10" d="M50,386.8c0-0.3,0.2-0.7,0.5-0.9l7.8-5.3c0.5-0.3,1.1-0.2,1.4,0.3c0.3,0.5,0.2,1.1-0.3,1.4l-7.8,5.3
		c-0.5,0.3-1.1,0.2-1.4-0.3C50.1,387.3,50,387,50,386.8"/>
	<path class="st11" d="M50,386.8c0-0.3,0.2-0.7,0.5-0.9l7.8-5.3c0.5-0.3,1.1-0.2,1.4,0.3c0.3,0.5,0.2,1.1-0.3,1.4l-7.8,5.3
		c-0.5,0.3-1.1,0.2-1.4-0.3C50.1,387.3,50,387,50,386.8z"/>
	<path class="st10" d="M51.8,395.8c0-0.5,0.4-0.9,0.9-1l15-2.4c0.6-0.1,1.1,0.3,1.2,0.9c0.1,0.6-0.3,1.1-0.9,1.2l-15,2.4
		c-0.6,0.1-1.1-0.3-1.2-0.9v0L51.8,395.8z"/>
	<path class="st11" d="M51.8,395.8c0-0.5,0.4-0.9,0.9-1l15-2.4c0.6-0.1,1.1,0.3,1.2,0.9c0.1,0.6-0.3,1.1-0.9,1.2l-15,2.4
		c-0.6,0.1-1.1-0.3-1.2-0.9v0L51.8,395.8z"/>
	<path class="st10" d="M50,414.2c0-0.6,0.5-1,1-1c0.2,0,0.4,0.1,0.6,0.2l7.8,5.3c0.5,0.3,0.6,1,0.3,1.4c-0.3,0.5-1,0.6-1.4,0.3
		c0,0,0,0-0.1,0l-7.8-5.3C50.2,414.8,50,414.5,50,414.2"/>
	<path class="st11" d="M50,414.2c0-0.6,0.5-1,1-1c0.2,0,0.4,0.1,0.6,0.2l7.8,5.3c0.5,0.3,0.6,1,0.3,1.4c-0.3,0.5-1,0.6-1.4,0.3
		c0,0,0,0-0.1,0l-7.8-5.3C50.2,414.8,50,414.5,50,414.2z"/>
	<path class="st10" d="M51.8,405.2V405c0.1-0.6,0.6-1,1.2-0.9l0,0l15,2.4c0.6,0.1,1,0.6,0.9,1.2c-0.1,0.6-0.6,1-1.2,0.9l-15-2.4
		C52.1,406.1,51.8,405.7,51.8,405.2"/>
	<path class="st11" d="M51.8,405.2V405c0.1-0.6,0.6-1,1.2-0.9l0,0l15,2.4c0.6,0.1,1,0.6,0.9,1.2c-0.1,0.6-0.6,1-1.2,0.9l-15-2.4
		C52.1,406.1,51.8,405.7,51.8,405.2z"/>
	<polyline class="st12" points="4.4,397.4 43.7,379.6 43.7,420 4.4,404 	"/>
	<rect x="-1.8" y="394" class="st12" width="6.2" height="13.1"/>
	<path class="st12" d="M23.6,413.2c-1.4,2.9-4.9,4.1-7.8,2.7c-2.9-1.4-4.1-4.9-2.7-7.8"/>
	<path class="st7" d="M2.9,357.7c0,3.3-2.7,6-6,6s-6-2.7-6-6c0-3.3,2.7-6,6-6S2.9,354.4,2.9,357.7"/>
	<circle class="st8" cx="-3.1" cy="357.7" r="6"/>
</g>
<g>
	<circle class="st6" cx="31.4" cy="526.6" r="56.7"/>
	<path class="st7" d="M74.6,485.2c0,3.3-2.7,6-6,6c-3.3,0-6-2.7-6-6c0-3.3,2.7-6,6-6C71.9,479.2,74.6,481.9,74.6,485.2"/>
	<circle class="st8" cx="68.6" cy="485.2" r="6"/>
	<path class="st13" d="M28.2,541v-17.2V517h7.2c3.4,0,6.2,2.8,6.2,6.2c0,3.4-2.8,6.2-6.2,6.2H25.2"/>
	<line class="st14" x1="25.3" y1="533.9" x2="35.6" y2="533.9"/>
	<path class="st15" d="M28.2,541v-17.2V517h7.2c3.4,0,6.2,2.8,6.2,6.2c0,3.4-2.8,6.2-6.2,6.2H25.2"/>
	<line class="st15" x1="25.3" y1="533.9" x2="35.6" y2="533.9"/>
	<path class="st16" d="M59.6,518c-0.4-8.3-7.2-14.9-15.5-15.2c-5.1-0.2-9.6,2-12.7,5.5c-3.1-3.5-7.6-5.7-12.7-5.5
		c-8.2,0.3-14.9,6.9-15.5,15c-0.3,4.8,1.9,8.7,4.6,12.4c3.9,4.8,12.7,15.2,22.7,23.8c0.4,0.4,1.1,0.4,1.6,0
		c9.8-8.4,18.5-18.6,22.5-23.5C57.5,526.8,59.8,522.9,59.6,518z"/>
</g>
<g>
	<line class="st17" x1="-180.4" y1="900" x2="-401.9" y2="816.4"/>
	<line class="st18" x1="-148.7" y1="882.6" x2="-372.3" y2="798.4"/>
	<line class="st19" x1="-214.9" y1="918.4" x2="-438.4" y2="834.1"/>
	<line class="st19" x1="-287.4" y1="786.5" x2="-495.7" y2="903.2"/>
	<line class="st17" x1="-254.3" y1="798.7" x2="-462.6" y2="915.4"/>
	<line class="st18" x1="-223.5" y1="811.2" x2="-431.8" y2="928"/>
	<line class="st17" x1="-187.4" y1="826.4" x2="-395.7" y2="943.2"/>
</g>
<g>
	<line class="st7" x1="-144" y1="2" x2="-144" y2="10"/>
	<line class="st20" x1="-144" y1="2" x2="-144" y2="10"/>
	<line class="st7" x1="-140" y1="6" x2="-148" y2="6"/>
	<line class="st20" x1="-140" y1="6" x2="-148" y2="6"/>
</g>
<g>
	<path class="st21" d="M-67.6,13.2l-7,5.9L-86.7,8.7l-2.8-7.9l4.2-7h6.9l3.9,4.4l3.9-4.4h6.9l4.2,7c0,0-1.7,4.7-1.7,4.7h-6.6"/>
	<circle class="st22" cx="-71.5" cy="5.8" r="3.2"/>
	<line class="st23" x1="-66.1" y1="0.7" x2="-68.5" y2="3.2"/>
	<line class="st23" x1="-76.9" y1="0.7" x2="-74.4" y2="3.2"/>
	<line class="st23" x1="-66.1" y1="10.9" x2="-68.5" y2="8.5"/>
	<line class="st23" x1="-76.9" y1="10.9" x2="-74.4" y2="8.5"/>
</g>
<g>
	<g>
		<line class="st24" x1="-3.6" y1="649.3" x2="-2" y2="650.2"/>
		<line class="st25" x1="2.9" y1="653.1" x2="65.8" y2="690.1"/>
		<line class="st24" x1="68.3" y1="691.6" x2="69.9" y2="692.5"/>
		<line class="st24" x1="-14.4" y1="649.3" x2="-16" y2="650.2"/>
		<line class="st25" x1="-20.9" y1="653.1" x2="-83.8" y2="690.1"/>
		<line class="st24" x1="-86.3" y1="691.6" x2="-87.9" y2="692.5"/>
		<line class="st26" x1="-21.4" y1="743.3" x2="-22.9" y2="742.5"/>
		<line class="st27" x1="-27.3" y1="739.9" x2="-84.2" y2="706.4"/>
		<line class="st26" x1="-86.4" y1="705.1" x2="-87.9" y2="704.2"/>
		<line class="st28" x1="-0.3" y1="745.5" x2="1.2" y2="744.6"/>
		<line class="st29" x1="5.9" y1="741.9" x2="66" y2="706.5"/>
		<line class="st28" x1="68.4" y1="705.1" x2="69.9" y2="704.2"/>
		<circle class="st8" cx="-9.6" cy="645.3" r="6"/>
		<circle class="st30" cx="-9.6" cy="748.4" r="12.8"/>
		<circle class="st8" cx="74.9" cy="698.5" r="6"/>
		<circle class="st8" cx="-92.6" cy="698.5" r="6"/>
		<line class="st24" x1="-14.4" y1="850.3" x2="-16" y2="849.4"/>
		<line class="st25" x1="-20.9" y1="846.5" x2="-83.8" y2="809.4"/>
		<line class="st24" x1="-86.3" y1="808" x2="-87.9" y2="807.1"/>
		<line class="st24" x1="-3.6" y1="850.3" x2="-2" y2="849.4"/>
		<line class="st25" x1="2.9" y1="846.5" x2="65.8" y2="809.4"/>
		<line class="st24" x1="68.3" y1="808" x2="69.9" y2="807.1"/>
		<circle class="st8" cx="-9.6" cy="851.3" r="6"/>
		<circle class="st8" cx="74.9" cy="801.4" r="6"/>
		<circle class="st8" cx="-92.6" cy="801.4" r="6"/>
		<line class="st31" x1="75" y1="795.3" x2="75" y2="793.7"/>
		<line class="st32" x1="75" y1="788.7" x2="75" y2="708.7"/>
		<line class="st31" x1="75" y1="706.2" x2="75" y2="704.5"/>
		<line class="st33" x1="-9.6" y1="844.1" x2="-9.6" y2="842.5"/>
		<line class="st34" x1="-9.6" y1="837.9" x2="-9.6" y2="762.9"/>
		<line class="st33" x1="-9.6" y1="760.5" x2="-9.6" y2="758.9"/>
		<line class="st31" x1="-92.6" y1="795.3" x2="-92.6" y2="793.7"/>
		<line class="st32" x1="-92.6" y1="788.7" x2="-92.6" y2="708.7"/>
		<line class="st31" x1="-92.6" y1="706.2" x2="-92.6" y2="704.5"/>
		<line class="st35" x1="-85.3" y1="784.7" x2="-13.3" y2="682.4"/>
		<line class="st35" x1="-2.9" y1="726.1" x2="55.7" y2="640.3"/>
		<line class="st35" x1="64.4" y1="667" x2="64.4" y2="678.9"/>
		<line class="st35" x1="70.4" y1="673" x2="58.4" y2="673"/>
		<circle class="st35" cx="-7.4" cy="672.5" r="5.3"/>
		<polyline class="st36" points="78,824.9 104,813.1 104,839.9 78,829.3 		"/>
		<rect x="73.9" y="822.6" class="st35" width="4.1" height="8.7"/>
		<path class="st35" d="M90.7,835.4c-0.9,1.9-3.2,2.7-5.2,1.8c-1.9-0.9-2.7-3.3-1.8-5.2"/>
		<polyline class="st37" points="-116.2,803.5 -112.2,826.2 -118.6,831.7 -124.9,826.2 -120.8,803.5 		"/>
		<line class="st37" x1="-126.1" y1="818.3" x2="-118.4" y2="818.3"/>
		<polygon class="st37" points="-116.2,795.3 -120.9,795.3 -123,798 -120.8,803.5 -116.2,803.5 -114.1,798 		"/>
		<polyline class="st36" points="-116.2,803.5 -112.2,826.2 -118.6,831.7 -124.9,826.2 -120.8,803.5 		"/>
		<line class="st36" x1="-126.1" y1="818.3" x2="-118.4" y2="818.3"/>
		<polygon class="st36" points="-116.2,795.3 -120.9,795.3 -123,798 -120.8,803.5 -116.2,803.5 -114.1,798 		"/>
		<path class="st36" d="M-112.4,704.6c-0.3-4.8-4.2-8.6-9-8.8c-2.9-0.1-5.6,1.1-7.3,3.2c-1.8-2-4.4-3.3-7.3-3.2
			c-4.7,0.2-8.6,4-8.9,8.7c-0.2,2.8,1.1,5,2.7,7.2c2.3,2.8,7.3,8.8,13.1,13.7c0.3,0.2,0.6,0.2,0.9,0c5.7-4.8,10.7-10.7,13-13.6
			C-113.6,709.7-112.2,707.5-112.4,704.6z"/>
	</g>
	<polyline class="st35" points="75.1,618.8 70.1,622.4 73.6,633.3 64.4,626.6 55.1,633.3 58.7,622.4 49.4,615.7 60.8,615.7 
		64.4,604.8 67.9,615.7 79.3,615.7 	"/>
</g>
<g>
	<path class="st0" d="M-203.6-1.8c-0.2,0.2-0.2,0.5-0.1,0.7l3.9,4.7l-3.9,4.7c-0.2,0.2-0.1,0.5,0.1,0.7c0.2,0.2,0.5,0.1,0.7-0.1
		l4.2-5c0.1-0.1,0.1-0.2,0.1-0.3c0-0.1,0-0.2-0.1-0.3l-4.2-5C-203.1-2-203.4-2-203.6-1.8z"/>
</g>
<g>
	<path class="st0" d="M-209.8-1.8c0.2,0.2,0.2,0.5,0.1,0.7l-3.9,4.7l3.9,4.7c0.2,0.2,0.1,0.5-0.1,0.7c-0.2,0.2-0.5,0.1-0.7-0.1
		l-4.2-5c-0.1-0.1-0.1-0.2-0.1-0.3c0-0.1,0-0.2,0.1-0.3l4.2-5C-210.3-2-210-2-209.8-1.8z"/>
</g>
<g>
	<path class="st1" d="M-142.1,19.3c-0.4,0.3-0.4,0.8-0.1,1.2l6.9,8.2l-6.9,8.2c-0.3,0.4-0.3,0.9,0.1,1.2c0.4,0.3,0.9,0.3,1.2-0.1
		l7.3-8.8c0.1-0.2,0.2-0.4,0.2-0.6c0-0.2-0.1-0.4-0.2-0.6l-7.3-8.8C-141.2,19-141.8,19-142.1,19.3z"/>
</g>
<g>
	<path class="st1" d="M-152.9,19.3c0.4,0.3,0.4,0.8,0.1,1.2l-6.9,8.2l6.9,8.2c0.3,0.4,0.3,0.9-0.1,1.2c-0.4,0.3-0.9,0.3-1.2-0.1
		l-7.3-8.8c-0.1-0.2-0.2-0.4-0.2-0.6c0-0.2,0.1-0.4,0.2-0.6l7.3-8.8C-153.8,19-153.3,19-152.9,19.3z"/>
</g>
<g>
	<path class="st5" d="M-191,19.3c-0.4,0.3-0.4,0.8-0.1,1.2l6.9,8.2l-6.9,8.2c-0.3,0.4-0.3,0.9,0.1,1.2c0.4,0.3,0.9,0.3,1.2-0.1
		l7.3-8.8c0.1-0.2,0.2-0.4,0.2-0.6c0-0.2-0.1-0.4-0.2-0.6l-7.3-8.8C-190.1,19-190.6,19-191,19.3z"/>
</g>
<g>
	<path class="st5" d="M-201.8,19.3c0.4,0.3,0.4,0.8,0.1,1.2l-6.9,8.2l6.9,8.2c0.3,0.4,0.3,0.9-0.1,1.2c-0.4,0.3-0.9,0.3-1.2-0.1
		l-7.3-8.8c-0.1-0.2-0.2-0.4-0.2-0.6c0-0.2,0.1-0.4,0.2-0.6l7.3-8.8C-202.7,19-202.1,19-201.8,19.3z"/>
</g>
<g>
	<path class="st1" d="M-172.6-1.8c-0.2,0.2-0.2,0.5-0.1,0.7l3.9,4.7l-3.9,4.7c-0.2,0.2-0.1,0.5,0.1,0.7c0.2,0.2,0.5,0.1,0.7-0.1
		l4.2-5c0.1-0.1,0.1-0.2,0.1-0.3c0-0.1,0-0.2-0.1-0.3l-4.2-5C-172.1-2-172.4-2-172.6-1.8z"/>
</g>
<g>
	<path class="st1" d="M-178.8-1.8c0.2,0.2,0.2,0.5,0.1,0.7l-3.9,4.7l3.9,4.7c0.2,0.2,0.1,0.5-0.1,0.7c-0.2,0.2-0.5,0.1-0.7-0.1
		l-4.2-5c-0.1-0.1-0.1-0.2-0.1-0.3c0-0.1,0-0.2,0.1-0.3l4.2-5C-179.3-2-179-2-178.8-1.8z"/>
</g>
<g>
	<line class="st35" x1="-122" y1="0" x2="-122" y2="12"/>
	<line class="st35" x1="-116" y1="6" x2="-128" y2="6"/>
</g>
<g id="Mail_1">
	<g id="_Group_">
		<path id="_Rectangle_" class="st4" d="M-272.9-3.6h16.7c0.5,0,1,0.5,1,1V8.9c0,0.5-0.5,1-1,1h-16.7c-0.5,0-1-0.5-1-1V-2.6
			C-273.9-3.2-273.4-3.6-272.9-3.6z"/>
		<rect id="_Rectangle_2" x="-261" y="-1" class="st4" width="3.2" height="3.9"/>
		<line id="_Path_" class="st4" x1="-271.3" y1="7.3" x2="-264.9" y2="7.3"/>
		<line id="_Path_2" class="st4" x1="-271.3" y1="5.4" x2="-268.1" y2="5.4"/>
	</g>
</g>
<g>
	<path class="st0" d="M-384.6,35.6c0.1,0.4-0.3,1.2-1.3,2.5c-0.1,0.2-0.3,0.4-0.6,0.7c-0.2,0.3-0.4,0.5-0.5,0.6
		c-0.1,0.1-0.2,0.3-0.3,0.4c-0.1,0.2-0.1,0.3-0.1,0.4c0,0.1,0.1,0.2,0.1,0.3c0.1,0.1,0.1,0.2,0.3,0.4c0.1,0.1,0.3,0.3,0.5,0.5
		c0,0,0,0,0,0c0.8,0.8,1.4,1.4,1.6,1.9c0,0,0,0.1,0.1,0.1c0,0,0,0.1,0.1,0.2c0,0.1,0,0.2,0,0.3c0,0.1-0.1,0.2-0.2,0.2
		s-0.3,0.1-0.5,0.1l-2.2,0c-0.1,0-0.3,0-0.5,0c-0.2-0.1-0.3-0.1-0.4-0.2l-0.2-0.1c-0.2-0.1-0.4-0.3-0.6-0.6
		c-0.2-0.2-0.4-0.5-0.6-0.7c-0.2-0.2-0.3-0.4-0.5-0.5c-0.2-0.1-0.3-0.2-0.5-0.1c0,0,0,0-0.1,0c0,0-0.1,0.1-0.1,0.1
		c-0.1,0.1-0.1,0.2-0.2,0.3c-0.1,0.1-0.1,0.3-0.1,0.4c0,0.2-0.1,0.4-0.1,0.7c0,0.1,0,0.2,0,0.2c0,0.1,0,0.1-0.1,0.2l0,0
		c-0.1,0.1-0.3,0.2-0.5,0.2h-1c-0.4,0-0.8,0-1.3-0.1c-0.4-0.1-0.8-0.3-1.1-0.5c-0.3-0.2-0.6-0.4-0.9-0.6c-0.3-0.2-0.5-0.4-0.6-0.5
		l-0.2-0.2c-0.1-0.1-0.1-0.1-0.2-0.3c-0.1-0.1-0.3-0.4-0.6-0.8s-0.6-0.8-0.9-1.3c-0.3-0.5-0.7-1.1-1.1-1.8c-0.4-0.8-0.8-1.5-1.1-2.3
		c0-0.1-0.1-0.2-0.1-0.2c0-0.1,0-0.1,0-0.1l0-0.1c0.1-0.1,0.3-0.2,0.5-0.2l2.4,0c0.1,0,0.1,0,0.2,0.1c0.1,0,0.1,0.1,0.1,0.1l0,0
		c0.1,0.1,0.2,0.2,0.2,0.3c0.1,0.3,0.2,0.6,0.4,0.9c0.1,0.3,0.3,0.5,0.4,0.7l0.1,0.3c0.2,0.3,0.3,0.6,0.5,0.9
		c0.2,0.3,0.3,0.5,0.4,0.6s0.2,0.3,0.4,0.3c0.1,0.1,0.2,0.1,0.3,0.1c0.1,0,0.2,0,0.2,0c0,0,0,0,0,0s0.1-0.1,0.1-0.2
		c0.1-0.1,0.1-0.2,0.1-0.4c0-0.2,0.1-0.4,0.1-0.7c0-0.3,0-0.7,0-1.1c0-0.2,0-0.4-0.1-0.6s-0.1-0.3-0.1-0.4l-0.1-0.1
		c-0.1-0.2-0.4-0.3-0.7-0.4c-0.1,0-0.1-0.1,0-0.2c0.1-0.1,0.2-0.2,0.3-0.3c0.3-0.1,1-0.2,2.1-0.2c0.5,0,0.9,0,1.2,0.1
		c0.1,0,0.2,0.1,0.3,0.1c0.1,0,0.1,0.1,0.2,0.2s0.1,0.2,0.1,0.3c0,0.1,0,0.2,0,0.4c0,0.2,0,0.3,0,0.5c0,0.1,0,0.4,0,0.6
		c0,0.3,0,0.5,0,0.7c0,0.1,0,0.2,0,0.4c0,0.2,0,0.3,0,0.4c0,0.1,0,0.2,0,0.3c0,0.1,0.1,0.2,0.1,0.3c0,0.1,0.1,0.2,0.2,0.2
		c0,0,0.1,0,0.1,0c0.1,0,0.1,0,0.2-0.1c0.1-0.1,0.2-0.2,0.3-0.3c0.1-0.1,0.3-0.3,0.4-0.6c0.2-0.3,0.4-0.6,0.6-0.9
		c0.3-0.6,0.7-1.2,0.9-1.9c0-0.1,0.1-0.1,0.1-0.2c0,0,0.1-0.1,0.1-0.1l0,0c0,0,0,0,0,0c0,0,0.1,0,0.1,0c0.1,0,0.1,0,0.2,0l2.5,0
		c0.2,0,0.4,0,0.6,0C-384.8,35.4-384.7,35.5-384.6,35.6L-384.6,35.6z"/>
</g>
<g>
	<path class="st0" d="M-364.7,39.4c0.1,0.2,0.1,0.3,0.1,0.4c0,0.1,0,0.2,0,0.3c0,0.1-0.1,0.2-0.2,0.3c-0.1,0.1-0.2,0.2-0.4,0.3
		c-0.1,0.1-0.3,0.2-0.5,0.4c-0.7,0.4-1.6,0.7-2.7,0.8l0.6,0.6l2.3,2.3c0.2,0.2,0.3,0.4,0.3,0.6c0,0.2-0.1,0.5-0.3,0.6l-0.1,0.1
		c-0.2,0.2-0.4,0.3-0.6,0.3c-0.2,0-0.5-0.1-0.6-0.3c-0.4-0.4-1.2-1.2-2.3-2.3l-2.3,2.3c-0.2,0.2-0.4,0.3-0.6,0.3
		c-0.2,0-0.5-0.1-0.6-0.3l-0.1-0.1c-0.2-0.2-0.3-0.4-0.3-0.6c0-0.2,0.1-0.5,0.3-0.6l2.3-2.3l0.6-0.6c-1.2-0.1-2.1-0.4-2.7-0.8
		c-0.2-0.1-0.4-0.3-0.5-0.4c-0.1-0.1-0.3-0.2-0.4-0.3c-0.1-0.1-0.2-0.2-0.2-0.3c0-0.1-0.1-0.2,0-0.3c0-0.1,0.1-0.3,0.1-0.4
		c0.1-0.1,0.1-0.2,0.2-0.3c0.1-0.1,0.2-0.1,0.4-0.2c0.1,0,0.3,0,0.5,0c0.2,0.1,0.4,0.2,0.6,0.3c0,0,0.1,0.1,0.1,0.1
		c0.1,0,0.2,0.1,0.4,0.2c0.2,0.1,0.4,0.2,0.6,0.3c0.2,0.1,0.5,0.1,0.8,0.2s0.6,0.1,1,0.1c0.5,0,1-0.1,1.5-0.2c0.5-0.1,0.8-0.3,1-0.4
		l0.3-0.2c0.2-0.1,0.4-0.3,0.6-0.3c0.2-0.1,0.3-0.1,0.5,0c0.1,0,0.3,0.1,0.4,0.2C-364.8,39.2-364.7,39.3-364.7,39.4z M-366.4,37.8
		c-0.8,0.8-1.7,1.1-2.8,1.1c-1.1,0-2-0.4-2.8-1.1c-0.8-0.8-1.1-1.7-1.1-2.8c0-1.1,0.4-2,1.1-2.8c0.8-0.8,1.7-1.1,2.8-1.1
		c1.1,0,2,0.4,2.8,1.1c0.8,0.8,1.1,1.7,1.1,2.8C-365.3,36.1-365.6,37-366.4,37.8z M-367.8,33.7c-0.4-0.4-0.8-0.6-1.4-0.6
		c-0.5,0-1,0.2-1.4,0.6c-0.4,0.4-0.6,0.8-0.6,1.4c0,0.5,0.2,1,0.6,1.4c0.4,0.4,0.8,0.6,1.4,0.6c0.5,0,1-0.2,1.4-0.6
		c0.4-0.4,0.6-0.8,0.6-1.4C-367.2,34.5-367.4,34.1-367.8,33.7z"/>
</g>
<g>
	<path class="st0" d="M-407.6,32.5v2.3h-1.4c-0.5,0-0.8,0.1-1,0.3c-0.2,0.2-0.3,0.5-0.3,0.9v1.6h2.5l-0.3,2.6h-2.2v6.5h-2.6v-6.5
		h-2.2v-2.6h2.2v-1.9c0-1.1,0.3-1.9,0.9-2.5c0.6-0.6,1.4-0.9,2.4-0.9C-408.7,32.4-408,32.5-407.6,32.5z"/>
</g>
<g>
	<path class="st38" d="M-384.6,54.9c0.1,0.4-0.3,1.2-1.3,2.5c-0.1,0.2-0.3,0.4-0.6,0.7c-0.2,0.3-0.4,0.5-0.5,0.6
		c-0.1,0.1-0.2,0.3-0.3,0.4c-0.1,0.2-0.1,0.3-0.1,0.4c0,0.1,0.1,0.2,0.1,0.3c0.1,0.1,0.1,0.2,0.3,0.4c0.1,0.1,0.3,0.3,0.5,0.5
		c0,0,0,0,0,0c0.8,0.8,1.4,1.4,1.6,1.9c0,0,0,0.1,0.1,0.1c0,0,0,0.1,0.1,0.2c0,0.1,0,0.2,0,0.3c0,0.1-0.1,0.2-0.2,0.2
		c-0.1,0.1-0.3,0.1-0.5,0.1l-2.2,0c-0.1,0-0.3,0-0.5,0c-0.2-0.1-0.3-0.1-0.4-0.2l-0.2-0.1c-0.2-0.1-0.4-0.3-0.6-0.6
		c-0.2-0.2-0.4-0.5-0.6-0.7c-0.2-0.2-0.3-0.4-0.5-0.5c-0.2-0.1-0.3-0.2-0.5-0.1c0,0,0,0-0.1,0c0,0-0.1,0.1-0.1,0.1
		c-0.1,0.1-0.1,0.2-0.2,0.3c-0.1,0.1-0.1,0.3-0.1,0.4c0,0.2-0.1,0.4-0.1,0.7c0,0.1,0,0.2,0,0.2c0,0.1,0,0.1-0.1,0.2l0,0
		c-0.1,0.1-0.3,0.2-0.5,0.2h-1c-0.4,0-0.8,0-1.3-0.1c-0.4-0.1-0.8-0.3-1.1-0.5c-0.3-0.2-0.6-0.4-0.9-0.6c-0.3-0.2-0.5-0.4-0.6-0.5
		l-0.2-0.2c-0.1-0.1-0.1-0.1-0.2-0.3c-0.1-0.1-0.3-0.4-0.6-0.8s-0.6-0.8-0.9-1.3c-0.3-0.5-0.7-1.1-1.1-1.8c-0.4-0.8-0.8-1.5-1.1-2.3
		c0-0.1-0.1-0.2-0.1-0.2c0-0.1,0-0.1,0-0.1l0-0.1c0.1-0.1,0.3-0.2,0.5-0.2l2.4,0c0.1,0,0.1,0,0.2,0.1c0.1,0,0.1,0.1,0.1,0.1l0,0
		c0.1,0.1,0.2,0.2,0.2,0.3c0.1,0.3,0.2,0.6,0.4,0.9c0.1,0.3,0.3,0.5,0.4,0.7l0.1,0.3c0.2,0.3,0.3,0.6,0.5,0.9
		c0.2,0.3,0.3,0.5,0.4,0.6s0.2,0.3,0.4,0.3c0.1,0.1,0.2,0.1,0.3,0.1c0.1,0,0.2,0,0.2,0c0,0,0,0,0,0s0.1-0.1,0.1-0.2
		c0.1-0.1,0.1-0.2,0.1-0.4c0-0.2,0.1-0.4,0.1-0.7c0-0.3,0-0.7,0-1.1c0-0.2,0-0.4-0.1-0.6s-0.1-0.3-0.1-0.4l-0.1-0.1
		c-0.1-0.2-0.4-0.3-0.7-0.4c-0.1,0-0.1-0.1,0-0.2c0.1-0.1,0.2-0.2,0.3-0.3c0.3-0.1,1-0.2,2.1-0.2c0.5,0,0.9,0,1.2,0.1
		c0.1,0,0.2,0.1,0.3,0.1c0.1,0,0.1,0.1,0.2,0.2s0.1,0.2,0.1,0.3c0,0.1,0,0.2,0,0.4c0,0.2,0,0.3,0,0.5c0,0.1,0,0.4,0,0.6
		c0,0.3,0,0.5,0,0.7c0,0.1,0,0.2,0,0.4c0,0.2,0,0.3,0,0.4c0,0.1,0,0.2,0,0.3c0,0.1,0.1,0.2,0.1,0.3c0,0.1,0.1,0.2,0.2,0.2
		c0,0,0.1,0,0.1,0s0.1,0,0.2-0.1c0.1-0.1,0.2-0.2,0.3-0.3c0.1-0.1,0.3-0.3,0.4-0.6c0.2-0.3,0.4-0.6,0.6-0.9c0.3-0.6,0.7-1.2,0.9-1.9
		c0-0.1,0.1-0.1,0.1-0.2c0,0,0.1-0.1,0.1-0.1l0,0c0,0,0,0,0,0c0,0,0.1,0,0.1,0c0.1,0,0.1,0,0.2,0l2.5,0c0.2,0,0.4,0,0.6,0
		C-384.8,54.7-384.7,54.8-384.6,54.9L-384.6,54.9z"/>
</g>
<g>
	<path class="st39" d="M-364.7,58.7c0.1,0.2,0.1,0.3,0.1,0.4c0,0.1,0,0.2,0,0.3c0,0.1-0.1,0.2-0.2,0.3c-0.1,0.1-0.2,0.2-0.4,0.3
		c-0.1,0.1-0.3,0.2-0.5,0.4c-0.7,0.4-1.6,0.7-2.7,0.8l0.6,0.6l2.3,2.3c0.2,0.2,0.3,0.4,0.3,0.6c0,0.2-0.1,0.5-0.3,0.6l-0.1,0.1
		c-0.2,0.2-0.4,0.3-0.6,0.3c-0.2,0-0.5-0.1-0.6-0.3c-0.4-0.4-1.2-1.2-2.3-2.3l-2.3,2.3c-0.2,0.2-0.4,0.3-0.6,0.3
		c-0.2,0-0.5-0.1-0.6-0.3l-0.1-0.1c-0.2-0.2-0.3-0.4-0.3-0.6c0-0.2,0.1-0.5,0.3-0.6l2.3-2.3l0.6-0.6c-1.2-0.1-2.1-0.4-2.7-0.8
		c-0.2-0.1-0.4-0.3-0.5-0.4c-0.1-0.1-0.3-0.2-0.4-0.3c-0.1-0.1-0.2-0.2-0.2-0.3c0-0.1-0.1-0.2,0-0.3c0-0.1,0.1-0.3,0.1-0.4
		c0.1-0.1,0.1-0.2,0.2-0.3c0.1-0.1,0.2-0.1,0.4-0.2c0.1,0,0.3,0,0.5,0c0.2,0.1,0.4,0.2,0.6,0.3c0,0,0.1,0.1,0.1,0.1
		c0.1,0,0.2,0.1,0.4,0.2s0.4,0.2,0.6,0.3c0.2,0.1,0.5,0.1,0.8,0.2c0.3,0.1,0.6,0.1,1,0.1c0.5,0,1-0.1,1.5-0.2c0.5-0.1,0.8-0.3,1-0.4
		l0.3-0.2c0.2-0.1,0.4-0.3,0.6-0.3c0.2-0.1,0.3-0.1,0.5,0c0.1,0,0.3,0.1,0.4,0.2C-364.8,58.5-364.7,58.6-364.7,58.7z M-366.4,57.1
		c-0.8,0.8-1.7,1.1-2.8,1.1c-1.1,0-2-0.4-2.8-1.1c-0.8-0.8-1.1-1.7-1.1-2.8c0-1.1,0.4-2,1.1-2.8c0.8-0.8,1.7-1.1,2.8-1.1
		c1.1,0,2,0.4,2.8,1.1c0.8,0.8,1.1,1.7,1.1,2.8C-365.3,55.4-365.6,56.4-366.4,57.1z M-367.8,53c-0.4-0.4-0.8-0.6-1.4-0.6
		c-0.5,0-1,0.2-1.4,0.6c-0.4,0.4-0.6,0.8-0.6,1.4c0,0.5,0.2,1,0.6,1.4c0.4,0.4,0.8,0.6,1.4,0.6c0.5,0,1-0.2,1.4-0.6
		c0.4-0.4,0.6-0.8,0.6-1.4C-367.2,53.8-367.4,53.4-367.8,53z"/>
</g>
<g>
	<path class="st40" d="M-407.6,51.8v2.3h-1.4c-0.5,0-0.8,0.1-1,0.3c-0.2,0.2-0.3,0.5-0.3,0.9V57h2.5l-0.3,2.6h-2.2v6.5h-2.6v-6.5
		h-2.2V57h2.2v-1.9c0-1.1,0.3-1.9,0.9-2.5c0.6-0.6,1.4-0.9,2.4-0.9C-408.7,51.7-408,51.8-407.6,51.8z"/>
</g>
<path class="st35" d="M-304.3,67.4c-0.4,0-0.8,0-1.2-0.2c-1.6-0.4-5.6-4.5-6-6c-0.1-0.4-0.2-0.7-0.2-1.1"/>
<path class="st35" d="M-307.4,52.1c2.2-2.4,4.5-4.2,4.8-4.4c5.6-4,13.4-5.6,16-5.4c0.3,2.5-1.3,10.4-5.3,16c-0.3,0.4-2,2.6-4.4,4.8"
	/>
<path class="st35" d="M-295.5,55.1c-1.1,1.7-3.5,1.7-4.6,0c-0.6-0.9-0.6-2.2,0-3.1c1.1-1.7,3.5-1.7,4.6,0
	C-294.9,52.9-294.9,54.2-295.5,55.1z"/>
<circle class="st35" cx="-293.1" cy="48.7" r="1.7"/>
<path class="st35" d="M-311.6,60l-7.3-1.5l3.7-3.7c2.3-2.3,5.5-3.2,8.6-2.6l2.3,0.5L-311.6,60z"/>
<path class="st35" d="M-304.3,67.3l1.5,7.3l3.7-3.7c2.3-2.3,3.2-5.5,2.6-8.6L-297,60L-304.3,67.3z"/>
<line class="st35" x1="-301.7" y1="57.2" x2="-312.9" y2="68.5"/>
<g>
	<path class="st10" d="M-232.7,55.6c-0.1-0.3-0.2-0.6-0.4-0.9c0,0,0,0,0-0.1c-0.2-0.3-0.3-0.5-0.5-0.8c0,0,0-0.1-0.1-0.1
		c-0.2-0.2-0.4-0.5-0.7-0.6c0,0-0.1-0.1-0.1-0.1c-0.3-0.2-0.5-0.4-0.8-0.5c0,0,0,0,0,0c0,0,0,0,0,0c-0.3-0.1-0.6-0.3-0.9-0.4
		c0,0-0.1,0-0.1,0c-0.3-0.1-0.6-0.1-0.9-0.2c0,0-0.1,0-0.1,0c-0.3,0-0.6,0-0.9,0c0,0,0,0-0.1,0c-0.3,0-0.7,0.1-1,0.2
		c-1.4,0.4-2.5,1.4-3.1,2.6c-0.7,1.3-0.8,2.7-0.4,4.1l0,0c0.1,0.3,0.2,0.6,0.4,0.9c0.1,0.1,0.1,0.2,0.2,0.3c0.1,0.2,0.2,0.3,0.3,0.5
		c0.1,0.1,0.2,0.2,0.3,0.3c0.1,0.1,0.3,0.3,0.4,0.4c0.1,0.1,0.2,0.2,0.3,0.3c0.2,0.1,0.4,0.3,0.6,0.4c0.1,0,0.1,0.1,0.2,0.1
		c0,0,0,0,0.1,0c0,0,0,0,0,0c0.2,0.1,0.4,0.2,0.7,0.3c0,0,0.1,0,0.2,0c0.2,0.1,0.4,0.1,0.6,0.2c0,0,0.1,0,0.1,0
		c0.3,0,0.5,0.1,0.8,0.1c0.5,0,1.1-0.1,1.6-0.2c1.4-0.4,2.5-1.4,3.1-2.6C-232.4,58.5-232.3,57-232.7,55.6L-232.7,55.6z M-236.8,60.4
		c-1.3,0.4-2.6,0-3.5-1c0,0-0.1,0-0.1-0.1c-0.1-0.1-0.2-0.3-0.3-0.4c0-0.1-0.1-0.1-0.1-0.1c-0.1-0.2-0.2-0.3-0.2-0.5
		c0,0,0-0.1,0-0.1c-0.3-0.9-0.2-1.8,0.2-2.6c0.4-0.8,1.1-1.4,2-1.6c0.2-0.1,0.4-0.1,0.7-0.1c0,0,0.1,0,0.1,0
		c1.1-0.1,2.1,0.4,2.8,1.2c0,0,0,0,0,0c0.1,0.1,0.2,0.3,0.3,0.5c0,0,0,0.1,0.1,0.1c0.1,0.2,0.2,0.4,0.3,0.6l0,0l0,0
		c0,0.1,0.1,0.3,0.1,0.4c0.1,0.7,0,1.5-0.3,2.1C-235.2,59.6-235.9,60.2-236.8,60.4z"/>
	<path class="st10" d="M-218.5,58.6c-1.6-1.9-3.6-3.7-5.9-5.5c2.9-8.9,2.5-16.3-1.5-18.4l0,0l0,0c-2.9-1.5-6.9,0-11.1,3.8
		c-1.7,1.5-3.3,3.3-4.9,5.4c-0.3-0.1-0.5-0.2-0.8-0.2c-0.4-0.1-0.9-0.3-1.3-0.4c-0.2-0.1-0.4-0.1-0.6-0.2c-0.5-0.1-1-0.3-1.5-0.4
		c-0.1,0-0.2,0-0.3-0.1c-0.6-0.1-1.2-0.2-1.8-0.3c0,0,0,0,0,0c-0.5-0.1-1-0.2-1.4-0.2c-5.4-0.6-9.1,0.6-10.5,3.3
		c-1.4,2.7-0.3,6.4,3.3,10.5c1.6,1.9,3.6,3.7,5.9,5.5c-2.9,8.9-2.5,16.3,1.5,18.4l0,0l0,0c0.7,0.4,1.5,0.6,2.4,0.6
		c1,0,2.1-0.3,3.3-0.7c0.3-0.1,0.6-0.3,0.9-0.4c0.1,0,0.2-0.1,0.2-0.1c2.9-1.6,6.1-4.5,9.2-8.5c0.3,0.1,0.6,0.2,0.9,0.3
		c0.2,0.1,0.4,0.1,0.6,0.2c2.2,0.6,4.4,1.1,6.4,1.3c0.9,0.1,1.8,0.1,2.6,0.1c4,0,6.8-1.2,8-3.4C-213.8,66.4-215,62.7-218.5,58.6z
		 M-226.1,51.8c-2.1-1.5-4.3-2.8-6.7-4.1c-0.1-0.1-0.2-0.1-0.3-0.2c-0.6-0.3-1.3-0.7-1.9-1c-0.4-0.2-0.7-0.3-1.1-0.5
		c-0.4-0.2-0.8-0.4-1.2-0.5c-0.4-0.2-0.8-0.3-1.1-0.5c-0.4-0.2-0.8-0.3-1.1-0.4c-0.1,0-0.2-0.1-0.4-0.1c2.1-2.6,4.2-4.7,6.1-6.1
		c2.9-2.1,5.4-2.8,7-2C-224.1,37.9-223.6,43.9-226.1,51.8z M-234.4,68.2c-1.1-0.4-2.1-0.8-3.2-1.3c-0.1,0-0.1-0.1-0.2-0.1
		c-0.6-0.3-1.3-0.6-1.9-0.9c-0.7-0.3-1.4-0.7-2.2-1.1c-2.5-1.3-4.8-2.8-6.9-4.3c0.9-2.4,1.9-4.9,3.3-7.5c1.4-2.6,2.8-4.9,4.3-6.9
		c1.7,0.6,3.5,1.4,5.3,2.2c0.6,0.3,1.1,0.5,1.7,0.8c0.2,0.1,0.3,0.2,0.5,0.2l0,0l0,0c2.5,1.3,4.8,2.8,6.9,4.3
		c-0.9,2.4-1.9,4.9-3.3,7.5C-231.4,63.9-232.9,66.2-234.4,68.2z M-255.5,54.6c-2.9-3.4-4-6.4-3-8.3c0.1-0.2,0.3-0.5,0.5-0.7
		c0.1-0.1,0.2-0.2,0.3-0.3c0.1-0.1,0.2-0.2,0.3-0.3c0.1-0.1,0.2-0.1,0.4-0.2c0.2-0.1,0.3-0.2,0.5-0.3c0,0,0.1,0,0.1,0
		c1.5-0.6,3.8-0.8,6.5-0.5c2.1,0.2,4.4,0.7,6.8,1.5c-1.4,2-2.8,4.3-4.1,6.7c-1.3,2.4-2.3,4.8-3.2,7.1
		C-252.4,57.8-254.2,56.2-255.5,54.6z M-249.5,62.6c2.1,1.5,4.3,2.8,6.7,4.1c0.8,0.4,1.7,0.8,2.5,1.2c0.3,0.1,0.6,0.3,0.8,0.4
		c0.5,0.2,1.1,0.5,1.6,0.7c0.3,0.1,0.6,0.3,0.9,0.4c0.4,0.2,0.8,0.3,1.3,0.5c-1.2,1.5-2.4,2.9-3.6,4c-3.9,3.7-7.5,5.2-9.5,4.1
		C-251.5,76.6-252,70.6-249.5,62.6z M-217.5,68.8c-0.1,0.1-0.3,0.3-0.5,0.4c-0.1,0.1-0.1,0.1-0.2,0.2c-0.1,0.1-0.3,0.2-0.4,0.2
		c-0.1,0.1-0.3,0.2-0.4,0.2c0,0-0.1,0-0.1,0c-1.5,0.6-3.7,0.8-6.4,0.5c-2.1-0.2-4.4-0.7-6.8-1.5c1.4-2,2.8-4.2,4.1-6.7
		c1.3-2.4,2.3-4.8,3.2-7.1c2,1.6,3.7,3.2,5.1,4.8c2.9,3.4,4,6.4,3,8.3C-217.1,68.4-217.3,68.6-217.5,68.8z"/>
</g>
</svg>
