<?xml version="1.0" encoding="utf-8"?>
<!-- Generator: Adobe Illustrator 19.1.1, SVG Export Plug-In . SVG Version: 6.00 Build 0)  -->
<svg version="1.1" id="Слой_1" xmlns="http://www.w3.org/2000/svg" xmlns:xlink="http://www.w3.org/1999/xlink" x="0px" y="0px"
	 viewBox="0 0 63.9 59.2" style="enable-background:new 0 0 63.9 59.2;" xml:space="preserve">
<style type="text/css">
	.st0{fill:#242424;}
	.st1{fill:#EF3B57;}
	.st2{fill:none;stroke:#F7F7F7;stroke-miterlimit:10;}
	.st3{fill:#EF3B57;stroke:#33499F;stroke-width:0.75;stroke-miterlimit:10;}
	.st4{fill:none;stroke:#242424;stroke-miterlimit:10;}
	.st5{fill:#F7F7F7;}
	.st6{fill:none;stroke:#ED1438;stroke-width:2;stroke-linecap:round;stroke-miterlimit:10;stroke-dasharray:2.012,4.023;}
	.st7{fill:#FFFFFF;}
	.st8{fill:none;stroke:#ED1438;stroke-width:4;stroke-miterlimit:10;}
	.st9{fill:none;stroke:#04A94D;stroke-width:3;stroke-linecap:round;stroke-linejoin:round;stroke-miterlimit:10;}
	.st10{fill:#04A94D;}
	.st11{fill:none;stroke:#04A94D;stroke-miterlimit:10;}
	.st12{fill:none;stroke:#04A94D;stroke-width:3;stroke-linejoin:round;stroke-miterlimit:10;}
	.st13{fill:none;stroke:#04A94D;stroke-width:2.485;stroke-linejoin:round;stroke-miterlimit:10;}
	.st14{fill:none;stroke:#04A94D;stroke-width:1.657;stroke-miterlimit:10;}
	.st15{fill:none;stroke:#04A94D;stroke-width:3;stroke-linejoin:bevel;stroke-miterlimit:10;}
	.st16{fill:none;stroke:#04A94D;stroke-width:3;stroke-miterlimit:10;}
	.st17{fill:none;stroke:#929497;stroke-width:0.5;stroke-miterlimit:10;}
	.st18{fill:none;stroke:#929497;stroke-width:0.5;stroke-miterlimit:10;stroke-dasharray:10.988,4.578;}
	.st19{fill:none;stroke:#929497;stroke-width:0.5;stroke-miterlimit:10;stroke-dasharray:10.399,10.399;}
	.st20{fill:none;stroke:#ED1438;stroke-width:2;stroke-miterlimit:10;}
	.st21{fill:none;stroke:#04A94D;stroke-width:1.699;stroke-miterlimit:10;}
	.st22{fill:none;stroke:#060E9F;stroke-width:2.725;stroke-miterlimit:10;}
	.st23{fill:none;stroke:#060E9F;stroke-width:1.09;stroke-miterlimit:10;}
	.st24{fill:none;stroke:#ED1438;stroke-width:3.736;stroke-miterlimit:10;}
	.st25{fill:none;stroke:#ED1438;stroke-width:3.736;stroke-miterlimit:10;stroke-dasharray:3.794,5.691;}
	.st26{fill:none;stroke:#ED1438;stroke-width:3.379;stroke-miterlimit:10;}
	.st27{fill:none;stroke:#ED1438;stroke-width:3.379;stroke-miterlimit:10;stroke-dasharray:3.431,5.147;}
	.st28{fill:none;stroke:#ED1438;stroke-width:3.568;stroke-miterlimit:10;}
	.st29{fill:none;stroke:#ED1438;stroke-width:3.568;stroke-miterlimit:10;stroke-dasharray:3.624,5.435;}
	.st30{fill:none;stroke:#ED1438;stroke-width:8.537;stroke-miterlimit:10;}
	.st31{fill:none;stroke:#ED1438;stroke-width:3.341;stroke-miterlimit:10;}
	.st32{fill:none;stroke:#ED1438;stroke-width:3.341;stroke-miterlimit:10;stroke-dasharray:3.3,4.95;}
	.st33{fill:none;stroke:#ED1438;stroke-width:3.236;stroke-miterlimit:10;}
	.st34{fill:none;stroke:#ED1438;stroke-width:3.236;stroke-miterlimit:10;stroke-dasharray:3.094,4.641;}
	.st35{fill:none;stroke:#04A94D;stroke-width:2;stroke-miterlimit:10;}
	.st36{fill:none;stroke:#04A94D;stroke-width:2;stroke-linejoin:bevel;stroke-miterlimit:10;}
	.st37{fill:none;stroke:#FFFFFF;stroke-width:2;stroke-miterlimit:10;}
	.st38{fill:#5B719A;}
	.st39{fill:#DB831C;}
	.st40{fill:#5266AB;}
</style>
<g>
	<rect x="-493.8" y="-138.2" class="st0" width="30.5" height="2"/>
	<rect x="-493.8" y="-117.8" class="st0" width="30.5" height="2"/>
	<rect x="-489.8" y="-128" class="st0" width="22.4" height="2"/>
</g>
<g>
	
		<rect x="-402.8" y="-128.2" transform="matrix(0.7071 -0.7071 0.7071 0.7071 -23.6119 -311.3042)" class="st0" width="30.5" height="2"/>
	
		<rect x="-402.8" y="-128.2" transform="matrix(-0.7071 -0.7071 0.7071 -0.7071 -571.7375 -491.1214)" class="st0" width="30.5" height="2"/>
</g>
<g>
	
		<rect x="-371.8" y="-128.2" transform="matrix(0.7071 -0.7071 0.7071 0.7071 -14.5322 -289.3839)" class="st1" width="30.5" height="2"/>
	
		<rect x="-371.8" y="-128.2" transform="matrix(-0.7071 -0.7071 0.7071 -0.7071 -518.8172 -469.2011)" class="st1" width="30.5" height="2"/>
</g>
<g>
	
		<rect x="-119.8" y="-101.4" transform="matrix(0.7071 -0.7071 0.7071 0.7071 38.4745 -108.9563)" class="st1" width="14.9" height="1"/>
	
		<rect x="-119.8" y="-101.4" transform="matrix(-0.7071 -0.7071 0.7071 -0.7071 -120.32 -251.68)" class="st1" width="14.9" height="1"/>
</g>
<g>
	<rect x="-452.8" y="-138.2" class="st1" width="30.5" height="2"/>
	<rect x="-452.8" y="-117.8" class="st1" width="30.5" height="2"/>
	<rect x="-448.8" y="-128" class="st1" width="22.4" height="2"/>
</g>
<g>
	<path class="st2" d="M-454.1-93c0-4.3-4.1-7.7-9.2-7.7s-9.2,3.5-9.2,7.7v14.5c0,4.3,4.1,7.7,9.2,7.7s9.2-3.5,9.2-7.7V-93z"/>
	<line class="st2" x1="-463.3" y1="-95.8" x2="-463.3" y2="-86.3"/>
</g>
<g>
	<path class="st1" d="M-461.3,20.2c-7.8,0-14.1-6.4-14.1-14.4s6.3-14.4,14.1-14.4s14.1,6.4,14.1,14.4S-453.6,20.2-461.3,20.2z
		 M-461.3-7.8c-7.3,0-13.3,6.1-13.3,13.6s6,13.6,13.3,13.6S-448,13.3-448,5.8S-454-7.8-461.3-7.8z"/>
	<path class="st1" d="M-461.3,50.6l-19.8-23c-3-3.2-5.1-6.5-6.4-10.1c-1.4-3.9-1.9-7.7-1.6-11.3c0.9-13.1,11.5-26.7,27.8-26.7
		c7.5,0,14.5,3,19.7,8.4c4.7,5,7.7,11.6,8.1,18.3c0.3,3.6-0.3,7.5-1.6,11.3c-1.3,3.7-3.5,7-6.5,10.1L-461.3,50.6z M-461.3-19.8
		c-15.8,0-26.1,13.2-27,26.1c-0.3,3.5,0.2,7.1,1.6,10.9c1.3,3.5,3.3,6.8,6.2,9.9l19.2,22.4l19.1-22.4c3-3.1,5-6.3,6.3-9.9l0,0
		c1.3-3.6,1.9-7.4,1.6-10.9C-435.3-10.1-448.8-19.8-461.3-19.8z"/>
</g>
<g>
	<path class="st1" d="M-252.4,39.8c-0.2,0-0.5-0.1-0.6-0.4c-0.2-0.2-0.2-0.5-0.1-0.7c0.4-0.8,0.2-1.7-0.5-2.5
		c-0.2-0.2-0.2-0.4-0.2-0.6c0-0.4,0.4-0.7,0.8-1c0.3-0.2,0.6-0.2,1-0.2c0.1,0,0.1,0,0.2,0c0.3-1.9,0.1-3.3-0.4-4.1
		c-0.1-0.2-0.2-0.4-0.2-0.5c0,0,0-0.1-0.1-0.2c-0.4,0.1-0.6,0.1-0.8,0.2c-0.3,0.1-0.5,0.2-1.1,0.1c0.2,0.3,0.5,0.6,0.3,0.9
		c-0.2,0.3-0.6,0.4-0.9,0.4c-0.2,0-0.4,0-0.7,0c-1.9-0.2-3.1-0.7-3.9-1.5c0-0.1-0.1-0.1-0.2-0.3c-0.6-0.7-2.2-2.7-3.7-2.7
		c-0.8,0-1.4,0.6-1.9,1.8c0,0.1,0.2,0.2,0.3,0.2c0.2,0.1,0.4,0.3,0.5,0.5c0,0.1,0,0.3-0.1,0.4c-0.4,0.4-0.4,1-0.3,1.5
		c0,0.5,0,1-0.3,1.3c-0.7,0.8-1.6,1.2-2.5,1.2c-0.6,0-1.2-0.2-1.6-0.3c-0.2-0.1-0.5-0.1-0.6-0.1c-0.8,0.8-2.9,1.9-4.4,1.9
		c-0.9,0-1.5-0.4-1.7-1.2c-0.2,0-0.5,0-0.7-0.1c-0.4-0.3-0.9-0.2-1.4,0c-0.3,0.1-0.7,0.2-1.1,0.2c-0.5,0-0.8-0.1-1.2-0.5
		c-0.9-0.9-1.2-1.3-1.2-1.6c-0.3-0.2-0.8-0.4-1.6-0.8c-0.1,0.1-0.1,0.3-0.3,0.4c-0.2,0.2-0.2,0.4-0.1,0.7c0.1,0.4,0.1,0.9-0.4,1.3
		c-0.3,0.2-0.6,0.4-1,0.4c-1.2,0-2.5-1.3-2.8-1.5c-0.2-0.2-0.7-0.3-1.3-0.3c-1.3,0-3,0.5-3.7,0.9c-0.1,0.1-0.3,0.1-0.5,0.1
		c-1,0-2.4-1.2-2.8-2c-0.1-0.2-0.1-0.4-0.2-0.6c-0.2-0.6-0.2-0.8-0.5-0.8c-1.2-0.1-1.4-0.4-1.6-0.7c-0.1-0.1-0.1-0.2-0.3-0.3
		c0,0-0.1,0.1-0.1,0.1c-0.2,0.2-0.3,0.3-0.5,0.3h-0.3l-0.1-0.3c-0.2-0.9-0.3-1.7-0.3-2.5c-0.1-1.2-0.1-2.2-0.7-3
		c0,0-0.2,0.1-0.3,0.2c-0.3,0.2-0.7,0.5-1.1,0.5c-0.4,0-0.7-0.2-1.1-0.6c-0.1-0.2-0.3-0.3-0.2-0.5l0.1-0.2l0.3-0.1c0,0,0,0,0.1,0
		c0-0.1,0-0.1,0-0.2c-0.1,0-0.3,0-0.5-0.1l-0.2-0.1l-0.1-0.2c0-0.1,0-0.2,0-0.3c-0.1,0-0.1-0.1-0.2-0.1c-0.2-0.1-0.7-0.3-0.6-0.9
		c0-0.3,0.2-0.5,0.4-0.8c0-0.1,0.1-0.1,0.2-0.2c-0.1-0.1-0.2-0.2-0.3-0.3c-0.2-0.3-0.3-0.4-0.5-0.3c-1.3,0.4-4.9-1-6.1-1.9
		c-0.1,0.2-0.1,0.3-0.1,0.4c-0.2,0.6-0.4,0.9-1.3,1.2c-0.2,0.1-0.4,0.1-0.6,0.1c0.1,0,0.2,0.1,0.3,0.3c0.2,0.6,0.1,1,0,1.2
		c-0.2,0.3-0.6,0.5-1,0.5c-0.6,0-1.4-0.3-1.8-0.8c-0.1-0.2-0.2-0.3-0.3-0.5c-0.4-0.6-0.8-1.3-2.2-1.9c-0.1,0-0.6-0.4-0.9-0.7
		c-0.4-0.5-0.2-1,0-1.2c0.2-0.3,0.2-0.4,0.1-0.7c-0.3-0.6-0.8-1.2-1-1.5l-0.1-0.1c-0.1-0.2-1-0.4-1.8-0.4c-0.3,0-0.4,0-0.5,0
		c-0.3,0.1-0.5,0.2-0.6,0.2c-0.1,0-0.2,0.1-0.2,0.1h-0.2l-0.2-0.3l0-0.2c0-0.1,0-0.2-0.1-0.6c-0.2,0.1-0.5,0.3-1.2,0.8
		c-0.2,0.2-0.6,0.2-0.9,0.2c0,0-0.1,0-0.1,0c0.1,0.3,0.1,0.5-0.1,0.8c0.2,0.1,0.3,0.2,0.4,0.5c0.1,0.6-0.1,1.7-0.5,2.1
		c-0.1,0.1-0.2,0.2-0.4,0.3c0,0.1,0,0.2,0,0.3c-0.1,0.2-0.2,0.3-0.4,0.4c-0.5,0.2-0.8,0.3-1,0.3c-0.5,0-0.6-0.5-0.6-0.6
		c0-0.1,0-0.2-0.1-0.3c0,0-0.1,0-0.2,0c-0.3,0-0.6,0.1-0.9,0.4l-0.1,0.1l-0.2,0c-0.1,0-0.3-0.1-0.4-0.1c0,0,0,0.1,0,0.1
		c0,0.1,0,0.2,0,0.3c0.1,0.1,0.2,0.1,0.3,0.3l0.1,0.2l-0.1,0.2c-0.2,0.3-0.5,0.3-0.7,0.4c-0.1,0-0.2,0-0.2,0.1
		c-0.1,0.2-0.2,0.5-0.2,0.9c-0.1,0.7-0.3,1.4-0.9,1.8c-0.6,0.4-1.1,0.3-1.5-0.1c-0.8-0.9-0.5-3.5-0.5-3.5c0.1-0.7-0.2-1.2-0.5-1.9
		c-0.2-0.3-0.4-0.7-0.5-1.1c-0.3-0.8-0.8-1.5-1.3-2.2l-0.3-0.4c-0.6-0.9-0.4-1.8-0.2-2.7c0.1-0.4,0.1-0.8,0.2-1.1c0-0.1,0-0.3,0-0.4
		c0-0.1,0-0.2,0-0.3c0,0-0.1-0.3-0.5-0.6c-1.1-0.7-2.3-1.6-1.7-2.5c0.3-0.4,0.3-0.6,0.3-0.8c0-0.3,0.1-0.5,0.4-0.9
		c0.1-0.1,0.3-0.3,0.6-0.3c0.6,0,1.8,0.5,2,0.9c0.3,0.8,0.2,1.1,0,1.4c-0.1,0.1-0.2,0.3-0.2,0.6c-0.1,1,1.6,1.6,2.5,1.9
		c0,0,0,0,0.1,0c0-0.3,0-0.6,0.3-0.8c0.1-0.1,0.3-0.2,0.5-0.2c0.5,0,1.1,0.4,2,1.1c0,0,0.2-0.1,0.2-0.3c0,0,0,0,0-0.1
		c0-0.1-0.1-0.3,0.1-0.4c0.1-0.2,0.4-0.2,0.9-0.3c0.2,0,0.4,0,0.5,0c-0.3-0.3-0.8-0.9-0.6-1.7c0.1-0.2,0.1-0.3,0.2-0.4
		c0-0.1,0.1-0.2,0.1-0.2c-1.6-2.3-0.5-3.4,0.2-4.1c0.4-0.4,0.5-0.6,0.5-0.8c0,0-0.1-0.1-0.2-0.1c-0.2-0.1-0.5-0.2-0.6-0.6
		c-0.3-0.6,0.3-0.9,0.5-1.1l0.1-0.1c0.6-0.4,0.8-0.5,1-0.5c0.2,0,0.4,0.1,0.4,0.4c0,0.1,0.1,0.2,0.3,0.3c0-0.1,0.1-0.2,0.1-0.4
		c0.1-0.3,0.1-0.7,0.3-1c0.2-0.3,0.5-0.6,0.8-0.9c0.4-0.4,0.7-0.7,0.6-0.9c-0.1-0.3,0.1-0.5,0.2-0.6c0,0,0,0,0-0.1
		c-0.1-0.3-0.4-0.7,0-1.2c0.4-0.5,1.3-1.2,2-1.5l0.3-0.1c1-0.4,1.7-0.7,2.9-0.3c0.4,0.1,0.6,0.3,0.8,0.5c0-0.1,0-0.2,0-0.3
		c0-0.7,0-0.8,0.1-0.9c0.2-0.2,0.5-0.3,0.8-0.3c0.6,0,1.1,0.4,1.7,0.8c0.7,0.5,1.4,1,2,0.7c0.5-0.2,0.6-0.3,0.8-0.6
		c0.1-0.2,0.3-0.4,0.6-0.7c0.9-0.8,4-1.8,4.7-2.1c0,0,0-0.2,0-0.3c0-0.3,0.1-0.7,0.5-0.9c0.3-0.1,0.6-0.2,0.9-0.2
		c0.8,0,1.8,0.3,2.3,1c0.3,0.4,0.4,0.9,0.2,1.4c-0.1,0.3-0.2,0.4-0.3,0.4c0,0,0,0.1,0,0.1c0.4,1.8,0.1,3.5-0.6,4.4
		c-0.8,1-2.1,1.1-2.9,0.2c-0.6-0.7-0.9-1.9-0.8-3.4c-0.1,0.2-0.3,0.4-0.4,0.5c-0.5,0.7-1,1.4-1.5,1.8c-0.1,0.1-0.2,0.3-0.2,0.7
		c0,0.3,0,0.5,0.1,0.6c0,0,0.1-0.1,0.2-0.2c0,0,0-0.1,0.1-0.2c0.1-0.3,0.1-0.7,0.5-1c0.4-0.3,0.9-0.1,1.2,0.4c0.2,0.5,0,0.9-0.1,1.2
		c0,0.1-0.1,0.2-0.1,0.3c0,0,0,0,0,0c0.1-0.2,0.2-0.3,0.3-0.3c0.3-0.1,0.5-0.2,0.7-0.2c0.7,0,1,0.4,1.3,0.8c0.2,0.3,0.4,0.5,0.6,0.5
		c0.3,0,0.8-0.2,1.9-1.3c0,0,0.1-0.2,0.1-0.3c0.1-0.3,0.2-0.6,0.6-0.6h0.1l0.1,0.1c0.9,0.5,1.3,1,1.2,1.5c-0.1,0.8-1.2,1.3-1.7,1.4
		c-0.2,0.1-0.4,0.3-0.4,0.5c0.1,0,0.3-0.1,0.5-0.2c0.3-0.2,0.5-0.1,0.6,0l0.2,0c0.2,0,0.4,0.1,0.5,0.3c0,0,0,0.1,0.2,0.1
		c2.4,0.4,2.5,0.4,2.6,0.8c0.1,0.2-0.1,0.4-0.1,0.5c0.1,0.1,0.5,0.4,1.9,1c0.2,0.1,0.3,0.3,0.3,0.5c0-0.1,0-0.2,0.1-0.3
		c0-0.4,0.1-1.1,0.9-1.1c0,0,0,0,0,0c0.5,0,0.6,0.5,1,2c0.2,0.8,0.6,2.4,0.9,2.6c0,0,0,0,0,0c-0.2-0.8,0.2-1.9,1-2.1l0.1-0.4
		l-0.2,0.3c-0.1-0.1-0.3-0.3-0.2-0.6c0.2-0.7,2.2-2.7,3.3-2.7c0.4,0,0.7,0.2,0.8,0.7c0.1,0.4-0.1,0.6-1.4,1.9l-0.3,0.3
		c-0.4,0.4-0.8,1.3-1.2,2.2c-0.6,1.4-1.3,3-2.4,3.6c0.1,0.1,0.3,0.2,0.4,0.3c0,0,0.1,0,0.1,0c0.5,0,1.3-0.6,1.4-0.9
		c0.2-0.2,0.4-0.6,0.8-0.6c0.2,0,0.5,0.1,0.8,0.3c0.3,0.2,0.5,0.2,0.5,0.2c0,0,0-0.1,0-0.1c0-0.1,0-0.3-0.8-0.9
		c-1.1-0.9-0.2-2.4,0.6-3.7l0.1-0.1c0.2-0.4,0.4-0.6,0.4-0.7c0.2-0.4,0.3-0.5,1-1.1c0,0,0.2-0.2,0.3-0.2h0.2l0.1,0.1
		c0.2,0.2,0.1,0.5,0,1.1c-0.1,0.3-0.2,1-0.1,1.3c0.1-0.1,0.3-0.3,0.3-0.5c-0.1-0.2-0.1-0.4-0.1-0.6c0.1-0.2,0.3-0.3,0.4-0.3
		c0.1,0,0.3,0,0.5,0.3c0.4,0.5,0.6,0.8,0.8,0.9c0,0,0,0,0-0.1c0-0.1-0.1-0.3-0.2-0.4c-0.1-0.2-0.3-0.4-0.2-0.7
		c0-0.2,0.1-0.4,0.4-0.5c0.5-0.3,1.5-0.7,2.1-0.9c0.2-0.1,0.3-0.1,0.3-0.1c0.4-0.2,0.8-0.4,1.2-0.6c0.8-0.4,1.5-0.8,2.4-0.8
		c0.2,0,0.4,0,0.7,0.1c0.4,0.1,0.5,0.3,0.5,0.5c0,0,0,0,0,0c0-0.1,0.1-0.2,0.1-0.2c0.1-0.3,0.5-0.3,0.8-0.2c0-0.1,0-0.2,0.1-0.3
		c0.2-0.7,0.3-1,1-1.4l0.2,0c0.4,0,4.1,1.9,4.2,3.2c0,0.4-0.2,0.9-1.3,1.1c-0.3,0-0.5,0.2-0.7,0.7l-0.2,0.3
		c-0.2,0.3-0.5,0.8-0.6,1.1c0.3,0,0.7-0.1,0.7-0.1c0.1-0.1,0.1-0.2,0.2-0.5c0-0.3,0.1-0.7,0.5-1.1c0.1-0.1,0.2-0.1,0.4-0.1
		c0.3,0,0.6,0.1,0.7,0.3c0.1,0.1,0.1,0.3,0.1,0.6c0,0.1,0,0.2,0,0.4c0.1,0,0.2-0.1,0.3-0.2c0.3-0.1,0.5-0.3,0.8-0.3
		c0.2,0,0.5,0.1,0.8,0.5c0.1,0.2,0.9,0.1,1.1-0.1c0.1-0.1,0-0.4-0.1-0.5c-0.1-0.3-0.2-0.6,0-0.8c0.1-0.1,0.2-0.2,0.5-0.2
		c0.2,0,0.4,0,0.5,0c0.2,0,0.5,0,0.7,0c0.9,0,1.5,0.5,1.9,1.6c0.5,1.1,0.7,1.5,0.8,1.6c0.1-0.2,0.2-0.8,0.3-1.1
		c0.1-0.6,0.2-0.9,0.4-1c0.4-0.2,0.8,0,1.1,0.2c0.1,0.1,0.2,0.2,0.3,0.2c0,0,0.2-0.1,0.4-0.5c0.2-0.4,0-0.9-0.3-1.4
		c-0.1-0.1-0.1-0.2-0.2-0.3c-0.3,0-0.5-0.1-0.6-0.3c-0.3-0.5-0.5-0.8-0.6-1.3c0,0,0,0,0,0c-0.2,0.1-0.5,0.2-0.6,0.2
		c-0.8,0-1.4-0.7-1.4-1.4c0-0.4,0.2-0.8,0.9-1c-0.1-0.1-0.1-0.3,0-0.5l0.1-0.2l0.2-0.1c0.3-0.1,0.6-0.1,0.9-0.1c0.7,0,1,0.3,1.1,0.5
		c0.2,0.5,0.1,1.1-0.5,1.9c0,0,0.1,0,0.1,0l0.2,0c1.7,0.5,1.8,0.6,1.9,0.8l0,0.1c1.1-0.4,2.4-0.6,3.1-0.3c0.3,0.1,0.5,0.2,0.6,0.3
		c0.1,0.1,0.3,0.1,0.3,0.1c0,0,0.1,0,0.3-0.3c0.9-1,2-1.4,3-1.8c0.9-0.3,1.6-0.6,1.9-1.2c0.1-0.1,0.1-0.2,0.2-0.4
		c0.2-0.3,0.3-0.4,0.1-0.7c-0.2-0.3-0.2-0.6,0-0.9c0.2-0.3,0.5-0.4,0.8-0.4c-0.2-0.3-0.3-0.6,0.1-1c0.4-0.4,0.6-0.7,0.9-1.1
		c0.6-0.9,1.3-1.8,3.1-2.9c0.6-0.4,1.8-0.5,2.6-0.7c0.1,0,0.2,0,0.3,0c-0.1-0.1-0.2-0.3-0.2-0.4c-0.1-0.7,0.1-1.4,0.6-1.9
		c0.4-0.4,0.9-0.7,1.4-0.7c0.3,0,0.7,0.1,0.8,0.7c0.2,0.9,0.8,1.5,1.2,1.9c0.3,0.3,0.6,0.6,0.4,0.9c-1,1.5-1.3,1.6-1.8,1.7
		c-0.1,0-0.3,0-0.6,0.2c-0.4,0.2-0.6,0.2-0.8,0.2c-0.1,0-0.2,0-0.4-0.1c0,0.2,0,0.5,0,0.7c0.2-0.2,0.5-0.3,0.9-0.1
		c0.6,0.3,0.6,0.4,0.8,0.9c0,0.1,0,0.2,0.1,0.4c0,0.2,0.1,0.4,0.1,0.5c0.3,0,0.7,0,1.2-0.1c0.8-0.1,1.4-0.1,1.6,0
		c0.3,0.1,0.4,0.4,0.5,0.6c0,0.2,0,0.4-0.2,0.5c-0.5,0.4-0.6,1.6-0.4,3.4c0,0.3,0.3,0.7,0.5,1.2c0.5,0.8,1,1.8,0.3,2.4
		c-0.9,0.8-0.9,1.1-1,1.7c0,0.3-0.1,0.6-0.2,1c-0.1,0.4-0.4,0.4-0.5,0.5c-0.2,0.9,0,2.5,0.2,3c0,0,0,0,0,0c0.1-0.2,0.2-0.6,0.7-0.6
		c0.3,0,0.6,0.2,1,0.7c0.1,0.1,0.4,0.2,0.6,0.3c0.4,0.1,0.8,0.2,0.9,0.6c0.1,0.2,0.1,0.4,0,0.7c-0.1,0.2-0.2,0.3-0.3,0.4
		c0.1,0.1,0.2,0.2,0.4,0.3c0.3,0.2,0.7,0.4,0.8,0.9c0.1,0.3,0,0.7-0.4,1.2c-0.1,0.1-0.1,0.1-0.1,0.1c0,0,0.2,0.1,0.3,0.2
		c0.4,0.2,0.8,0.5,0.9,1.1c0,0.3,0.3,0.9,0.5,1.5c0.6,1.6,1,2.7,0.6,3.3c-0.2,0.2-0.6,0.5-1.3,0.3c-6.7-1.7-6.7-4.2-6.8-6.1
		c0-0.5,0-0.9-0.1-1.3c-0.5-2-0.6-4.8-0.2-6.7c0-0.1-0.2-0.6-0.7-1.1c-0.3-0.3-0.6-0.5-0.7-0.5c0,0-0.1,0-0.1,0.1
		c0,0,0.1,0.1,0.1,0.1c0.5,0.5,1.3,1.4,0.7,3.8l-0.1,0.3l-0.3,0.1c-0.3,0-0.5-0.3-0.9-0.8c-0.1-0.1-0.2-0.2-0.3-0.3
		c-0.2,0.3-0.5,0.4-0.7,0.5c-0.1,0-0.1,0-0.1,0c-0.9,0.8-0.5,1.9,0.2,3.3c0.2-0.2,0.6-0.3,1,0c0.3,0.2,0.4,0.6,0.4,1.1
		c-0.1,0.5-0.3,1.1-0.7,1.3l0,0c-0.1,0.3-0.4,0.9-1.1,0.9c-0.2,0-0.4-0.1-0.6-0.2c-0.1-0.1-0.2-0.2-0.3-0.3l0,0l-0.2,0
		c-0.4,0.1-0.6,0-0.8,0c0,0,0,0,0,0c0,0,0,0,0.1,0.1c0.2,0.2,0.5,0.5,0.3,0.8c-0.1,0.3-0.5,0.3-0.8,0.2c-0.1,0-0.1-0.1-0.2-0.1
		c0,0,0,0-0.1,0.1c-0.1,0.1-0.3,0.3-0.8,0.6c-2.4,1.5-3.4,6.1-3.6,9c0.4-0.3,0.9-0.5,1.2-0.2c0.1,0.1,0.2,0.2,0.4,0.4
		c0.1,0.1,0.2,0.2,0.3,0.4c0,0,0-0.1,0-0.1c-0.1-0.3-0.1-0.6,0.1-0.9c0.2-0.3,0.5-0.4,1-0.4c0.4,0,0.9,0.1,1.4,0.2
		c0.3,0.1,0.6,0.1,0.8,0.2c0-0.2-0.2-0.7-0.4-1c-0.4-0.3-0.4-0.5-0.4-0.7c0.1-0.5,0.8-0.6,1-0.6c0.1,0,0.3,0,0.3,0.1
		c0.6,0.4,1,1.2,1.5,2c0.4,0.6,0.7,1.3,1.1,1.6c0.1,0.1,0.8,0.4,1.3,0.6c1.6,0.6,2.5,1,2.3,1.7c-0.2,0.6-0.7,0.6-1.1,0.7
		c-0.1,0-0.2,0-0.2,0c0,0.4,0.3,0.9,0.7,1.3c0.2,0.2,0.5,0.3,0.8,0.5c0.6,0.2,1.4,0.5,1.2,2c0,0.3-0.2,0.5-0.5,0.5
		c-0.3,0-0.6-0.2-0.9-0.3c-0.2-0.1-0.3-0.2-0.5-0.2c0,0,0,0-0.1,0c0,0.1,0,0.3,0,0.4c0,0.5,0,1.2-0.6,1.5l-0.1,0l-0.1,0
		c-0.6,0-1.2-1.2-2.7-4.8c-0.5-1.1-0.9-2.3-1.1-2.5c-0.1-0.1-0.1-0.1-0.1-0.2c0.1,0.8,0.4,1.5,0.8,2.3c1.1,2,1,6.8-0.3,9.9
		c-0.7,1.7-1.7,2.8-2.8,3.2l-0.1,0c-0.2,0-0.3-0.1-0.3-0.2c0,0-0.1,0.1-0.1,0.1c-0.1,0.1-0.1,0.3-0.2,0.4
		C-251.7,39.3-251.9,39.8-252.4,39.8L-252.4,39.8z M-252.5,35.2l-0.1,0c-0.2,0.1-0.5,0.4-0.5,0.5c0.9,1,1.1,2.3,0.6,3.3
		c0,0,0,0,0.1,0.1c0-0.1,0.1-0.3,0.1-0.4c0.1-0.2,0.2-0.5,0.3-0.7c0.1-0.1,0.1-0.1,0.3-0.4l0.3-0.4l0.2,0c0.3,0,0.4,0.2,0.4,0.4
		c0.9-0.4,1.6-1.7,2-2.6c1.2-3,1.4-7.5,0.4-9.3c-0.6-1.2-0.9-2.1-1-3.3c0-0.1,0-0.3,0.1-0.4l0.1-0.1l0.2,0c0.2,0,0.4,0.1,1.1,0.9
		c0.2,0.3,0.6,1.2,1.2,2.7c0.6,1.4,1.6,3.8,2,4.3c0.1-0.2,0.1-0.5,0.1-0.8c0-0.3,0-0.5,0.1-0.7c0.1-0.4,0.4-0.5,0.6-0.5
		c0.2,0,0.3,0.1,0.5,0.1c0.2,0.1,0.4,0.2,0.6,0.3c0.1,0.1,0.3,0.2,0.4,0.2c0.1-0.7-0.2-0.8-0.8-1c-0.3-0.1-0.7-0.3-1.1-0.6
		c-0.5-0.4-1-1.2-0.9-2c0-0.5,0.6-0.5,0.9-0.6c0.1,0,0.4,0,0.5-0.1c-0.3-0.2-1.3-0.6-1.8-0.9c-0.8-0.3-1.3-0.5-1.5-0.7
		c-0.5-0.4-0.8-1.1-1.2-1.8c-0.4-0.7-0.8-1.4-1.2-1.8c0,0-0.1,0-0.1,0c0.2,0.2,0.6,1.2,0.6,1.6c0,0.3-0.1,0.5-0.2,0.6
		c-0.3,0.2-0.8,0.1-1.4-0.1c-0.6-0.2-1.4-0.3-1.6-0.1c0,0,0,0.2,0.1,0.3c0.1,0.3,0.2,1-0.4,1.1l-0.1,0c-0.3,0-0.5-0.3-1-0.8
		c-0.1-0.1-0.2-0.2-0.2-0.3c-0.1,0-0.4,0.2-0.5,0.3c-0.2,0.2-0.4,0.3-0.6,0.3h-0.2l-0.2-0.1c-0.1-0.1-0.1-0.2-0.1-0.4
		c0.2-3.6,1.4-8.4,4-10c0.5-0.3,0.6-0.4,0.7-0.5c0.1-0.1,0.2-0.1,0.3-0.2c0.1,0,0.1-0.1,0.2-0.1c-0.1-0.2-0.1-0.4,0-0.6
		c0.1-0.2,0.3-0.5,0.6-0.5c0,0,0.1,0,0.1,0c0.1,0,0.2,0,0.3,0c0-0.3,0.2-0.4,0.3-0.4c0.1,0,0.1,0,0.2-0.1c0.2-0.1,0.5-0.3,0.7,0.3
		l0,0.2c0,0.2,0,0.3,0.1,0.3c0.1,0.1,0.2,0.1,0.2,0.1c0.2,0,0.3-0.3,0.4-0.5c0.1-0.1,0.1-0.2,0.2-0.3c0.2-0.1,0.4-0.5,0.4-0.8
		c0-0.2,0-0.4-0.1-0.5c0-0.1,0,0,0,0c-0.1,0.1-0.2,0.3-0.5,0.3c-0.3,0-0.4-0.3-0.5-0.4c-0.7-1.4-1.6-3.2-0.2-4.4
		c0.2-0.2,0.3-0.2,0.5-0.2c0.2,0,0.2-0.1,0.3-0.4c0.1-0.3,0.3-0.4,0.4-0.4c0.3,0,0.5,0.3,1,0.9c0,0,0.1,0.1,0.1,0.2
		c0.3-1.6-0.3-2.2-0.7-2.6c-0.2-0.2-0.4-0.4-0.3-0.7c0-0.3,0.3-0.4,0.5-0.6c0.1-0.1,0.3-0.1,0.4-0.1c0.6,0,1.2,0.7,1.5,1
		c0.2,0.2,0.7,1,0.6,1.5c-0.4,1.8-0.3,4.5,0.2,6.4c0.1,0.5,0.1,0.9,0.2,1.4c0.1,1.8,0.1,3.9,6.3,5.5c0.3,0.1,0.5,0,0.5,0
		c0.2-0.3-0.3-1.8-0.7-2.6c-0.3-0.7-0.5-1.2-0.5-1.6c0-0.2-0.2-0.4-0.6-0.5c-0.3-0.1-0.6-0.3-0.7-0.7c-0.1-0.2,0-0.4,0.2-0.7
		c0.2-0.3,0.3-0.5,0.3-0.7c0-0.1-0.2-0.3-0.4-0.4c-0.4-0.2-1-0.6-0.8-1.5l0.1-0.3c-0.1,0-0.1,0-0.2-0.1c-0.4-0.1-0.8-0.2-1-0.5
		c-0.2-0.2-0.3-0.3-0.3-0.4c0,0,0,0.1,0,0.1c-0.1,0.2-0.2,0.7-0.7,0.7c-0.1,0-0.3,0-0.5-0.3c-0.5-0.7-0.7-2.8-0.4-3.9
		c0.1-0.3,0.4-0.4,0.5-0.4c0.1-0.3,0.1-0.6,0.1-0.8c0.1-0.8,0.2-1.2,1.2-2.2c0.2-0.2-0.1-0.9-0.5-1.5c-0.3-0.5-0.6-1-0.6-1.5
		c-0.2-2,0-3.3,0.6-3.9c0,0,0,0,0,0c0,0-0.1,0-0.2,0c-0.3,0-0.7,0-1.1,0.1c-0.4,0-0.9,0.1-1.2,0.1c-0.3,0-0.5,0-0.6-0.2
		c-0.1-0.1-0.1-0.3-0.1-0.3c0-0.1,0-0.2-0.1-0.5c0-0.2-0.1-0.3-0.1-0.4c0-0.1,0-0.2-0.1-0.2c0,0-0.2-0.1-0.3-0.2c-0.1,0-0.1,0-0.1,0
		c0,0,0,0-0.1,0.1c-0.1,0.1-0.4,0.3-0.7,0.2c-0.6-0.2-0.4-1.7-0.4-1.7c0.1-0.3,0.2-0.5,0.4-0.5c0.5,0,0.7,0.1,0.8,0.1
		c0.1,0,0.2,0,0.3-0.1c0.4-0.3,0.7-0.3,0.9-0.3c0.2,0,0.3,0,1.1-1.2c-0.1-0.1-0.1-0.1-0.2-0.2c-0.4-0.4-1.1-1.2-1.4-2.2
		c0-0.1-0.1-0.1-0.1-0.1c0,0,0,0,0,0c-0.2,0-0.6,0.1-0.8,0.5c-0.2,0.2-0.5,0.7-0.4,1.3c0,0.1,0.1,0.1,0.2,0.2
		c0.1,0.1,0.3,0.2,0.4,0.4l0.1,0.2l-0.1,0.2c-0.1,0.2-0.4,0.3-1.2,0.4c-0.7,0.1-1.8,0.3-2.3,0.6c-1.6,1-2.2,1.8-2.9,2.7
		c-0.3,0.4-0.6,0.8-1,1.2c0,0.1,0.1,0.2,0.1,0.3c0.1,0.2,0.3,0.4,0.2,0.6c-0.1,0.3-0.4,0.3-0.6,0.3c-0.1,0-0.5,0-0.5,0.1
		c0,0,0,0.1,0.1,0.2c0.3,0.7,0,1.2-0.2,1.5c-0.1,0.1-0.1,0.2-0.1,0.2c-0.4,0.9-1.3,1.3-2.3,1.6c-0.9,0.4-1.9,0.7-2.7,1.6
		c-0.2,0.3-0.5,0.5-0.8,0.5c-0.2,0-0.4-0.1-0.6-0.2c-0.1-0.1-0.3-0.2-0.6-0.2c-0.7-0.3-2.7,0.2-3.6,0.8c0,0,0,0.1,0.1,0.1
		c0.3,0.4,0.7,1.3,0.3,2.1c-0.2,0.4-0.5,0.9-1,0.9c-0.3,0-0.5-0.2-0.7-0.3c-0.1-0.1-0.2-0.1-0.3-0.2c0,0.1-0.1,0.4-0.1,0.5
		c-0.2,0.8-0.3,1.7-1,1.7c-0.4,0-0.8-0.4-1.5-2.1c-0.4-1.1-0.8-1.1-1.3-1.1c-0.2,0-0.4,0-0.6,0c-0.1,0-0.3,0-0.4,0c0,0,0,0.1,0,0.1
		c0.1,0.3,0.3,0.8,0,1.2c-0.2,0.3-0.7,0.6-1.3,0.6c-0.5,0-0.8-0.2-1-0.5c-0.1-0.1-0.1-0.1-0.2-0.1c-0.1,0-0.3,0.1-0.5,0.2
		c-0.2,0.1-0.5,0.3-0.8,0.3c0,0,0,0,0,0c-0.5,0-0.5-0.6-0.6-1.1c0-0.1,0-0.1,0-0.2c0,0-0.1,0-0.1,0c-0.2,0.1-0.2,0.3-0.2,0.6
		c0,0.3-0.1,0.6-0.4,0.9c-0.3,0.3-1.1,0.3-1.2,0.3c-0.3,0-0.5,0-0.7-0.1l-0.2-0.1l-0.1-0.2c-0.1-0.4,0.6-1.5,0.8-1.8l0.2-0.2
		c0.3-0.5,0.6-0.9,1.2-1c0.6-0.1,0.7-0.2,0.7-0.3c0-0.6-2.6-2.2-3.5-2.5c-0.4,0.2-0.4,0.3-0.5,0.8c0,0.2-0.1,0.3-0.1,0.6
		c-0.1,0.3-0.5,0.4-0.8,0.2c0,0,0,0,0,0c0,0,0,0,0,0c-0.1,0.2-0.2,0.6-0.6,0.6c-0.1,0-0.3-0.1-0.5-0.2c-0.2-0.1-0.3-0.3-0.3-0.4
		c-0.2,0-0.3,0-0.5,0c-0.7,0-1.3,0.3-2,0.7c-0.4,0.2-0.8,0.4-1.2,0.6c-0.1,0-0.2,0.1-0.4,0.1c-0.5,0.2-1.5,0.5-1.9,0.8
		c0,0-0.1,0-0.1,0.1c0,0,0.1,0.1,0.1,0.1c0.1,0.2,0.4,0.5,0.3,0.9c0,0.7-0.4,0.8-0.6,0.8c-0.3,0-0.6-0.2-1-0.7c0,0,0,0,0,0.1
		c-0.1,0.3-0.5,0.8-1,0.8l-0.2,0c-0.7-0.2-0.5-1.2-0.4-2c-0.2,0.2-0.2,0.3-0.3,0.5c-0.1,0.2-0.2,0.4-0.5,0.8l-0.1,0.1
		c-0.9,1.3-1.4,2.2-0.8,2.7c1.1,0.9,1.3,1.3,1,1.8c-0.1,0.3-0.4,0.5-0.7,0.5c-0.2,0-0.6-0.1-0.9-0.4c-0.2-0.2-0.3-0.2-0.3-0.2
		c0,0-0.1,0-0.3,0.2c-0.2,0.3-1.2,1.2-2,1.2c-0.2,0-0.4,0-0.5-0.1c-0.3-0.2-0.6-0.3-0.8-0.4c-0.2-0.1-0.5-0.2-0.4-0.5
		c0-0.3,0.3-0.4,0.6-0.5c1-0.3,1.7-1.9,2.3-3.3c0.4-1,0.8-1.9,1.3-2.4l0.3-0.3c0.7-0.7,1.1-1.2,1.2-1.3c0-0.1-0.1-0.1-0.1-0.1
		c-0.7,0-2.2,1.5-2.5,2c0.2,0.2,0.3,0.4,0.2,0.7c0,0.3-0.2,0.5-0.5,0.6c-0.4,0.1-0.6,0.9-0.5,1.3c0,0.2,0,0.3-0.1,0.5
		c-0.2,0.2-0.4,0.3-0.7,0.3l-0.2,0c-0.6-0.2-0.8-1.1-1.3-3.1c-0.1-0.5-0.3-1-0.4-1.4c0,0.1,0,0.2-0.1,0.4c0,0.4-0.1,0.9-0.7,1.2
		c-0.3,0.2-0.6,0.1-0.7-0.1c-0.2-0.2-0.1-0.4-0.1-0.6c0,0,0-0.1,0-0.1c-1.7-0.7-2.2-1.1-2.2-1.5c0-0.1,0-0.2,0-0.3
		c-0.5-0.1-1.4-0.3-1.9-0.3c-0.4-0.1-0.6-0.2-0.6-0.4c-0.2,0-0.3,0-0.4-0.1c-0.9,0.4-1.4,0.3-1.5-0.2c-0.1-0.5,0.3-1.2,0.8-1.4
		l0.1,0c1.1-0.4,1.2-0.7,1.2-0.8c0-0.1-0.2-0.4-0.6-0.7c0,0,0,0,0,0c-0.1,0.2-0.1,0.4-0.3,0.6c-1,1-1.8,1.5-2.4,1.5
		c-0.6,0-0.9-0.4-1.2-0.7c-0.4-0.5-0.6-0.7-1.2-0.4c0,0,0,0-0.1,0.1c-0.2,0.3-0.5,0.6-0.8,0.6c-0.2,0-0.5-0.1-0.5-0.8
		c0-0.3,0.1-0.5,0.2-0.7c0.1-0.3,0.2-0.5,0.1-0.6c0-0.1-0.1-0.2-0.1-0.2c-0.1,0.1-0.2,0.3-0.2,0.5c0,0.2-0.1,0.4-0.2,0.5
		c-0.3,0.3-0.5,0.5-0.8,0.5c-0.1,0-0.5-0.1-0.6-0.5c-0.2-0.6-0.1-1.7,0.4-2.1c0.4-0.3,1-1.1,1.4-1.7c0.7-1,0.9-1.3,1.3-1.3h0.2
		l0.2,0.1c0.2,0.2,0.2,0.5,0.1,0.7c-0.2,2,0.3,2.9,0.6,3.2c0.5,0.6,1.3,0.5,1.8-0.2c0.7-0.8,0.8-2.2,0.5-3.8
		c-0.1-0.2-0.2-0.8,0.4-0.9c0.1-0.3,0-0.5-0.1-0.8c-0.3-0.4-1-0.7-1.7-0.7c-0.2,0-0.5,0-0.6,0.1c0,0,0,0.2-0.1,0.3
		c0,0.3-0.1,0.8-0.6,0.9c-0.9,0.2-3.7,1.3-4.5,1.9c-0.3,0.2-0.4,0.4-0.5,0.6c-0.2,0.3-0.4,0.6-1.1,0.8c-0.2,0.1-0.4,0.1-0.6,0.1
		c-0.8,0-1.4-0.5-2-0.9c-0.5-0.4-1.1-0.8-1.4-0.6c0,0.1,0,0.2,0,0.4c0.1,0.9,0.1,1.1-0.1,1.3l-0.1,0.1l-0.3,0l-0.1-0.1
		c-0.2-0.2-0.4-0.3-0.5-0.4c-0.2-0.2-0.4-0.3-0.6-0.4c-1-0.3-1.5-0.1-2.4,0.3l-0.3,0.1c-0.6,0.2-1.3,0.9-1.7,1.3c0,0,0,0.1,0.1,0.3
		c0.1,0.1,0.1,0.2,0.2,0.3c0.1,0.3-0.1,0.5-0.2,0.6c0.1,0.6-0.4,1.1-0.8,1.5c-0.2,0.2-0.5,0.5-0.7,0.8c-0.1,0.2-0.2,0.5-0.2,0.8
		c-0.1,0.5-0.2,1-0.7,1l-0.2,0c-0.5-0.2-0.7-0.4-0.8-0.6c-0.1,0.1-0.3,0.2-0.5,0.3l-0.1,0.1c-0.1,0-0.2,0.1-0.2,0.2
		c0.1,0.1,0.2,0.2,0.3,0.2c0.2,0.1,0.5,0.2,0.6,0.5c0.2,0.7-0.2,1.1-0.6,1.5c-0.7,0.7-1.4,1.4-0.1,3.3c0.2,0.3,0,0.7-0.1,0.9
		c-0.1,0.1-0.1,0.2-0.1,0.2c-0.1,0.4,0.2,0.7,0.5,1.1c0.2,0.2,0.4,0.5,0.3,0.8c-0.1,0.3-0.5,0.4-1.3,0.5c-0.1,0-0.2,0-0.2,0
		c0,0.1,0,0.3-0.1,0.5c-0.2,0.2-0.5,0.5-0.9,0.5c-0.1,0-0.3,0-0.4-0.1c-1-0.9-1.4-0.9-1.6-0.9c-0.1,0.1-0.1,0.4-0.1,0.5
		c0,0.2,0,0.4-0.1,0.6l-0.1,0.1l-0.2,0l-0.1,0c-0.1,0-0.3-0.1-0.4-0.2c-1.1-0.4-3.1-1.1-3-2.6c0-0.5,0.2-0.7,0.3-0.9
		c0.1-0.2,0.2-0.2-0.1-0.7c-0.1-0.1-0.9-0.5-1.3-0.5c-0.2,0.3-0.3,0.4-0.3,0.5c0,0.2-0.1,0.5-0.4,1c-0.2,0.3,0.9,1.1,1.4,1.5
		c0.6,0.4,0.8,1,0.8,1.1c0,0.1,0,0.2,0,0.3c0,0.2,0.1,0.4,0,0.6c0,0.4-0.1,0.8-0.2,1.2c-0.2,0.8-0.3,1.5,0.1,2.1l0.3,0.4
		c0.5,0.7,1.1,1.5,1.4,2.3c0.1,0.4,0.3,0.7,0.5,1c0.4,0.7,0.7,1.4,0.6,2.3c-0.1,0.9,0,2.5,0.4,2.9c0.2,0.2,0.2,0.2,0.6,0
		c0.3-0.2,0.5-0.8,0.6-1.3c0.1-0.4,0.2-0.8,0.3-1.1c0.1-0.2,0.3-0.3,0.6-0.3c0-0.1,0-0.1,0-0.2c0-0.1,0-0.3,0-0.4
		c0-0.2,0-0.6,0.2-0.8c0.2-0.3,0.6-0.1,0.8,0c0.7-0.5,1.7-0.5,2-0.1c0.1,0.2,0.2,0.4,0.2,0.5c0,0,0,0,0,0c0.1,0,0.3-0.1,0.6-0.2
		c-0.1-0.2-0.2-0.4-0.2-0.6c0-0.1,0-0.5,0.4-0.5h0.3l0.1,0.3c0,0,0,0,0,0.1c0.2-0.2,0.4-1,0.4-1.5c0,0-0.1-0.1-0.1-0.1
		c-0.2-0.1-0.4-0.2-0.4-0.4l0-0.2l0.2-0.3c0.1-0.1,0.1-0.2,0.1-0.2c0,0,0,0,0,0c0,0,0-0.1-0.1-0.2c-0.1-0.2,0-0.4,0-0.5
		c0.2-0.3,0.5-0.3,0.8-0.3c0.1,0,0.4,0,0.4-0.1c1.1-0.9,1.5-1,1.7-1c0.2,0,0.4,0.1,0.5,0.3c0.1,0.3,0.2,0.5,0.2,0.6
		c0.1,0,0.2-0.1,0.3-0.1c0.2-0.1,0.4-0.1,0.7-0.1c0.7,0,1.9,0.2,2.3,0.7l0.1,0.1c0.3,0.3,0.8,0.9,1.1,1.7c0.3,0.6,0,1-0.1,1.3
		c-0.2,0.3-0.2,0.3-0.1,0.5c0.1,0.2,0.5,0.5,0.6,0.5c1.6,0.7,2.1,1.5,2.5,2.1c0.1,0.2,0.2,0.3,0.3,0.5c0.2,0.3,0.7,0.5,1.2,0.5
		c0.2,0,0.4-0.1,0.4-0.1c0.1-0.1,0-0.2,0-0.4c-0.2-0.1-0.3-0.2-0.5-0.5c-0.1-0.2-0.2-0.5,0-0.7c0.1-0.1,0.2-0.2,0.6-0.2
		c0.2,0,0.4,0,0.7,0c0.7-0.2,0.7-0.4,0.9-0.8c0.1-0.2,0.1-0.3,0.2-0.5c0.1-0.2,0.2-0.5,0.5-0.5c0.2,0,0.3,0.1,0.4,0.2
		c0.7,0.7,3.7,1.9,5.2,1.9c0.2,0,0.3,0,0.4,0c0.6-0.2,1,0.2,1.3,0.6c0.1,0.1,0.2,0.2,0.3,0.4c0.4,0.4,0,0.8-0.2,1.1
		c-0.1,0.1-0.2,0.3-0.2,0.4c0,0.1,0.1,0.1,0.2,0.2c0.2,0.1,0.4,0.2,0.6,0.4c0,0,0.1,0.1,0.1,0.1c0,0,0,0,0,0c0.2,0,0.4,0.1,0.5,0.4
		c0,0,0.3,0.9-0.1,1.1c0,0,0,0,0,0c0.4,0.3,0.7,0,1-0.2c0.3-0.2,0.5-0.4,0.8-0.4c0.2,0,0.4,0.1,0.6,0.3c0.7,1,0.8,2.2,0.9,3.4
		c0,0.6,0.1,1.2,0.2,1.9c0.1-0.1,0.3-0.2,0.4-0.2h0.1l0.1,0.1c0.4,0.2,0.6,0.5,0.7,0.6c0.1,0.2,0.2,0.3,1.1,0.4
		c0.8,0.1,1,0.8,1.1,1.3c0,0.2,0.1,0.4,0.2,0.5c0.2,0.6,1.5,1.6,2.1,1.6c0.1,0,0.1,0,0.1,0c0.7-0.4,2.5-1,4-1c0.8,0,1.4,0.2,1.8,0.5
		c0.5,0.5,1.5,1.3,2.3,1.3c0.2,0,0.4-0.1,0.6-0.2c0.2-0.2,0.2-0.3,0.1-0.7c-0.1-0.4-0.1-0.9,0.3-1.3c0.2-0.2,0.2-0.3,0.2-0.4
		c0.1-0.3,0.3-0.4,0.4-0.4c0.1,0,0.2,0,0.3,0.1c1.3,0.7,1.9,1,2.1,1.1c0.1,0.1,0.4,0.2,0.3,0.5l-0.1,0.3c0.1,0.2,0.4,0.4,0.7,0.8
		c0.4,0.4,0.9,0.3,1.6,0.1c0.7-0.2,1.5-0.3,2.1,0.1c0.1,0,0.1,0,0.2,0c0.1,0,0.1,0,0.2,0c0.2,0,0.5,0.1,0.6,0.5
		c0.1,0.3,0.3,0.7,1,0.7c1.3,0,3.1-1,3.9-1.7c0.3-0.2,0.7-0.2,1.3,0c0.4,0.1,0.9,0.3,1.4,0.3c0.7,0,1.4-0.3,2-0.9
		c0.1-0.1,0.1-0.5,0.1-0.7c0-0.6,0-1.2,0.4-1.8c0,0,0,0,0,0c-0.3-0.2-0.9-0.5-0.6-1.1c0.6-1.5,1.5-2.2,2.6-2.2
		c1.8,0,3.6,2.1,4.3,2.9c0.1,0.1,0.2,0.2,0.2,0.2c0.7,0.7,1.8,1.1,3.4,1.3c0.3,0,0.6,0,0.7,0c0-0.1-0.1-0.1-0.1-0.2
		c-0.2-0.3-0.5-0.5-0.3-0.9c0.1-0.3,0.5-0.3,0.6-0.3c0.1,0,0.2,0,0.3,0c0.5,0.1,0.6,0,0.9,0c0.2-0.1,0.5-0.2,1-0.2
		c0.5,0,0.6,0.4,0.7,0.6c0,0.1,0.1,0.3,0.2,0.4c0.7,1,0.8,2.5,0.5,4.8c0,0.2-0.2,0.5-0.6,0.5c-0.1,0-0.2,0-0.4,0
		C-252.3,35.2-252.4,35.2-252.5,35.2z M-265.8-2.7c0.1,0.2,0.2,0.4,0.4,0.7l0,0c0.2,0,0.4-0.2,0.7-0.4
		C-264.9-2.5-265.3-2.6-265.8-2.7z M-266.9-5.2c0.1,0.2,0.1,0.3,0,0.5l-0.1,0.2l-0.3,0c-0.2,0-0.6,0.1-0.6,0.3
		c0,0.3,0.3,0.6,0.7,0.6c0.2,0,0.4-0.1,0.6-0.4c0.7-0.9,0.5-1.2,0.5-1.2C-266.2-5.1-266.4-5.2-266.9-5.2z M-297.8-1.8l-0.1,0
		c-0.3-0.1-1.4-0.5-1.5-1.5c-0.2-1.1,0.9-2.4,3.2-3.9c0.5-0.3,1-0.5,1.5-0.5c0.4,0,0.8,0.1,1.2,0.2c0.4,0.1,0.7,0.2,1,0.1
		c0.8-0.2,1.2,0,1.5,0.2c0.2,0.1,0.4,0.2,0.8,0.2l0.2,0c0.4,0,0.8,0.1,1,0.2c0.3,0.2,0.4,0.4,0.4,0.7c0,0.8-1,1.5-2,1.3
		c-0.7-0.1-1.4-0.2-2-0.2c-2.7,0-3.7,1.5-4.3,2.4C-297.1-2.2-297.3-1.8-297.8-1.8L-297.8-1.8z M-294.7-7.1c-0.4,0-0.7,0.1-1.1,0.4
		c-2.7,1.8-3,2.8-2.9,3.2c0.1,0.5,0.7,0.8,1,0.9c0.1-0.1,0.2-0.3,0.3-0.4c0.6-1,1.8-2.8,4.9-2.8c0.6,0,1.4,0.1,2.1,0.2
		c0.6,0.1,1.1-0.3,1.1-0.6c0,0,0-0.1-0.1-0.1c-0.1,0-0.2-0.1-0.6-0.1l-0.2,0c-0.6,0-0.9-0.2-1.1-0.3c-0.3-0.1-0.5-0.2-1-0.1
		c-0.5,0.1-0.9,0-1.4-0.2C-294-7-294.3-7.1-294.7-7.1z M-301.4-3.3V-4c0.1,0,0.2,0,0.3-0.1c0,0,0-0.1,0-0.1c0-0.1-0.1-0.3-0.2-0.3
		v-0.7c0.6,0,0.9,0.5,0.9,1c0,0.3-0.1,0.5-0.3,0.7C-300.7-3.5-301-3.3-301.4-3.3z M-280.3-4l-0.1-0.1l0-0.2c0,0,0.1-0.4,0.2-0.8
		c-0.3,0-0.6-0.4-0.8-0.6c-0.1-0.2-0.3-0.4-0.5-0.5c-0.4-0.2-0.7-0.5-0.7-0.8c-0.1-0.5,0.2-1,0.4-1.3c0.1-0.1,0.1-0.2,0.2-0.3
		c0.1-0.1,0.4-0.8,1-0.8c0.1,0,0.2,0,0.3,0.1c0.4,0.2,0.4,0.5,0.4,0.7c0,0.1,0,0.2,0.1,0.2l0.1,0.1l0,0.2c0,0.2-0.1,0.3-0.2,0.3
		c0,0-0.1,0.1-0.1,0.1c0.2,0,0.4,0.1,0.5,0.3c0.2,0.3,0.2,0.6,0.3,0.9c0.1,0,0.1,0,0.2,0v0.7c-0.2,0.1-0.7,1.3-0.8,1.6l-0.4,0
		L-280.3-4z M-280.5-8.7c-0.1,0-0.3,0.2-0.4,0.4c-0.1,0.1-0.1,0.2-0.2,0.4c-0.2,0.3-0.4,0.6-0.3,0.7c0,0.1,0.2,0.3,0.4,0.4
		c0.3,0.2,0.5,0.5,0.7,0.7c0.1,0.1,0.2,0.3,0.3,0.3c0.3-0.3,0.4-0.7,0.2-1.2c-0.1,0-0.1,0-0.1,0c-0.2,0-0.3-0.1-0.4-0.2
		c-0.2-0.3-0.1-0.6,0.1-1C-280.5-8.3-280.5-8.5-280.5-8.7C-280.5-8.7-280.5-8.7-280.5-8.7z M-328.9-10.1c-0.2,0-0.4-0.1-0.6-0.3
		c-0.5-0.7-0.4-2.1-0.3-2.7c0.1-0.3,0.3-0.4,0.7-0.4c0.2,0,0.5,0.1,0.6,0.2c0.1,0.1,0.8,0.5,0.9,0.9c0,0.2,0,0.3-0.1,0.4
		c0,0.1-0.1,0.1-0.2,0.1c0,0,0,0,0,0c0.3,0.4,0.6,0.8,0.4,1.3C-327.6-10.2-328.3-10.1-328.9-10.1L-328.9-10.1z M-329.1-12.9
		c-0.1,0.6-0.1,1.7,0.1,2c0,0.1,0.1,0.1,0.1,0.1v0.4l0-0.4c0.7,0,0.8-0.2,0.8-0.2c0-0.1-0.2-0.4-0.3-0.5c-0.2-0.3-0.5-0.6-0.4-0.9
		l0.1-0.3c0,0-0.1,0-0.1,0C-328.9-12.8-329-12.9-329.1-12.9C-329.1-12.9-329.1-12.9-329.1-12.9z M-253.3-11.8
		c-0.5,0-0.9-0.5-0.9-1.3c0-0.4,0.1-0.8,0.2-1.1c0.2-0.4,0.5-0.7,0.9-0.7v0.7c-0.1,0-0.2,0.1-0.2,0.3c-0.1,0.2-0.2,0.5-0.2,0.8
		c0,0.4,0.1,0.6,0.2,0.6V-11.8z"/>
</g>
<g>
	<g>
		<path class="st1" d="M-206,48.8h-3.3c-2.1,0-4.4-1.6-4.6-5.1l-1.7-24.2c-2.4-0.5-4.1-2.5-4.3-5l-1-16.3c-0.1-1.7,0.4-3.4,1.6-4.7
			c1.2-1.3,2.8-2.1,4.5-2.2l1.5-0.1c-1.9-1.6-3-4-3-6.5c0-4.8,3.8-8.5,8.5-8.5c4.7,0,8.5,3.8,8.5,8.5c0,2.5-1.1,4.9-3,6.5l1.5,0.1
			c3.6,0.3,6.3,3.4,6.2,6.9l-1,16.3c-0.1,2.5-1.9,4.5-4.3,5l-1.7,24.2C-201.6,47.5-204,48.8-206,48.8z M-213-8l-1.8,0.1
			c-1.5,0.1-2.9,0.8-4,1.9c-1,1.2-1.5,2.6-1.4,4.2l1,16.3c0.2,2.2,1.8,4.1,4,4.4l0.3,0l1.7,24.8c0.2,3,2,4.4,3.8,4.4h3.3
			c1.7,0,3.7-1.1,3.8-4.4l1.7-24.8l0.3,0c2.2-0.3,3.9-2.2,4-4.4l1-16.4c0.2-3.1-2.3-5.8-5.5-6.1l-2.6-0.1h-1.3l1.1-0.7
			c2.2-1.4,3.5-3.9,3.5-6.5c0-4.3-3.5-7.8-7.8-7.8c-4.4,0-7.8,3.4-7.8,7.8c0,2.6,1.4,5.1,3.5,6.5l1.1,0.7H-213z"/>
	</g>
	<g>
		<path class="st1" d="M-177,48.8h-3.3c-2.1,0-4.4-1.6-4.6-5.1l-1.7-24.2c-2.4-0.5-4.1-2.5-4.3-5l-1-16.3c-0.1-1.7,0.4-3.4,1.6-4.7
			c1.2-1.3,2.8-2.1,4.5-2.2l1.5-0.1c-1.9-1.6-3-4-3-6.5c0-4.8,3.8-8.5,8.5-8.5c4.7,0,8.5,3.8,8.5,8.5c0,2.5-1.1,4.9-3,6.5l1.5,0.1
			c3.6,0.3,6.3,3.4,6.2,6.9l-1,16.3c-0.1,2.5-1.9,4.5-4.3,5l-1.7,24.2C-172.6,47.5-175,48.8-177,48.8z M-184-8l-1.8,0.1
			c-1.5,0.1-2.9,0.8-4,1.9c-1,1.2-1.5,2.6-1.4,4.2l1,16.3c0.2,2.2,1.8,4.1,4,4.4l0.3,0l1.7,24.8c0.2,3,2,4.4,3.8,4.4h3.3
			c1.7,0,3.7-1.1,3.8-4.4l1.7-24.8l0.3,0c2.2-0.3,3.9-2.2,4-4.4l1-16.4c0.2-3.1-2.3-5.8-5.5-6.1l-2.6-0.1h-1.3l1.1-0.7
			c2.2-1.4,3.5-3.9,3.5-6.5c0-4.3-3.5-7.8-7.8-7.8c-4.4,0-7.8,3.4-7.8,7.8c0,2.6,1.4,5.1,3.5,6.5l1.1,0.7H-184z"/>
	</g>
	<g>
		<path class="st1" d="M-148,48.8h-3.3c-2.1,0-4.4-1.6-4.6-5.1l-1.7-24.2c-2.4-0.5-4.1-2.5-4.3-5l-1-16.3c-0.1-1.7,0.4-3.4,1.6-4.7
			c1.2-1.3,2.8-2.1,4.5-2.2l1.5-0.1c-1.9-1.6-3-4-3-6.5c0-4.8,3.8-8.5,8.5-8.5c4.7,0,8.5,3.8,8.5,8.5c0,2.5-1.1,4.9-3,6.5l1.5,0.1
			c3.6,0.3,6.3,3.4,6.2,6.9l-1,16.3c-0.1,2.5-1.9,4.5-4.3,5l-1.7,24.2C-143.6,47.5-146,48.8-148,48.8z M-155-8l-1.8,0.1
			c-1.5,0.1-2.9,0.8-4,1.9c-1,1.2-1.5,2.6-1.4,4.2l1,16.3c0.2,2.2,1.8,4.1,4,4.4l0.3,0l1.7,24.8c0.2,3,2,4.4,3.8,4.4h3.3
			c1.7,0,3.7-1.1,3.8-4.4l1.7-24.8l0.3,0c2.2-0.3,3.9-2.2,4-4.4l1-16.4c0.2-3.1-2.3-5.8-5.5-6.1l-2.6-0.1h-1.3l1.1-0.7
			c2.2-1.4,3.5-3.9,3.5-6.5c0-4.3-3.5-7.8-7.8-7.8c-4.4,0-7.8,3.4-7.8,7.8c0,2.6,1.4,5.1,3.5,6.5l1.1,0.7H-155z"/>
	</g>
</g>
<g>
	<path class="st1" d="M-373.9-2.3c-3,0-5.4-2.4-5.4-5.4c0-1.6,0.7-3.1,2-4.2c0.7-0.5,1.4-0.9,2.2-1.1v-9.9c0-0.7,0.5-1.2,1.2-1.2
		s1.2,0.5,1.2,1.2v9.9c0.8,0.2,1.6,0.6,2.2,1.1c1.2,1,2,2.6,2,4.2C-368.5-4.8-370.9-2.3-373.9-2.3z M-373.9-23.4
		c-0.3,0-0.5,0.2-0.5,0.5v10.5l-0.3,0.1c-0.8,0.1-1.6,0.5-2.2,1c-1.1,0.9-1.7,2.2-1.7,3.6c0,2.6,2.1,4.7,4.7,4.7s4.7-2.1,4.7-4.7
		c0-1.4-0.6-2.7-1.7-3.6c-0.6-0.5-1.4-0.9-2.2-1l-0.3-0.1v-10.5C-373.5-23.2-373.7-23.4-373.9-23.4z"/>
	<path class="st1" d="M-405.9-2.3c-3,0-5.4-2.4-5.4-5.4c0-1.6,0.7-3.1,2-4.2c0.7-0.5,1.4-0.9,2.2-1.1v-9.9c0-0.7,0.5-1.2,1.2-1.2
		s1.2,0.5,1.2,1.2v9.9c0.8,0.2,1.6,0.6,2.2,1.1c1.2,1,2,2.6,2,4.2C-400.5-4.8-402.9-2.3-405.9-2.3z M-405.9-23.4
		c-0.3,0-0.5,0.2-0.5,0.5v10.5l-0.3,0.1c-0.8,0.1-1.6,0.5-2.2,1c-1.1,0.9-1.7,2.2-1.7,3.6c0,2.6,2.1,4.7,4.7,4.7s4.7-2.1,4.7-4.7
		c0-1.4-0.6-2.7-1.7-3.6c-0.6-0.5-1.4-0.9-2.2-1l-0.3-0.1v-10.5C-405.4-23.2-405.6-23.4-405.9-23.4z"/>
	<path class="st1" d="M-363.9,45.6H-416c-3.5,0-6.3-2.8-6.3-6.3V6.8h64.7v32.5C-357.6,42.8-360.4,45.6-363.9,45.6z M-421.5,7.5v31.8
		c0,3.1,2.5,5.5,5.5,5.5h52.1c3.1,0,5.5-2.5,5.5-5.5V7.5H-421.5z M-357.6,1.9h-64.7v-13c0-0.4,0-0.9,0.1-1.3c0.2-1,0.7-1.9,1.3-2.7
		c0.1-0.2,0.3-0.3,0.4-0.4c0.9-0.9,2-1.5,3.2-1.7c0.4-0.1,0.8-0.1,1.3-0.1h5v0.8h-5c-0.4,0-0.8,0-1.1,0.1c-1.1,0.2-2,0.7-2.8,1.5
		c-0.1,0.1-0.2,0.3-0.4,0.4c-0.6,0.7-1,1.5-1.1,2.4c-0.1,0.4-0.1,0.7-0.1,1.1V1.1h63.2v-12.2c0-0.4,0-0.8-0.1-1.1
		c-0.4-2.2-2.1-3.9-4.3-4.3c-0.4-0.1-0.7-0.1-1.1-0.1h-5v-0.8h5c0.4,0,0.9,0,1.3,0.1c2.5,0.5,4.4,2.4,4.9,4.9
		c0.1,0.4,0.1,0.8,0.1,1.3V1.9z"/>
	<path class="st3" d="M-400.8-18.7"/>
	<rect x="-400.8" y="-17.4" class="st1" width="21.9" height="0.8"/>
</g>
<g>
	<image style="overflow:visible;" width="405" height="394" xlink:href="1DDA8AF9.png"  transform="matrix(1 0 0 1 -490 162.5967)">
	</image>
	<image style="overflow:visible;" width="203" height="388" xlink:href="1DDA8AFB.png"  transform="matrix(1 0 0 1 -357 166.5967)">
	</image>
	<image style="overflow:visible;" width="203" height="390" xlink:href="1DDA8AFE.png"  transform="matrix(1 0 0 1 -357 164.5967)">
	</image>
	<image style="overflow:visible;" width="73" height="162" xlink:href="1DDA8AFF.png"  transform="matrix(1 0 0 1 -423 166.5967)">
	</image>
	<image style="overflow:visible;" width="92" height="218" xlink:href="1DDA8AFA.png"  transform="matrix(1 0 0 1 -487 283.5967)">
	</image>
</g>
<g>
	<path class="st4" d="M-313.4-125c-1.2,0-2.3-0.2-3.4-0.5c-0.5-0.2-1.2,0-1.5,0.3l-2.2,1.6c-2.5-1.3-4.1-2.9-5.4-5.4l1.6-2.1
		c0.4-0.4,0.5-1,0.4-1.5c-0.4-1.1-0.5-2.2-0.5-3.4c0-0.8-0.7-1.5-1.5-1.5h-3.5c-0.8,0-1.5,0.7-1.5,1.5c0,9.6,7.9,17.5,17.5,17.5
		c0.8,0,1.5-0.7,1.5-1.5v-3.5C-311.9-124.3-312.6-125-313.4-125z"/>
</g>
<g>
	<path class="st5" d="M-289.4-125c-1.2,0-2.3-0.2-3.4-0.5c-0.5-0.2-1.2,0-1.5,0.3l-2.2,1.6c-2.5-1.3-4.1-2.9-5.4-5.4l1.6-2.1
		c0.4-0.4,0.5-1,0.4-1.5c-0.4-1.1-0.5-2.2-0.5-3.4c0-0.8-0.7-1.5-1.5-1.5h-3.5c-0.8,0-1.5,0.7-1.5,1.5c0,9.6,7.9,17.5,17.5,17.5
		c0.8,0,1.5-0.7,1.5-1.5v-3.5C-287.9-124.3-288.6-125-289.4-125z"/>
</g>
<g>
	<path class="st6" d="M33.9-151.4c31.3,0,56.7,25.4,56.7,56.7C90.6-63.4,65.2-38,33.9-38C2.6-38-22.8-63.4-22.8-94.7
		C-22.8-126,2.6-151.4,33.9-151.4"/>
	<path class="st7" d="M33.9-32c-3.3,0-6-2.7-6-6c0-3.3,2.7-6,6-6c3.3,0,6,2.7,6,6"/>
	<path class="st7" d="M39.9-38c0,3.3-2.7,6-6,6"/>
	<path class="st8" d="M33.9-32c-3.3,0-6-2.7-6-6c0-3.3,2.7-6,6-6c3.3,0,6,2.7,6,6C39.9-34.7,37.2-32,33.9-32"/>
	<line class="st9" x1="34.3" y1="-121.3" x2="34.3" y2="-128.4"/>
	<line class="st9" x1="23" y1="-119.1" x2="18.9" y2="-124.9"/>
	<line class="st9" x1="14.3" y1="-111.5" x2="8.2" y2="-115"/>
	<line class="st9" x1="12.4" y1="-89.3" x2="6.3" y2="-85.8"/>
	<line class="st9" x1="11" y1="-100.9" x2="3.9" y2="-100.9"/>
	<line class="st9" x1="44.7" y1="-119.1" x2="48.9" y2="-124.9"/>
	<line class="st9" x1="53.4" y1="-111.5" x2="59.6" y2="-115"/>
	<line class="st9" x1="55.3" y1="-89.3" x2="61.5" y2="-85.8"/>
	<line class="st9" x1="56.8" y1="-100.9" x2="63.9" y2="-100.9"/>
	<path class="st9" d="M49.5-98c0-8.9-7.5-16.1-16.5-15.6c-7.6,0.4-13.9,6.4-14.7,13.9c-0.6,5.4,1.6,10.3,5.3,13.5
		c2.2,1.9,3.6,4.7,3.6,7.6v8.9c0,3.7,3,6.6,6.6,6.6s6.6-3,6.6-6.6v-8.8c0-3,1.4-5.8,3.6-7.7C47.4-89.1,49.5-93.3,49.5-98z"/>
	<line class="st9" x1="28" y1="-74.2" x2="39.8" y2="-74.2"/>
	<polyline class="st9" points="24.9,-97.5 31.7,-90.7 42.2,-101.3 	"/>
</g>
<g>
	<circle class="st6" cx="31.5" cy="29.8" r="56.7"/>
	<path class="st7" d="M92.2,43.7c0,3.3-2.7,6-6,6c-3.3,0-6-2.7-6-6c0-3.3,2.7-6,6-6C89.5,37.7,92.2,40.4,92.2,43.7"/>
	<circle class="st8" cx="86.2" cy="43.7" r="6"/>
	<path class="st7" d="M23.1,25.1l-10,2.4c-1.2,0.3-2.4,0.2-3.5-0.4l-5.7-3.4v17.9l22.4,13c3.5,2,7.8,1.9,11.1-0.2l9-5.5
		c1.3-0.8,1.6-2.7,0.5-3.9L29.1,26.8C27.6,25.1,25.3,24.5,23.1,25.1"/>
	<path class="st9" d="M23.1,25.1l-10,2.4c-1.2,0.3-2.4,0.2-3.5-0.4l-5.7-3.4v17.9l22.4,13c3.5,2,7.8,1.9,11.1-0.2l9-5.5
		c1.3-0.8,1.6-2.7,0.5-3.9L29.1,26.8C27.6,25.1,25.3,24.5,23.1,25.1z"/>
	<path class="st7" d="M59.2,23.6l-4.7,3c-1.5,0.9-3.2,1.2-4.9,0.7l-7.2-2.1c-2.8-0.8-5.9-0.2-8.2,1.7l-10.6,9l2.4,2
		c1.9,1.6,4.6,1.9,6.8,0.7l5.3-2.9l9.5,10.6l11.5-4.8L59.2,23.6z"/>
	<path class="st9" d="M59.2,23.6l-4.7,3c-1.5,0.9-3.2,1.2-4.9,0.7l-7.2-2.1c-2.8-0.8-5.9-0.2-8.2,1.7l-10.6,9l2.4,2
		c1.9,1.6,4.6,1.9,6.8,0.7l5.3-2.9l9.5,10.6l11.5-4.8L59.2,23.6z"/>
	<path class="st7" d="M24.1,56l-8.9-6.6c-1-0.8-1.2-2.2-0.5-3.2l1.1-1.5c0.8-1,2.2-1.2,3.2-0.5l8.9,6.6c1,0.8,1.2,2.2,0.5,3.2
		l-1.1,1.5C26.5,56.5,25.1,56.8,24.1,56"/>
	<path class="st9" d="M24.1,56l-8.9-6.6c-1-0.8-1.2-2.2-0.5-3.2l1.1-1.5c0.8-1,2.2-1.2,3.2-0.5l8.9,6.6c1,0.8,1.2,2.2,0.5,3.2
		l-1.1,1.5C26.5,56.5,25.1,56.8,24.1,56z"/>
	<line class="st7" x1="35.7" y1="13.3" x2="37.1" y2="3.2"/>
	<line class="st9" x1="35.7" y1="13.3" x2="37.1" y2="3.2"/>
	<line class="st7" x1="42.9" y1="15.9" x2="46.4" y2="8.8"/>
	<line class="st9" x1="42.9" y1="15.9" x2="46.4" y2="8.8"/>
	<line class="st7" x1="27.9" y1="13.3" x2="26.6" y2="3.2"/>
	<line class="st9" x1="27.9" y1="13.3" x2="26.6" y2="3.2"/>
	<line class="st7" x1="20.8" y1="15.9" x2="17.2" y2="8.8"/>
	<line class="st9" x1="20.8" y1="15.9" x2="17.2" y2="8.8"/>
</g>
<g>
	<path class="st6" d="M-20,157.7"/>
	<path class="st6" d="M-20,157.7c-0.4-2.6-0.5-5.2-0.5-7.8c0-31.3,25.4-56.7,56.7-56.7c31.3,0,56.7,25.4,56.7,56.7
		c0,31.3-25.4,56.7-56.7,56.7c-24.3,0-45.1-15.3-53.1-36.8"/>
	<circle class="st8" cx="-18.6" cy="163.7" r="6"/>
	<ellipse class="st9" cx="36.1" cy="144" rx="9.3" ry="9.4"/>
	<path class="st9" d="M54.6,181.2H17.7v-6c0-8.3,6.7-15,15-15h7.6c7.9,0,14.3,6.4,14.3,14.3V181.2z"/>
	<polygon class="st9" points="36,176.1 39.3,173.6 37.5,160.4 34.5,160.4 32.7,173.6 	"/>
	<line class="st9" x1="24.8" y1="181.2" x2="24.8" y2="173.2"/>
	<line class="st9" x1="47.8" y1="181.2" x2="47.8" y2="173.2"/>
	<circle class="st9" cx="22.9" cy="129.7" r="2.3"/>
	<circle class="st9" cx="35.6" cy="120.9" r="2.3"/>
	<circle class="st9" cx="49.4" cy="129.9" r="2.3"/>
	<line class="st9" x1="24.6" y1="128.4" x2="33.4" y2="122.7"/>
	<line class="st9" x1="47.4" y1="128.4" x2="38.6" y2="122.7"/>
</g>
<g>
	<circle class="st6" cx="32.7" cy="268.4" r="56.7"/>
	<path class="st10" d="M49.7,255.5c0-0.3,0.2-0.7,0.5-0.9l7.8-5.3c0.5-0.3,1.1-0.2,1.4,0.3c0.3,0.5,0.2,1.1-0.3,1.4l-7.8,5.3
		c-0.5,0.3-1.1,0.2-1.4-0.3C49.8,255.9,49.7,255.7,49.7,255.5"/>
	<path class="st11" d="M49.7,255.5c0-0.3,0.2-0.7,0.5-0.9l7.8-5.3c0.5-0.3,1.1-0.2,1.4,0.3c0.3,0.5,0.2,1.1-0.3,1.4l-7.8,5.3
		c-0.5,0.3-1.1,0.2-1.4-0.3C49.8,255.9,49.7,255.7,49.7,255.5z"/>
	<path class="st10" d="M51.4,264.5c0-0.5,0.4-0.9,0.9-1l15-2.4c0.6-0.1,1.1,0.3,1.2,0.9c0.1,0.6-0.3,1.1-0.9,1.2l-15,2.4
		c-0.6,0.1-1.1-0.3-1.2-0.9v0L51.4,264.5z"/>
	<path class="st11" d="M51.4,264.5c0-0.5,0.4-0.9,0.9-1l15-2.4c0.6-0.1,1.1,0.3,1.2,0.9c0.1,0.6-0.3,1.1-0.9,1.2l-15,2.4
		c-0.6,0.1-1.1-0.3-1.2-0.9v0L51.4,264.5z"/>
	<path class="st10" d="M49.7,282.8c0-0.6,0.5-1,1-1c0.2,0,0.4,0.1,0.6,0.2l7.8,5.3c0.5,0.3,0.6,1,0.3,1.4c-0.3,0.5-1,0.6-1.4,0.3
		c0,0,0,0-0.1,0l-7.8-5.3C49.9,283.5,49.7,283.2,49.7,282.8"/>
	<path class="st11" d="M49.7,282.8c0-0.6,0.5-1,1-1c0.2,0,0.4,0.1,0.6,0.2l7.8,5.3c0.5,0.3,0.6,1,0.3,1.4c-0.3,0.5-1,0.6-1.4,0.3
		c0,0,0,0-0.1,0l-7.8-5.3C49.9,283.5,49.7,283.2,49.7,282.8z"/>
	<path class="st10" d="M51.4,273.8v-0.2c0.1-0.6,0.6-1,1.2-0.9l0,0l15,2.4c0.6,0.1,1,0.6,0.9,1.2c-0.1,0.6-0.6,1-1.2,0.9l-15-2.4
		C51.8,274.8,51.4,274.3,51.4,273.8"/>
	<path class="st11" d="M51.4,273.8v-0.2c0.1-0.6,0.6-1,1.2-0.9l0,0l15,2.4c0.6,0.1,1,0.6,0.9,1.2c-0.1,0.6-0.6,1-1.2,0.9l-15-2.4
		C51.8,274.8,51.4,274.3,51.4,273.8z"/>
	<polyline class="st12" points="4.1,266 43.4,248.2 43.4,288.6 4.1,272.6 	"/>
	<rect x="-2.1" y="262.6" class="st12" width="6.2" height="13.1"/>
	<path class="st12" d="M23.3,281.8c-1.4,2.9-4.9,4.1-7.8,2.7c-2.9-1.4-4.1-4.9-2.7-7.8"/>
	<path class="st7" d="M2.6,226.4c0,3.3-2.7,6-6,6s-6-2.7-6-6c0-3.3,2.7-6,6-6S2.6,223,2.6,226.4"/>
	<circle class="st8" cx="-3.5" cy="226.4" r="6"/>
</g>
<g>
	<circle class="st6" cx="31" cy="395.2" r="56.7"/>
	<path class="st7" d="M74.2,353.8c0,3.3-2.7,6-6,6c-3.3,0-6-2.7-6-6c0-3.3,2.7-6,6-6C71.5,347.8,74.2,350.5,74.2,353.8"/>
	<circle class="st8" cx="68.2" cy="353.8" r="6"/>
	<path class="st13" d="M27.8,409.7v-17.2v-6.8h7.2c3.4,0,6.2,2.8,6.2,6.2c0,3.4-2.8,6.2-6.2,6.2H24.9"/>
	<line class="st14" x1="25" y1="402.6" x2="35.3" y2="402.6"/>
	<path class="st15" d="M27.8,409.7v-17.2v-6.8h7.2c3.4,0,6.2,2.8,6.2,6.2c0,3.4-2.8,6.2-6.2,6.2H24.9"/>
	<line class="st15" x1="25" y1="402.6" x2="35.3" y2="402.6"/>
	<path class="st16" d="M59.2,386.7c-0.4-8.3-7.2-14.9-15.5-15.2c-5.1-0.2-9.6,2-12.7,5.5c-3.1-3.5-7.6-5.7-12.7-5.5
		c-8.2,0.3-14.9,6.9-15.5,15c-0.3,4.8,1.9,8.7,4.6,12.4c3.9,4.8,12.7,15.2,22.7,23.8c0.4,0.4,1.1,0.4,1.6,0
		c9.8-8.4,18.5-18.6,22.5-23.5C57.1,395.5,59.5,391.6,59.2,386.7z"/>
</g>
<g>
	<line class="st17" x1="-180.7" y1="768.6" x2="-402.2" y2="685.1"/>
	<line class="st18" x1="-149.1" y1="751.3" x2="-372.6" y2="667.1"/>
	<line class="st19" x1="-215.3" y1="787" x2="-438.8" y2="702.8"/>
	<line class="st19" x1="-287.7" y1="655.1" x2="-496" y2="771.9"/>
	<line class="st17" x1="-254.6" y1="667.3" x2="-462.9" y2="784.1"/>
	<line class="st18" x1="-223.8" y1="679.9" x2="-432.1" y2="796.6"/>
	<line class="st17" x1="-187.8" y1="695.1" x2="-396" y2="811.8"/>
</g>
<g>
	<line class="st7" x1="-144.3" y1="-129.4" x2="-144.3" y2="-121.4"/>
	<line class="st20" x1="-144.3" y1="-129.4" x2="-144.3" y2="-121.4"/>
	<line class="st7" x1="-140.3" y1="-125.4" x2="-148.3" y2="-125.4"/>
	<line class="st20" x1="-140.3" y1="-125.4" x2="-148.3" y2="-125.4"/>
</g>
<g>
	<path class="st21" d="M-67.9-118.2l-7,5.9l-12.2-10.3l-2.8-7.9l4.2-7h6.9l3.9,4.4l3.9-4.4h6.9l4.2,7c0,0-1.7,4.7-1.7,4.7h-6.6"/>
	<circle class="st22" cx="-71.8" cy="-125.5" r="3.2"/>
	<line class="st23" x1="-66.5" y1="-130.6" x2="-68.9" y2="-128.2"/>
	<line class="st23" x1="-77.2" y1="-130.6" x2="-74.8" y2="-128.2"/>
	<line class="st23" x1="-66.5" y1="-120.4" x2="-68.9" y2="-122.9"/>
	<line class="st23" x1="-77.2" y1="-120.4" x2="-74.8" y2="-122.9"/>
</g>
<g>
	<g>
		<line class="st24" x1="-4" y1="517.9" x2="-2.3" y2="518.8"/>
		<line class="st25" x1="2.6" y1="521.7" x2="65.5" y2="558.8"/>
		<line class="st24" x1="68" y1="560.2" x2="69.6" y2="561.2"/>
		<line class="st24" x1="-14.7" y1="517.9" x2="-16.3" y2="518.8"/>
		<line class="st25" x1="-21.2" y1="521.7" x2="-84.2" y2="558.8"/>
		<line class="st24" x1="-86.6" y1="560.2" x2="-88.2" y2="561.2"/>
		<line class="st26" x1="-21.7" y1="612" x2="-23.2" y2="611.1"/>
		<line class="st27" x1="-27.6" y1="608.5" x2="-84.6" y2="575"/>
		<line class="st26" x1="-86.8" y1="573.7" x2="-88.2" y2="572.9"/>
		<line class="st28" x1="-0.6" y1="614.2" x2="0.9" y2="613.3"/>
		<line class="st29" x1="5.6" y1="610.5" x2="65.7" y2="575.1"/>
		<line class="st28" x1="68" y1="573.8" x2="69.6" y2="572.9"/>
		<circle class="st8" cx="-10" cy="513.9" r="6"/>
		<circle class="st30" cx="-10" cy="617.1" r="12.8"/>
		<circle class="st8" cx="74.5" cy="567.2" r="6"/>
		<circle class="st8" cx="-92.9" cy="567.2" r="6"/>
		<line class="st24" x1="-14.7" y1="719" x2="-16.3" y2="718"/>
		<line class="st25" x1="-21.2" y1="715.1" x2="-84.2" y2="678.1"/>
		<line class="st24" x1="-86.6" y1="676.6" x2="-88.2" y2="675.7"/>
		<line class="st24" x1="-4" y1="719" x2="-2.3" y2="718"/>
		<line class="st25" x1="2.6" y1="715.1" x2="65.5" y2="678.1"/>
		<line class="st24" x1="68" y1="676.6" x2="69.6" y2="675.7"/>
		<circle class="st8" cx="-10" cy="719.9" r="6"/>
		<circle class="st8" cx="74.5" cy="670" r="6"/>
		<circle class="st8" cx="-92.9" cy="670" r="6"/>
		<line class="st31" x1="74.7" y1="664" x2="74.7" y2="662.3"/>
		<line class="st32" x1="74.7" y1="657.4" x2="74.7" y2="577.3"/>
		<line class="st31" x1="74.7" y1="574.8" x2="74.7" y2="573.2"/>
		<line class="st33" x1="-10" y1="712.8" x2="-10" y2="711.2"/>
		<line class="st34" x1="-10" y1="706.5" x2="-10" y2="631.5"/>
		<line class="st33" x1="-10" y1="629.2" x2="-10" y2="627.6"/>
		<line class="st31" x1="-92.9" y1="664" x2="-92.9" y2="662.3"/>
		<line class="st32" x1="-92.9" y1="657.4" x2="-92.9" y2="577.3"/>
		<line class="st31" x1="-92.9" y1="574.8" x2="-92.9" y2="573.2"/>
		<line class="st35" x1="-85.7" y1="653.3" x2="-13.7" y2="551"/>
		<line class="st35" x1="-3.2" y1="594.7" x2="55.4" y2="509"/>
		<line class="st35" x1="64" y1="535.6" x2="64" y2="547.6"/>
		<line class="st35" x1="70" y1="541.6" x2="58.1" y2="541.6"/>
		<circle class="st35" cx="-7.8" cy="541.2" r="5.3"/>
		<polyline class="st36" points="77.7,693.5 103.7,681.7 103.7,708.5 77.7,697.9 		"/>
		<rect x="73.5" y="691.3" class="st35" width="4.1" height="8.7"/>
		<path class="st35" d="M90.3,704c-0.9,1.9-3.2,2.7-5.2,1.8c-1.9-0.9-2.7-3.3-1.8-5.2"/>
		<polyline class="st37" points="-116.6,672.2 -112.6,694.9 -118.9,700.3 -125.2,694.9 -121.2,672.2 		"/>
		<line class="st37" x1="-126.4" y1="686.9" x2="-118.7" y2="686.9"/>
		<polygon class="st37" points="-116.6,664 -121.2,664 -123.4,666.7 -121.2,672.2 -116.6,672.2 -114.4,666.7 		"/>
		<polyline class="st36" points="-116.6,672.2 -112.6,694.9 -118.9,700.3 -125.2,694.9 -121.2,672.2 		"/>
		<line class="st36" x1="-126.4" y1="686.9" x2="-118.7" y2="686.9"/>
		<polygon class="st36" points="-116.6,664 -121.2,664 -123.4,666.7 -121.2,672.2 -116.6,672.2 -114.4,666.7 		"/>
		<path class="st36" d="M-112.7,573.3c-0.3-4.8-4.2-8.6-9-8.8c-2.9-0.1-5.6,1.1-7.3,3.2c-1.8-2-4.4-3.3-7.3-3.2
			c-4.7,0.2-8.6,4-8.9,8.7c-0.2,2.8,1.1,5,2.7,7.2c2.3,2.8,7.3,8.8,13.1,13.7c0.3,0.2,0.6,0.2,0.9,0c5.7-4.8,10.7-10.7,13-13.6
			C-113.9,578.4-112.6,576.1-112.7,573.3z"/>
	</g>
	<polyline class="st35" points="74.8,487.4 69.8,491.1 73.3,501.9 64,495.2 54.8,501.9 58.3,491.1 49.1,484.3 60.5,484.3 64,473.5 
		67.6,484.3 79,484.3 	"/>
</g>
<g>
	<path class="st0" d="M-203.9-133.2c-0.2,0.2-0.2,0.5-0.1,0.7l3.9,4.7l-3.9,4.7c-0.2,0.2-0.1,0.5,0.1,0.7c0.2,0.2,0.5,0.1,0.7-0.1
		l4.2-5c0.1-0.1,0.1-0.2,0.1-0.3c0-0.1,0-0.2-0.1-0.3l-4.2-5C-203.4-133.3-203.7-133.3-203.9-133.2z"/>
</g>
<g>
	<path class="st0" d="M-210.1-133.2c0.2,0.2,0.2,0.5,0.1,0.7l-3.9,4.7l3.9,4.7c0.2,0.2,0.1,0.5-0.1,0.7c-0.2,0.2-0.5,0.1-0.7-0.1
		l-4.2-5c-0.1-0.1-0.1-0.2-0.1-0.3c0-0.1,0-0.2,0.1-0.3l4.2-5C-210.6-133.3-210.3-133.3-210.1-133.2z"/>
</g>
<g>
	<path class="st1" d="M-142.5-112.1c-0.4,0.3-0.4,0.8-0.1,1.2l6.9,8.2l-6.9,8.2c-0.3,0.4-0.3,0.9,0.1,1.2c0.4,0.3,0.9,0.3,1.2-0.1
		l7.3-8.8c0.1-0.2,0.2-0.4,0.2-0.6c0-0.2-0.1-0.4-0.2-0.6l-7.3-8.8C-141.6-112.3-142.1-112.4-142.5-112.1z"/>
</g>
<g>
	<path class="st1" d="M-153.2-112.1c0.4,0.3,0.4,0.8,0.1,1.2l-6.9,8.2l6.9,8.2c0.3,0.4,0.3,0.9-0.1,1.2c-0.4,0.3-0.9,0.3-1.2-0.1
		l-7.3-8.8c-0.1-0.2-0.2-0.4-0.2-0.6c0-0.2,0.1-0.4,0.2-0.6l7.3-8.8C-154.1-112.3-153.6-112.4-153.2-112.1z"/>
</g>
<g>
	<path class="st5" d="M-191.3-112.1c-0.4,0.3-0.4,0.8-0.1,1.2l6.9,8.2l-6.9,8.2c-0.3,0.4-0.3,0.9,0.1,1.2c0.4,0.3,0.9,0.3,1.2-0.1
		l7.3-8.8c0.1-0.2,0.2-0.4,0.2-0.6c0-0.2-0.1-0.4-0.2-0.6l-7.3-8.8C-190.4-112.3-191-112.4-191.3-112.1z"/>
</g>
<g>
	<path class="st5" d="M-202.1-112.1c0.4,0.3,0.4,0.8,0.1,1.2l-6.9,8.2l6.9,8.2c0.3,0.4,0.3,0.9-0.1,1.2c-0.4,0.3-0.9,0.3-1.2-0.1
		l-7.3-8.8c-0.1-0.2-0.2-0.4-0.2-0.6c0-0.2,0.1-0.4,0.2-0.6l7.3-8.8C-203-112.3-202.5-112.4-202.1-112.1z"/>
</g>
<g>
	<path class="st1" d="M-172.9-133.2c-0.2,0.2-0.2,0.5-0.1,0.7l3.9,4.7l-3.9,4.7c-0.2,0.2-0.1,0.5,0.1,0.7c0.2,0.2,0.5,0.1,0.7-0.1
		l4.2-5c0.1-0.1,0.1-0.2,0.1-0.3c0-0.1,0-0.2-0.1-0.3l-4.2-5C-172.4-133.3-172.7-133.3-172.9-133.2z"/>
</g>
<g>
	<path class="st1" d="M-179.1-133.2c0.2,0.2,0.2,0.5,0.1,0.7l-3.9,4.7l3.9,4.7c0.2,0.2,0.1,0.5-0.1,0.7c-0.2,0.2-0.5,0.1-0.7-0.1
		l-4.2-5c-0.1-0.1-0.1-0.2-0.1-0.3c0-0.1,0-0.2,0.1-0.3l4.2-5C-179.6-133.3-179.3-133.3-179.1-133.2z"/>
</g>
<g>
	<line class="st35" x1="-122.3" y1="-131.4" x2="-122.3" y2="-119.4"/>
	<line class="st35" x1="-116.3" y1="-125.4" x2="-128.3" y2="-125.4"/>
</g>
<g id="Mail_1">
	<g id="_Group_">
		<path id="_Rectangle_" class="st4" d="M-273.2-135h16.7c0.5,0,1,0.5,1,1v11.6c0,0.5-0.5,1-1,1h-16.7c-0.5,0-1-0.5-1-1V-134
			C-274.2-134.5-273.8-135-273.2-135z"/>
		<rect id="_Rectangle_2" x="-261.3" y="-132.4" class="st4" width="3.2" height="3.9"/>
		<line id="_Path_" class="st4" x1="-271.6" y1="-124" x2="-265.2" y2="-124"/>
		<line id="_Path_2" class="st4" x1="-271.6" y1="-125.9" x2="-268.4" y2="-125.9"/>
	</g>
</g>
<g>
	<path class="st0" d="M-385-95.7c0.1,0.4-0.3,1.2-1.3,2.5c-0.1,0.2-0.3,0.4-0.6,0.7c-0.2,0.3-0.4,0.5-0.5,0.6
		c-0.1,0.1-0.2,0.3-0.3,0.4c-0.1,0.2-0.1,0.3-0.1,0.4c0,0.1,0.1,0.2,0.1,0.3c0.1,0.1,0.1,0.2,0.3,0.4c0.1,0.1,0.3,0.3,0.5,0.5
		c0,0,0,0,0,0c0.8,0.8,1.4,1.4,1.6,1.9c0,0,0,0.1,0.1,0.1c0,0,0,0.1,0.1,0.2c0,0.1,0,0.2,0,0.3c0,0.1-0.1,0.2-0.2,0.2
		c-0.1,0.1-0.3,0.1-0.5,0.1l-2.2,0c-0.1,0-0.3,0-0.5,0c-0.2-0.1-0.3-0.1-0.4-0.2l-0.2-0.1c-0.2-0.1-0.4-0.3-0.6-0.6
		c-0.2-0.2-0.4-0.5-0.6-0.7c-0.2-0.2-0.3-0.4-0.5-0.5c-0.2-0.1-0.3-0.2-0.5-0.1c0,0,0,0-0.1,0c0,0-0.1,0.1-0.1,0.1s-0.1,0.2-0.2,0.3
		c-0.1,0.1-0.1,0.3-0.1,0.4c0,0.2-0.1,0.4-0.1,0.7c0,0.1,0,0.2,0,0.2c0,0.1,0,0.1-0.1,0.2l0,0c-0.1,0.1-0.3,0.2-0.5,0.2h-1
		c-0.4,0-0.8,0-1.3-0.1c-0.4-0.1-0.8-0.3-1.1-0.5c-0.3-0.2-0.6-0.4-0.9-0.6c-0.3-0.2-0.5-0.4-0.6-0.5l-0.2-0.2
		c-0.1-0.1-0.1-0.1-0.2-0.3c-0.1-0.1-0.3-0.4-0.6-0.8c-0.3-0.4-0.6-0.8-0.9-1.3c-0.3-0.5-0.7-1.1-1.1-1.8s-0.8-1.5-1.1-2.3
		c0-0.1-0.1-0.2-0.1-0.2c0-0.1,0-0.1,0-0.1l0-0.1c0.1-0.1,0.3-0.2,0.5-0.2l2.4,0c0.1,0,0.1,0,0.2,0.1c0.1,0,0.1,0.1,0.1,0.1l0,0
		c0.1,0.1,0.2,0.2,0.2,0.3c0.1,0.3,0.2,0.6,0.4,0.9c0.1,0.3,0.3,0.5,0.4,0.7l0.1,0.3c0.2,0.3,0.3,0.6,0.5,0.9
		c0.2,0.3,0.3,0.5,0.4,0.6s0.2,0.3,0.4,0.3c0.1,0.1,0.2,0.1,0.3,0.1s0.2,0,0.2,0c0,0,0,0,0,0c0,0,0.1-0.1,0.1-0.2
		c0.1-0.1,0.1-0.2,0.1-0.4c0-0.2,0.1-0.4,0.1-0.7c0-0.3,0-0.7,0-1.1c0-0.2,0-0.4-0.1-0.6c0-0.2-0.1-0.3-0.1-0.4l-0.1-0.1
		c-0.1-0.2-0.4-0.3-0.7-0.4c-0.1,0-0.1-0.1,0-0.2c0.1-0.1,0.2-0.2,0.3-0.3c0.3-0.1,1-0.2,2.1-0.2c0.5,0,0.9,0,1.2,0.1
		c0.1,0,0.2,0.1,0.3,0.1c0.1,0,0.1,0.1,0.2,0.2s0.1,0.2,0.1,0.3c0,0.1,0,0.2,0,0.4c0,0.2,0,0.3,0,0.5c0,0.1,0,0.4,0,0.6
		c0,0.3,0,0.5,0,0.7c0,0.1,0,0.2,0,0.4c0,0.2,0,0.3,0,0.4c0,0.1,0,0.2,0,0.3c0,0.1,0.1,0.2,0.1,0.3c0,0.1,0.1,0.2,0.2,0.2
		c0,0,0.1,0,0.1,0c0.1,0,0.1,0,0.2-0.1c0.1-0.1,0.2-0.2,0.3-0.3c0.1-0.1,0.3-0.3,0.4-0.6c0.2-0.3,0.4-0.6,0.6-0.9
		c0.3-0.6,0.7-1.2,0.9-1.9c0-0.1,0.1-0.1,0.1-0.2c0,0,0.1-0.1,0.1-0.1l0,0c0,0,0,0,0,0c0,0,0.1,0,0.1,0c0.1,0,0.1,0,0.2,0l2.5,0
		c0.2,0,0.4,0,0.6,0C-385.1-95.9-385.1-95.9-385-95.7L-385-95.7z"/>
</g>
<g>
	<path class="st0" d="M-365-91.9c0.1,0.2,0.1,0.3,0.1,0.4c0,0.1,0,0.2,0,0.3c0,0.1-0.1,0.2-0.2,0.3c-0.1,0.1-0.2,0.2-0.4,0.3
		c-0.1,0.1-0.3,0.2-0.5,0.4c-0.7,0.4-1.6,0.7-2.7,0.8l0.6,0.6l2.3,2.3c0.2,0.2,0.3,0.4,0.3,0.6c0,0.2-0.1,0.5-0.3,0.6l-0.1,0.1
		c-0.2,0.2-0.4,0.3-0.6,0.3c-0.2,0-0.5-0.1-0.6-0.3c-0.4-0.4-1.2-1.2-2.3-2.3l-2.3,2.3c-0.2,0.2-0.4,0.3-0.6,0.3
		c-0.2,0-0.5-0.1-0.6-0.3l-0.1-0.1c-0.2-0.2-0.3-0.4-0.3-0.6c0-0.2,0.1-0.5,0.3-0.6l2.3-2.3l0.6-0.6c-1.2-0.1-2.1-0.4-2.7-0.8
		c-0.2-0.1-0.4-0.3-0.5-0.4c-0.1-0.1-0.3-0.2-0.4-0.3c-0.1-0.1-0.2-0.2-0.2-0.3c0-0.1-0.1-0.2,0-0.3c0-0.1,0.1-0.3,0.1-0.4
		c0.1-0.1,0.1-0.2,0.2-0.3c0.1-0.1,0.2-0.1,0.4-0.2c0.1,0,0.3,0,0.5,0c0.2,0.1,0.4,0.2,0.6,0.3c0,0,0.1,0.1,0.1,0.1
		c0.1,0,0.2,0.1,0.4,0.2c0.2,0.1,0.4,0.2,0.6,0.3c0.2,0.1,0.5,0.1,0.8,0.2s0.6,0.1,1,0.1c0.5,0,1-0.1,1.5-0.2c0.5-0.1,0.8-0.3,1-0.4
		l0.3-0.2c0.2-0.1,0.4-0.3,0.6-0.3c0.2-0.1,0.3-0.1,0.5,0c0.1,0,0.3,0.1,0.4,0.2C-365.1-92.1-365.1-92-365-91.9z M-366.7-93.5
		c-0.8,0.8-1.7,1.1-2.8,1.1c-1.1,0-2-0.4-2.8-1.1c-0.8-0.8-1.1-1.7-1.1-2.8c0-1.1,0.4-2,1.1-2.8c0.8-0.8,1.7-1.1,2.8-1.1
		c1.1,0,2,0.4,2.8,1.1c0.8,0.8,1.1,1.7,1.1,2.8C-365.6-95.2-366-94.3-366.7-93.5z M-368.1-97.7c-0.4-0.4-0.8-0.6-1.4-0.6
		c-0.5,0-1,0.2-1.4,0.6c-0.4,0.4-0.6,0.8-0.6,1.4c0,0.5,0.2,1,0.6,1.4c0.4,0.4,0.8,0.6,1.4,0.6c0.5,0,1-0.2,1.4-0.6
		c0.4-0.4,0.6-0.8,0.6-1.4C-367.6-96.8-367.8-97.3-368.1-97.7z"/>
</g>
<g>
	<path class="st0" d="M-407.9-98.8v2.3h-1.4c-0.5,0-0.8,0.1-1,0.3c-0.2,0.2-0.3,0.5-0.3,0.9v1.6h2.5l-0.3,2.6h-2.2v6.5h-2.6v-6.5
		h-2.2v-2.6h2.2v-1.9c0-1.1,0.3-1.9,0.9-2.5c0.6-0.6,1.4-0.9,2.4-0.9C-409-98.9-408.4-98.9-407.9-98.8z"/>
</g>
<g>
	<path class="st38" d="M-385-76.4c0.1,0.4-0.3,1.2-1.3,2.5c-0.1,0.2-0.3,0.4-0.6,0.7c-0.2,0.3-0.4,0.5-0.5,0.6
		c-0.1,0.1-0.2,0.3-0.3,0.4c-0.1,0.2-0.1,0.3-0.1,0.4c0,0.1,0.1,0.2,0.1,0.3c0.1,0.1,0.1,0.2,0.3,0.4c0.1,0.1,0.3,0.3,0.5,0.5
		c0,0,0,0,0,0c0.8,0.8,1.4,1.4,1.6,1.9c0,0,0,0.1,0.1,0.1c0,0,0,0.1,0.1,0.2c0,0.1,0,0.2,0,0.3c0,0.1-0.1,0.2-0.2,0.2
		c-0.1,0.1-0.3,0.1-0.5,0.1l-2.2,0c-0.1,0-0.3,0-0.5,0c-0.2-0.1-0.3-0.1-0.4-0.2L-389-68c-0.2-0.1-0.4-0.3-0.6-0.6
		c-0.2-0.2-0.4-0.5-0.6-0.7c-0.2-0.2-0.3-0.4-0.5-0.5c-0.2-0.1-0.3-0.2-0.5-0.1c0,0,0,0-0.1,0c0,0-0.1,0.1-0.1,0.1s-0.1,0.2-0.2,0.3
		c-0.1,0.1-0.1,0.3-0.1,0.4c0,0.2-0.1,0.4-0.1,0.7c0,0.1,0,0.2,0,0.2c0,0.1,0,0.1-0.1,0.2l0,0c-0.1,0.1-0.3,0.2-0.5,0.2h-1
		c-0.4,0-0.8,0-1.3-0.1c-0.4-0.1-0.8-0.3-1.1-0.5c-0.3-0.2-0.6-0.4-0.9-0.6c-0.3-0.2-0.5-0.4-0.6-0.5l-0.2-0.2
		c-0.1-0.1-0.1-0.1-0.2-0.3c-0.1-0.1-0.3-0.4-0.6-0.8c-0.3-0.4-0.6-0.8-0.9-1.3c-0.3-0.5-0.7-1.1-1.1-1.8s-0.8-1.5-1.1-2.3
		c0-0.1-0.1-0.2-0.1-0.2c0-0.1,0-0.1,0-0.1l0-0.1c0.1-0.1,0.3-0.2,0.5-0.2l2.4,0c0.1,0,0.1,0,0.2,0.1c0.1,0,0.1,0.1,0.1,0.1l0,0
		c0.1,0.1,0.2,0.2,0.2,0.3c0.1,0.3,0.2,0.6,0.4,0.9c0.1,0.3,0.3,0.5,0.4,0.7l0.1,0.3c0.2,0.3,0.3,0.6,0.5,0.9
		c0.2,0.3,0.3,0.5,0.4,0.6s0.2,0.3,0.4,0.3c0.1,0.1,0.2,0.1,0.3,0.1s0.2,0,0.2,0c0,0,0,0,0,0c0,0,0.1-0.1,0.1-0.2
		c0.1-0.1,0.1-0.2,0.1-0.4c0-0.2,0.1-0.4,0.1-0.7c0-0.3,0-0.7,0-1.1c0-0.2,0-0.4-0.1-0.6c0-0.2-0.1-0.3-0.1-0.4l-0.1-0.1
		c-0.1-0.2-0.4-0.3-0.7-0.4c-0.1,0-0.1-0.1,0-0.2c0.1-0.1,0.2-0.2,0.3-0.3c0.3-0.1,1-0.2,2.1-0.2c0.5,0,0.9,0,1.2,0.1
		c0.1,0,0.2,0.1,0.3,0.1c0.1,0,0.1,0.1,0.2,0.2s0.1,0.2,0.1,0.3c0,0.1,0,0.2,0,0.4c0,0.2,0,0.3,0,0.5c0,0.1,0,0.4,0,0.6
		c0,0.3,0,0.5,0,0.7c0,0.1,0,0.2,0,0.4c0,0.2,0,0.3,0,0.4c0,0.1,0,0.2,0,0.3c0,0.1,0.1,0.2,0.1,0.3c0,0.1,0.1,0.2,0.2,0.2
		c0,0,0.1,0,0.1,0c0.1,0,0.1,0,0.2-0.1c0.1-0.1,0.2-0.2,0.3-0.3c0.1-0.1,0.3-0.3,0.4-0.6c0.2-0.3,0.4-0.6,0.6-0.9
		c0.3-0.6,0.7-1.2,0.9-1.9c0-0.1,0.1-0.1,0.1-0.2c0,0,0.1-0.1,0.1-0.1l0,0c0,0,0,0,0,0c0,0,0.1,0,0.1,0c0.1,0,0.1,0,0.2,0l2.5,0
		c0.2,0,0.4,0,0.6,0C-385.1-76.6-385.1-76.6-385-76.4L-385-76.4z"/>
</g>
<g>
	<path class="st39" d="M-365-72.6c0.1,0.2,0.1,0.3,0.1,0.4c0,0.1,0,0.2,0,0.3c0,0.1-0.1,0.2-0.2,0.3c-0.1,0.1-0.2,0.2-0.4,0.3
		c-0.1,0.1-0.3,0.2-0.5,0.4c-0.7,0.4-1.6,0.7-2.7,0.8l0.6,0.6l2.3,2.3c0.2,0.2,0.3,0.4,0.3,0.6c0,0.2-0.1,0.5-0.3,0.6l-0.1,0.1
		c-0.2,0.2-0.4,0.3-0.6,0.3c-0.2,0-0.5-0.1-0.6-0.3c-0.4-0.4-1.2-1.2-2.3-2.3l-2.3,2.3c-0.2,0.2-0.4,0.3-0.6,0.3
		c-0.2,0-0.5-0.1-0.6-0.3l-0.1-0.1c-0.2-0.2-0.3-0.4-0.3-0.6c0-0.2,0.1-0.5,0.3-0.6l2.3-2.3l0.6-0.6c-1.2-0.1-2.1-0.4-2.7-0.8
		c-0.2-0.1-0.4-0.3-0.5-0.4c-0.1-0.1-0.3-0.2-0.4-0.3c-0.1-0.1-0.2-0.2-0.2-0.3c0-0.1-0.1-0.2,0-0.3c0-0.1,0.1-0.3,0.1-0.4
		c0.1-0.1,0.1-0.2,0.2-0.3c0.1-0.1,0.2-0.1,0.4-0.2c0.1,0,0.3,0,0.5,0c0.2,0.1,0.4,0.2,0.6,0.3c0,0,0.1,0.1,0.1,0.1
		c0.1,0,0.2,0.1,0.4,0.2c0.2,0.1,0.4,0.2,0.6,0.3c0.2,0.1,0.5,0.1,0.8,0.2s0.6,0.1,1,0.1c0.5,0,1-0.1,1.5-0.2c0.5-0.1,0.8-0.3,1-0.4
		l0.3-0.2c0.2-0.1,0.4-0.3,0.6-0.3c0.2-0.1,0.3-0.1,0.5,0c0.1,0,0.3,0.1,0.4,0.2C-365.1-72.8-365.1-72.7-365-72.6z M-366.7-74.2
		c-0.8,0.8-1.7,1.1-2.8,1.1c-1.1,0-2-0.4-2.8-1.1c-0.8-0.8-1.1-1.7-1.1-2.8c0-1.1,0.4-2,1.1-2.8c0.8-0.8,1.7-1.1,2.8-1.1
		c1.1,0,2,0.4,2.8,1.1c0.8,0.8,1.1,1.7,1.1,2.8C-365.6-75.9-366-75-366.7-74.2z M-368.1-78.4c-0.4-0.4-0.8-0.6-1.4-0.6
		c-0.5,0-1,0.2-1.4,0.6c-0.4,0.4-0.6,0.8-0.6,1.4c0,0.5,0.2,1,0.6,1.4c0.4,0.4,0.8,0.6,1.4,0.6c0.5,0,1-0.2,1.4-0.6
		c0.4-0.4,0.6-0.8,0.6-1.4C-367.6-77.5-367.8-78-368.1-78.4z"/>
</g>
<g>
	<path class="st40" d="M-407.9-79.5v2.3h-1.4c-0.5,0-0.8,0.1-1,0.3c-0.2,0.2-0.3,0.5-0.3,0.9v1.6h2.5l-0.3,2.6h-2.2v6.5h-2.6v-6.5
		h-2.2v-2.6h2.2v-1.9c0-1.1,0.3-1.9,0.9-2.5c0.6-0.6,1.4-0.9,2.4-0.9C-409-79.6-408.4-79.6-407.9-79.5z"/>
</g>
<path class="st35" d="M-304.6-64c-0.4,0-0.8,0-1.2-0.2c-1.6-0.4-5.6-4.5-6-6c-0.1-0.4-0.2-0.7-0.2-1.1"/>
<path class="st35" d="M-307.8-79.2c2.2-2.4,4.5-4.2,4.8-4.4c5.6-4,13.4-5.6,16-5.4c0.3,2.5-1.3,10.4-5.3,16c-0.3,0.4-2,2.6-4.4,4.8"
	/>
<path class="st35" d="M-295.9-76.3c-1.1,1.7-3.5,1.7-4.6,0c-0.6-0.9-0.6-2.2,0-3.1c1.1-1.7,3.5-1.7,4.6,0
	C-295.2-78.5-295.2-77.2-295.9-76.3z"/>
<circle class="st35" cx="-293.4" cy="-82.6" r="1.7"/>
<path class="st35" d="M-311.9-71.3l-7.3-1.5l3.7-3.7c2.3-2.3,5.5-3.2,8.6-2.6l2.3,0.5L-311.9-71.3z"/>
<path class="st35" d="M-304.6-64l1.5,7.3l3.7-3.7c2.3-2.3,3.2-5.5,2.6-8.6l-0.5-2.3L-304.6-64z"/>
<line class="st35" x1="-302" y1="-74.1" x2="-313.2" y2="-62.9"/>
<g>
	<path class="st10" d="M-233-75.7c-0.1-0.3-0.2-0.6-0.4-0.9c0,0,0,0,0-0.1c-0.2-0.3-0.3-0.5-0.5-0.8c0,0,0-0.1-0.1-0.1
		c-0.2-0.2-0.4-0.5-0.7-0.6c0,0-0.1-0.1-0.1-0.1c-0.3-0.2-0.5-0.4-0.8-0.5c0,0,0,0,0,0c0,0,0,0,0,0c-0.3-0.1-0.6-0.3-0.9-0.4
		c0,0-0.1,0-0.1,0c-0.3-0.1-0.6-0.1-0.9-0.2c0,0-0.1,0-0.1,0c-0.3,0-0.6,0-0.9,0c0,0,0,0-0.1,0c-0.3,0-0.7,0.1-1,0.2
		c-1.4,0.4-2.5,1.4-3.1,2.6c-0.7,1.3-0.8,2.7-0.4,4.1l0,0c0.1,0.3,0.2,0.6,0.4,0.9c0.1,0.1,0.1,0.2,0.2,0.3c0.1,0.2,0.2,0.3,0.3,0.5
		c0.1,0.1,0.2,0.2,0.3,0.3c0.1,0.1,0.3,0.3,0.4,0.4c0.1,0.1,0.2,0.2,0.3,0.3c0.2,0.1,0.4,0.3,0.6,0.4c0.1,0,0.1,0.1,0.2,0.1
		c0,0,0,0,0.1,0c0,0,0,0,0,0c0.2,0.1,0.4,0.2,0.7,0.3c0,0,0.1,0,0.2,0c0.2,0.1,0.4,0.1,0.6,0.2c0,0,0.1,0,0.1,0
		c0.3,0,0.5,0.1,0.8,0.1c0.5,0,1.1-0.1,1.6-0.2c1.4-0.4,2.5-1.4,3.1-2.6C-232.7-72.9-232.6-74.3-233-75.7L-233-75.7z M-237.1-70.9
		c-1.3,0.4-2.6,0-3.5-1c0,0-0.1,0-0.1-0.1c-0.1-0.1-0.2-0.3-0.3-0.4c0-0.1-0.1-0.1-0.1-0.1c-0.1-0.2-0.2-0.3-0.2-0.5
		c0,0,0-0.1,0-0.1c-0.3-0.9-0.2-1.8,0.2-2.6c0.4-0.8,1.1-1.4,2-1.6c0.2-0.1,0.4-0.1,0.7-0.1c0,0,0.1,0,0.1,0
		c1.1-0.1,2.1,0.4,2.8,1.2c0,0,0,0,0,0c0.1,0.1,0.2,0.3,0.3,0.5c0,0,0,0.1,0.1,0.1c0.1,0.2,0.2,0.4,0.3,0.6l0,0l0,0
		c0,0.1,0.1,0.3,0.1,0.4c0.1,0.7,0,1.5-0.3,2.1C-235.6-71.8-236.3-71.2-237.1-70.9z"/>
	<path class="st10" d="M-218.8-72.8c-1.6-1.9-3.6-3.7-5.9-5.5c2.9-8.9,2.5-16.3-1.5-18.4l0,0l0,0c-2.9-1.5-6.9,0-11.1,3.8
		c-1.7,1.5-3.3,3.3-4.9,5.4c-0.3-0.1-0.5-0.2-0.8-0.2c-0.4-0.1-0.9-0.3-1.3-0.4c-0.2-0.1-0.4-0.1-0.6-0.2c-0.5-0.1-1-0.3-1.5-0.4
		c-0.1,0-0.2,0-0.3-0.1c-0.6-0.1-1.2-0.2-1.8-0.3c0,0,0,0,0,0c-0.5-0.1-1-0.2-1.4-0.2c-5.4-0.6-9.1,0.6-10.5,3.3
		c-1.4,2.7-0.3,6.4,3.3,10.5c1.6,1.9,3.6,3.7,5.9,5.5c-2.9,8.9-2.5,16.3,1.5,18.4l0,0l0,0c0.7,0.4,1.5,0.6,2.4,0.6
		c1,0,2.1-0.3,3.3-0.7c0.3-0.1,0.6-0.3,0.9-0.4c0.1,0,0.2-0.1,0.2-0.1c2.9-1.6,6.1-4.5,9.2-8.5c0.3,0.1,0.6,0.2,0.9,0.3
		c0.2,0.1,0.4,0.1,0.6,0.2c2.2,0.6,4.4,1.1,6.4,1.3c0.9,0.1,1.8,0.1,2.6,0.1c4,0,6.8-1.2,8-3.4C-214.2-64.9-215.3-68.7-218.8-72.8z
		 M-226.4-79.5c-2.1-1.5-4.3-2.8-6.7-4.1c-0.1-0.1-0.2-0.1-0.3-0.2c-0.6-0.3-1.3-0.7-1.9-1c-0.4-0.2-0.7-0.3-1.1-0.5
		c-0.4-0.2-0.8-0.4-1.2-0.5c-0.4-0.2-0.8-0.3-1.1-0.5c-0.4-0.2-0.8-0.3-1.1-0.4c-0.1,0-0.2-0.1-0.4-0.1c2.1-2.6,4.2-4.7,6.1-6.1
		c2.9-2.1,5.4-2.8,7-2C-224.5-93.5-224-87.5-226.4-79.5z M-234.7-63.1c-1.1-0.4-2.1-0.8-3.2-1.3c-0.1,0-0.1-0.1-0.2-0.1
		c-0.6-0.3-1.3-0.6-1.9-0.9c-0.7-0.3-1.4-0.7-2.2-1.1c-2.5-1.3-4.8-2.8-6.9-4.3c0.9-2.4,1.9-4.9,3.3-7.5c1.4-2.6,2.8-4.9,4.3-6.9
		c1.7,0.6,3.5,1.4,5.3,2.2c0.6,0.3,1.1,0.5,1.7,0.8c0.2,0.1,0.3,0.2,0.5,0.2l0,0l0,0c2.5,1.3,4.8,2.8,6.9,4.3
		c-0.9,2.4-1.9,4.9-3.3,7.5C-231.8-67.5-233.2-65.2-234.7-63.1z M-255.9-76.8c-2.9-3.4-4-6.4-3-8.3c0.1-0.2,0.3-0.5,0.5-0.7
		c0.1-0.1,0.2-0.2,0.3-0.3c0.1-0.1,0.2-0.2,0.3-0.3c0.1-0.1,0.2-0.1,0.4-0.2c0.2-0.1,0.3-0.2,0.5-0.3c0,0,0.1,0,0.1,0
		c1.5-0.6,3.8-0.8,6.5-0.5c2.1,0.2,4.4,0.7,6.8,1.5c-1.4,2-2.8,4.3-4.1,6.7c-1.3,2.4-2.3,4.8-3.2,7.1
		C-252.8-73.5-254.5-75.2-255.9-76.8z M-249.8-68.7c2.1,1.5,4.3,2.8,6.7,4.1c0.8,0.4,1.7,0.8,2.5,1.2c0.3,0.1,0.6,0.3,0.8,0.4
		c0.5,0.2,1.1,0.5,1.6,0.7c0.3,0.1,0.6,0.3,0.9,0.4c0.4,0.2,0.8,0.3,1.3,0.5c-1.2,1.5-2.4,2.9-3.6,4c-3.9,3.7-7.5,5.2-9.5,4.1
		C-251.8-54.8-252.3-60.8-249.8-68.7z M-217.8-62.5c-0.1,0.1-0.3,0.3-0.5,0.4c-0.1,0.1-0.1,0.1-0.2,0.2c-0.1,0.1-0.3,0.2-0.4,0.2
		c-0.1,0.1-0.3,0.2-0.4,0.2c0,0-0.1,0-0.1,0c-1.5,0.6-3.7,0.8-6.4,0.5c-2.1-0.2-4.4-0.7-6.8-1.5c1.4-2,2.8-4.2,4.1-6.7
		c1.3-2.4,2.3-4.8,3.2-7.1c2,1.6,3.7,3.2,5.1,4.8c2.9,3.4,4,6.4,3,8.3C-217.5-62.9-217.6-62.7-217.8-62.5z"/>
</g>
</svg>
