<?xml version="1.0" encoding="utf-8"?>
<!-- Generator: Adobe Illustrator 21.0.2, SVG Export Plug-In . SVG Version: 6.00 Build 0)  -->
<svg version="1.1" id="Слой_1" xmlns="http://www.w3.org/2000/svg" xmlns:xlink="http://www.w3.org/1999/xlink" x="0px" y="0px"
	 viewBox="0 0 46.3 46.4" style="enable-background:new 0 0 46.3 46.4;" xml:space="preserve">
<style type="text/css">
	.st0{fill:#0FA94D;}
</style>
<path class="st0" d="M28.2,21.7c-0.1-0.3-0.2-0.6-0.4-0.9v-0.1c-0.2-0.3-0.3-0.5-0.5-0.8c0,0,0-0.1-0.1-0.1
	c-0.2-0.2-0.4-0.5-0.7-0.6l-0.1-0.1c-0.3-0.2-0.5-0.4-0.8-0.5s-0.6-0.3-0.9-0.4h-0.1C24.3,18,24,18,23.7,17.9h-1.1
	c-0.3,0-0.7,0.1-1,0.2c-1.4,0.4-2.5,1.4-3.1,2.6c-0.7,1.3-0.8,2.7-0.4,4.1c0.1,0.3,0.2,0.6,0.4,0.9c0.1,0.1,0.1,0.2,0.2,0.3
	c0.1,0.2,0.2,0.3,0.3,0.5l0.3,0.3l0.4,0.4l0.3,0.3c0.2,0.1,0.4,0.3,0.6,0.4c0.1,0,0.1,0.1,0.2,0.1h0.1c0.2,0.1,0.4,0.2,0.7,0.3h0.2
	c0.2,0.1,0.4,0.1,0.6,0.2h0.1c0.3,0,0.5,0.1,0.8,0.1c0.5,0,1.1-0.1,1.6-0.2c1.4-0.4,2.5-1.4,3.1-2.6C28.5,24.5,28.7,23,28.2,21.7z
	 M24.1,26.5c-1.3,0.4-2.6,0-3.5-1c0,0-0.1,0-0.1-0.1c-0.1-0.1-0.2-0.3-0.3-0.4c0-0.1-0.1-0.1-0.1-0.1c-0.1-0.2-0.2-0.3-0.2-0.5v-0.1
	c-0.3-0.9-0.2-1.8,0.2-2.6s1.1-1.4,2-1.6c0.2-0.1,0.4-0.1,0.7-0.1h0.1c1.1-0.1,2.1,0.4,2.8,1.2c0.1,0.1,0.2,0.3,0.3,0.5
	c0,0,0,0.1,0.1,0.1l0.3,0.6c0,0.1,0.1,0.3,0.1,0.4c0.1,0.7,0,1.5-0.3,2.1C25.7,25.6,25,26.2,24.1,26.5z"/>
<path class="st0" d="M42.4,24.6c-1.6-1.9-3.6-3.7-5.9-5.5C39.4,10.2,39,2.8,35,0.7c-2.9-1.5-6.9,0-11.1,3.8C22.3,6,20.6,7.8,19,9.9
	c-0.3-0.1-0.5-0.2-0.8-0.2c-0.4-0.1-0.9-0.3-1.3-0.4c-0.2-0.1-0.4-0.1-0.6-0.2c-0.5-0.1-1-0.3-1.5-0.4c-0.1,0-0.2,0-0.3-0.1
	l-1.8-0.3c-0.5-0.1-1-0.2-1.4-0.2C5.7,7.6,2,8.7,0.6,11.4s-0.3,6.4,3.3,10.5c1.6,1.9,3.6,3.7,5.9,5.5c-2.9,8.9-2.5,16.3,1.5,18.4
	c0.7,0.4,1.5,0.6,2.4,0.6c1,0,2.1-0.3,3.3-0.7c0.3-0.1,0.6-0.3,0.9-0.4c0.1,0,0.2-0.1,0.2-0.1c2.9-1.6,6.1-4.5,9.2-8.5l0.9,0.3
	c0.2,0.1,0.4,0.1,0.6,0.2c2.2,0.6,4.4,1.1,6.4,1.3c0.9,0.1,1.8,0.1,2.6,0.1c4,0,6.8-1.2,8-3.4C47.1,32.5,45.9,28.7,42.4,24.6z
	 M34.8,17.9c-2.1-1.5-4.3-2.8-6.7-4.1c-0.1-0.1-0.2-0.1-0.3-0.2c-0.6-0.3-1.3-0.7-1.9-1c-0.4-0.2-0.7-0.3-1.1-0.5s-0.8-0.4-1.2-0.5
	c-0.4-0.2-0.8-0.3-1.1-0.5c-0.4-0.2-0.8-0.3-1.1-0.4c-0.1,0-0.2-0.1-0.4-0.1c2.1-2.6,4.2-4.7,6.1-6.1c2.9-2.1,5.4-2.8,7-2
	C36.8,3.9,37.3,9.9,34.8,17.9z M26.6,34.3c-1.1-0.4-2.1-0.8-3.2-1.3c-0.1,0-0.1-0.1-0.2-0.1c-0.6-0.3-1.3-0.6-1.9-0.9
	c-0.7-0.3-1.4-0.7-2.2-1.1c-2.5-1.3-4.8-2.8-6.9-4.3c0.9-2.4,1.9-4.9,3.3-7.5s2.8-4.9,4.3-6.9c1.7,0.6,3.5,1.4,5.3,2.2
	c0.6,0.3,1.1,0.5,1.7,0.8c0.2,0.1,0.3,0.2,0.5,0.2c2.5,1.3,4.8,2.8,6.9,4.3c-0.9,2.4-1.9,4.9-3.3,7.5C29.5,29.9,28,32.2,26.6,34.3z
	 M5.4,20.6c-2.9-3.4-4-6.4-3-8.3c0.1-0.2,0.3-0.5,0.5-0.7l0.3-0.3L3.5,11c0.1-0.1,0.2-0.1,0.4-0.2c0.2-0.1,0.3-0.2,0.5-0.3h0.1
	C6,9.9,8.3,9.7,11,10c2.1,0.2,4.4,0.7,6.8,1.5c-1.4,2-2.8,4.3-4.1,6.7s-2.3,4.8-3.2,7.1C8.5,23.9,6.8,22.2,5.4,20.6z M11.5,28.7
	c2.1,1.5,4.3,2.8,6.7,4.1c0.8,0.4,1.7,0.8,2.5,1.2c0.3,0.1,0.6,0.3,0.8,0.4c0.5,0.2,1.1,0.5,1.6,0.7c0.3,0.1,0.6,0.3,0.9,0.4
	c0.4,0.2,0.8,0.3,1.3,0.5c-1.2,1.5-2.4,2.9-3.6,4c-3.9,3.7-7.5,5.2-9.5,4.1C9.5,42.6,9,36.6,11.5,28.7z M43.5,34.9
	c-0.1,0.1-0.3,0.3-0.5,0.4l-0.2,0.2c-0.1,0.1-0.3,0.2-0.4,0.2c-0.1,0.1-0.3,0.2-0.4,0.2h-0.1c-1.5,0.6-3.7,0.8-6.4,0.5
	c-2.1-0.2-4.4-0.7-6.8-1.5c1.4-2,2.8-4.2,4.1-6.7c1.3-2.4,2.3-4.8,3.2-7.1c2,1.6,3.7,3.2,5.1,4.8c2.9,3.4,4,6.4,3,8.3
	C43.8,34.4,43.6,34.7,43.5,34.9z"/>
</svg>
