<?xml version="1.0" encoding="utf-8"?>
<!-- Generator: Adobe Illustrator 19.1.1, SVG Export Plug-In . SVG Version: 6.00 Build 0)  -->
<svg version="1.1" id="Слой_1" xmlns="http://www.w3.org/2000/svg" xmlns:xlink="http://www.w3.org/1999/xlink" x="0px" y="0px"
	 viewBox="0 0 64.7 69.7" style="enable-background:new 0 0 64.7 69.7;" xml:space="preserve">
<style type="text/css">
	.st0{fill:none;stroke:#EF3B57;stroke-width:0.75;stroke-miterlimit:10;}
</style>
<g>
	<path class="st0" d="M48.3,21.4c2.8,0,5-2.3,5-5c0-1.6-0.7-3-1.8-3.9c-0.7-0.6-1.5-0.9-2.4-1.1V1.2c0-0.5-0.4-0.8-0.8-0.8
		c-0.5,0-0.8,0.4-0.8,0.8v10.2c-0.9,0.1-1.7,0.5-2.4,1.1c-1.1,0.9-1.8,2.3-1.8,3.9C43.3,19.1,45.5,21.4,48.3,21.4z"/>
	<path class="st0" d="M16.4,21.4c2.8,0,5-2.3,5-5c0-1.6-0.7-3-1.8-3.9c-0.7-0.6-1.5-0.9-2.4-1.1V1.2c0-0.5-0.4-0.8-0.8-0.8
		c-0.5,0-0.8,0.4-0.8,0.8v10.2c-0.9,0.1-1.7,0.5-2.4,1.1c-1.1,0.9-1.8,2.3-1.8,3.9C11.3,19.1,13.6,21.4,16.4,21.4z"/>
	<path class="st0" d="M53.4,7.1h5c0.4,0,0.8,0,1.2,0.1c2.3,0.5,4.1,2.3,4.6,4.6c0.1,0.4,0.1,0.8,0.1,1.2v12.6H0.4V13
		c0-0.4,0-0.8,0.1-1.2c0.2-1,0.6-1.8,1.2-2.6C1.8,9.1,2,9,2.1,8.8c0.8-0.8,1.8-1.4,3-1.6c0.4-0.1,0.8-0.1,1.2-0.1h5 M64.3,63.4
		c0,3.3-2.6,5.9-5.9,5.9h-9.9H16.3h-10c-3.3,0-5.9-2.6-5.9-5.9V50.7V31.3h63.9v19.7V63.4z"/>
	<path class="st0" d="M21.4,5.4"/>
	<line class="st0" x1="21.4" y1="7.1" x2="43.3" y2="7.1"/>
</g>
</svg>
