<?xml version="1.0" encoding="utf-8"?>
<!-- Generator: Adobe Illustrator 19.1.1, SVG Export Plug-In . SVG Version: 6.00 Build 0)  -->
<svg version="1.1" id="Слой_1" xmlns="http://www.w3.org/2000/svg" xmlns:xlink="http://www.w3.org/1999/xlink" x="0px" y="0px"
	 viewBox="0 0 19.8 14.7" style="enable-background:new 0 0 19.8 14.7;" xml:space="preserve">
<style type="text/css">
	.st0{fill:#242424;}
	.st1{fill:#EF3B57;}
	.st2{fill:none;stroke:#F7F7F7;stroke-miterlimit:10;}
	.st3{fill:#EF3B57;stroke:#33499F;stroke-width:0.75;stroke-miterlimit:10;}
	.st4{fill:none;stroke:#242424;stroke-miterlimit:10;}
	.st5{fill:#F7F7F7;}
	.st6{fill:none;stroke:#ED1438;stroke-width:2;stroke-linecap:round;stroke-miterlimit:10;stroke-dasharray:2.012,4.023;}
	.st7{fill:#FFFFFF;}
	.st8{fill:none;stroke:#ED1438;stroke-width:4;stroke-miterlimit:10;}
	.st9{fill:none;stroke:#04A94D;stroke-width:3;stroke-linecap:round;stroke-linejoin:round;stroke-miterlimit:10;}
	.st10{fill:#04A94D;}
	.st11{fill:none;stroke:#04A94D;stroke-miterlimit:10;}
	.st12{fill:none;stroke:#04A94D;stroke-width:3;stroke-linejoin:round;stroke-miterlimit:10;}
	.st13{fill:none;stroke:#04A94D;stroke-width:2.485;stroke-linejoin:round;stroke-miterlimit:10;}
	.st14{fill:none;stroke:#04A94D;stroke-width:1.657;stroke-miterlimit:10;}
	.st15{fill:none;stroke:#04A94D;stroke-width:3;stroke-linejoin:bevel;stroke-miterlimit:10;}
	.st16{fill:none;stroke:#04A94D;stroke-width:3;stroke-miterlimit:10;}
	.st17{fill:none;stroke:#929497;stroke-width:0.5;stroke-miterlimit:10;}
	.st18{fill:none;stroke:#929497;stroke-width:0.5;stroke-miterlimit:10;stroke-dasharray:10.988,4.578;}
	.st19{fill:none;stroke:#929497;stroke-width:0.5;stroke-miterlimit:10;stroke-dasharray:10.399,10.399;}
	.st20{fill:none;stroke:#ED1438;stroke-width:2;stroke-miterlimit:10;}
	.st21{fill:none;stroke:#04A94D;stroke-width:1.699;stroke-miterlimit:10;}
	.st22{fill:none;stroke:#060E9F;stroke-width:2.725;stroke-miterlimit:10;}
	.st23{fill:none;stroke:#060E9F;stroke-width:1.09;stroke-miterlimit:10;}
	.st24{fill:none;stroke:#ED1438;stroke-width:3.736;stroke-miterlimit:10;}
	.st25{fill:none;stroke:#ED1438;stroke-width:3.736;stroke-miterlimit:10;stroke-dasharray:3.794,5.691;}
	.st26{fill:none;stroke:#ED1438;stroke-width:3.379;stroke-miterlimit:10;}
	.st27{fill:none;stroke:#ED1438;stroke-width:3.379;stroke-miterlimit:10;stroke-dasharray:3.431,5.147;}
	.st28{fill:none;stroke:#ED1438;stroke-width:3.568;stroke-miterlimit:10;}
	.st29{fill:none;stroke:#ED1438;stroke-width:3.568;stroke-miterlimit:10;stroke-dasharray:3.624,5.435;}
	.st30{fill:none;stroke:#ED1438;stroke-width:8.537;stroke-miterlimit:10;}
	.st31{fill:none;stroke:#ED1438;stroke-width:3.341;stroke-miterlimit:10;}
	.st32{fill:none;stroke:#ED1438;stroke-width:3.341;stroke-miterlimit:10;stroke-dasharray:3.3,4.95;}
	.st33{fill:none;stroke:#ED1438;stroke-width:3.236;stroke-miterlimit:10;}
	.st34{fill:none;stroke:#ED1438;stroke-width:3.236;stroke-miterlimit:10;stroke-dasharray:3.094,4.641;}
	.st35{fill:none;stroke:#04A94D;stroke-width:2;stroke-miterlimit:10;}
	.st36{fill:none;stroke:#04A94D;stroke-width:2;stroke-linejoin:bevel;stroke-miterlimit:10;}
	.st37{fill:none;stroke:#FFFFFF;stroke-width:2;stroke-miterlimit:10;}
	.st38{fill:#5B719A;}
	.st39{fill:#DB831C;}
	.st40{fill:#5266AB;}
</style>
<g>
	<rect x="-219" y="-2.6" class="st0" width="30.5" height="2"/>
	<rect x="-219" y="17.7" class="st0" width="30.5" height="2"/>
	<rect x="-215" y="7.5" class="st0" width="22.4" height="2"/>
</g>
<g>
	<rect x="-128" y="7.4" transform="matrix(0.7071 -0.7071 0.7071 0.7071 -38.9665 -77.2949)" class="st0" width="30.5" height="2"/>
	
		<rect x="-128" y="7.4" transform="matrix(-0.7071 -0.7071 0.7071 -0.7071 -198.4706 -65.4308)" class="st0" width="30.5" height="2"/>
</g>
<g>
	<rect x="-97" y="7.4" transform="matrix(0.7071 -0.7071 0.7071 0.7071 -29.8868 -55.3746)" class="st1" width="30.5" height="2"/>
	
		<rect x="-97" y="7.4" transform="matrix(-0.7071 -0.7071 0.7071 -0.7071 -145.5503 -43.5105)" class="st1" width="30.5" height="2"/>
</g>
<g>
	<rect x="155" y="34.1" transform="matrix(0.7071 -0.7071 0.7071 0.7071 23.1199 125.053)" class="st1" width="14.9" height="1"/>
	
		<rect x="155" y="34.1" transform="matrix(-0.7071 -0.7071 0.7071 -0.7071 252.9469 174.0107)" class="st1" width="14.9" height="1"/>
</g>
<g>
	<rect x="-178" y="-2.6" class="st1" width="30.5" height="2"/>
	<rect x="-178" y="17.7" class="st1" width="30.5" height="2"/>
	<rect x="-174" y="7.5" class="st1" width="22.4" height="2"/>
</g>
<g>
	<path class="st2" d="M-179.3,42.5c0-4.3-4.1-7.7-9.2-7.7c-5.1,0-9.2,3.5-9.2,7.7V57c0,4.3,4.1,7.7,9.2,7.7c5.1,0,9.2-3.5,9.2-7.7
		V42.5z"/>
	<line class="st2" x1="-188.5" y1="39.7" x2="-188.5" y2="49.2"/>
</g>
<g>
	<path class="st1" d="M-186.5,155.7c-7.8,0-14.1-6.4-14.1-14.4s6.3-14.4,14.1-14.4s14.1,6.4,14.1,14.4S-178.8,155.7-186.5,155.7z
		 M-186.5,127.7c-7.3,0-13.3,6.1-13.3,13.6s6,13.6,13.3,13.6s13.3-6.1,13.3-13.6S-179.2,127.7-186.5,127.7z"/>
	<path class="st1" d="M-186.5,186.1l-19.8-23c-3-3.2-5.1-6.5-6.4-10.1c-1.4-3.9-1.9-7.7-1.6-11.3c0.9-13.1,11.5-26.7,27.8-26.7
		c7.5,0,14.5,3,19.7,8.4c4.7,5,7.7,11.6,8.1,18.3c0.3,3.6-0.3,7.5-1.6,11.3c-1.3,3.7-3.5,7-6.5,10.1L-186.5,186.1z M-186.5,115.7
		c-15.8,0-26.1,13.2-27,26.1c-0.3,3.5,0.2,7.1,1.6,10.9c1.3,3.5,3.3,6.8,6.2,9.9l19.2,22.4l19.1-22.4c3-3.1,5-6.3,6.3-9.9l0,0
		c1.3-3.6,1.9-7.4,1.6-10.9C-160.5,125.5-174.1,115.7-186.5,115.7z"/>
</g>
<g>
	<path class="st1" d="M22.4,175.4c-0.2,0-0.5-0.1-0.6-0.4c-0.2-0.2-0.2-0.5-0.1-0.7c0.4-0.8,0.2-1.7-0.5-2.5
		c-0.2-0.2-0.2-0.4-0.2-0.6c0-0.4,0.4-0.7,0.8-1c0.3-0.2,0.6-0.2,1-0.2c0.1,0,0.1,0,0.2,0c0.3-1.9,0.1-3.3-0.4-4.1
		c-0.1-0.2-0.2-0.4-0.2-0.5c0,0,0-0.1-0.1-0.2c-0.4,0.1-0.6,0.1-0.8,0.2c-0.3,0.1-0.5,0.2-1.1,0.1c0.2,0.3,0.5,0.6,0.3,0.9
		c-0.2,0.3-0.6,0.4-0.9,0.4c-0.2,0-0.4,0-0.7,0c-1.9-0.2-3.1-0.7-3.9-1.5c0-0.1-0.1-0.1-0.2-0.3c-0.6-0.7-2.2-2.7-3.7-2.7
		c-0.8,0-1.4,0.6-1.9,1.8c0,0.1,0.2,0.2,0.3,0.2c0.2,0.1,0.4,0.3,0.5,0.5c0,0.1,0,0.3-0.1,0.4c-0.4,0.4-0.4,1-0.3,1.5
		c0,0.5,0,1-0.3,1.3c-0.7,0.8-1.6,1.2-2.5,1.2c-0.6,0-1.2-0.2-1.6-0.3c-0.2-0.1-0.5-0.1-0.6-0.1c-0.8,0.8-2.9,1.9-4.4,1.9
		c-0.9,0-1.5-0.4-1.7-1.2c-0.2,0-0.5,0-0.7-0.1c-0.4-0.3-0.9-0.2-1.4,0c-0.3,0.1-0.7,0.2-1.1,0.2c-0.5,0-0.8-0.1-1.2-0.5
		c-0.9-0.9-1.2-1.3-1.2-1.6c-0.3-0.2-0.8-0.4-1.6-0.8c-0.1,0.1-0.1,0.3-0.3,0.4c-0.2,0.2-0.2,0.4-0.1,0.7c0.1,0.4,0.1,0.9-0.4,1.3
		c-0.3,0.2-0.6,0.4-1,0.4c-1.2,0-2.5-1.3-2.8-1.5c-0.2-0.2-0.7-0.3-1.3-0.3c-1.3,0-3,0.5-3.7,0.9c-0.1,0.1-0.3,0.1-0.5,0.1
		c-1,0-2.4-1.2-2.8-2c-0.1-0.2-0.1-0.4-0.2-0.6c-0.2-0.6-0.2-0.8-0.5-0.8c-1.2-0.1-1.4-0.4-1.6-0.7c-0.1-0.1-0.1-0.2-0.3-0.3
		c0,0-0.1,0.1-0.1,0.1c-0.2,0.2-0.3,0.3-0.5,0.3H-25l-0.1-0.3c-0.2-0.9-0.3-1.7-0.3-2.5c-0.1-1.2-0.1-2.2-0.7-3c0,0-0.2,0.1-0.3,0.2
		c-0.3,0.2-0.7,0.5-1.1,0.5c-0.4,0-0.7-0.2-1.1-0.6c-0.1-0.2-0.3-0.3-0.2-0.5l0.1-0.2l0.3-0.1c0,0,0,0,0.1,0c0-0.1,0-0.1,0-0.2
		c-0.1,0-0.3,0-0.5-0.1l-0.2-0.1l-0.1-0.2c0-0.1,0-0.2,0-0.3c-0.1,0-0.1-0.1-0.2-0.1c-0.2-0.1-0.7-0.3-0.6-0.9
		c0-0.3,0.2-0.5,0.4-0.8c0-0.1,0.1-0.1,0.2-0.2c-0.1-0.1-0.2-0.2-0.3-0.3c-0.2-0.3-0.3-0.4-0.5-0.3c-1.3,0.4-4.9-1-6.1-1.9
		c-0.1,0.2-0.1,0.3-0.1,0.4c-0.2,0.6-0.4,0.9-1.3,1.2c-0.2,0.1-0.4,0.1-0.6,0.1c0.1,0,0.2,0.1,0.3,0.3c0.2,0.6,0.1,1,0,1.2
		c-0.2,0.3-0.6,0.5-1,0.5c-0.6,0-1.4-0.3-1.8-0.8c-0.1-0.2-0.2-0.3-0.3-0.5c-0.4-0.6-0.8-1.3-2.2-1.9c-0.1,0-0.6-0.4-0.9-0.7
		c-0.4-0.5-0.2-1,0-1.2c0.2-0.3,0.2-0.4,0.1-0.7c-0.3-0.6-0.8-1.2-1-1.5l-0.1-0.1c-0.1-0.2-1-0.4-1.8-0.4c-0.3,0-0.4,0-0.5,0
		c-0.3,0.1-0.5,0.2-0.6,0.2c-0.1,0-0.2,0.1-0.2,0.1h-0.2l-0.2-0.3l0-0.2c0-0.1,0-0.2-0.1-0.6c-0.2,0.1-0.5,0.3-1.2,0.8
		c-0.2,0.2-0.6,0.2-0.9,0.2c0,0-0.1,0-0.1,0c0.1,0.3,0.1,0.5-0.1,0.8c0.2,0.1,0.3,0.2,0.4,0.5c0.1,0.6-0.1,1.7-0.5,2.1
		c-0.1,0.1-0.2,0.2-0.4,0.3c0,0.1,0,0.2,0,0.3c-0.1,0.2-0.2,0.3-0.4,0.4c-0.5,0.2-0.8,0.3-1,0.3c-0.5,0-0.6-0.5-0.6-0.6
		c0-0.1,0-0.2-0.1-0.3c0,0-0.1,0-0.2,0c-0.3,0-0.6,0.1-0.9,0.4l-0.1,0.1l-0.2,0c-0.1,0-0.3-0.1-0.4-0.1c0,0,0,0.1,0,0.1
		c0,0.1,0,0.2,0,0.3c0.1,0.1,0.2,0.1,0.3,0.3l0.1,0.2l-0.1,0.2c-0.2,0.3-0.5,0.3-0.7,0.4c-0.1,0-0.2,0-0.2,0.1
		c-0.1,0.2-0.2,0.5-0.2,0.9c-0.1,0.7-0.3,1.4-0.9,1.8c-0.6,0.4-1.1,0.3-1.5-0.1c-0.8-0.9-0.5-3.5-0.5-3.5c0.1-0.7-0.2-1.2-0.5-1.9
		c-0.2-0.3-0.4-0.7-0.5-1.1c-0.3-0.8-0.8-1.5-1.3-2.2l-0.3-0.4c-0.6-0.9-0.4-1.8-0.2-2.7c0.1-0.4,0.1-0.8,0.2-1.1c0-0.1,0-0.3,0-0.4
		c0-0.1,0-0.2,0-0.3c0,0-0.1-0.3-0.5-0.6c-1.1-0.7-2.3-1.6-1.7-2.5c0.3-0.4,0.3-0.6,0.3-0.8c0-0.3,0.1-0.5,0.4-0.9
		c0.1-0.1,0.3-0.3,0.6-0.3c0.6,0,1.8,0.5,2,0.9c0.3,0.8,0.2,1.1,0,1.4c-0.1,0.1-0.2,0.3-0.2,0.6c-0.1,1,1.6,1.6,2.5,1.9
		c0,0,0,0,0.1,0c0-0.3,0-0.6,0.3-0.8c0.1-0.1,0.3-0.2,0.5-0.2c0.5,0,1.1,0.4,2,1.1c0,0,0.2-0.1,0.2-0.3c0,0,0,0,0-0.1
		c0-0.1-0.1-0.3,0.1-0.4c0.1-0.2,0.4-0.2,0.9-0.3c0.2,0,0.4,0,0.5,0c-0.3-0.3-0.8-0.9-0.6-1.7c0.1-0.2,0.1-0.3,0.2-0.4
		c0-0.1,0.1-0.2,0.1-0.2c-1.6-2.3-0.5-3.4,0.2-4.1c0.4-0.4,0.5-0.6,0.5-0.8c0,0-0.1-0.1-0.2-0.1c-0.2-0.1-0.5-0.2-0.6-0.6
		c-0.3-0.6,0.3-0.9,0.5-1.1l0.1-0.1c0.6-0.4,0.8-0.5,1-0.5c0.2,0,0.4,0.1,0.4,0.4c0,0.1,0.1,0.2,0.3,0.3c0-0.1,0.1-0.2,0.1-0.4
		c0.1-0.3,0.1-0.7,0.3-1c0.2-0.3,0.5-0.6,0.8-0.9c0.4-0.4,0.7-0.7,0.6-0.9c-0.1-0.3,0.1-0.5,0.2-0.6c0,0,0,0,0-0.1
		c-0.1-0.3-0.4-0.7,0-1.2c0.4-0.5,1.3-1.2,2-1.5l0.3-0.1c1-0.4,1.7-0.7,2.9-0.3c0.4,0.1,0.6,0.3,0.8,0.5c0-0.1,0-0.2,0-0.3
		c0-0.7,0-0.8,0.1-0.9c0.2-0.2,0.5-0.3,0.8-0.3c0.6,0,1.1,0.4,1.7,0.8c0.7,0.5,1.4,1,2,0.7c0.5-0.2,0.6-0.3,0.8-0.6
		c0.1-0.2,0.3-0.4,0.6-0.7c0.9-0.8,4-1.8,4.7-2.1c0,0,0-0.2,0-0.3c0-0.3,0.1-0.7,0.5-0.9c0.3-0.1,0.6-0.2,0.9-0.2
		c0.8,0,1.8,0.3,2.3,1c0.3,0.4,0.4,0.9,0.2,1.4c-0.1,0.3-0.2,0.4-0.3,0.4c0,0,0,0.1,0,0.1c0.4,1.8,0.1,3.5-0.6,4.4
		c-0.8,1-2.1,1.1-2.9,0.2c-0.6-0.7-0.9-1.9-0.8-3.4c-0.1,0.2-0.3,0.4-0.4,0.5c-0.5,0.7-1,1.4-1.5,1.8c-0.1,0.1-0.2,0.3-0.2,0.7
		c0,0.3,0,0.5,0.1,0.6c0,0,0.1-0.1,0.2-0.2c0,0,0-0.1,0.1-0.2c0.1-0.3,0.1-0.7,0.5-1c0.4-0.3,0.9-0.1,1.2,0.4c0.2,0.5,0,0.9-0.1,1.2
		c0,0.1-0.1,0.2-0.1,0.3c0,0,0,0,0,0c0.1-0.2,0.2-0.3,0.3-0.3c0.3-0.1,0.5-0.2,0.7-0.2c0.7,0,1,0.4,1.3,0.8c0.2,0.3,0.4,0.5,0.6,0.5
		c0.3,0,0.8-0.2,1.9-1.3c0,0,0.1-0.2,0.1-0.3c0.1-0.3,0.2-0.6,0.6-0.6h0.1l0.1,0.1c0.9,0.5,1.3,1,1.2,1.5c-0.1,0.8-1.2,1.3-1.7,1.4
		c-0.2,0.1-0.4,0.3-0.4,0.5c0.1,0,0.3-0.1,0.5-0.2c0.3-0.2,0.5-0.1,0.6,0l0.2,0c0.2,0,0.4,0.1,0.5,0.3c0,0,0,0.1,0.2,0.1
		c2.4,0.4,2.5,0.4,2.6,0.8c0.1,0.2-0.1,0.4-0.1,0.5c0.1,0.1,0.5,0.4,1.9,1c0.2,0.1,0.3,0.3,0.3,0.5c0-0.1,0-0.2,0.1-0.3
		c0-0.4,0.1-1.1,0.9-1.1c0,0,0,0,0,0c0.5,0,0.6,0.5,1,2c0.2,0.8,0.6,2.4,0.9,2.6c0,0,0,0,0,0c-0.2-0.8,0.2-1.9,1-2.1l0.1-0.4
		l-0.2,0.3c-0.1-0.1-0.3-0.3-0.2-0.6c0.2-0.7,2.2-2.7,3.3-2.7c0.4,0,0.7,0.2,0.8,0.7c0.1,0.4-0.1,0.6-1.4,1.9l-0.3,0.3
		c-0.4,0.4-0.8,1.3-1.2,2.2c-0.6,1.4-1.3,3-2.4,3.6c0.1,0.1,0.3,0.2,0.4,0.3c0,0,0.1,0,0.1,0c0.5,0,1.3-0.6,1.4-0.9
		c0.2-0.2,0.4-0.6,0.8-0.6c0.2,0,0.5,0.1,0.8,0.3c0.3,0.2,0.5,0.2,0.5,0.2c0,0,0-0.1,0-0.1c0-0.1,0-0.3-0.8-0.9
		c-1.1-0.9-0.2-2.4,0.6-3.7l0.1-0.1c0.2-0.4,0.4-0.6,0.4-0.7c0.2-0.4,0.3-0.5,1-1.1c0,0,0.2-0.2,0.3-0.2h0.2l0.1,0.1
		c0.2,0.2,0.1,0.5,0,1.1c-0.1,0.3-0.2,1-0.1,1.3c0.1-0.1,0.3-0.3,0.3-0.5c-0.1-0.2-0.1-0.4-0.1-0.6c0.1-0.2,0.3-0.3,0.4-0.3
		c0.1,0,0.3,0,0.5,0.3c0.4,0.5,0.6,0.8,0.8,0.9c0,0,0,0,0-0.1c0-0.1-0.1-0.3-0.2-0.4c-0.1-0.2-0.3-0.4-0.2-0.7
		c0-0.2,0.1-0.4,0.4-0.5c0.5-0.3,1.5-0.7,2.1-0.9c0.2-0.1,0.3-0.1,0.3-0.1c0.4-0.2,0.8-0.4,1.2-0.6c0.8-0.4,1.5-0.8,2.4-0.8
		c0.2,0,0.4,0,0.7,0.1c0.4,0.1,0.5,0.3,0.5,0.5c0,0,0,0,0,0c0-0.1,0.1-0.2,0.1-0.2c0.1-0.3,0.5-0.3,0.8-0.2c0-0.1,0-0.2,0.1-0.3
		c0.2-0.7,0.3-1,1-1.4l0.2,0c0.4,0,4.1,1.9,4.2,3.2c0,0.4-0.2,0.9-1.3,1.1c-0.3,0-0.5,0.2-0.7,0.7l-0.2,0.3
		c-0.2,0.3-0.5,0.8-0.6,1.1c0.3,0,0.7-0.1,0.7-0.1c0.1-0.1,0.1-0.2,0.2-0.5c0-0.3,0.1-0.7,0.5-1.1c0.1-0.1,0.2-0.1,0.4-0.1
		c0.3,0,0.6,0.1,0.7,0.3c0.1,0.1,0.1,0.3,0.1,0.6c0,0.1,0,0.2,0,0.4c0.1,0,0.2-0.1,0.3-0.2c0.3-0.1,0.5-0.3,0.8-0.3
		c0.2,0,0.5,0.1,0.8,0.5c0.1,0.2,0.9,0.1,1.1-0.1c0.1-0.1,0-0.4-0.1-0.5c-0.1-0.3-0.2-0.6,0-0.8c0.1-0.1,0.2-0.2,0.5-0.2
		c0.2,0,0.4,0,0.5,0c0.2,0,0.5,0,0.7,0c0.9,0,1.5,0.5,1.9,1.6c0.5,1.1,0.7,1.5,0.8,1.6c0.1-0.2,0.2-0.8,0.3-1.1
		c0.1-0.6,0.2-0.9,0.4-1c0.4-0.2,0.8,0,1.1,0.2c0.1,0.1,0.2,0.2,0.3,0.2c0,0,0.2-0.1,0.4-0.5c0.2-0.4,0-0.9-0.3-1.4
		c-0.1-0.1-0.1-0.2-0.2-0.3c-0.3,0-0.5-0.1-0.6-0.3c-0.3-0.5-0.5-0.8-0.6-1.3c0,0,0,0,0,0c-0.2,0.1-0.5,0.2-0.6,0.2
		c-0.8,0-1.4-0.7-1.4-1.4c0-0.4,0.2-0.8,0.9-1C7,130.3,7,130.1,7,130l0.1-0.2l0.2-0.1c0.3-0.1,0.6-0.1,0.9-0.1c0.7,0,1,0.3,1.1,0.5
		c0.2,0.5,0.1,1.1-0.5,1.9c0,0,0.1,0,0.1,0l0.2,0c1.7,0.5,1.8,0.6,1.9,0.8l0,0.1c1.1-0.4,2.4-0.6,3.1-0.3c0.3,0.1,0.5,0.2,0.6,0.3
		C14.8,133,15,133,15,133c0,0,0.1,0,0.3-0.3c0.9-1,2-1.4,3-1.8c0.9-0.3,1.6-0.6,1.9-1.2c0.1-0.1,0.1-0.2,0.2-0.4
		c0.2-0.3,0.3-0.4,0.1-0.7c-0.2-0.3-0.2-0.6,0-0.9c0.2-0.3,0.5-0.4,0.8-0.4c-0.2-0.3-0.3-0.6,0.1-1c0.4-0.4,0.6-0.7,0.9-1.1
		c0.6-0.9,1.3-1.8,3.1-2.9c0.6-0.4,1.8-0.5,2.6-0.7c0.1,0,0.2,0,0.3,0c-0.1-0.1-0.2-0.3-0.2-0.4c-0.1-0.7,0.1-1.4,0.6-1.9
		c0.4-0.4,0.9-0.7,1.4-0.7c0.3,0,0.7,0.1,0.8,0.7c0.2,0.9,0.8,1.5,1.2,1.9c0.3,0.3,0.6,0.6,0.4,0.9c-1,1.5-1.3,1.6-1.8,1.7
		c-0.1,0-0.3,0-0.6,0.2c-0.4,0.2-0.6,0.2-0.8,0.2c-0.1,0-0.2,0-0.4-0.1c0,0.2,0,0.5,0,0.7c0.2-0.2,0.5-0.3,0.9-0.1
		c0.6,0.3,0.6,0.4,0.8,0.9c0,0.1,0,0.2,0.1,0.4c0,0.2,0.1,0.4,0.1,0.5c0.3,0,0.7,0,1.2-0.1c0.8-0.1,1.4-0.1,1.6,0
		c0.3,0.1,0.4,0.4,0.5,0.6c0,0.2,0,0.4-0.2,0.5c-0.5,0.4-0.6,1.6-0.4,3.4c0,0.3,0.3,0.7,0.5,1.2c0.5,0.8,1,1.8,0.3,2.4
		c-0.9,0.8-0.9,1.1-1,1.7c0,0.3-0.1,0.6-0.2,1c-0.1,0.4-0.4,0.4-0.5,0.5c-0.2,0.9,0,2.5,0.2,3c0,0,0,0,0,0c0.1-0.2,0.2-0.6,0.7-0.6
		c0.3,0,0.6,0.2,1,0.7c0.1,0.1,0.4,0.2,0.6,0.3c0.4,0.1,0.8,0.2,0.9,0.6c0.1,0.2,0.1,0.4,0,0.7c-0.1,0.2-0.2,0.3-0.3,0.4
		c0.1,0.1,0.2,0.2,0.4,0.3c0.3,0.2,0.7,0.4,0.8,0.9c0.1,0.3,0,0.7-0.4,1.2c-0.1,0.1-0.1,0.1-0.1,0.1c0,0,0.2,0.1,0.3,0.2
		c0.4,0.2,0.8,0.5,0.9,1.1c0,0.3,0.3,0.9,0.5,1.5c0.6,1.6,1,2.7,0.6,3.3c-0.2,0.2-0.6,0.5-1.3,0.3c-6.7-1.7-6.7-4.2-6.8-6.1
		c0-0.5,0-0.9-0.1-1.3c-0.5-2-0.6-4.8-0.2-6.7c0-0.1-0.2-0.6-0.7-1.1c-0.3-0.3-0.6-0.5-0.7-0.5c0,0-0.1,0-0.1,0.1
		c0,0,0.1,0.1,0.1,0.1c0.5,0.5,1.3,1.4,0.7,3.8l-0.1,0.3l-0.3,0.1c-0.3,0-0.5-0.3-0.9-0.8c-0.1-0.1-0.2-0.2-0.3-0.3
		c-0.2,0.3-0.5,0.4-0.7,0.5c-0.1,0-0.1,0-0.1,0c-0.9,0.8-0.5,1.9,0.2,3.3c0.2-0.2,0.6-0.3,1,0c0.3,0.2,0.4,0.6,0.4,1.1
		c-0.1,0.5-0.3,1.1-0.7,1.3l0,0c-0.1,0.3-0.4,0.9-1.1,0.9c-0.2,0-0.4-0.1-0.6-0.2c-0.1-0.1-0.2-0.2-0.3-0.3l0,0l-0.2,0
		c-0.4,0.1-0.6,0-0.8,0c0,0,0,0,0,0c0,0,0,0,0.1,0.1c0.2,0.2,0.5,0.5,0.3,0.8c-0.1,0.3-0.5,0.3-0.8,0.2c-0.1,0-0.1-0.1-0.2-0.1
		c0,0,0,0-0.1,0.1c-0.1,0.1-0.3,0.3-0.8,0.6c-2.4,1.5-3.4,6.1-3.6,9c0.4-0.3,0.9-0.5,1.2-0.2c0.1,0.1,0.2,0.2,0.4,0.4
		c0.1,0.1,0.2,0.2,0.3,0.4c0,0,0-0.1,0-0.1c-0.1-0.3-0.1-0.6,0.1-0.9c0.2-0.3,0.5-0.4,1-0.4c0.4,0,0.9,0.1,1.4,0.2
		c0.3,0.1,0.6,0.1,0.8,0.2c0-0.2-0.2-0.7-0.4-1c-0.4-0.3-0.4-0.5-0.4-0.7c0.1-0.5,0.8-0.6,1-0.6c0.1,0,0.3,0,0.3,0.1
		c0.6,0.4,1,1.2,1.5,2c0.4,0.6,0.7,1.3,1.1,1.6c0.1,0.1,0.8,0.4,1.3,0.6c1.6,0.6,2.5,1,2.3,1.7c-0.2,0.6-0.7,0.6-1.1,0.7
		c-0.1,0-0.2,0-0.2,0c0,0.4,0.3,0.9,0.7,1.3c0.2,0.2,0.5,0.3,0.8,0.5c0.6,0.2,1.4,0.5,1.2,2c0,0.3-0.2,0.5-0.5,0.5
		c-0.3,0-0.6-0.2-0.9-0.3c-0.2-0.1-0.3-0.2-0.5-0.2c0,0,0,0-0.1,0c0,0.1,0,0.3,0,0.4c0,0.5,0,1.2-0.6,1.5l-0.1,0l-0.1,0
		c-0.6,0-1.2-1.2-2.7-4.8c-0.5-1.1-0.9-2.3-1.1-2.5c-0.1-0.1-0.1-0.1-0.1-0.2c0.1,0.8,0.4,1.5,0.8,2.3c1.1,2,1,6.8-0.3,9.9
		c-0.7,1.7-1.7,2.8-2.8,3.2l-0.1,0c-0.2,0-0.3-0.1-0.3-0.2c0,0-0.1,0.1-0.1,0.1c-0.1,0.1-0.1,0.3-0.2,0.4
		C23.1,174.9,22.9,175.4,22.4,175.4L22.4,175.4z M22.3,170.7l-0.1,0c-0.2,0.1-0.5,0.4-0.5,0.5c0.9,1,1.1,2.3,0.6,3.3
		c0,0,0,0,0.1,0.1c0-0.1,0.1-0.3,0.1-0.4c0.1-0.2,0.2-0.5,0.3-0.7c0.1-0.1,0.1-0.1,0.3-0.4l0.3-0.4l0.2,0c0.3,0,0.4,0.2,0.4,0.4
		c0.9-0.4,1.6-1.7,2-2.6c1.2-3,1.4-7.5,0.4-9.3c-0.6-1.2-0.9-2.1-1-3.3c0-0.1,0-0.3,0.1-0.4l0.1-0.1l0.2,0c0.2,0,0.4,0.1,1.1,0.9
		c0.2,0.3,0.6,1.2,1.2,2.7c0.6,1.4,1.6,3.8,2,4.3c0.1-0.2,0.1-0.5,0.1-0.8c0-0.3,0-0.5,0.1-0.7c0.1-0.4,0.4-0.5,0.6-0.5
		c0.2,0,0.3,0.1,0.5,0.1c0.2,0.1,0.4,0.2,0.6,0.3c0.1,0.1,0.3,0.2,0.4,0.2c0.1-0.7-0.2-0.8-0.8-1c-0.3-0.1-0.7-0.3-1.1-0.6
		c-0.5-0.4-1-1.2-0.9-2c0-0.5,0.6-0.5,0.9-0.6c0.1,0,0.4,0,0.5-0.1c-0.3-0.2-1.3-0.6-1.8-0.9c-0.8-0.3-1.3-0.5-1.5-0.7
		c-0.5-0.4-0.8-1.1-1.2-1.8c-0.4-0.7-0.8-1.4-1.2-1.8c0,0-0.1,0-0.1,0c0.2,0.2,0.6,1.2,0.6,1.6c0,0.3-0.1,0.5-0.2,0.6
		c-0.3,0.2-0.8,0.1-1.4-0.1c-0.6-0.2-1.4-0.3-1.6-0.1c0,0,0,0.2,0.1,0.3c0.1,0.3,0.2,1-0.4,1.1l-0.1,0c-0.3,0-0.5-0.3-1-0.8
		c-0.1-0.1-0.2-0.2-0.2-0.3c-0.1,0-0.4,0.2-0.5,0.3c-0.2,0.2-0.4,0.3-0.6,0.3h-0.2l-0.2-0.1c-0.1-0.1-0.1-0.2-0.1-0.4
		c0.2-3.6,1.4-8.4,4-10c0.5-0.3,0.6-0.4,0.7-0.5c0.1-0.1,0.2-0.1,0.3-0.2c0.1,0,0.1-0.1,0.2-0.1c-0.1-0.2-0.1-0.4,0-0.6
		c0.1-0.2,0.3-0.5,0.6-0.5c0,0,0.1,0,0.1,0c0.1,0,0.2,0,0.3,0c0-0.3,0.2-0.4,0.3-0.4c0.1,0,0.1,0,0.2-0.1c0.2-0.1,0.5-0.3,0.7,0.3
		l0,0.2c0,0.2,0,0.3,0.1,0.3c0.1,0.1,0.2,0.1,0.2,0.1c0.2,0,0.3-0.3,0.4-0.5c0.1-0.1,0.1-0.2,0.2-0.3c0.2-0.1,0.4-0.5,0.4-0.8
		c0-0.2,0-0.4-0.1-0.5c0-0.1,0,0,0,0c-0.1,0.1-0.2,0.3-0.5,0.3c-0.3,0-0.4-0.3-0.5-0.4c-0.7-1.4-1.6-3.2-0.2-4.4
		c0.2-0.2,0.3-0.2,0.5-0.2c0.2,0,0.2-0.1,0.3-0.4c0.1-0.3,0.3-0.4,0.4-0.4c0.3,0,0.5,0.3,1,0.9c0,0,0.1,0.1,0.1,0.2
		c0.3-1.6-0.3-2.2-0.7-2.6c-0.2-0.2-0.4-0.4-0.3-0.7c0-0.3,0.3-0.4,0.5-0.6c0.1-0.1,0.3-0.1,0.4-0.1c0.6,0,1.2,0.7,1.5,1
		c0.2,0.2,0.7,1,0.6,1.5c-0.4,1.8-0.3,4.5,0.2,6.4c0.1,0.5,0.1,0.9,0.2,1.4c0.1,1.8,0.1,3.9,6.3,5.5c0.3,0.1,0.5,0,0.5,0
		c0.2-0.3-0.3-1.8-0.7-2.6c-0.3-0.7-0.5-1.2-0.5-1.6c0-0.2-0.2-0.4-0.6-0.5c-0.3-0.1-0.6-0.3-0.7-0.7c-0.1-0.2,0-0.4,0.2-0.7
		c0.2-0.3,0.3-0.5,0.3-0.7c0-0.1-0.2-0.3-0.4-0.4c-0.4-0.2-1-0.6-0.8-1.5l0.1-0.3c-0.1,0-0.1,0-0.2-0.1c-0.4-0.1-0.8-0.2-1-0.5
		c-0.2-0.2-0.3-0.3-0.3-0.4c0,0,0,0.1,0,0.1c-0.1,0.2-0.2,0.7-0.7,0.7c-0.1,0-0.3,0-0.5-0.3c-0.5-0.7-0.7-2.8-0.4-3.9
		c0.1-0.3,0.4-0.4,0.5-0.4c0.1-0.3,0.1-0.6,0.1-0.8c0.1-0.8,0.2-1.2,1.2-2.2c0.2-0.2-0.1-0.9-0.5-1.5c-0.3-0.5-0.6-1-0.6-1.5
		c-0.2-2,0-3.3,0.6-3.9c0,0,0,0,0,0c0,0-0.1,0-0.2,0c-0.3,0-0.7,0-1.1,0.1c-0.4,0-0.9,0.1-1.2,0.1c-0.3,0-0.5,0-0.6-0.2
		c-0.1-0.1-0.1-0.3-0.1-0.3c0-0.1,0-0.2-0.1-0.5c0-0.2-0.1-0.3-0.1-0.4c0-0.1,0-0.2-0.1-0.2c0,0-0.2-0.1-0.3-0.2c-0.1,0-0.1,0-0.1,0
		c0,0,0,0-0.1,0.1c-0.1,0.1-0.4,0.3-0.7,0.2c-0.6-0.2-0.4-1.7-0.4-1.7c0.1-0.3,0.2-0.5,0.4-0.5c0.5,0,0.7,0.1,0.8,0.1
		c0.1,0,0.2,0,0.3-0.1c0.4-0.3,0.7-0.3,0.9-0.3c0.2,0,0.3,0,1.1-1.2c-0.1-0.1-0.1-0.1-0.2-0.2c-0.4-0.4-1.1-1.2-1.4-2.2
		c0-0.1-0.1-0.1-0.1-0.1c0,0,0,0,0,0c-0.2,0-0.6,0.1-0.8,0.5c-0.2,0.2-0.5,0.7-0.4,1.3c0,0.1,0.1,0.1,0.2,0.2
		c0.1,0.1,0.3,0.2,0.4,0.4l0.1,0.2l-0.1,0.2c-0.1,0.2-0.4,0.3-1.2,0.4c-0.7,0.1-1.8,0.3-2.3,0.6c-1.6,1-2.2,1.8-2.9,2.7
		c-0.3,0.4-0.6,0.8-1,1.2c0,0.1,0.1,0.2,0.1,0.3c0.1,0.2,0.3,0.4,0.2,0.6c-0.1,0.3-0.4,0.3-0.6,0.3c-0.1,0-0.5,0-0.5,0.1
		c0,0,0,0.1,0.1,0.2c0.3,0.7,0,1.2-0.2,1.5c-0.1,0.1-0.1,0.2-0.1,0.2c-0.4,0.9-1.3,1.3-2.3,1.6c-0.9,0.4-1.9,0.7-2.7,1.6
		c-0.2,0.3-0.5,0.5-0.8,0.5c-0.2,0-0.4-0.1-0.6-0.2c-0.1-0.1-0.3-0.2-0.6-0.2c-0.7-0.3-2.7,0.2-3.6,0.8c0,0,0,0.1,0.1,0.1
		c0.3,0.4,0.7,1.3,0.3,2.1c-0.2,0.4-0.5,0.9-1,0.9c-0.3,0-0.5-0.2-0.7-0.3c-0.1-0.1-0.2-0.1-0.3-0.2c0,0.1-0.1,0.4-0.1,0.5
		c-0.2,0.8-0.3,1.7-1,1.7c-0.4,0-0.8-0.4-1.5-2.1c-0.4-1.1-0.8-1.1-1.3-1.1c-0.2,0-0.4,0-0.6,0c-0.1,0-0.3,0-0.4,0c0,0,0,0.1,0,0.1
		c0.1,0.3,0.3,0.8,0,1.2c-0.2,0.3-0.7,0.6-1.3,0.6c-0.5,0-0.8-0.2-1-0.5c-0.1-0.1-0.1-0.1-0.2-0.1c-0.1,0-0.3,0.1-0.5,0.2
		c-0.2,0.1-0.5,0.3-0.8,0.3c0,0,0,0,0,0c-0.5,0-0.5-0.6-0.6-1.1c0-0.1,0-0.1,0-0.2c0,0-0.1,0-0.1,0c-0.2,0.1-0.2,0.3-0.2,0.6
		c0,0.3-0.1,0.6-0.4,0.9c-0.3,0.3-1.1,0.3-1.2,0.3c-0.3,0-0.5,0-0.7-0.1l-0.2-0.1l-0.1-0.2c-0.1-0.4,0.6-1.5,0.8-1.8l0.2-0.2
		c0.3-0.5,0.6-0.9,1.2-1c0.6-0.1,0.7-0.2,0.7-0.3c0-0.6-2.6-2.2-3.5-2.5c-0.4,0.2-0.4,0.3-0.5,0.8c0,0.2-0.1,0.3-0.1,0.6
		c-0.1,0.3-0.5,0.4-0.8,0.2c0,0,0,0,0,0c0,0,0,0,0,0c-0.1,0.2-0.2,0.6-0.6,0.6c-0.1,0-0.3-0.1-0.5-0.2c-0.2-0.1-0.3-0.3-0.3-0.4
		c-0.2,0-0.3,0-0.5,0c-0.7,0-1.3,0.3-2,0.7c-0.4,0.2-0.8,0.4-1.2,0.6c-0.1,0-0.2,0.1-0.4,0.1c-0.5,0.2-1.5,0.5-1.9,0.8
		c0,0-0.1,0-0.1,0.1c0,0,0.1,0.1,0.1,0.1c0.1,0.2,0.4,0.5,0.3,0.9c0,0.7-0.4,0.8-0.6,0.8c-0.3,0-0.6-0.2-1-0.7c0,0,0,0,0,0.1
		c-0.1,0.3-0.5,0.8-1,0.8l-0.2,0c-0.7-0.2-0.5-1.2-0.4-2c-0.2,0.2-0.2,0.3-0.3,0.5c-0.1,0.2-0.2,0.4-0.5,0.8l-0.1,0.1
		c-0.9,1.3-1.4,2.2-0.8,2.7c1.1,0.9,1.3,1.3,1,1.8c-0.1,0.3-0.4,0.5-0.7,0.5c-0.2,0-0.6-0.1-0.9-0.4c-0.2-0.2-0.3-0.2-0.3-0.2
		c0,0-0.1,0-0.3,0.2c-0.2,0.3-1.2,1.2-2,1.2c-0.2,0-0.4,0-0.5-0.1c-0.3-0.2-0.6-0.3-0.8-0.4c-0.2-0.1-0.5-0.2-0.4-0.5
		c0-0.3,0.3-0.4,0.6-0.5c1-0.3,1.7-1.9,2.3-3.3c0.4-1,0.8-1.9,1.3-2.4l0.3-0.3c0.7-0.7,1.1-1.2,1.2-1.3c0-0.1-0.1-0.1-0.1-0.1
		c-0.7,0-2.2,1.5-2.5,2c0.2,0.2,0.3,0.4,0.2,0.7c0,0.3-0.2,0.5-0.5,0.6c-0.4,0.1-0.6,0.9-0.5,1.3c0,0.2,0,0.3-0.1,0.5
		c-0.2,0.2-0.4,0.3-0.7,0.3l-0.2,0c-0.6-0.2-0.8-1.1-1.3-3.1c-0.1-0.5-0.3-1-0.4-1.4c0,0.1,0,0.2-0.1,0.4c0,0.4-0.1,0.9-0.7,1.2
		c-0.3,0.2-0.6,0.1-0.7-0.1c-0.2-0.2-0.1-0.4-0.1-0.6c0,0,0-0.1,0-0.1c-1.7-0.7-2.2-1.1-2.2-1.5c0-0.1,0-0.2,0-0.3
		c-0.5-0.1-1.4-0.3-1.9-0.3c-0.4-0.1-0.6-0.2-0.6-0.4c-0.2,0-0.3,0-0.4-0.1c-0.9,0.4-1.4,0.3-1.5-0.2c-0.1-0.5,0.3-1.2,0.8-1.4
		l0.1,0c1.1-0.4,1.2-0.7,1.2-0.8c0-0.1-0.2-0.4-0.6-0.7c0,0,0,0,0,0c-0.1,0.2-0.1,0.4-0.3,0.6c-1,1-1.8,1.5-2.4,1.5
		c-0.6,0-0.9-0.4-1.2-0.7c-0.4-0.5-0.6-0.7-1.2-0.4c0,0,0,0-0.1,0.1c-0.2,0.3-0.5,0.6-0.8,0.6c-0.2,0-0.5-0.1-0.5-0.8
		c0-0.3,0.1-0.5,0.2-0.7c0.1-0.3,0.2-0.5,0.1-0.6c0-0.1-0.1-0.2-0.1-0.2c-0.1,0.1-0.2,0.3-0.2,0.5c0,0.2-0.1,0.4-0.2,0.5
		c-0.3,0.3-0.5,0.5-0.8,0.5c-0.1,0-0.5-0.1-0.6-0.5c-0.2-0.6-0.1-1.7,0.4-2.1c0.4-0.3,1-1.1,1.4-1.7c0.7-1,0.9-1.3,1.3-1.3h0.2
		l0.2,0.1c0.2,0.2,0.2,0.5,0.1,0.7c-0.2,2,0.3,2.9,0.6,3.2c0.5,0.6,1.3,0.5,1.8-0.2c0.7-0.8,0.8-2.2,0.5-3.8
		c-0.1-0.2-0.2-0.8,0.4-0.9c0.1-0.3,0-0.5-0.1-0.8c-0.3-0.4-1-0.7-1.7-0.7c-0.2,0-0.5,0-0.6,0.1c0,0,0,0.2-0.1,0.3
		c0,0.3-0.1,0.8-0.6,0.9c-0.9,0.2-3.7,1.3-4.5,1.9c-0.3,0.2-0.4,0.4-0.5,0.6c-0.2,0.3-0.4,0.6-1.1,0.8c-0.2,0.1-0.4,0.1-0.6,0.1
		c-0.8,0-1.4-0.5-2-0.9c-0.5-0.4-1.1-0.8-1.4-0.6c0,0.1,0,0.2,0,0.4c0.1,0.9,0.1,1.1-0.1,1.3l-0.1,0.1l-0.3,0l-0.1-0.1
		c-0.2-0.2-0.4-0.3-0.5-0.4c-0.2-0.2-0.4-0.3-0.6-0.4c-1-0.3-1.5-0.1-2.4,0.3l-0.3,0.1c-0.6,0.2-1.3,0.9-1.7,1.3c0,0,0,0.1,0.1,0.3
		c0.1,0.1,0.1,0.2,0.2,0.3c0.1,0.3-0.1,0.5-0.2,0.6c0.1,0.6-0.4,1.1-0.8,1.5c-0.2,0.2-0.5,0.5-0.7,0.8c-0.1,0.2-0.2,0.5-0.2,0.8
		c-0.1,0.5-0.2,1-0.7,1l-0.2,0c-0.5-0.2-0.7-0.4-0.8-0.6c-0.1,0.1-0.3,0.2-0.5,0.3l-0.1,0.1c-0.1,0-0.2,0.1-0.2,0.2
		c0.1,0.1,0.2,0.2,0.3,0.2c0.2,0.1,0.5,0.2,0.6,0.5c0.2,0.7-0.2,1.1-0.6,1.5c-0.7,0.7-1.4,1.4-0.1,3.3c0.2,0.3,0,0.7-0.1,0.9
		c-0.1,0.1-0.1,0.2-0.1,0.2c-0.1,0.4,0.2,0.7,0.5,1.1c0.2,0.2,0.4,0.5,0.3,0.8c-0.1,0.3-0.5,0.4-1.3,0.5c-0.1,0-0.2,0-0.2,0
		c0,0.1,0,0.3-0.1,0.5c-0.2,0.2-0.5,0.5-0.9,0.5c-0.1,0-0.3,0-0.4-0.1c-1-0.9-1.4-0.9-1.6-0.9c-0.1,0.1-0.1,0.4-0.1,0.5
		c0,0.2,0,0.4-0.1,0.6l-0.1,0.1l-0.2,0l-0.1,0c-0.1,0-0.3-0.1-0.4-0.2c-1.1-0.4-3.1-1.1-3-2.6c0-0.5,0.2-0.7,0.3-0.9
		c0.1-0.2,0.2-0.2-0.1-0.7c-0.1-0.1-0.9-0.5-1.3-0.5c-0.2,0.3-0.3,0.4-0.3,0.5c0,0.2-0.1,0.5-0.4,1c-0.2,0.3,0.9,1.1,1.4,1.5
		c0.6,0.4,0.8,1,0.8,1.1c0,0.1,0,0.2,0,0.3c0,0.2,0.1,0.4,0,0.6c0,0.4-0.1,0.8-0.2,1.2c-0.2,0.8-0.3,1.5,0.1,2.1l0.3,0.4
		c0.5,0.7,1.1,1.5,1.4,2.3c0.1,0.4,0.3,0.7,0.5,1c0.4,0.7,0.7,1.4,0.6,2.3c-0.1,0.9,0,2.5,0.4,2.9c0.2,0.2,0.2,0.2,0.6,0
		c0.3-0.2,0.5-0.8,0.6-1.3c0.1-0.4,0.2-0.8,0.3-1.1c0.1-0.2,0.3-0.3,0.6-0.3c0-0.1,0-0.1,0-0.2c0-0.1,0-0.3,0-0.4
		c0-0.2,0-0.6,0.2-0.8c0.2-0.3,0.6-0.1,0.8,0c0.7-0.5,1.7-0.5,2-0.1c0.1,0.2,0.2,0.4,0.2,0.5c0,0,0,0,0,0c0.1,0,0.3-0.1,0.6-0.2
		c-0.1-0.2-0.2-0.4-0.2-0.6c0-0.1,0-0.5,0.4-0.5h0.3l0.1,0.3c0,0,0,0,0,0.1c0.2-0.2,0.4-1,0.4-1.5c0,0-0.1-0.1-0.1-0.1
		c-0.2-0.1-0.4-0.2-0.4-0.4l0-0.2l0.2-0.3c0.1-0.1,0.1-0.2,0.1-0.2c0,0,0,0,0,0c0,0,0-0.1-0.1-0.2c-0.1-0.2,0-0.4,0-0.5
		c0.2-0.3,0.5-0.3,0.8-0.3c0.1,0,0.4,0,0.4-0.1c1.1-0.9,1.5-1,1.7-1c0.2,0,0.4,0.1,0.5,0.3c0.1,0.3,0.2,0.5,0.2,0.6
		c0.1,0,0.2-0.1,0.3-0.1c0.2-0.1,0.4-0.1,0.7-0.1c0.7,0,1.9,0.2,2.3,0.7l0.1,0.1c0.3,0.3,0.8,0.9,1.1,1.7c0.3,0.6,0,1-0.1,1.3
		c-0.2,0.3-0.2,0.3-0.1,0.5c0.1,0.2,0.5,0.5,0.6,0.5c1.6,0.7,2.1,1.5,2.5,2.1c0.1,0.2,0.2,0.3,0.3,0.5c0.2,0.3,0.7,0.5,1.2,0.5
		c0.2,0,0.4-0.1,0.4-0.1c0.1-0.1,0-0.2,0-0.4c-0.2-0.1-0.3-0.2-0.5-0.5c-0.1-0.2-0.2-0.5,0-0.7c0.1-0.1,0.2-0.2,0.6-0.2
		c0.2,0,0.4,0,0.7,0c0.7-0.2,0.7-0.4,0.9-0.8c0.1-0.2,0.1-0.3,0.2-0.5c0.1-0.2,0.2-0.5,0.5-0.5c0.2,0,0.3,0.1,0.4,0.2
		c0.7,0.7,3.7,1.9,5.2,1.9c0.2,0,0.3,0,0.4,0c0.6-0.2,1,0.2,1.3,0.6c0.1,0.1,0.2,0.2,0.3,0.4c0.4,0.4,0,0.8-0.2,1.1
		c-0.1,0.1-0.2,0.3-0.2,0.4c0,0.1,0.1,0.1,0.2,0.2c0.2,0.1,0.4,0.2,0.6,0.4c0,0,0.1,0.1,0.1,0.1c0,0,0,0,0,0c0.2,0,0.4,0.1,0.5,0.4
		c0,0,0.3,0.9-0.1,1.1c0,0,0,0,0,0c0.4,0.3,0.7,0,1-0.2c0.3-0.2,0.5-0.4,0.8-0.4c0.2,0,0.4,0.1,0.6,0.3c0.7,1,0.8,2.2,0.9,3.4
		c0,0.6,0.1,1.2,0.2,1.9c0.1-0.1,0.3-0.2,0.4-0.2h0.1l0.1,0.1c0.4,0.2,0.6,0.5,0.7,0.6c0.1,0.2,0.2,0.3,1.1,0.4
		c0.8,0.1,1,0.8,1.1,1.3c0,0.2,0.1,0.4,0.2,0.5c0.2,0.6,1.5,1.6,2.1,1.6c0.1,0,0.1,0,0.1,0c0.7-0.4,2.5-1,4-1c0.8,0,1.4,0.2,1.8,0.5
		c0.5,0.5,1.5,1.3,2.3,1.3c0.2,0,0.4-0.1,0.6-0.2c0.2-0.2,0.2-0.3,0.1-0.7c-0.1-0.4-0.1-0.9,0.3-1.3c0.2-0.2,0.2-0.3,0.2-0.4
		c0.1-0.3,0.3-0.4,0.4-0.4c0.1,0,0.2,0,0.3,0.1c1.3,0.7,1.9,1,2.1,1.1c0.1,0.1,0.4,0.2,0.3,0.5l-0.1,0.3c0.1,0.2,0.4,0.4,0.7,0.8
		c0.4,0.4,0.9,0.3,1.6,0.1c0.7-0.2,1.5-0.3,2.1,0.1c0.1,0,0.1,0,0.2,0c0.1,0,0.1,0,0.2,0c0.2,0,0.5,0.1,0.6,0.5
		c0.1,0.3,0.3,0.7,1,0.7c1.3,0,3.1-1,3.9-1.7c0.3-0.2,0.7-0.2,1.3,0c0.4,0.1,0.9,0.3,1.4,0.3c0.7,0,1.4-0.3,2-0.9
		c0.1-0.1,0.1-0.5,0.1-0.7c0-0.6,0-1.2,0.4-1.8c0,0,0,0,0,0c-0.3-0.2-0.9-0.5-0.6-1.1c0.6-1.5,1.5-2.2,2.6-2.2
		c1.8,0,3.6,2.1,4.3,2.9c0.1,0.1,0.2,0.2,0.2,0.2c0.7,0.7,1.8,1.1,3.4,1.3c0.3,0,0.6,0,0.7,0c0-0.1-0.1-0.1-0.1-0.2
		c-0.2-0.3-0.5-0.5-0.3-0.9c0.1-0.3,0.5-0.3,0.6-0.3c0.1,0,0.2,0,0.3,0c0.5,0.1,0.6,0,0.9,0c0.2-0.1,0.5-0.2,1-0.2
		c0.5,0,0.6,0.4,0.7,0.6c0,0.1,0.1,0.3,0.2,0.4c0.7,1,0.8,2.5,0.5,4.8c0,0.2-0.2,0.5-0.6,0.5c-0.1,0-0.2,0-0.4,0
		C22.5,170.7,22.4,170.7,22.3,170.7z M9,132.8c0.1,0.2,0.2,0.4,0.4,0.7l0,0c0.2,0,0.4-0.2,0.7-0.4C9.9,133.1,9.5,133,9,132.8z
		 M7.9,130.4c0.1,0.2,0.1,0.3,0,0.5l-0.1,0.2l-0.3,0c-0.2,0-0.6,0.1-0.6,0.3c0,0.3,0.3,0.6,0.7,0.6c0.2,0,0.4-0.1,0.6-0.4
		c0.7-0.9,0.5-1.2,0.5-1.2C8.6,130.4,8.3,130.3,7.9,130.4z M-23,133.7l-0.1,0c-0.3-0.1-1.4-0.5-1.5-1.5c-0.2-1.1,0.9-2.4,3.2-3.9
		c0.5-0.3,1-0.5,1.5-0.5c0.4,0,0.8,0.1,1.2,0.2c0.4,0.1,0.7,0.2,1,0.1c0.8-0.2,1.2,0,1.5,0.2c0.2,0.1,0.4,0.2,0.8,0.2l0.2,0
		c0.4,0,0.8,0.1,1,0.2c0.3,0.2,0.4,0.4,0.4,0.7c0,0.8-1,1.5-2,1.3c-0.7-0.1-1.4-0.2-2-0.2c-2.7,0-3.7,1.5-4.3,2.4
		C-22.3,133.4-22.5,133.7-23,133.7L-23,133.7z M-19.9,128.5c-0.4,0-0.7,0.1-1.1,0.4c-2.7,1.8-3,2.8-2.9,3.2c0.1,0.5,0.7,0.8,1,0.9
		c0.1-0.1,0.2-0.3,0.3-0.4c0.6-1,1.8-2.8,4.9-2.8c0.6,0,1.4,0.1,2.1,0.2c0.6,0.1,1.1-0.3,1.1-0.6c0,0,0-0.1-0.1-0.1
		c-0.1,0-0.2-0.1-0.6-0.1l-0.2,0c-0.6,0-0.9-0.2-1.1-0.3c-0.3-0.1-0.5-0.2-1-0.1c-0.5,0.1-0.9,0-1.4-0.2
		C-19.2,128.6-19.5,128.5-19.9,128.5z M-26.6,132.2v-0.7c0.1,0,0.2,0,0.3-0.1c0,0,0-0.1,0-0.1c0-0.1-0.1-0.3-0.2-0.3v-0.7
		c0.6,0,0.9,0.5,0.9,1c0,0.3-0.1,0.5-0.3,0.7C-25.9,132.1-26.2,132.2-26.6,132.2z M-5.5,131.5l-0.1-0.1l0-0.2c0,0,0.1-0.4,0.2-0.8
		c-0.3,0-0.6-0.4-0.8-0.6c-0.1-0.2-0.3-0.4-0.5-0.5c-0.4-0.2-0.7-0.5-0.7-0.8c-0.1-0.5,0.2-1,0.4-1.3c0.1-0.1,0.1-0.2,0.2-0.3
		c0.1-0.1,0.4-0.8,1-0.8c0.1,0,0.2,0,0.3,0.1c0.4,0.2,0.4,0.5,0.4,0.7c0,0.1,0,0.2,0.1,0.2l0.1,0.1l0,0.2c0,0.2-0.1,0.3-0.2,0.3
		c0,0-0.1,0.1-0.1,0.1c0.2,0,0.4,0.1,0.5,0.3c0.2,0.3,0.2,0.6,0.3,0.9c0.1,0,0.1,0,0.2,0v0.7c-0.2,0.1-0.7,1.3-0.8,1.6l-0.4,0
		L-5.5,131.5z M-5.7,126.8c-0.1,0-0.3,0.2-0.4,0.4c-0.1,0.1-0.1,0.2-0.2,0.4c-0.2,0.3-0.4,0.6-0.3,0.7c0,0.1,0.2,0.3,0.4,0.4
		c0.3,0.2,0.5,0.5,0.7,0.7c0.1,0.1,0.2,0.3,0.3,0.3c0.3-0.3,0.4-0.7,0.2-1.2c-0.1,0-0.1,0-0.1,0c-0.2,0-0.3-0.1-0.4-0.2
		c-0.2-0.3-0.1-0.6,0.1-1C-5.7,127.2-5.7,127-5.7,126.8C-5.7,126.9-5.7,126.8-5.7,126.8z M-54.1,125.5c-0.2,0-0.4-0.1-0.6-0.3
		c-0.5-0.7-0.4-2.1-0.3-2.7c0.1-0.3,0.3-0.4,0.7-0.4c0.2,0,0.5,0.1,0.6,0.2c0.1,0.1,0.8,0.5,0.9,0.9c0,0.2,0,0.3-0.1,0.4
		c0,0.1-0.1,0.1-0.2,0.1c0,0,0,0,0,0c0.3,0.4,0.6,0.8,0.4,1.3C-52.8,125.3-53.5,125.4-54.1,125.5L-54.1,125.5z M-54.3,122.7
		c-0.1,0.6-0.1,1.7,0.1,2c0,0.1,0.1,0.1,0.1,0.1v0.4l0-0.4c0.7,0,0.8-0.2,0.8-0.2c0-0.1-0.2-0.4-0.3-0.5c-0.2-0.3-0.5-0.6-0.4-0.9
		l0.1-0.3c0,0-0.1,0-0.1,0C-54.1,122.7-54.2,122.7-54.3,122.7C-54.3,122.7-54.3,122.7-54.3,122.7z M21.5,123.8
		c-0.5,0-0.9-0.5-0.9-1.3c0-0.4,0.1-0.8,0.2-1.1c0.2-0.4,0.5-0.7,0.9-0.7v0.7c-0.1,0-0.2,0.1-0.2,0.3c-0.1,0.2-0.2,0.5-0.2,0.8
		c0,0.4,0.1,0.6,0.2,0.6V123.8z"/>
</g>
<g>
	<g>
		<path class="st1" d="M68.8,184.4h-3.3c-2.1,0-4.4-1.6-4.6-5.1l-1.7-24.2c-2.4-0.5-4.1-2.5-4.3-5l-1-16.3c-0.1-1.7,0.4-3.4,1.6-4.7
			c1.2-1.3,2.8-2.1,4.5-2.2l1.5-0.1c-1.9-1.6-3-4-3-6.5c0-4.8,3.8-8.5,8.5-8.5c4.7,0,8.5,3.8,8.5,8.5c0,2.5-1.1,4.9-3,6.5l1.5,0.1
			c3.6,0.3,6.3,3.4,6.2,6.9l-1,16.3c-0.1,2.5-1.9,4.5-4.3,5l-1.7,24.2C73.1,183.1,70.8,184.4,68.8,184.4z M61.8,127.5l-1.8,0.1
			c-1.5,0.1-2.9,0.8-4,1.9c-1,1.2-1.5,2.6-1.4,4.2l1,16.3c0.2,2.2,1.8,4.1,4,4.4l0.3,0l1.7,24.8c0.2,3,2,4.4,3.8,4.4h3.3
			c1.7,0,3.7-1.1,3.8-4.4l1.7-24.8l0.3,0c2.2-0.3,3.9-2.2,4-4.4l1-16.4c0.2-3.1-2.3-5.8-5.5-6.1l-2.6-0.1h-1.3l1.1-0.7
			c2.2-1.4,3.5-3.9,3.5-6.5c0-4.3-3.5-7.8-7.8-7.8c-4.4,0-7.8,3.4-7.8,7.8c0,2.6,1.4,5.1,3.5,6.5l1.1,0.7H61.8z"/>
	</g>
	<g>
		<path class="st1" d="M97.8,184.4h-3.3c-2.1,0-4.4-1.6-4.6-5.1l-1.7-24.2c-2.4-0.5-4.1-2.5-4.3-5l-1-16.3c-0.1-1.7,0.4-3.4,1.6-4.7
			c1.2-1.3,2.8-2.1,4.5-2.2l1.5-0.1c-1.9-1.6-3-4-3-6.5c0-4.8,3.8-8.5,8.5-8.5c4.7,0,8.5,3.8,8.5,8.5c0,2.5-1.1,4.9-3,6.5l1.5,0.1
			c3.6,0.3,6.3,3.4,6.2,6.9l-1,16.3c-0.1,2.5-1.9,4.5-4.3,5l-1.7,24.2C102.1,183.1,99.8,184.4,97.8,184.4z M90.8,127.5l-1.8,0.1
			c-1.5,0.1-2.9,0.8-4,1.9c-1,1.2-1.5,2.6-1.4,4.2l1,16.3c0.2,2.2,1.8,4.1,4,4.4l0.3,0l1.7,24.8c0.2,3,2,4.4,3.8,4.4h3.3
			c1.7,0,3.7-1.1,3.8-4.4l1.7-24.8l0.3,0c2.2-0.3,3.9-2.2,4-4.4l1-16.4c0.2-3.1-2.3-5.8-5.5-6.1l-2.6-0.1h-1.3l1.1-0.7
			c2.2-1.4,3.5-3.9,3.5-6.5c0-4.3-3.5-7.8-7.8-7.8c-4.4,0-7.8,3.4-7.8,7.8c0,2.6,1.4,5.1,3.5,6.5l1.1,0.7H90.8z"/>
	</g>
	<g>
		<path class="st1" d="M126.8,184.4h-3.3c-2.1,0-4.4-1.6-4.6-5.1l-1.7-24.2c-2.4-0.5-4.1-2.5-4.3-5l-1-16.3
			c-0.1-1.7,0.4-3.4,1.6-4.7c1.2-1.3,2.8-2.1,4.5-2.2l1.5-0.1c-1.9-1.6-3-4-3-6.5c0-4.8,3.8-8.5,8.5-8.5c4.7,0,8.5,3.8,8.5,8.5
			c0,2.5-1.1,4.9-3,6.5l1.5,0.1c3.6,0.3,6.3,3.4,6.2,6.9l-1,16.3c-0.1,2.5-1.9,4.5-4.3,5l-1.7,24.2
			C131.1,183.1,128.8,184.4,126.8,184.4z M119.8,127.5l-1.8,0.1c-1.5,0.1-2.9,0.8-4,1.9c-1,1.2-1.5,2.6-1.4,4.2l1,16.3
			c0.2,2.2,1.8,4.1,4,4.4l0.3,0l1.7,24.8c0.2,3,2,4.4,3.8,4.4h3.3c1.7,0,3.7-1.1,3.8-4.4l1.7-24.8l0.3,0c2.2-0.3,3.9-2.2,4-4.4
			l1-16.4c0.2-3.1-2.3-5.8-5.5-6.1l-2.6-0.1h-1.3l1.1-0.7c2.2-1.4,3.5-3.9,3.5-6.5c0-4.3-3.5-7.8-7.8-7.8c-4.4,0-7.8,3.4-7.8,7.8
			c0,2.6,1.4,5.1,3.5,6.5l1.1,0.7H119.8z"/>
	</g>
</g>
<g>
	<path class="st1" d="M-99.1,133.2c-3,0-5.4-2.4-5.4-5.4c0-1.6,0.7-3.1,2-4.2c0.7-0.5,1.4-0.9,2.2-1.1v-9.9c0-0.7,0.5-1.2,1.2-1.2
		s1.2,0.5,1.2,1.2v9.9c0.8,0.2,1.6,0.6,2.2,1.1c1.2,1,2,2.6,2,4.2C-93.7,130.8-96.2,133.2-99.1,133.2z M-99.1,112.2
		c-0.3,0-0.5,0.2-0.5,0.5v10.5l-0.3,0.1c-0.8,0.1-1.6,0.5-2.2,1c-1.1,0.9-1.7,2.2-1.7,3.6c0,2.6,2.1,4.7,4.7,4.7s4.7-2.1,4.7-4.7
		c0-1.4-0.6-2.7-1.7-3.6c-0.6-0.5-1.4-0.9-2.2-1l-0.3-0.1v-10.5C-98.7,112.4-98.9,112.2-99.1,112.2z"/>
	<path class="st1" d="M-131.1,133.2c-3,0-5.4-2.4-5.4-5.4c0-1.6,0.7-3.1,2-4.2c0.7-0.5,1.4-0.9,2.2-1.1v-9.9c0-0.7,0.5-1.2,1.2-1.2
		s1.2,0.5,1.2,1.2v9.9c0.8,0.2,1.6,0.6,2.2,1.1c1.2,1,2,2.6,2,4.2C-125.7,130.8-128.1,133.2-131.1,133.2z M-131.1,112.2
		c-0.3,0-0.5,0.2-0.5,0.5v10.5l-0.3,0.1c-0.8,0.1-1.6,0.5-2.2,1c-1.1,0.9-1.7,2.2-1.7,3.6c0,2.6,2.1,4.7,4.7,4.7s4.7-2.1,4.7-4.7
		c0-1.4-0.6-2.7-1.7-3.6c-0.6-0.5-1.4-0.9-2.2-1l-0.3-0.1v-10.5C-130.6,112.4-130.8,112.2-131.1,112.2z"/>
	<path class="st1" d="M-89.1,181.1h-52.1c-3.5,0-6.3-2.8-6.3-6.3v-32.5h64.7v32.5C-82.8,178.3-85.6,181.1-89.1,181.1z M-146.7,143.1
		v31.8c0,3.1,2.5,5.5,5.5,5.5h52.1c3.1,0,5.5-2.5,5.5-5.5v-31.8H-146.7z M-82.8,137.4h-64.7v-13c0-0.4,0-0.9,0.1-1.3
		c0.2-1,0.7-1.9,1.3-2.7c0.1-0.2,0.3-0.3,0.4-0.4c0.9-0.9,2-1.5,3.2-1.7c0.4-0.1,0.8-0.1,1.3-0.1h5v0.8h-5c-0.4,0-0.8,0-1.1,0.1
		c-1.1,0.2-2,0.7-2.8,1.5c-0.1,0.1-0.2,0.3-0.4,0.4c-0.6,0.7-1,1.5-1.1,2.4c-0.1,0.4-0.1,0.7-0.1,1.1v12.2h63.2v-12.2
		c0-0.4,0-0.8-0.1-1.1c-0.4-2.2-2.1-3.9-4.3-4.3c-0.4-0.1-0.7-0.1-1.1-0.1h-5v-0.8h5c0.4,0,0.9,0,1.3,0.1c2.5,0.5,4.4,2.4,4.9,4.9
		c0.1,0.4,0.1,0.8,0.1,1.3V137.4z"/>
	<path class="st3" d="M-126.1,116.8"/>
	<rect x="-126.1" y="118.2" class="st1" width="21.9" height="0.8"/>
</g>
<g>
	
		<image style="overflow:visible;" width="405" height="394" xlink:href="5B76E0A4.png"  transform="matrix(1 0 0 1 -215.2031 298.1359)">
	</image>
	
		<image style="overflow:visible;" width="203" height="388" xlink:href="5B76E0A5.png"  transform="matrix(1 0 0 1 -82.2031 302.1359)">
	</image>
	
		<image style="overflow:visible;" width="203" height="390" xlink:href="5B76E0A3.png"  transform="matrix(1 0 0 1 -82.2031 300.1359)">
	</image>
	
		<image style="overflow:visible;" width="73" height="162" xlink:href="5B76E0AC.png"  transform="matrix(1 0 0 1 -148.2031 302.1359)">
	</image>
	
		<image style="overflow:visible;" width="92" height="218" xlink:href="5B76E0AF.png"  transform="matrix(1 0 0 1 -212.2031 419.1359)">
	</image>
</g>
<g>
	<path class="st4" d="M-38.6,10.5c-1.2,0-2.3-0.2-3.4-0.5c-0.5-0.2-1.2,0-1.5,0.3l-2.2,1.6c-2.5-1.3-4.1-2.9-5.4-5.4l1.6-2.1
		c0.4-0.4,0.5-1,0.4-1.5c-0.4-1.1-0.5-2.2-0.5-3.4c0-0.8-0.7-1.5-1.5-1.5h-3.5c-0.8,0-1.5,0.7-1.5,1.5c0,9.6,7.9,17.5,17.5,17.5
		c0.8,0,1.5-0.7,1.5-1.5V12C-37.1,11.2-37.8,10.5-38.6,10.5z"/>
</g>
<g>
	<path class="st5" d="M-14.6,10.5c-1.2,0-2.3-0.2-3.4-0.5c-0.5-0.2-1.2,0-1.5,0.3l-2.2,1.6c-2.5-1.3-4.1-2.9-5.4-5.4l1.6-2.1
		c0.4-0.4,0.5-1,0.4-1.5c-0.4-1.1-0.5-2.2-0.5-3.4c0-0.8-0.7-1.5-1.5-1.5h-3.5c-0.8,0-1.5,0.7-1.5,1.5c0,9.6,7.9,17.5,17.5,17.5
		c0.8,0,1.5-0.7,1.5-1.5V12C-13.1,11.2-13.8,10.5-14.6,10.5z"/>
</g>
<g>
	<path class="st6" d="M308.7-15.9c31.3,0,56.7,25.4,56.7,56.7c0,31.3-25.4,56.7-56.7,56.7c-31.3,0-56.7-25.4-56.7-56.7
		C252,9.5,277.4-15.9,308.7-15.9"/>
	<path class="st7" d="M308.7,103.5c-3.3,0-6-2.7-6-6c0-3.3,2.7-6,6-6c3.3,0,6,2.7,6,6"/>
	<path class="st7" d="M314.7,97.5c0,3.3-2.7,6-6,6"/>
	<path class="st8" d="M308.7,103.5c-3.3,0-6-2.7-6-6c0-3.3,2.7-6,6-6c3.3,0,6,2.7,6,6C314.7,100.8,312,103.5,308.7,103.5"/>
	<line class="st9" x1="309.1" y1="14.2" x2="309.1" y2="7.1"/>
	<line class="st9" x1="297.8" y1="16.4" x2="293.7" y2="10.7"/>
	<line class="st9" x1="289.1" y1="24" x2="283" y2="20.5"/>
	<line class="st9" x1="287.2" y1="46.2" x2="281.1" y2="49.8"/>
	<line class="st9" x1="285.8" y1="34.6" x2="278.7" y2="34.6"/>
	<line class="st9" x1="319.5" y1="16.4" x2="323.7" y2="10.7"/>
	<line class="st9" x1="328.2" y1="24" x2="334.4" y2="20.5"/>
	<line class="st9" x1="330.1" y1="46.2" x2="336.3" y2="49.8"/>
	<line class="st9" x1="331.6" y1="34.6" x2="338.7" y2="34.6"/>
	<path class="st9" d="M324.3,37.6c0-8.9-7.5-16.1-16.5-15.6c-7.6,0.4-13.9,6.4-14.7,13.9c-0.6,5.4,1.6,10.3,5.3,13.5
		c2.2,1.9,3.6,4.7,3.6,7.6v8.9c0,3.7,3,6.6,6.6,6.6s6.6-3,6.6-6.6v-8.8c0-3,1.4-5.8,3.6-7.7C322.2,46.5,324.3,42.3,324.3,37.6z"/>
	<line class="st9" x1="302.8" y1="61.3" x2="314.6" y2="61.3"/>
	<polyline class="st9" points="299.7,38 306.5,44.8 317,34.3 	"/>
</g>
<g>
	<circle class="st6" cx="306.3" cy="165.4" r="56.7"/>
	<path class="st7" d="M367,179.2c0,3.3-2.7,6-6,6c-3.3,0-6-2.7-6-6c0-3.3,2.7-6,6-6C364.3,173.2,367,175.9,367,179.2"/>
	<circle class="st8" cx="361" cy="179.2" r="6"/>
	<path class="st7" d="M297.9,160.6l-10,2.4c-1.2,0.3-2.4,0.2-3.5-0.4l-5.7-3.4V177l22.4,13c3.5,2,7.8,1.9,11.1-0.2l9-5.5
		c1.3-0.8,1.6-2.7,0.5-3.9l-17.8-18.1C302.4,160.7,300.1,160,297.9,160.6"/>
	<path class="st9" d="M297.9,160.6l-10,2.4c-1.2,0.3-2.4,0.2-3.5-0.4l-5.7-3.4V177l22.4,13c3.5,2,7.8,1.9,11.1-0.2l9-5.5
		c1.3-0.8,1.6-2.7,0.5-3.9l-17.8-18.1C302.4,160.7,300.1,160,297.9,160.6z"/>
	<path class="st7" d="M334,159.1l-4.7,3c-1.5,0.9-3.2,1.2-4.9,0.7l-7.2-2.1c-2.8-0.8-5.9-0.2-8.2,1.7l-10.6,9l2.4,2
		c1.9,1.6,4.6,1.9,6.8,0.7l5.3-2.9l9.5,10.6l11.5-4.8L334,159.1z"/>
	<path class="st9" d="M334,159.1l-4.7,3c-1.5,0.9-3.2,1.2-4.9,0.7l-7.2-2.1c-2.8-0.8-5.9-0.2-8.2,1.7l-10.6,9l2.4,2
		c1.9,1.6,4.6,1.9,6.8,0.7l5.3-2.9l9.5,10.6l11.5-4.8L334,159.1z"/>
	<path class="st7" d="M298.9,191.5l-8.9-6.6c-1-0.8-1.2-2.2-0.5-3.2l1.1-1.5c0.8-1,2.2-1.2,3.2-0.5l8.9,6.6c1,0.8,1.2,2.2,0.5,3.2
		l-1.1,1.5C301.3,192.1,299.9,192.3,298.9,191.5"/>
	<path class="st9" d="M298.9,191.5l-8.9-6.6c-1-0.8-1.2-2.2-0.5-3.2l1.1-1.5c0.8-1,2.2-1.2,3.2-0.5l8.9,6.6c1,0.8,1.2,2.2,0.5,3.2
		l-1.1,1.5C301.3,192.1,299.9,192.3,298.9,191.5z"/>
	<line class="st7" x1="310.5" y1="148.8" x2="311.9" y2="138.8"/>
	<line class="st9" x1="310.5" y1="148.8" x2="311.9" y2="138.8"/>
	<line class="st7" x1="317.7" y1="151.4" x2="321.2" y2="144.3"/>
	<line class="st9" x1="317.7" y1="151.4" x2="321.2" y2="144.3"/>
	<line class="st7" x1="302.7" y1="148.8" x2="301.4" y2="138.8"/>
	<line class="st9" x1="302.7" y1="148.8" x2="301.4" y2="138.8"/>
	<line class="st7" x1="295.6" y1="151.4" x2="292" y2="144.3"/>
	<line class="st9" x1="295.6" y1="151.4" x2="292" y2="144.3"/>
</g>
<g>
	<path class="st6" d="M254.8,293.3"/>
	<path class="st6" d="M254.8,293.3c-0.4-2.6-0.5-5.2-0.5-7.8c0-31.3,25.4-56.7,56.7-56.7c31.3,0,56.7,25.4,56.7,56.7
		c0,31.3-25.4,56.7-56.7,56.7c-24.3,0-45.1-15.3-53.1-36.8"/>
	<circle class="st8" cx="256.2" cy="299.3" r="6"/>
	<ellipse class="st9" cx="310.9" cy="279.5" rx="9.3" ry="9.4"/>
	<path class="st9" d="M329.4,316.7h-36.9v-6c0-8.3,6.7-15,15-15h7.6c7.9,0,14.3,6.4,14.3,14.3V316.7z"/>
	<polygon class="st9" points="310.8,311.6 314.1,309.1 312.3,296 309.3,296 307.5,309.1 	"/>
	<line class="st9" x1="299.6" y1="316.7" x2="299.6" y2="308.7"/>
	<line class="st9" x1="322.6" y1="316.7" x2="322.6" y2="308.7"/>
	<circle class="st9" cx="297.7" cy="265.2" r="2.3"/>
	<circle class="st9" cx="310.4" cy="256.4" r="2.3"/>
	<circle class="st9" cx="324.2" cy="265.4" r="2.3"/>
	<line class="st9" x1="299.4" y1="263.9" x2="308.2" y2="258.2"/>
	<line class="st9" x1="322.2" y1="263.9" x2="313.4" y2="258.2"/>
</g>
<g>
	<circle class="st6" cx="307.5" cy="404" r="56.7"/>
	<path class="st10" d="M324.5,391c0-0.3,0.2-0.7,0.5-0.9l7.8-5.3c0.5-0.3,1.1-0.2,1.4,0.3c0.3,0.5,0.2,1.1-0.3,1.4l-7.8,5.3
		c-0.5,0.3-1.1,0.2-1.4-0.3C324.6,391.4,324.5,391.2,324.5,391"/>
	<path class="st11" d="M324.5,391c0-0.3,0.2-0.7,0.5-0.9l7.8-5.3c0.5-0.3,1.1-0.2,1.4,0.3c0.3,0.5,0.2,1.1-0.3,1.4l-7.8,5.3
		c-0.5,0.3-1.1,0.2-1.4-0.3C324.6,391.4,324.5,391.2,324.5,391z"/>
	<path class="st10" d="M326.2,400c0-0.5,0.4-0.9,0.9-1l15-2.4c0.6-0.1,1.1,0.3,1.2,0.9c0.1,0.6-0.3,1.1-0.9,1.2l-15,2.4
		c-0.6,0.1-1.1-0.3-1.2-0.9v0L326.2,400z"/>
	<path class="st11" d="M326.2,400c0-0.5,0.4-0.9,0.9-1l15-2.4c0.6-0.1,1.1,0.3,1.2,0.9c0.1,0.6-0.3,1.1-0.9,1.2l-15,2.4
		c-0.6,0.1-1.1-0.3-1.2-0.9v0L326.2,400z"/>
	<path class="st10" d="M324.5,418.4c0-0.6,0.5-1,1-1c0.2,0,0.4,0.1,0.6,0.2l7.8,5.3c0.5,0.3,0.6,1,0.3,1.4c-0.3,0.5-1,0.6-1.4,0.3
		c0,0,0,0-0.1,0l-7.8-5.3C324.7,419,324.5,418.7,324.5,418.4"/>
	<path class="st11" d="M324.5,418.4c0-0.6,0.5-1,1-1c0.2,0,0.4,0.1,0.6,0.2l7.8,5.3c0.5,0.3,0.6,1,0.3,1.4c-0.3,0.5-1,0.6-1.4,0.3
		c0,0,0,0-0.1,0l-7.8-5.3C324.7,419,324.5,418.7,324.5,418.4z"/>
	<path class="st10" d="M326.2,409.4v-0.2c0.1-0.6,0.6-1,1.2-0.9l0,0l15,2.4c0.6,0.1,1,0.6,0.9,1.2c-0.1,0.6-0.6,1-1.2,0.9l-15-2.4
		C326.6,410.3,326.2,409.9,326.2,409.4"/>
	<path class="st11" d="M326.2,409.4v-0.2c0.1-0.6,0.6-1,1.2-0.9l0,0l15,2.4c0.6,0.1,1,0.6,0.9,1.2c-0.1,0.6-0.6,1-1.2,0.9l-15-2.4
		C326.6,410.3,326.2,409.9,326.2,409.4z"/>
	<polyline class="st12" points="278.9,401.6 318.2,383.8 318.2,424.2 278.9,408.2 	"/>
	<rect x="272.7" y="398.2" class="st12" width="6.2" height="13.1"/>
	<path class="st12" d="M298.1,417.4c-1.4,2.9-4.9,4.1-7.8,2.7c-2.9-1.4-4.1-4.9-2.7-7.8"/>
	<path class="st7" d="M277.3,361.9c0,3.3-2.7,6-6,6s-6-2.7-6-6c0-3.3,2.7-6,6-6S277.3,358.6,277.3,361.9"/>
	<circle class="st8" cx="271.3" cy="361.9" r="6"/>
</g>
<g>
	<circle class="st6" cx="305.8" cy="530.7" r="56.7"/>
	<path class="st7" d="M349,489.4c0,3.3-2.7,6-6,6c-3.3,0-6-2.7-6-6c0-3.3,2.7-6,6-6C346.3,483.3,349,486,349,489.4"/>
	<circle class="st8" cx="343" cy="489.4" r="6"/>
	<path class="st13" d="M302.6,545.2v-17.2v-6.8h7.2c3.4,0,6.2,2.8,6.2,6.2c0,3.4-2.8,6.2-6.2,6.2h-10.2"/>
	<line class="st14" x1="299.8" y1="538.1" x2="310" y2="538.1"/>
	<path class="st15" d="M302.6,545.2v-17.2v-6.8h7.2c3.4,0,6.2,2.8,6.2,6.2c0,3.4-2.8,6.2-6.2,6.2h-10.2"/>
	<line class="st15" x1="299.8" y1="538.1" x2="310" y2="538.1"/>
	<path class="st16" d="M334,522.2c-0.4-8.3-7.2-14.9-15.5-15.2c-5.1-0.2-9.6,2-12.7,5.5c-3.1-3.5-7.6-5.7-12.7-5.5
		c-8.2,0.3-14.9,6.9-15.5,15c-0.3,4.8,1.9,8.7,4.6,12.4c3.9,4.8,12.7,15.2,22.7,23.8c0.4,0.4,1.1,0.4,1.6,0
		c9.8-8.4,18.5-18.6,22.5-23.5C331.9,531,334.3,527.1,334,522.2z"/>
</g>
<g>
	<line class="st17" x1="94.1" y1="904.1" x2="-127.4" y2="820.6"/>
	<line class="st18" x1="125.7" y1="886.8" x2="-97.8" y2="802.6"/>
	<line class="st19" x1="59.5" y1="922.5" x2="-164" y2="838.3"/>
	<line class="st19" x1="-12.9" y1="790.7" x2="-221.2" y2="907.4"/>
	<line class="st17" x1="20.2" y1="802.8" x2="-188.1" y2="919.6"/>
	<line class="st18" x1="51" y1="815.4" x2="-157.3" y2="932.2"/>
	<line class="st17" x1="87" y1="830.6" x2="-121.2" y2="947.4"/>
</g>
<g>
	<line class="st7" x1="130.5" y1="6.2" x2="130.5" y2="14.2"/>
	<line class="st20" x1="130.5" y1="6.2" x2="130.5" y2="14.2"/>
	<line class="st7" x1="134.5" y1="10.2" x2="126.5" y2="10.2"/>
	<line class="st20" x1="134.5" y1="10.2" x2="126.5" y2="10.2"/>
</g>
<g>
	<path class="st21" d="M206.9,17.4l-7,5.9l-12.2-10.3l-2.8-7.9l4.2-7h6.9l3.9,4.4l3.9-4.4h6.9l4.2,7c0,0-1.7,4.7-1.7,4.7h-6.6"/>
	<circle class="st22" cx="203" cy="10" r="3.2"/>
	<line class="st23" x1="208.3" y1="4.9" x2="205.9" y2="7.3"/>
	<line class="st23" x1="197.6" y1="4.9" x2="200" y2="7.3"/>
	<line class="st23" x1="208.3" y1="15.1" x2="205.9" y2="12.7"/>
	<line class="st23" x1="197.6" y1="15.1" x2="200" y2="12.7"/>
</g>
<g>
	<g>
		<line class="st24" x1="270.8" y1="653.4" x2="272.5" y2="654.4"/>
		<line class="st25" x1="277.4" y1="657.3" x2="340.3" y2="694.3"/>
		<line class="st24" x1="342.8" y1="695.7" x2="344.4" y2="696.7"/>
		<line class="st24" x1="260.1" y1="653.4" x2="258.5" y2="654.4"/>
		<line class="st25" x1="253.6" y1="657.3" x2="190.6" y2="694.3"/>
		<line class="st24" x1="188.2" y1="695.7" x2="186.6" y2="696.7"/>
		<line class="st26" x1="253.1" y1="747.5" x2="251.6" y2="746.7"/>
		<line class="st27" x1="247.2" y1="744" x2="190.2" y2="710.6"/>
		<line class="st26" x1="188" y1="709.2" x2="186.6" y2="708.4"/>
		<line class="st28" x1="274.2" y1="749.7" x2="275.7" y2="748.8"/>
		<line class="st29" x1="280.4" y1="746" x2="340.5" y2="710.7"/>
		<line class="st28" x1="342.8" y1="709.3" x2="344.4" y2="708.4"/>
		<circle class="st8" cx="264.8" cy="649.4" r="6"/>
		<circle class="st30" cx="264.8" cy="752.6" r="12.8"/>
		<circle class="st8" cx="349.3" cy="702.7" r="6"/>
		<circle class="st8" cx="181.9" cy="702.7" r="6"/>
		<line class="st24" x1="260.1" y1="854.5" x2="258.5" y2="853.5"/>
		<line class="st25" x1="253.6" y1="850.7" x2="190.6" y2="813.6"/>
		<line class="st24" x1="188.2" y1="812.2" x2="186.6" y2="811.2"/>
		<line class="st24" x1="270.8" y1="854.5" x2="272.5" y2="853.5"/>
		<line class="st25" x1="277.4" y1="850.7" x2="340.3" y2="813.6"/>
		<line class="st24" x1="342.8" y1="812.2" x2="344.4" y2="811.2"/>
		<circle class="st8" cx="264.8" cy="855.5" r="6"/>
		<circle class="st8" cx="349.3" cy="805.6" r="6"/>
		<circle class="st8" cx="181.9" cy="805.6" r="6"/>
		<line class="st31" x1="349.5" y1="799.5" x2="349.5" y2="797.8"/>
		<line class="st32" x1="349.5" y1="792.9" x2="349.5" y2="712.9"/>
		<line class="st31" x1="349.5" y1="710.4" x2="349.5" y2="708.7"/>
		<line class="st33" x1="264.8" y1="848.3" x2="264.8" y2="846.7"/>
		<line class="st34" x1="264.8" y1="842.1" x2="264.8" y2="767"/>
		<line class="st33" x1="264.8" y1="764.7" x2="264.8" y2="763.1"/>
		<line class="st31" x1="181.9" y1="799.5" x2="181.9" y2="797.8"/>
		<line class="st32" x1="181.9" y1="792.9" x2="181.9" y2="712.9"/>
		<line class="st31" x1="181.9" y1="710.4" x2="181.9" y2="708.7"/>
		<line class="st35" x1="189.1" y1="788.9" x2="261.1" y2="686.5"/>
		<line class="st35" x1="271.6" y1="730.2" x2="330.2" y2="644.5"/>
		<line class="st35" x1="338.8" y1="671.2" x2="338.8" y2="683.1"/>
		<line class="st35" x1="344.8" y1="677.1" x2="332.9" y2="677.1"/>
		<circle class="st35" cx="267" cy="676.7" r="5.3"/>
		<polyline class="st36" points="352.4,829.1 378.5,817.3 378.5,844.1 352.4,833.5 		"/>
		<rect x="348.3" y="826.8" class="st35" width="4.1" height="8.7"/>
		<path class="st35" d="M365.1,839.5c-0.9,1.9-3.2,2.7-5.2,1.8c-1.9-0.9-2.7-3.3-1.8-5.2"/>
		<polyline class="st37" points="158.2,807.7 162.2,830.4 155.9,835.8 149.6,830.4 153.6,807.7 		"/>
		<line class="st37" x1="148.4" y1="822.4" x2="156.1" y2="822.4"/>
		<polygon class="st37" points="158.2,799.5 153.6,799.5 151.4,802.2 153.6,807.7 158.2,807.7 160.4,802.2 		"/>
		<polyline class="st36" points="158.2,807.7 162.2,830.4 155.9,835.8 149.6,830.4 153.6,807.7 		"/>
		<line class="st36" x1="148.4" y1="822.4" x2="156.1" y2="822.4"/>
		<polygon class="st36" points="158.2,799.5 153.6,799.5 151.4,802.2 153.6,807.7 158.2,807.7 160.4,802.2 		"/>
		<path class="st36" d="M162.1,708.8c-0.3-4.8-4.2-8.6-9-8.8c-2.9-0.1-5.6,1.1-7.3,3.2c-1.8-2-4.4-3.3-7.3-3.2
			c-4.7,0.2-8.6,4-8.9,8.7c-0.2,2.8,1.1,5,2.7,7.2c2.3,2.8,7.3,8.8,13.1,13.7c0.3,0.2,0.6,0.2,0.9,0c5.7-4.8,10.7-10.7,13-13.6
			C160.9,713.9,162.2,711.7,162.1,708.8z"/>
	</g>
	<polyline class="st35" points="349.6,623 344.6,626.6 348.1,637.5 338.8,630.7 329.6,637.5 333.1,626.6 323.9,619.9 335.3,619.9 
		338.8,609 342.4,619.9 353.8,619.9 	"/>
</g>
<g>
	<path class="st0" d="M70.9,2.4c-0.2,0.2-0.2,0.5-0.1,0.7l3.9,4.7l-3.9,4.7c-0.2,0.2-0.1,0.5,0.1,0.7c0.2,0.2,0.5,0.1,0.7-0.1l4.2-5
		c0.1-0.1,0.1-0.2,0.1-0.3c0-0.1,0-0.2-0.1-0.3l-4.2-5C71.4,2.2,71.1,2.2,70.9,2.4z"/>
</g>
<g>
	<path class="st0" d="M64.7,2.4c0.2,0.2,0.2,0.5,0.1,0.7l-3.9,4.7l3.9,4.7c0.2,0.2,0.1,0.5-0.1,0.7c-0.2,0.2-0.5,0.1-0.7-0.1l-4.2-5
		c-0.1-0.1-0.1-0.2-0.1-0.3c0-0.1,0-0.2,0.1-0.3l4.2-5C64.2,2.2,64.5,2.2,64.7,2.4z"/>
</g>
<g>
	<path class="st1" d="M132.3,23.5c-0.4,0.3-0.4,0.8-0.1,1.2l6.9,8.2l-6.9,8.2c-0.3,0.4-0.3,0.9,0.1,1.2c0.4,0.3,0.9,0.3,1.2-0.1
		l7.3-8.8c0.1-0.2,0.2-0.4,0.2-0.6c0-0.2-0.1-0.4-0.2-0.6l-7.3-8.8C133.2,23.2,132.7,23.1,132.3,23.5z"/>
</g>
<g>
	<path class="st1" d="M121.6,23.5c0.4,0.3,0.4,0.8,0.1,1.2l-6.9,8.2l6.9,8.2c0.3,0.4,0.3,0.9-0.1,1.2c-0.4,0.3-0.9,0.3-1.2-0.1
		l-7.3-8.8c-0.1-0.2-0.2-0.4-0.2-0.6c0-0.2,0.1-0.4,0.2-0.6l7.3-8.8C120.7,23.2,121.2,23.1,121.6,23.5z"/>
</g>
<g>
	<path class="st5" d="M83.5,23.5c-0.4,0.3-0.4,0.8-0.1,1.2l6.9,8.2l-6.9,8.2c-0.3,0.4-0.3,0.9,0.1,1.2c0.4,0.3,0.9,0.3,1.2-0.1
		l7.3-8.8c0.1-0.2,0.2-0.4,0.2-0.6c0-0.2-0.1-0.4-0.2-0.6l-7.3-8.8C84.4,23.2,83.8,23.1,83.5,23.5z"/>
</g>
<g>
	<path class="st5" d="M72.7,23.5c0.4,0.3,0.4,0.8,0.1,1.2l-6.9,8.2l6.9,8.2c0.3,0.4,0.3,0.9-0.1,1.2c-0.4,0.3-0.9,0.3-1.2-0.1
		l-7.3-8.8C64,33.3,64,33.1,64,32.9c0-0.2,0.1-0.4,0.2-0.6l7.3-8.8C71.8,23.2,72.3,23.1,72.7,23.5z"/>
</g>
<g>
	<path class="st1" d="M101.9,2.4c-0.2,0.2-0.2,0.5-0.1,0.7l3.9,4.7l-3.9,4.7c-0.2,0.2-0.1,0.5,0.1,0.7c0.2,0.2,0.5,0.1,0.7-0.1
		l4.2-5c0.1-0.1,0.1-0.2,0.1-0.3c0-0.1,0-0.2-0.1-0.3l-4.2-5C102.4,2.2,102.1,2.2,101.9,2.4z"/>
</g>
<g>
	<path class="st1" d="M95.7,2.4c0.2,0.2,0.2,0.5,0.1,0.7l-3.9,4.7l3.9,4.7c0.2,0.2,0.1,0.5-0.1,0.7c-0.2,0.2-0.5,0.1-0.7-0.1l-4.2-5
		c-0.1-0.1-0.1-0.2-0.1-0.3c0-0.1,0-0.2,0.1-0.3l4.2-5C95.2,2.2,95.5,2.2,95.7,2.4z"/>
</g>
<g>
	<line class="st35" x1="152.5" y1="4.2" x2="152.5" y2="16.2"/>
	<line class="st35" x1="158.5" y1="10.2" x2="146.5" y2="10.2"/>
</g>
<g id="Mail_1">
	<g id="_Group_">
		<path id="_Rectangle_" class="st4" d="M1.6,0.6h16.7c0.5,0,1,0.5,1,1v11.6c0,0.5-0.5,1-1,1H1.6c-0.5,0-1-0.5-1-1V1.5
			C0.6,1,1,0.6,1.6,0.6z"/>
		<rect id="_Rectangle_2" x="13.5" y="3.2" class="st4" width="3.2" height="3.9"/>
		<line id="_Path_" class="st4" x1="3.2" y1="11.5" x2="9.6" y2="11.5"/>
		<line id="_Path_2" class="st4" x1="3.2" y1="9.6" x2="6.4" y2="9.6"/>
	</g>
</g>
<g>
	<path class="st0" d="M-110.2,39.8c0.1,0.4-0.3,1.2-1.3,2.5c-0.1,0.2-0.3,0.4-0.6,0.7c-0.2,0.3-0.4,0.5-0.5,0.6
		c-0.1,0.1-0.2,0.3-0.3,0.4c-0.1,0.2-0.1,0.3-0.1,0.4c0,0.1,0.1,0.2,0.1,0.3c0.1,0.1,0.1,0.2,0.3,0.4c0.1,0.1,0.3,0.3,0.5,0.5
		c0,0,0,0,0,0c0.8,0.8,1.4,1.4,1.6,1.9c0,0,0,0.1,0.1,0.1c0,0,0,0.1,0.1,0.2c0,0.1,0,0.2,0,0.3c0,0.1-0.1,0.2-0.2,0.2
		c-0.1,0.1-0.3,0.1-0.5,0.1l-2.2,0c-0.1,0-0.3,0-0.5,0c-0.2-0.1-0.3-0.1-0.4-0.2l-0.2-0.1c-0.2-0.1-0.4-0.3-0.6-0.6
		c-0.2-0.2-0.4-0.5-0.6-0.7c-0.2-0.2-0.3-0.4-0.5-0.5c-0.2-0.1-0.3-0.2-0.5-0.1c0,0,0,0-0.1,0c0,0-0.1,0.1-0.1,0.1
		c-0.1,0.1-0.1,0.2-0.2,0.3c-0.1,0.1-0.1,0.3-0.1,0.4c0,0.2-0.1,0.4-0.1,0.7c0,0.1,0,0.2,0,0.2s0,0.1-0.1,0.2l0,0
		c-0.1,0.1-0.3,0.2-0.5,0.2h-1c-0.4,0-0.8,0-1.3-0.1c-0.4-0.1-0.8-0.3-1.1-0.5c-0.3-0.2-0.6-0.4-0.9-0.6c-0.3-0.2-0.5-0.4-0.6-0.5
		l-0.2-0.2c-0.1-0.1-0.1-0.1-0.2-0.3c-0.1-0.1-0.3-0.4-0.6-0.8c-0.3-0.4-0.6-0.8-0.9-1.3c-0.3-0.5-0.7-1.1-1.1-1.8
		c-0.4-0.8-0.8-1.5-1.1-2.3c0-0.1-0.1-0.2-0.1-0.2c0-0.1,0-0.1,0-0.1l0-0.1c0.1-0.1,0.3-0.2,0.5-0.2l2.4,0c0.1,0,0.1,0,0.2,0.1
		c0.1,0,0.1,0.1,0.1,0.1l0,0c0.1,0.1,0.2,0.2,0.2,0.3c0.1,0.3,0.2,0.6,0.4,0.9c0.1,0.3,0.3,0.5,0.4,0.7l0.1,0.3
		c0.2,0.3,0.3,0.6,0.5,0.9c0.2,0.3,0.3,0.5,0.4,0.6s0.2,0.3,0.4,0.3c0.1,0.1,0.2,0.1,0.3,0.1s0.2,0,0.2,0c0,0,0,0,0,0
		s0.1-0.1,0.1-0.2c0.1-0.1,0.1-0.2,0.1-0.4c0-0.2,0.1-0.4,0.1-0.7c0-0.3,0-0.7,0-1.1c0-0.2,0-0.4-0.1-0.6c0-0.2-0.1-0.3-0.1-0.4
		l-0.1-0.1c-0.1-0.2-0.4-0.3-0.7-0.4c-0.1,0-0.1-0.1,0-0.2c0.1-0.1,0.2-0.2,0.3-0.3c0.3-0.1,1-0.2,2.1-0.2c0.5,0,0.9,0,1.2,0.1
		c0.1,0,0.2,0.1,0.3,0.1c0.1,0,0.1,0.1,0.2,0.2c0,0.1,0.1,0.2,0.1,0.3c0,0.1,0,0.2,0,0.4c0,0.2,0,0.3,0,0.5c0,0.1,0,0.4,0,0.6
		c0,0.3,0,0.5,0,0.7c0,0.1,0,0.2,0,0.4c0,0.2,0,0.3,0,0.4c0,0.1,0,0.2,0,0.3c0,0.1,0.1,0.2,0.1,0.3c0,0.1,0.1,0.2,0.2,0.2
		c0,0,0.1,0,0.1,0s0.1,0,0.2-0.1c0.1-0.1,0.2-0.2,0.3-0.3c0.1-0.1,0.3-0.3,0.4-0.6c0.2-0.3,0.4-0.6,0.6-0.9c0.3-0.6,0.7-1.2,0.9-1.9
		c0-0.1,0.1-0.1,0.1-0.2c0,0,0.1-0.1,0.1-0.1l0,0c0,0,0,0,0,0c0,0,0.1,0,0.1,0c0.1,0,0.1,0,0.2,0l2.5,0c0.2,0,0.4,0,0.6,0
		C-110.3,39.6-110.3,39.7-110.2,39.8L-110.2,39.8z"/>
</g>
<g>
	<path class="st0" d="M-90.2,43.6c0.1,0.2,0.1,0.3,0.1,0.4c0,0.1,0,0.2,0,0.3c0,0.1-0.1,0.2-0.2,0.3c-0.1,0.1-0.2,0.2-0.4,0.3
		c-0.1,0.1-0.3,0.2-0.5,0.4c-0.7,0.4-1.6,0.7-2.7,0.8l0.6,0.6l2.3,2.3c0.2,0.2,0.3,0.4,0.3,0.6c0,0.2-0.1,0.5-0.3,0.6l-0.1,0.1
		c-0.2,0.2-0.4,0.3-0.6,0.3c-0.2,0-0.5-0.1-0.6-0.3c-0.4-0.4-1.2-1.2-2.3-2.3l-2.3,2.3c-0.2,0.2-0.4,0.3-0.6,0.3
		c-0.2,0-0.5-0.1-0.6-0.3l-0.1-0.1c-0.2-0.2-0.3-0.4-0.3-0.6c0-0.2,0.1-0.5,0.3-0.6l2.3-2.3l0.6-0.6c-1.2-0.1-2.1-0.4-2.7-0.8
		c-0.2-0.1-0.4-0.3-0.5-0.4c-0.1-0.1-0.3-0.2-0.4-0.3c-0.1-0.1-0.2-0.2-0.2-0.3c0-0.1-0.1-0.2,0-0.3c0-0.1,0.1-0.3,0.1-0.4
		c0.1-0.1,0.1-0.2,0.2-0.3c0.1-0.1,0.2-0.1,0.4-0.2c0.1,0,0.3,0,0.5,0c0.2,0.1,0.4,0.2,0.6,0.3c0,0,0.1,0.1,0.1,0.1
		c0.1,0,0.2,0.1,0.4,0.2c0.2,0.1,0.4,0.2,0.6,0.3c0.2,0.1,0.5,0.1,0.8,0.2c0.3,0.1,0.6,0.1,1,0.1c0.5,0,1-0.1,1.5-0.2
		c0.5-0.1,0.8-0.3,1-0.4l0.3-0.2c0.2-0.1,0.4-0.3,0.6-0.3c0.2-0.1,0.3-0.1,0.5,0s0.3,0.1,0.4,0.2S-90.3,43.5-90.2,43.6z M-91.9,42
		c-0.8,0.8-1.7,1.1-2.8,1.1c-1.1,0-2-0.4-2.8-1.1c-0.8-0.8-1.1-1.7-1.1-2.8c0-1.1,0.4-2,1.1-2.8c0.8-0.8,1.7-1.1,2.8-1.1
		c1.1,0,2,0.4,2.8,1.1c0.8,0.8,1.1,1.7,1.1,2.8C-90.8,40.3-91.2,41.2-91.9,42z M-93.3,37.9c-0.4-0.4-0.8-0.6-1.4-0.6
		c-0.5,0-1,0.2-1.4,0.6c-0.4,0.4-0.6,0.8-0.6,1.4c0,0.5,0.2,1,0.6,1.4c0.4,0.4,0.8,0.6,1.4,0.6c0.5,0,1-0.2,1.4-0.6
		c0.4-0.4,0.6-0.8,0.6-1.4C-92.8,38.7-93,38.2-93.3,37.9z"/>
</g>
<g>
	<path class="st0" d="M-133.1,36.7V39h-1.4c-0.5,0-0.8,0.1-1,0.3c-0.2,0.2-0.3,0.5-0.3,0.9v1.6h2.5l-0.3,2.6h-2.2V51h-2.6v-6.5h-2.2
		v-2.6h2.2V40c0-1.1,0.3-1.9,0.9-2.5c0.6-0.6,1.4-0.9,2.4-0.9C-134.2,36.6-133.6,36.6-133.1,36.7z"/>
</g>
<g>
	<path class="st38" d="M-110.2,59.1c0.1,0.4-0.3,1.2-1.3,2.5c-0.1,0.2-0.3,0.4-0.6,0.7c-0.2,0.3-0.4,0.5-0.5,0.6
		c-0.1,0.1-0.2,0.3-0.3,0.4c-0.1,0.2-0.1,0.3-0.1,0.4c0,0.1,0.1,0.2,0.1,0.3c0.1,0.1,0.1,0.2,0.3,0.4c0.1,0.1,0.3,0.3,0.5,0.5
		c0,0,0,0,0,0c0.8,0.8,1.4,1.4,1.6,1.9c0,0,0,0.1,0.1,0.1c0,0,0,0.1,0.1,0.2c0,0.1,0,0.2,0,0.3c0,0.1-0.1,0.2-0.2,0.2
		c-0.1,0.1-0.3,0.1-0.5,0.1l-2.2,0c-0.1,0-0.3,0-0.5,0c-0.2-0.1-0.3-0.1-0.4-0.2l-0.2-0.1c-0.2-0.1-0.4-0.3-0.6-0.6
		c-0.2-0.2-0.4-0.5-0.6-0.7c-0.2-0.2-0.3-0.4-0.5-0.5c-0.2-0.1-0.3-0.2-0.5-0.1c0,0,0,0-0.1,0c0,0-0.1,0.1-0.1,0.1s-0.1,0.2-0.2,0.3
		c-0.1,0.1-0.1,0.3-0.1,0.4c0,0.2-0.1,0.4-0.1,0.7c0,0.1,0,0.2,0,0.2c0,0.1,0,0.1-0.1,0.2l0,0c-0.1,0.1-0.3,0.2-0.5,0.2h-1
		c-0.4,0-0.8,0-1.3-0.1c-0.4-0.1-0.8-0.3-1.1-0.5c-0.3-0.2-0.6-0.4-0.9-0.6c-0.3-0.2-0.5-0.4-0.6-0.5l-0.2-0.2
		c-0.1-0.1-0.1-0.1-0.2-0.3c-0.1-0.1-0.3-0.4-0.6-0.8c-0.3-0.4-0.6-0.8-0.9-1.3c-0.3-0.5-0.7-1.1-1.1-1.8s-0.8-1.5-1.1-2.3
		c0-0.1-0.1-0.2-0.1-0.2c0-0.1,0-0.1,0-0.1l0-0.1c0.1-0.1,0.3-0.2,0.5-0.2l2.4,0c0.1,0,0.1,0,0.2,0.1c0.1,0,0.1,0.1,0.1,0.1l0,0
		c0.1,0.1,0.2,0.2,0.2,0.3c0.1,0.3,0.2,0.6,0.4,0.9c0.1,0.3,0.3,0.5,0.4,0.7l0.1,0.3c0.2,0.3,0.3,0.6,0.5,0.9
		c0.2,0.3,0.3,0.5,0.4,0.6c0.1,0.1,0.2,0.3,0.4,0.3c0.1,0.1,0.2,0.1,0.3,0.1s0.2,0,0.2,0c0,0,0,0,0,0c0,0,0.1-0.1,0.1-0.2
		c0.1-0.1,0.1-0.2,0.1-0.4s0.1-0.4,0.1-0.7c0-0.3,0-0.7,0-1.1c0-0.2,0-0.4-0.1-0.6c0-0.2-0.1-0.3-0.1-0.4l-0.1-0.1
		c-0.1-0.2-0.4-0.3-0.7-0.4c-0.1,0-0.1-0.1,0-0.2c0.1-0.1,0.2-0.2,0.3-0.3c0.3-0.1,1-0.2,2.1-0.2c0.5,0,0.9,0,1.2,0.1
		c0.1,0,0.2,0.1,0.3,0.1c0.1,0,0.1,0.1,0.2,0.2c0,0.1,0.1,0.2,0.1,0.3c0,0.1,0,0.2,0,0.4c0,0.2,0,0.3,0,0.5c0,0.1,0,0.4,0,0.6
		c0,0.3,0,0.5,0,0.7c0,0.1,0,0.2,0,0.4c0,0.2,0,0.3,0,0.4c0,0.1,0,0.2,0,0.3c0,0.1,0.1,0.2,0.1,0.3c0,0.1,0.1,0.2,0.2,0.2
		c0,0,0.1,0,0.1,0c0.1,0,0.1,0,0.2-0.1c0.1-0.1,0.2-0.2,0.3-0.3c0.1-0.1,0.3-0.3,0.4-0.6c0.2-0.3,0.4-0.6,0.6-0.9
		c0.3-0.6,0.7-1.2,0.9-1.9c0-0.1,0.1-0.1,0.1-0.2c0,0,0.1-0.1,0.1-0.1l0,0c0,0,0,0,0,0c0,0,0.1,0,0.1,0c0.1,0,0.1,0,0.2,0l2.5,0
		c0.2,0,0.4,0,0.6,0C-110.3,58.9-110.3,59-110.2,59.1L-110.2,59.1z"/>
</g>
<g>
	<path class="st39" d="M-90.2,62.9c0.1,0.2,0.1,0.3,0.1,0.4c0,0.1,0,0.2,0,0.3c0,0.1-0.1,0.2-0.2,0.3c-0.1,0.1-0.2,0.2-0.4,0.3
		c-0.1,0.1-0.3,0.2-0.5,0.4c-0.7,0.4-1.6,0.7-2.7,0.8l0.6,0.6l2.3,2.3c0.2,0.2,0.3,0.4,0.3,0.6c0,0.2-0.1,0.5-0.3,0.6l-0.1,0.1
		c-0.2,0.2-0.4,0.3-0.6,0.3c-0.2,0-0.5-0.1-0.6-0.3c-0.4-0.4-1.2-1.2-2.3-2.3l-2.3,2.3c-0.2,0.2-0.4,0.3-0.6,0.3
		c-0.2,0-0.5-0.1-0.6-0.3l-0.1-0.1c-0.2-0.2-0.3-0.4-0.3-0.6c0-0.2,0.1-0.5,0.3-0.6l2.3-2.3l0.6-0.6c-1.2-0.1-2.1-0.4-2.7-0.8
		c-0.2-0.1-0.4-0.3-0.5-0.4c-0.1-0.1-0.3-0.2-0.4-0.3c-0.1-0.1-0.2-0.2-0.2-0.3c0-0.1-0.1-0.2,0-0.3c0-0.1,0.1-0.3,0.1-0.4
		c0.1-0.1,0.1-0.2,0.2-0.3c0.1-0.1,0.2-0.1,0.4-0.2c0.1,0,0.3,0,0.5,0c0.2,0.1,0.4,0.2,0.6,0.3c0,0,0.1,0.1,0.1,0.1
		c0.1,0,0.2,0.1,0.4,0.2c0.2,0.1,0.4,0.2,0.6,0.3c0.2,0.1,0.5,0.1,0.8,0.2c0.3,0.1,0.6,0.1,1,0.1c0.5,0,1-0.1,1.5-0.2
		c0.5-0.1,0.8-0.3,1-0.4l0.3-0.2c0.2-0.1,0.4-0.3,0.6-0.3c0.2-0.1,0.3-0.1,0.5,0s0.3,0.1,0.4,0.2C-90.3,62.7-90.3,62.8-90.2,62.9z
		 M-91.9,61.3c-0.8,0.8-1.7,1.1-2.8,1.1c-1.1,0-2-0.4-2.8-1.1c-0.8-0.8-1.1-1.7-1.1-2.8c0-1.1,0.4-2,1.1-2.8
		c0.8-0.8,1.7-1.1,2.8-1.1c1.1,0,2,0.4,2.8,1.1c0.8,0.8,1.1,1.7,1.1,2.8C-90.8,59.6-91.2,60.5-91.9,61.3z M-93.3,57.2
		c-0.4-0.4-0.8-0.6-1.4-0.6c-0.5,0-1,0.2-1.4,0.6c-0.4,0.4-0.6,0.8-0.6,1.4c0,0.5,0.2,1,0.6,1.4c0.4,0.4,0.8,0.6,1.4,0.6
		c0.5,0,1-0.2,1.4-0.6c0.4-0.4,0.6-0.8,0.6-1.4C-92.8,58-93,57.6-93.3,57.2z"/>
</g>
<g>
	<path class="st40" d="M-133.1,56v2.3h-1.4c-0.5,0-0.8,0.1-1,0.3c-0.2,0.2-0.3,0.5-0.3,0.9v1.6h2.5l-0.3,2.6h-2.2v6.5h-2.6v-6.5
		h-2.2v-2.6h2.2v-1.9c0-1.1,0.3-1.9,0.9-2.5c0.6-0.6,1.4-0.9,2.4-0.9C-134.2,55.9-133.6,56-133.1,56z"/>
</g>
<path class="st35" d="M-29.9,71.6c-0.4,0-0.8,0-1.2-0.2c-1.6-0.4-5.6-4.5-6-6c-0.1-0.4-0.2-0.7-0.2-1.1"/>
<path class="st35" d="M-33,56.3c2.2-2.4,4.5-4.2,4.8-4.4c5.6-4,13.4-5.6,16-5.4c0.3,2.5-1.3,10.4-5.3,16c-0.3,0.4-2,2.6-4.4,4.8"/>
<path class="st35" d="M-21.1,59.3c-1.1,1.7-3.5,1.7-4.6,0c-0.6-0.9-0.6-2.2,0-3.1c1.1-1.7,3.5-1.7,4.6,0
	C-20.4,57.1-20.4,58.3-21.1,59.3z"/>
<circle class="st35" cx="-18.6" cy="52.9" r="1.7"/>
<path class="st35" d="M-37.1,64.2l-7.3-1.5l3.7-3.7c2.3-2.3,5.5-3.2,8.6-2.6l2.3,0.5L-37.1,64.2z"/>
<path class="st35" d="M-29.9,71.5l1.5,7.3l3.7-3.7c2.3-2.3,3.2-5.5,2.6-8.6l-0.5-2.3L-29.9,71.5z"/>
<line class="st35" x1="-27.2" y1="61.4" x2="-38.4" y2="72.7"/>
<g>
	<path class="st10" d="M41.8,59.8c-0.1-0.3-0.2-0.6-0.4-0.9c0,0,0,0,0-0.1c-0.2-0.3-0.3-0.5-0.5-0.8c0,0,0-0.1-0.1-0.1
		c-0.2-0.2-0.4-0.5-0.7-0.6c0,0-0.1-0.1-0.1-0.1c-0.3-0.2-0.5-0.4-0.8-0.5c0,0,0,0,0,0c0,0,0,0,0,0c-0.3-0.1-0.6-0.3-0.9-0.4
		c0,0-0.1,0-0.1,0c-0.3-0.1-0.6-0.1-0.9-0.2c0,0-0.1,0-0.1,0c-0.3,0-0.6,0-0.9,0c0,0,0,0-0.1,0c-0.3,0-0.7,0.1-1,0.2
		c-1.4,0.4-2.5,1.4-3.1,2.6c-0.7,1.3-0.8,2.7-0.4,4.1l0,0c0.1,0.3,0.2,0.6,0.4,0.9c0.1,0.1,0.1,0.2,0.2,0.3c0.1,0.2,0.2,0.3,0.3,0.5
		c0.1,0.1,0.2,0.2,0.3,0.3c0.1,0.1,0.3,0.3,0.4,0.4c0.1,0.1,0.2,0.2,0.3,0.3c0.2,0.1,0.4,0.3,0.6,0.4c0.1,0,0.1,0.1,0.2,0.1
		c0,0,0,0,0.1,0c0,0,0,0,0,0c0.2,0.1,0.4,0.2,0.7,0.3c0,0,0.1,0,0.2,0c0.2,0.1,0.4,0.1,0.6,0.2c0,0,0.1,0,0.1,0
		c0.3,0,0.5,0.1,0.8,0.1c0.5,0,1.1-0.1,1.6-0.2c1.4-0.4,2.5-1.4,3.1-2.6C42.1,62.6,42.2,61.2,41.8,59.8L41.8,59.8z M37.7,64.6
		c-1.3,0.4-2.6,0-3.5-1c0,0-0.1,0-0.1-0.1c-0.1-0.1-0.2-0.3-0.3-0.4c0-0.1-0.1-0.1-0.1-0.1c-0.1-0.2-0.2-0.3-0.2-0.5
		c0,0,0-0.1,0-0.1c-0.3-0.9-0.2-1.8,0.2-2.6c0.4-0.8,1.1-1.4,2-1.6c0.2-0.1,0.4-0.1,0.7-0.1c0,0,0.1,0,0.1,0
		c1.1-0.1,2.1,0.4,2.8,1.2c0,0,0,0,0,0c0.1,0.1,0.2,0.3,0.3,0.5c0,0,0,0.1,0.1,0.1c0.1,0.2,0.2,0.4,0.3,0.6l0,0l0,0
		c0,0.1,0.1,0.3,0.1,0.4c0.1,0.7,0,1.5-0.3,2.1C39.2,63.8,38.5,64.3,37.7,64.6z"/>
	<path class="st10" d="M56,62.8c-1.6-1.9-3.6-3.7-5.9-5.5c2.9-8.9,2.5-16.3-1.5-18.4l0,0l0,0c-2.9-1.5-6.9,0-11.1,3.8
		c-1.7,1.5-3.3,3.3-4.9,5.4c-0.3-0.1-0.5-0.2-0.8-0.2c-0.4-0.1-0.9-0.3-1.3-0.4c-0.2-0.1-0.4-0.1-0.6-0.2c-0.5-0.1-1-0.3-1.5-0.4
		c-0.1,0-0.2,0-0.3-0.1c-0.6-0.1-1.2-0.2-1.8-0.3c0,0,0,0,0,0c-0.5-0.1-1-0.2-1.4-0.2c-5.4-0.6-9.1,0.6-10.5,3.3
		c-1.4,2.7-0.3,6.4,3.3,10.5c1.6,1.9,3.6,3.7,5.9,5.5c-2.9,8.9-2.5,16.3,1.5,18.4l0,0l0,0c0.7,0.4,1.5,0.6,2.4,0.6
		c1,0,2.1-0.3,3.3-0.7c0.3-0.1,0.6-0.3,0.9-0.4c0.1,0,0.2-0.1,0.2-0.1c2.9-1.6,6.1-4.5,9.2-8.5c0.3,0.1,0.6,0.2,0.9,0.3
		c0.2,0.1,0.4,0.1,0.6,0.2c2.2,0.6,4.4,1.1,6.4,1.3c0.9,0.1,1.8,0.1,2.6,0.1c4,0,6.8-1.2,8-3.4C60.6,70.6,59.5,66.9,56,62.8z
		 M48.4,56c-2.1-1.5-4.3-2.8-6.7-4.1c-0.1-0.1-0.2-0.1-0.3-0.2c-0.6-0.3-1.3-0.7-1.9-1c-0.4-0.2-0.7-0.3-1.1-0.5
		c-0.4-0.2-0.8-0.4-1.2-0.5c-0.4-0.2-0.8-0.3-1.1-0.5c-0.4-0.2-0.8-0.3-1.1-0.4c-0.1,0-0.2-0.1-0.4-0.1c2.1-2.6,4.2-4.7,6.1-6.1
		c2.9-2.1,5.4-2.8,7-2C50.3,42.1,50.8,48.1,48.4,56z M40.1,72.4C39,72,38,71.6,36.9,71.2c-0.1,0-0.1-0.1-0.2-0.1
		c-0.6-0.3-1.3-0.6-1.9-0.9c-0.7-0.3-1.4-0.7-2.2-1.1c-2.5-1.3-4.8-2.8-6.9-4.3c0.9-2.4,1.9-4.9,3.3-7.5c1.4-2.6,2.8-4.9,4.3-6.9
		c1.7,0.6,3.5,1.4,5.3,2.2c0.6,0.3,1.1,0.5,1.7,0.8c0.2,0.1,0.3,0.2,0.5,0.2l0,0l0,0c2.5,1.3,4.8,2.8,6.9,4.3
		c-0.9,2.4-1.9,4.9-3.3,7.5C43,68.1,41.6,70.4,40.1,72.4z M18.9,58.8c-2.9-3.4-4-6.4-3-8.3c0.1-0.2,0.3-0.5,0.5-0.7
		c0.1-0.1,0.2-0.2,0.3-0.3c0.1-0.1,0.2-0.2,0.3-0.3c0.1-0.1,0.2-0.1,0.4-0.2c0.2-0.1,0.3-0.2,0.5-0.3c0,0,0.1,0,0.1,0
		c1.5-0.6,3.8-0.8,6.5-0.5c2.1,0.2,4.4,0.7,6.8,1.5c-1.4,2-2.8,4.3-4.1,6.7c-1.3,2.4-2.3,4.8-3.2,7.1C22,62,20.3,60.4,18.9,58.8z
		 M25,66.8c2.1,1.5,4.3,2.8,6.7,4.1c0.8,0.4,1.7,0.8,2.5,1.2c0.3,0.1,0.6,0.3,0.8,0.4c0.5,0.2,1.1,0.5,1.6,0.7
		c0.3,0.1,0.6,0.3,0.9,0.4c0.4,0.2,0.8,0.3,1.3,0.5c-1.2,1.5-2.4,2.9-3.6,4c-3.9,3.7-7.5,5.2-9.5,4.1C23,80.8,22.5,74.8,25,66.8z
		 M57,73c-0.1,0.1-0.3,0.3-0.5,0.4c-0.1,0.1-0.1,0.1-0.2,0.2c-0.1,0.1-0.3,0.2-0.4,0.2c-0.1,0.1-0.3,0.2-0.4,0.2c0,0-0.1,0-0.1,0
		c-1.5,0.6-3.7,0.8-6.4,0.5c-2.1-0.2-4.4-0.7-6.8-1.5c1.4-2,2.8-4.2,4.1-6.7c1.3-2.4,2.3-4.8,3.2-7.1c2,1.6,3.7,3.2,5.1,4.8
		c2.9,3.4,4,6.4,3,8.3C57.3,72.6,57.2,72.8,57,73z"/>
</g>
</svg>
