<?xml version="1.0" encoding="utf-8"?>
<!-- Generator: Adobe Illustrator 19.1.1, SVG Export Plug-In . SVG Version: 6.00 Build 0)  -->
<svg version="1.1" id="Слой_1" xmlns="http://www.w3.org/2000/svg" xmlns:xlink="http://www.w3.org/1999/xlink" x="0px" y="0px"
	 viewBox="0 0 75.5 59" style="enable-background:new 0 0 75.5 59;" xml:space="preserve">
<style type="text/css">
	.st0{fill:#242424;}
	.st1{fill:#EF3B57;}
	.st2{fill:none;stroke:#F7F7F7;stroke-miterlimit:10;}
	.st3{fill:#EF3B57;stroke:#33499F;stroke-width:0.75;stroke-miterlimit:10;}
	.st4{fill:none;stroke:#242424;stroke-miterlimit:10;}
	.st5{fill:#F7F7F7;}
	.st6{fill:none;stroke:#ED1438;stroke-width:2;stroke-linecap:round;stroke-miterlimit:10;stroke-dasharray:2.012,4.023;}
	.st7{fill:#FFFFFF;}
	.st8{fill:none;stroke:#ED1438;stroke-width:4;stroke-miterlimit:10;}
	.st9{fill:none;stroke:#04A94D;stroke-width:3;stroke-linecap:round;stroke-linejoin:round;stroke-miterlimit:10;}
	.st10{fill:#04A94D;}
	.st11{fill:none;stroke:#04A94D;stroke-miterlimit:10;}
	.st12{fill:none;stroke:#04A94D;stroke-width:3;stroke-linejoin:round;stroke-miterlimit:10;}
	.st13{fill:none;stroke:#04A94D;stroke-width:2.485;stroke-linejoin:round;stroke-miterlimit:10;}
	.st14{fill:none;stroke:#04A94D;stroke-width:1.657;stroke-miterlimit:10;}
	.st15{fill:none;stroke:#04A94D;stroke-width:3;stroke-linejoin:bevel;stroke-miterlimit:10;}
	.st16{fill:none;stroke:#04A94D;stroke-width:3;stroke-miterlimit:10;}
	.st17{fill:none;stroke:#929497;stroke-width:0.5;stroke-miterlimit:10;}
	.st18{fill:none;stroke:#929497;stroke-width:0.5;stroke-miterlimit:10;stroke-dasharray:10.988,4.578;}
	.st19{fill:none;stroke:#929497;stroke-width:0.5;stroke-miterlimit:10;stroke-dasharray:10.399,10.399;}
	.st20{fill:none;stroke:#ED1438;stroke-width:2;stroke-miterlimit:10;}
	.st21{fill:none;stroke:#04A94D;stroke-width:1.699;stroke-miterlimit:10;}
	.st22{fill:none;stroke:#060E9F;stroke-width:2.725;stroke-miterlimit:10;}
	.st23{fill:none;stroke:#060E9F;stroke-width:1.09;stroke-miterlimit:10;}
	.st24{fill:none;stroke:#ED1438;stroke-width:3.736;stroke-miterlimit:10;}
	.st25{fill:none;stroke:#ED1438;stroke-width:3.736;stroke-miterlimit:10;stroke-dasharray:3.794,5.691;}
	.st26{fill:none;stroke:#ED1438;stroke-width:3.379;stroke-miterlimit:10;}
	.st27{fill:none;stroke:#ED1438;stroke-width:3.379;stroke-miterlimit:10;stroke-dasharray:3.431,5.147;}
	.st28{fill:none;stroke:#ED1438;stroke-width:3.568;stroke-miterlimit:10;}
	.st29{fill:none;stroke:#ED1438;stroke-width:3.568;stroke-miterlimit:10;stroke-dasharray:3.624,5.435;}
	.st30{fill:none;stroke:#ED1438;stroke-width:8.537;stroke-miterlimit:10;}
	.st31{fill:none;stroke:#ED1438;stroke-width:3.341;stroke-miterlimit:10;}
	.st32{fill:none;stroke:#ED1438;stroke-width:3.341;stroke-miterlimit:10;stroke-dasharray:3.3,4.95;}
	.st33{fill:none;stroke:#ED1438;stroke-width:3.236;stroke-miterlimit:10;}
	.st34{fill:none;stroke:#ED1438;stroke-width:3.236;stroke-miterlimit:10;stroke-dasharray:3.094,4.641;}
	.st35{fill:none;stroke:#04A94D;stroke-width:2;stroke-miterlimit:10;}
	.st36{fill:none;stroke:#04A94D;stroke-width:2;stroke-linejoin:bevel;stroke-miterlimit:10;}
	.st37{fill:none;stroke:#FFFFFF;stroke-width:2;stroke-miterlimit:10;}
	.st38{fill:#5B719A;}
	.st39{fill:#DB831C;}
	.st40{fill:#5266AB;}
</style>
<g>
	<rect x="-489.6" y="-377.8" class="st0" width="30.5" height="2"/>
	<rect x="-489.6" y="-357.5" class="st0" width="30.5" height="2"/>
	<rect x="-485.5" y="-367.7" class="st0" width="22.4" height="2"/>
</g>
<g>
	
		<rect x="-398.6" y="-367.8" transform="matrix(0.7071 -0.7071 0.7071 0.7071 147.1028 -378.4957)" class="st0" width="30.5" height="2"/>
	
		<rect x="-398.6" y="-367.8" transform="matrix(-0.7071 -0.7071 0.7071 -0.7071 -395.0124 -897.2528)" class="st0" width="30.5" height="2"/>
</g>
<g>
	
		<rect x="-367.6" y="-367.8" transform="matrix(0.7071 -0.7071 0.7071 0.7071 156.1825 -356.5754)" class="st1" width="30.5" height="2"/>
	
		<rect x="-367.6" y="-367.8" transform="matrix(-0.7071 -0.7071 0.7071 -0.7071 -342.0921 -875.3325)" class="st1" width="30.5" height="2"/>
</g>
<g>
	
		<rect x="-115.5" y="-341.1" transform="matrix(0.7071 -0.7071 0.7071 0.7071 209.1892 -176.1478)" class="st1" width="14.9" height="1"/>
	
		<rect x="-115.5" y="-341.1" transform="matrix(-0.7071 -0.7071 0.7071 -0.7071 56.4051 -657.8114)" class="st1" width="14.9" height="1"/>
</g>
<g>
	<rect x="-448.6" y="-377.8" class="st1" width="30.5" height="2"/>
	<rect x="-448.6" y="-357.5" class="st1" width="30.5" height="2"/>
	<rect x="-444.5" y="-367.7" class="st1" width="22.4" height="2"/>
</g>
<g>
	<path class="st2" d="M-449.9-332.7c0-4.3-4.1-7.7-9.2-7.7s-9.2,3.5-9.2,7.7v14.5c0,4.3,4.1,7.7,9.2,7.7s9.2-3.5,9.2-7.7V-332.7z"/>
	<line class="st2" x1="-459.1" y1="-335.5" x2="-459.1" y2="-326"/>
</g>
<g>
	<path class="st1" d="M-457.1-219.5c-7.8,0-14.1-6.4-14.1-14.4s6.3-14.4,14.1-14.4s14.1,6.4,14.1,14.4S-449.3-219.5-457.1-219.5z
		 M-457.1-247.5c-7.3,0-13.3,6.1-13.3,13.6s6,13.6,13.3,13.6s13.3-6.1,13.3-13.6S-449.7-247.5-457.1-247.5z"/>
	<path class="st1" d="M-457.1-189.1l-19.8-23c-3-3.2-5.1-6.5-6.4-10.1c-1.4-3.9-1.9-7.7-1.6-11.3c0.9-13.1,11.5-26.7,27.8-26.7
		c7.5,0,14.5,3,19.7,8.4c4.7,5,7.7,11.6,8.1,18.3c0.3,3.6-0.3,7.5-1.6,11.3c-1.3,3.7-3.5,7-6.5,10.1L-457.1-189.1z M-457.1-259.5
		c-15.8,0-26.1,13.2-27,26.1c-0.3,3.5,0.2,7.1,1.6,10.9c1.3,3.5,3.3,6.8,6.2,9.9l19.2,22.4l19.1-22.4c3-3.1,5-6.3,6.3-9.9l0,0
		c1.3-3.6,1.9-7.4,1.6-10.9C-431.1-249.7-444.6-259.5-457.1-259.5z"/>
</g>
<g>
	<path class="st1" d="M-248.2-199.8c-0.2,0-0.5-0.1-0.6-0.4c-0.2-0.2-0.2-0.5-0.1-0.7c0.4-0.8,0.2-1.7-0.5-2.5
		c-0.2-0.2-0.2-0.4-0.2-0.6c0-0.4,0.4-0.7,0.8-1c0.3-0.2,0.6-0.2,1-0.2c0.1,0,0.1,0,0.2,0c0.3-1.9,0.1-3.3-0.4-4.1
		c-0.1-0.2-0.2-0.4-0.2-0.5c0,0,0-0.1-0.1-0.2c-0.4,0.1-0.6,0.1-0.8,0.2c-0.3,0.1-0.5,0.2-1.1,0.1c0.2,0.3,0.5,0.6,0.3,0.9
		c-0.2,0.3-0.6,0.4-0.9,0.4c-0.2,0-0.4,0-0.7,0c-1.9-0.2-3.1-0.7-3.9-1.5c0-0.1-0.1-0.1-0.2-0.3c-0.6-0.7-2.2-2.7-3.7-2.7
		c-0.8,0-1.4,0.6-1.9,1.8c0,0.1,0.2,0.2,0.3,0.2c0.2,0.1,0.4,0.3,0.5,0.5c0,0.1,0,0.3-0.1,0.4c-0.4,0.4-0.4,1-0.3,1.5
		c0,0.5,0,1-0.3,1.3c-0.7,0.8-1.6,1.2-2.5,1.2c-0.6,0-1.2-0.2-1.6-0.3c-0.2-0.1-0.5-0.1-0.6-0.1c-0.8,0.8-2.9,1.9-4.4,1.9
		c-0.9,0-1.5-0.4-1.7-1.2c-0.2,0-0.5,0-0.7-0.1c-0.4-0.3-0.9-0.2-1.4,0c-0.3,0.1-0.7,0.2-1.1,0.2c-0.5,0-0.8-0.1-1.2-0.5
		c-0.9-0.9-1.2-1.3-1.2-1.6c-0.3-0.2-0.8-0.4-1.6-0.8c-0.1,0.1-0.1,0.3-0.3,0.4c-0.2,0.2-0.2,0.4-0.1,0.7c0.1,0.4,0.1,0.9-0.4,1.3
		c-0.3,0.2-0.6,0.4-1,0.4c-1.2,0-2.5-1.3-2.8-1.5c-0.2-0.2-0.7-0.3-1.3-0.3c-1.3,0-3,0.5-3.7,0.9c-0.1,0.1-0.3,0.1-0.5,0.1
		c-1,0-2.4-1.2-2.8-2c-0.1-0.2-0.1-0.4-0.2-0.6c-0.2-0.6-0.2-0.8-0.5-0.8c-1.2-0.1-1.4-0.4-1.6-0.7c-0.1-0.1-0.1-0.2-0.3-0.3
		c0,0-0.1,0.1-0.1,0.1c-0.2,0.2-0.3,0.3-0.5,0.3h-0.3l-0.1-0.3c-0.2-0.9-0.3-1.7-0.3-2.5c-0.1-1.2-0.1-2.2-0.7-3
		c0,0-0.2,0.1-0.3,0.2c-0.3,0.2-0.7,0.5-1.1,0.5c-0.4,0-0.7-0.2-1.1-0.6c-0.1-0.2-0.3-0.3-0.2-0.5l0.1-0.2l0.3-0.1c0,0,0,0,0.1,0
		c0-0.1,0-0.1,0-0.2c-0.1,0-0.3,0-0.5-0.1l-0.2-0.1l-0.1-0.2c0-0.1,0-0.2,0-0.3c-0.1,0-0.1-0.1-0.2-0.1c-0.2-0.1-0.7-0.3-0.6-0.9
		c0-0.3,0.2-0.5,0.4-0.8c0-0.1,0.1-0.1,0.2-0.2c-0.1-0.1-0.2-0.2-0.3-0.3c-0.2-0.3-0.3-0.4-0.5-0.3c-1.3,0.4-4.9-1-6.1-1.9
		c-0.1,0.2-0.1,0.3-0.1,0.4c-0.2,0.6-0.4,0.9-1.3,1.2c-0.2,0.1-0.4,0.1-0.6,0.1c0.1,0,0.2,0.1,0.3,0.3c0.2,0.6,0.1,1,0,1.2
		c-0.2,0.3-0.6,0.5-1,0.5c-0.6,0-1.4-0.3-1.8-0.8c-0.1-0.2-0.2-0.3-0.3-0.5c-0.4-0.6-0.8-1.3-2.2-1.9c-0.1,0-0.6-0.4-0.9-0.7
		c-0.4-0.5-0.2-1,0-1.2c0.2-0.3,0.2-0.4,0.1-0.7c-0.3-0.6-0.8-1.2-1-1.5l-0.1-0.1c-0.1-0.2-1-0.4-1.8-0.4c-0.3,0-0.4,0-0.5,0
		c-0.3,0.1-0.5,0.2-0.6,0.2c-0.1,0-0.2,0.1-0.2,0.1h-0.2l-0.2-0.3l0-0.2c0-0.1,0-0.2-0.1-0.6c-0.2,0.1-0.5,0.3-1.2,0.8
		c-0.2,0.2-0.6,0.2-0.9,0.2c0,0-0.1,0-0.1,0c0.1,0.3,0.1,0.5-0.1,0.8c0.2,0.1,0.3,0.2,0.4,0.5c0.1,0.6-0.1,1.7-0.5,2.1
		c-0.1,0.1-0.2,0.2-0.4,0.3c0,0.1,0,0.2,0,0.3c-0.1,0.2-0.2,0.3-0.4,0.4c-0.5,0.2-0.8,0.3-1,0.3c-0.5,0-0.6-0.5-0.6-0.6
		c0-0.1,0-0.2-0.1-0.3c0,0-0.1,0-0.2,0c-0.3,0-0.6,0.1-0.9,0.4l-0.1,0.1l-0.2,0c-0.1,0-0.3-0.1-0.4-0.1c0,0,0,0.1,0,0.1
		c0,0.1,0,0.2,0,0.3c0.1,0.1,0.2,0.1,0.3,0.3l0.1,0.2l-0.1,0.2c-0.2,0.3-0.5,0.3-0.7,0.4c-0.1,0-0.2,0-0.2,0.1
		c-0.1,0.2-0.2,0.5-0.2,0.9c-0.1,0.7-0.3,1.4-0.9,1.8c-0.6,0.4-1.1,0.3-1.5-0.1c-0.8-0.9-0.5-3.5-0.5-3.5c0.1-0.7-0.2-1.2-0.5-1.9
		c-0.2-0.3-0.4-0.7-0.5-1.1c-0.3-0.8-0.8-1.5-1.3-2.2l-0.3-0.4c-0.6-0.9-0.4-1.8-0.2-2.7c0.1-0.4,0.1-0.8,0.2-1.1c0-0.1,0-0.3,0-0.4
		c0-0.1,0-0.2,0-0.3c0,0-0.1-0.3-0.5-0.6c-1.1-0.7-2.3-1.6-1.7-2.5c0.3-0.4,0.3-0.6,0.3-0.8c0-0.3,0.1-0.5,0.4-0.9
		c0.1-0.1,0.3-0.3,0.6-0.3c0.6,0,1.8,0.5,2,0.9c0.3,0.8,0.2,1.1,0,1.4c-0.1,0.1-0.2,0.3-0.2,0.6c-0.1,1,1.6,1.6,2.5,1.9
		c0,0,0,0,0.1,0c0-0.3,0-0.6,0.3-0.8c0.1-0.1,0.3-0.2,0.5-0.2c0.5,0,1.1,0.4,2,1.1c0,0,0.2-0.1,0.2-0.3c0,0,0,0,0-0.1
		c0-0.1-0.1-0.3,0.1-0.4c0.1-0.2,0.4-0.2,0.9-0.3c0.2,0,0.4,0,0.5,0c-0.3-0.3-0.8-0.9-0.6-1.7c0.1-0.2,0.1-0.3,0.2-0.4
		c0-0.1,0.1-0.2,0.1-0.2c-1.6-2.3-0.5-3.4,0.2-4.1c0.4-0.4,0.5-0.6,0.5-0.8c0,0-0.1-0.1-0.2-0.1c-0.2-0.1-0.5-0.2-0.6-0.6
		c-0.3-0.6,0.3-0.9,0.5-1.1l0.1-0.1c0.6-0.4,0.8-0.5,1-0.5c0.2,0,0.4,0.1,0.4,0.4c0,0.1,0.1,0.2,0.3,0.3c0-0.1,0.1-0.2,0.1-0.4
		c0.1-0.3,0.1-0.7,0.3-1c0.2-0.3,0.5-0.6,0.8-0.9c0.4-0.4,0.7-0.7,0.6-0.9c-0.1-0.3,0.1-0.5,0.2-0.6c0,0,0,0,0-0.1
		c-0.1-0.3-0.4-0.7,0-1.2c0.4-0.5,1.3-1.2,2-1.5l0.3-0.1c1-0.4,1.7-0.7,2.9-0.3c0.4,0.1,0.6,0.3,0.8,0.5c0-0.1,0-0.2,0-0.3
		c0-0.7,0-0.8,0.1-0.9c0.2-0.2,0.5-0.3,0.8-0.3c0.6,0,1.1,0.4,1.7,0.8c0.7,0.5,1.4,1,2,0.7c0.5-0.2,0.6-0.3,0.8-0.6
		c0.1-0.2,0.3-0.4,0.6-0.7c0.9-0.8,4-1.8,4.7-2.1c0,0,0-0.2,0-0.3c0-0.3,0.1-0.7,0.5-0.9c0.3-0.1,0.6-0.2,0.9-0.2
		c0.8,0,1.8,0.3,2.3,1c0.3,0.4,0.4,0.9,0.2,1.4c-0.1,0.3-0.2,0.4-0.3,0.4c0,0,0,0.1,0,0.1c0.4,1.8,0.1,3.5-0.6,4.4
		c-0.8,1-2.1,1.1-2.9,0.2c-0.6-0.7-0.9-1.9-0.8-3.4c-0.1,0.2-0.3,0.4-0.4,0.5c-0.5,0.7-1,1.4-1.5,1.8c-0.1,0.1-0.2,0.3-0.2,0.7
		c0,0.3,0,0.5,0.1,0.6c0,0,0.1-0.1,0.2-0.2c0,0,0-0.1,0.1-0.2c0.1-0.3,0.1-0.7,0.5-1c0.4-0.3,0.9-0.1,1.2,0.4c0.2,0.5,0,0.9-0.1,1.2
		c0,0.1-0.1,0.2-0.1,0.3c0,0,0,0,0,0c0.1-0.2,0.2-0.3,0.3-0.3c0.3-0.1,0.5-0.2,0.7-0.2c0.7,0,1,0.4,1.3,0.8c0.2,0.3,0.4,0.5,0.6,0.5
		c0.3,0,0.8-0.2,1.9-1.3c0,0,0.1-0.2,0.1-0.3c0.1-0.3,0.2-0.6,0.6-0.6h0.1l0.1,0.1c0.9,0.5,1.3,1,1.2,1.5c-0.1,0.8-1.2,1.3-1.7,1.4
		c-0.2,0.1-0.4,0.3-0.4,0.5c0.1,0,0.3-0.1,0.5-0.2c0.3-0.2,0.5-0.1,0.6,0l0.2,0c0.2,0,0.4,0.1,0.5,0.3c0,0,0,0.1,0.2,0.1
		c2.4,0.4,2.5,0.4,2.6,0.8c0.1,0.2-0.1,0.4-0.1,0.5c0.1,0.1,0.5,0.4,1.9,1c0.2,0.1,0.3,0.3,0.3,0.5c0-0.1,0-0.2,0.1-0.3
		c0-0.4,0.1-1.1,0.9-1.1c0,0,0,0,0,0c0.5,0,0.6,0.5,1,2c0.2,0.8,0.6,2.4,0.9,2.6c0,0,0,0,0,0c-0.2-0.8,0.2-1.9,1-2.1l0.1-0.4
		l-0.2,0.3c-0.1-0.1-0.3-0.3-0.2-0.6c0.2-0.7,2.2-2.7,3.3-2.7c0.4,0,0.7,0.2,0.8,0.7c0.1,0.4-0.1,0.6-1.4,1.9l-0.3,0.3
		c-0.4,0.4-0.8,1.3-1.2,2.2c-0.6,1.4-1.3,3-2.4,3.6c0.1,0.1,0.3,0.2,0.4,0.3c0,0,0.1,0,0.1,0c0.5,0,1.3-0.6,1.4-0.9
		c0.2-0.2,0.4-0.6,0.8-0.6c0.2,0,0.5,0.1,0.8,0.3c0.3,0.2,0.5,0.2,0.5,0.2c0,0,0-0.1,0-0.1c0-0.1,0-0.3-0.8-0.9
		c-1.1-0.9-0.2-2.4,0.6-3.7l0.1-0.1c0.2-0.4,0.4-0.6,0.4-0.7c0.2-0.4,0.3-0.5,1-1.1c0,0,0.2-0.2,0.3-0.2h0.2l0.1,0.1
		c0.2,0.2,0.1,0.5,0,1.1c-0.1,0.3-0.2,1-0.1,1.3c0.1-0.1,0.3-0.3,0.3-0.5c-0.1-0.2-0.1-0.4-0.1-0.6c0.1-0.2,0.3-0.3,0.4-0.3
		c0.1,0,0.3,0,0.5,0.3c0.4,0.5,0.6,0.8,0.8,0.9c0,0,0,0,0-0.1c0-0.1-0.1-0.3-0.2-0.4c-0.1-0.2-0.3-0.4-0.2-0.7
		c0-0.2,0.1-0.4,0.4-0.5c0.5-0.3,1.5-0.7,2.1-0.9c0.2-0.1,0.3-0.1,0.3-0.1c0.4-0.2,0.8-0.4,1.2-0.6c0.8-0.4,1.5-0.8,2.4-0.8
		c0.2,0,0.4,0,0.7,0.1c0.4,0.1,0.5,0.3,0.5,0.5c0,0,0,0,0,0c0-0.1,0.1-0.2,0.1-0.2c0.1-0.3,0.5-0.3,0.8-0.2c0-0.1,0-0.2,0.1-0.3
		c0.2-0.7,0.3-1,1-1.4l0.2,0c0.4,0,4.1,1.9,4.2,3.2c0,0.4-0.2,0.9-1.3,1.1c-0.3,0-0.5,0.2-0.7,0.7l-0.2,0.3
		c-0.2,0.3-0.5,0.8-0.6,1.1c0.3,0,0.7-0.1,0.7-0.1c0.1-0.1,0.1-0.2,0.2-0.5c0-0.3,0.1-0.7,0.5-1.1c0.1-0.1,0.2-0.1,0.4-0.1
		c0.3,0,0.6,0.1,0.7,0.3c0.1,0.1,0.1,0.3,0.1,0.6c0,0.1,0,0.2,0,0.4c0.1,0,0.2-0.1,0.3-0.2c0.3-0.1,0.5-0.3,0.8-0.3
		c0.2,0,0.5,0.1,0.8,0.5c0.1,0.2,0.9,0.1,1.1-0.1c0.1-0.1,0-0.4-0.1-0.5c-0.1-0.3-0.2-0.6,0-0.8c0.1-0.1,0.2-0.2,0.5-0.2
		c0.2,0,0.4,0,0.5,0c0.2,0,0.5,0,0.7,0c0.9,0,1.5,0.5,1.9,1.6c0.5,1.1,0.7,1.5,0.8,1.6c0.1-0.2,0.2-0.8,0.3-1.1
		c0.1-0.6,0.2-0.9,0.4-1c0.4-0.2,0.8,0,1.1,0.2c0.1,0.1,0.2,0.2,0.3,0.2c0,0,0.2-0.1,0.4-0.5c0.2-0.4,0-0.9-0.3-1.4
		c-0.1-0.1-0.1-0.2-0.2-0.3c-0.3,0-0.5-0.1-0.6-0.3c-0.3-0.5-0.5-0.8-0.6-1.3c0,0,0,0,0,0c-0.2,0.1-0.5,0.2-0.6,0.2
		c-0.8,0-1.4-0.7-1.4-1.4c0-0.4,0.2-0.8,0.9-1c-0.1-0.1-0.1-0.3,0-0.5l0.1-0.2l0.2-0.1c0.3-0.1,0.6-0.1,0.9-0.1c0.7,0,1,0.3,1.1,0.5
		c0.2,0.5,0.1,1.1-0.5,1.9c0,0,0.1,0,0.1,0l0.2,0c1.7,0.5,1.8,0.6,1.9,0.8l0,0.1c1.1-0.4,2.4-0.6,3.1-0.3c0.3,0.1,0.5,0.2,0.6,0.3
		c0.1,0.1,0.3,0.1,0.3,0.1c0,0,0.1,0,0.3-0.3c0.9-1,2-1.4,3-1.8c0.9-0.3,1.6-0.6,1.9-1.2c0.1-0.1,0.1-0.2,0.2-0.4
		c0.2-0.3,0.3-0.4,0.1-0.7c-0.2-0.3-0.2-0.6,0-0.9c0.2-0.3,0.5-0.4,0.8-0.4c-0.2-0.3-0.3-0.6,0.1-1c0.4-0.4,0.6-0.7,0.9-1.1
		c0.6-0.9,1.3-1.8,3.1-2.9c0.6-0.4,1.8-0.5,2.6-0.7c0.1,0,0.2,0,0.3,0c-0.1-0.1-0.2-0.3-0.2-0.4c-0.1-0.7,0.1-1.4,0.6-1.9
		c0.4-0.4,0.9-0.7,1.4-0.7c0.3,0,0.7,0.1,0.8,0.7c0.2,0.9,0.8,1.5,1.2,1.9c0.3,0.3,0.6,0.6,0.4,0.9c-1,1.5-1.3,1.6-1.8,1.7
		c-0.1,0-0.3,0-0.6,0.2c-0.4,0.2-0.6,0.2-0.8,0.2c-0.1,0-0.2,0-0.4-0.1c0,0.2,0,0.5,0,0.7c0.2-0.2,0.5-0.3,0.9-0.1
		c0.6,0.3,0.6,0.4,0.8,0.9c0,0.1,0,0.2,0.1,0.4c0,0.2,0.1,0.4,0.1,0.5c0.3,0,0.7,0,1.2-0.1c0.8-0.1,1.4-0.1,1.6,0
		c0.3,0.1,0.4,0.4,0.5,0.6c0,0.2,0,0.4-0.2,0.5c-0.5,0.4-0.6,1.6-0.4,3.4c0,0.3,0.3,0.7,0.5,1.2c0.5,0.8,1,1.8,0.3,2.4
		c-0.9,0.8-0.9,1.1-1,1.7c0,0.3-0.1,0.6-0.2,1c-0.1,0.4-0.4,0.4-0.5,0.5c-0.2,0.9,0,2.5,0.2,3c0,0,0,0,0,0c0.1-0.2,0.2-0.6,0.7-0.6
		c0.3,0,0.6,0.2,1,0.7c0.1,0.1,0.4,0.2,0.6,0.3c0.4,0.1,0.8,0.2,0.9,0.6c0.1,0.2,0.1,0.4,0,0.7c-0.1,0.2-0.2,0.3-0.3,0.4
		c0.1,0.1,0.2,0.2,0.4,0.3c0.3,0.2,0.7,0.4,0.8,0.9c0.1,0.3,0,0.7-0.4,1.2c-0.1,0.1-0.1,0.1-0.1,0.1c0,0,0.2,0.1,0.3,0.2
		c0.4,0.2,0.8,0.5,0.9,1.1c0,0.3,0.3,0.9,0.5,1.5c0.6,1.6,1,2.7,0.6,3.3c-0.2,0.2-0.6,0.5-1.3,0.3c-6.7-1.7-6.7-4.2-6.8-6.1
		c0-0.5,0-0.9-0.1-1.3c-0.5-2-0.6-4.8-0.2-6.7c0-0.1-0.2-0.6-0.7-1.1c-0.3-0.3-0.6-0.5-0.7-0.5c0,0-0.1,0-0.1,0.1
		c0,0,0.1,0.1,0.1,0.1c0.5,0.5,1.3,1.4,0.7,3.8l-0.1,0.3l-0.3,0.1c-0.3,0-0.5-0.3-0.9-0.8c-0.1-0.1-0.2-0.2-0.3-0.3
		c-0.2,0.3-0.5,0.4-0.7,0.5c-0.1,0-0.1,0-0.1,0c-0.9,0.8-0.5,1.9,0.2,3.3c0.2-0.2,0.6-0.3,1,0c0.3,0.2,0.4,0.6,0.4,1.1
		c-0.1,0.5-0.3,1.1-0.7,1.3l0,0c-0.1,0.3-0.4,0.9-1.1,0.9c-0.2,0-0.4-0.1-0.6-0.2c-0.1-0.1-0.2-0.2-0.3-0.3l0,0l-0.2,0
		c-0.4,0.1-0.6,0-0.8,0c0,0,0,0,0,0c0,0,0,0,0.1,0.1c0.2,0.2,0.5,0.5,0.3,0.8c-0.1,0.3-0.5,0.3-0.8,0.2c-0.1,0-0.1-0.1-0.2-0.1
		c0,0,0,0-0.1,0.1c-0.1,0.1-0.3,0.3-0.8,0.6c-2.4,1.5-3.4,6.1-3.6,9c0.4-0.3,0.9-0.5,1.2-0.2c0.1,0.1,0.2,0.2,0.4,0.4
		c0.1,0.1,0.2,0.2,0.3,0.4c0,0,0-0.1,0-0.1c-0.1-0.3-0.1-0.6,0.1-0.9c0.2-0.3,0.5-0.4,1-0.4c0.4,0,0.9,0.1,1.4,0.2
		c0.3,0.1,0.6,0.1,0.8,0.2c0-0.2-0.2-0.7-0.4-1c-0.4-0.3-0.4-0.5-0.4-0.7c0.1-0.5,0.8-0.6,1-0.6c0.1,0,0.3,0,0.3,0.1
		c0.6,0.4,1,1.2,1.5,2c0.4,0.6,0.7,1.3,1.1,1.6c0.1,0.1,0.8,0.4,1.3,0.6c1.6,0.6,2.5,1,2.3,1.7c-0.2,0.6-0.7,0.6-1.1,0.7
		c-0.1,0-0.2,0-0.2,0c0,0.4,0.3,0.9,0.7,1.3c0.2,0.2,0.5,0.3,0.8,0.5c0.6,0.2,1.4,0.5,1.2,2c0,0.3-0.2,0.5-0.5,0.5
		c-0.3,0-0.6-0.2-0.9-0.3c-0.2-0.1-0.3-0.2-0.5-0.2c0,0,0,0-0.1,0c0,0.1,0,0.3,0,0.4c0,0.5,0,1.2-0.6,1.5l-0.1,0l-0.1,0
		c-0.6,0-1.2-1.2-2.7-4.8c-0.5-1.1-0.9-2.3-1.1-2.5c-0.1-0.1-0.1-0.1-0.1-0.2c0.1,0.8,0.4,1.5,0.8,2.3c1.1,2,1,6.8-0.3,9.9
		c-0.7,1.7-1.7,2.8-2.8,3.2l-0.1,0c-0.2,0-0.3-0.1-0.3-0.2c0,0-0.1,0.1-0.1,0.1c-0.1,0.1-0.1,0.3-0.2,0.4
		C-247.5-200.4-247.6-199.8-248.2-199.8L-248.2-199.8z M-248.3-204.5l-0.1,0c-0.2,0.1-0.5,0.4-0.5,0.5c0.9,1,1.1,2.3,0.6,3.3
		c0,0,0,0,0.1,0.1c0-0.1,0.1-0.3,0.1-0.4c0.1-0.2,0.2-0.5,0.3-0.7c0.1-0.1,0.1-0.1,0.3-0.4l0.3-0.4l0.2,0c0.3,0,0.4,0.2,0.4,0.4
		c0.9-0.4,1.6-1.7,2-2.6c1.2-3,1.4-7.5,0.4-9.3c-0.6-1.2-0.9-2.1-1-3.3c0-0.1,0-0.3,0.1-0.4l0.1-0.1l0.2,0c0.2,0,0.4,0.1,1.1,0.9
		c0.2,0.3,0.6,1.2,1.2,2.7c0.6,1.4,1.6,3.8,2,4.3c0.1-0.2,0.1-0.5,0.1-0.8c0-0.3,0-0.5,0.1-0.7c0.1-0.4,0.4-0.5,0.6-0.5
		c0.2,0,0.3,0.1,0.5,0.1c0.2,0.1,0.4,0.2,0.6,0.3c0.1,0.1,0.3,0.2,0.4,0.2c0.1-0.7-0.2-0.8-0.8-1c-0.3-0.1-0.7-0.3-1.1-0.6
		c-0.5-0.4-1-1.2-0.9-2c0-0.5,0.6-0.5,0.9-0.6c0.1,0,0.4,0,0.5-0.1c-0.3-0.2-1.3-0.6-1.8-0.9c-0.8-0.3-1.3-0.5-1.5-0.7
		c-0.5-0.4-0.8-1.1-1.2-1.8c-0.4-0.7-0.8-1.4-1.2-1.8c0,0-0.1,0-0.1,0c0.2,0.2,0.6,1.2,0.6,1.6c0,0.3-0.1,0.5-0.2,0.6
		c-0.3,0.2-0.8,0.1-1.4-0.1c-0.6-0.2-1.4-0.3-1.6-0.1c0,0,0,0.2,0.1,0.3c0.1,0.3,0.2,1-0.4,1.1l-0.1,0c-0.3,0-0.5-0.3-1-0.8
		c-0.1-0.1-0.2-0.2-0.2-0.3c-0.1,0-0.4,0.2-0.5,0.3c-0.2,0.2-0.4,0.3-0.6,0.3h-0.2l-0.2-0.1c-0.1-0.1-0.1-0.2-0.1-0.4
		c0.2-3.6,1.4-8.4,4-10c0.5-0.3,0.6-0.4,0.7-0.5c0.1-0.1,0.2-0.1,0.3-0.2c0.1,0,0.1-0.1,0.2-0.1c-0.1-0.2-0.1-0.4,0-0.6
		c0.1-0.2,0.3-0.5,0.6-0.5c0,0,0.1,0,0.1,0c0.1,0,0.2,0,0.3,0c0-0.3,0.2-0.4,0.3-0.4c0.1,0,0.1,0,0.2-0.1c0.2-0.1,0.5-0.3,0.7,0.3
		l0,0.2c0,0.2,0,0.3,0.1,0.3c0.1,0.1,0.2,0.1,0.2,0.1c0.2,0,0.3-0.3,0.4-0.5c0.1-0.1,0.1-0.2,0.2-0.3c0.2-0.1,0.4-0.5,0.4-0.8
		c0-0.2,0-0.4-0.1-0.5c0-0.1,0,0,0,0c-0.1,0.1-0.2,0.3-0.5,0.3c-0.3,0-0.4-0.3-0.5-0.4c-0.7-1.4-1.6-3.2-0.2-4.4
		c0.2-0.2,0.3-0.2,0.5-0.2c0.2,0,0.2-0.1,0.3-0.4c0.1-0.3,0.3-0.4,0.4-0.4c0.3,0,0.5,0.3,1,0.9c0,0,0.1,0.1,0.1,0.2
		c0.3-1.6-0.3-2.2-0.7-2.6c-0.2-0.2-0.4-0.4-0.3-0.7c0-0.3,0.3-0.4,0.5-0.6c0.1-0.1,0.3-0.1,0.4-0.1c0.6,0,1.2,0.7,1.5,1
		c0.2,0.2,0.7,1,0.6,1.5c-0.4,1.8-0.3,4.5,0.2,6.4c0.1,0.5,0.1,0.9,0.2,1.4c0.1,1.8,0.1,3.9,6.3,5.5c0.3,0.1,0.5,0,0.5,0
		c0.2-0.3-0.3-1.8-0.7-2.6c-0.3-0.7-0.5-1.2-0.5-1.6c0-0.2-0.2-0.4-0.6-0.5c-0.3-0.1-0.6-0.3-0.7-0.7c-0.1-0.2,0-0.4,0.2-0.7
		c0.2-0.3,0.3-0.5,0.3-0.7c0-0.1-0.2-0.3-0.4-0.4c-0.4-0.2-1-0.6-0.8-1.5l0.1-0.3c-0.1,0-0.1,0-0.2-0.1c-0.4-0.1-0.8-0.2-1-0.5
		c-0.2-0.2-0.3-0.3-0.3-0.4c0,0,0,0.1,0,0.1c-0.1,0.2-0.2,0.7-0.7,0.7c-0.1,0-0.3,0-0.5-0.3c-0.5-0.7-0.7-2.8-0.4-3.9
		c0.1-0.3,0.4-0.4,0.5-0.4c0.1-0.3,0.1-0.6,0.1-0.8c0.1-0.8,0.2-1.2,1.2-2.2c0.2-0.2-0.1-0.9-0.5-1.5c-0.3-0.5-0.6-1-0.6-1.5
		c-0.2-2,0-3.3,0.6-3.9c0,0,0,0,0,0c0,0-0.1,0-0.2,0c-0.3,0-0.7,0-1.1,0.1c-0.4,0-0.9,0.1-1.2,0.1c-0.3,0-0.5,0-0.6-0.2
		c-0.1-0.1-0.1-0.3-0.1-0.3c0-0.1,0-0.2-0.1-0.5c0-0.2-0.1-0.3-0.1-0.4c0-0.1,0-0.2-0.1-0.2c0,0-0.2-0.1-0.3-0.2c-0.1,0-0.1,0-0.1,0
		c0,0,0,0-0.1,0.1c-0.1,0.1-0.4,0.3-0.7,0.2c-0.6-0.2-0.4-1.7-0.4-1.7c0.1-0.3,0.2-0.5,0.4-0.5c0.5,0,0.7,0.1,0.8,0.1
		c0.1,0,0.2,0,0.3-0.1c0.4-0.3,0.7-0.3,0.9-0.3c0.2,0,0.3,0,1.1-1.2c-0.1-0.1-0.1-0.1-0.2-0.2c-0.4-0.4-1.1-1.2-1.4-2.2
		c0-0.1-0.1-0.1-0.1-0.1c0,0,0,0,0,0c-0.2,0-0.6,0.1-0.8,0.5c-0.2,0.2-0.5,0.7-0.4,1.3c0,0.1,0.1,0.1,0.2,0.2
		c0.1,0.1,0.3,0.2,0.4,0.4l0.1,0.2l-0.1,0.2c-0.1,0.2-0.4,0.3-1.2,0.4c-0.7,0.1-1.8,0.3-2.3,0.6c-1.6,1-2.2,1.8-2.9,2.7
		c-0.3,0.4-0.6,0.8-1,1.2c0,0.1,0.1,0.2,0.1,0.3c0.1,0.2,0.3,0.4,0.2,0.6c-0.1,0.3-0.4,0.3-0.6,0.3c-0.1,0-0.5,0-0.5,0.1
		c0,0,0,0.1,0.1,0.2c0.3,0.7,0,1.2-0.2,1.5c-0.1,0.1-0.1,0.2-0.1,0.2c-0.4,0.9-1.3,1.3-2.3,1.6c-0.9,0.4-1.9,0.7-2.7,1.6
		c-0.2,0.3-0.5,0.5-0.8,0.5c-0.2,0-0.4-0.1-0.6-0.2c-0.1-0.1-0.3-0.2-0.6-0.2c-0.7-0.3-2.7,0.2-3.6,0.8c0,0,0,0.1,0.1,0.1
		c0.3,0.4,0.7,1.3,0.3,2.1c-0.2,0.4-0.5,0.9-1,0.9c-0.3,0-0.5-0.2-0.7-0.3c-0.1-0.1-0.2-0.1-0.3-0.2c0,0.1-0.1,0.4-0.1,0.5
		c-0.2,0.8-0.3,1.7-1,1.7c-0.4,0-0.8-0.4-1.5-2.1c-0.4-1.1-0.8-1.1-1.3-1.1c-0.2,0-0.4,0-0.6,0c-0.1,0-0.3,0-0.4,0c0,0,0,0.1,0,0.1
		c0.1,0.3,0.3,0.8,0,1.2c-0.2,0.3-0.7,0.6-1.3,0.6c-0.5,0-0.8-0.2-1-0.5c-0.1-0.1-0.1-0.1-0.2-0.1c-0.1,0-0.3,0.1-0.5,0.2
		c-0.2,0.1-0.5,0.3-0.8,0.3c0,0,0,0,0,0c-0.5,0-0.5-0.6-0.6-1.1c0-0.1,0-0.1,0-0.2c0,0-0.1,0-0.1,0c-0.2,0.1-0.2,0.3-0.2,0.6
		c0,0.3-0.1,0.6-0.4,0.9c-0.3,0.3-1.1,0.3-1.2,0.3c-0.3,0-0.5,0-0.7-0.1l-0.2-0.1l-0.1-0.2c-0.1-0.4,0.6-1.5,0.8-1.8l0.2-0.2
		c0.3-0.5,0.6-0.9,1.2-1c0.6-0.1,0.7-0.2,0.7-0.3c0-0.6-2.6-2.2-3.5-2.5c-0.4,0.2-0.4,0.3-0.5,0.8c0,0.2-0.1,0.3-0.1,0.6
		c-0.1,0.3-0.5,0.4-0.8,0.2c0,0,0,0,0,0c0,0,0,0,0,0c-0.1,0.2-0.2,0.6-0.6,0.6c-0.1,0-0.3-0.1-0.5-0.2c-0.2-0.1-0.3-0.3-0.3-0.4
		c-0.2,0-0.3,0-0.5,0c-0.7,0-1.3,0.3-2,0.7c-0.4,0.2-0.8,0.4-1.2,0.6c-0.1,0-0.2,0.1-0.4,0.1c-0.5,0.2-1.5,0.5-1.9,0.8
		c0,0-0.1,0-0.1,0.1c0,0,0.1,0.1,0.1,0.1c0.1,0.2,0.4,0.5,0.3,0.9c0,0.7-0.4,0.8-0.6,0.8c-0.3,0-0.6-0.2-1-0.7c0,0,0,0,0,0.1
		c-0.1,0.3-0.5,0.8-1,0.8l-0.2,0c-0.7-0.2-0.5-1.2-0.4-2c-0.2,0.2-0.2,0.3-0.3,0.5c-0.1,0.2-0.2,0.4-0.5,0.8l-0.1,0.1
		c-0.9,1.3-1.4,2.2-0.8,2.7c1.1,0.9,1.3,1.3,1,1.8c-0.1,0.3-0.4,0.5-0.7,0.5c-0.2,0-0.6-0.1-0.9-0.4c-0.2-0.2-0.3-0.2-0.3-0.2
		c0,0-0.1,0-0.3,0.2c-0.2,0.3-1.2,1.2-2,1.2c-0.2,0-0.4,0-0.5-0.1c-0.3-0.2-0.6-0.3-0.8-0.4c-0.2-0.1-0.5-0.2-0.4-0.5
		c0-0.3,0.3-0.4,0.6-0.5c1-0.3,1.7-1.9,2.3-3.3c0.4-1,0.8-1.9,1.3-2.4l0.3-0.3c0.7-0.7,1.1-1.2,1.2-1.3c0-0.1-0.1-0.1-0.1-0.1
		c-0.7,0-2.2,1.5-2.5,2c0.2,0.2,0.3,0.4,0.2,0.7c0,0.3-0.2,0.5-0.5,0.6c-0.4,0.1-0.6,0.9-0.5,1.3c0,0.2,0,0.3-0.1,0.5
		c-0.2,0.2-0.4,0.3-0.7,0.3l-0.2,0c-0.6-0.2-0.8-1.1-1.3-3.1c-0.1-0.5-0.3-1-0.4-1.4c0,0.1,0,0.2-0.1,0.4c0,0.4-0.1,0.9-0.7,1.2
		c-0.3,0.2-0.6,0.1-0.7-0.1c-0.2-0.2-0.1-0.4-0.1-0.6c0,0,0-0.1,0-0.1c-1.7-0.7-2.2-1.1-2.2-1.5c0-0.1,0-0.2,0-0.3
		c-0.5-0.1-1.4-0.3-1.9-0.3c-0.4-0.1-0.6-0.2-0.6-0.4c-0.2,0-0.3,0-0.4-0.1c-0.9,0.4-1.4,0.3-1.5-0.2c-0.1-0.5,0.3-1.2,0.8-1.4
		l0.1,0c1.1-0.4,1.2-0.7,1.2-0.8c0-0.1-0.2-0.4-0.6-0.7c0,0,0,0,0,0c-0.1,0.2-0.1,0.4-0.3,0.6c-1,1-1.8,1.5-2.4,1.5
		c-0.6,0-0.9-0.4-1.2-0.7c-0.4-0.5-0.6-0.7-1.2-0.4c0,0,0,0-0.1,0.1c-0.2,0.3-0.5,0.6-0.8,0.6c-0.2,0-0.5-0.1-0.5-0.8
		c0-0.3,0.1-0.5,0.2-0.7c0.1-0.3,0.2-0.5,0.1-0.6c0-0.1-0.1-0.2-0.1-0.2c-0.1,0.1-0.2,0.3-0.2,0.5c0,0.2-0.1,0.4-0.2,0.5
		c-0.3,0.3-0.5,0.5-0.8,0.5c-0.1,0-0.5-0.1-0.6-0.5c-0.2-0.6-0.1-1.7,0.4-2.1c0.4-0.3,1-1.1,1.4-1.7c0.7-1,0.9-1.3,1.3-1.3h0.2
		l0.2,0.1c0.2,0.2,0.2,0.5,0.1,0.7c-0.2,2,0.3,2.9,0.6,3.2c0.5,0.6,1.3,0.5,1.8-0.2c0.7-0.8,0.8-2.2,0.5-3.8
		c-0.1-0.2-0.2-0.8,0.4-0.9c0.1-0.3,0-0.5-0.1-0.8c-0.3-0.4-1-0.7-1.7-0.7c-0.2,0-0.5,0-0.6,0.1c0,0,0,0.2-0.1,0.3
		c0,0.3-0.1,0.8-0.6,0.9c-0.9,0.2-3.7,1.3-4.5,1.9c-0.3,0.2-0.4,0.4-0.5,0.6c-0.2,0.3-0.4,0.6-1.1,0.8c-0.2,0.1-0.4,0.1-0.6,0.1
		c-0.8,0-1.4-0.5-2-0.9c-0.5-0.4-1.1-0.8-1.4-0.6c0,0.1,0,0.2,0,0.4c0.1,0.9,0.1,1.1-0.1,1.3l-0.1,0.1l-0.3,0l-0.1-0.1
		c-0.2-0.2-0.4-0.3-0.5-0.4c-0.2-0.2-0.4-0.3-0.6-0.4c-1-0.3-1.5-0.1-2.4,0.3l-0.3,0.1c-0.6,0.2-1.3,0.9-1.7,1.3c0,0,0,0.1,0.1,0.3
		c0.1,0.1,0.1,0.2,0.2,0.3c0.1,0.3-0.1,0.5-0.2,0.6c0.1,0.6-0.4,1.1-0.8,1.5c-0.2,0.2-0.5,0.5-0.7,0.8c-0.1,0.2-0.2,0.5-0.2,0.8
		c-0.1,0.5-0.2,1-0.7,1l-0.2,0c-0.5-0.2-0.7-0.4-0.8-0.6c-0.1,0.1-0.3,0.2-0.5,0.3l-0.1,0.1c-0.1,0-0.2,0.1-0.2,0.2
		c0.1,0.1,0.2,0.2,0.3,0.2c0.2,0.1,0.5,0.2,0.6,0.5c0.2,0.7-0.2,1.1-0.6,1.5c-0.7,0.7-1.4,1.4-0.1,3.3c0.2,0.3,0,0.7-0.1,0.9
		c-0.1,0.1-0.1,0.2-0.1,0.2c-0.1,0.4,0.2,0.7,0.5,1.1c0.2,0.2,0.4,0.5,0.3,0.8c-0.1,0.3-0.5,0.4-1.3,0.5c-0.1,0-0.2,0-0.2,0
		c0,0.1,0,0.3-0.1,0.5c-0.2,0.2-0.5,0.5-0.9,0.5c-0.1,0-0.3,0-0.4-0.1c-1-0.9-1.4-0.9-1.6-0.9c-0.1,0.1-0.1,0.4-0.1,0.5
		c0,0.2,0,0.4-0.1,0.6l-0.1,0.1l-0.2,0l-0.1,0c-0.1,0-0.3-0.1-0.4-0.2c-1.1-0.4-3.1-1.1-3-2.6c0-0.5,0.2-0.7,0.3-0.9
		c0.1-0.2,0.2-0.2-0.1-0.7c-0.1-0.1-0.9-0.5-1.3-0.5c-0.2,0.3-0.3,0.4-0.3,0.5c0,0.2-0.1,0.5-0.4,1c-0.2,0.3,0.9,1.1,1.4,1.5
		c0.6,0.4,0.8,1,0.8,1.1c0,0.1,0,0.2,0,0.3c0,0.2,0.1,0.4,0,0.6c0,0.4-0.1,0.8-0.2,1.2c-0.2,0.8-0.3,1.5,0.1,2.1l0.3,0.4
		c0.5,0.7,1.1,1.5,1.4,2.3c0.1,0.4,0.3,0.7,0.5,1c0.4,0.7,0.7,1.4,0.6,2.3c-0.1,0.9,0,2.5,0.4,2.9c0.2,0.2,0.2,0.2,0.6,0
		c0.3-0.2,0.5-0.8,0.6-1.3c0.1-0.4,0.2-0.8,0.3-1.1c0.1-0.2,0.3-0.3,0.6-0.3c0-0.1,0-0.1,0-0.2c0-0.1,0-0.3,0-0.4
		c0-0.2,0-0.6,0.2-0.8c0.2-0.3,0.6-0.1,0.8,0c0.7-0.5,1.7-0.5,2-0.1c0.1,0.2,0.2,0.4,0.2,0.5c0,0,0,0,0,0c0.1,0,0.3-0.1,0.6-0.2
		c-0.1-0.2-0.2-0.4-0.2-0.6c0-0.1,0-0.5,0.4-0.5h0.3l0.1,0.3c0,0,0,0,0,0.1c0.2-0.2,0.4-1,0.4-1.5c0,0-0.1-0.1-0.1-0.1
		c-0.2-0.1-0.4-0.2-0.4-0.4l0-0.2l0.2-0.3c0.1-0.1,0.1-0.2,0.1-0.2c0,0,0,0,0,0c0,0,0-0.1-0.1-0.2c-0.1-0.2,0-0.4,0-0.5
		c0.2-0.3,0.5-0.3,0.8-0.3c0.1,0,0.4,0,0.4-0.1c1.1-0.9,1.5-1,1.7-1c0.2,0,0.4,0.1,0.5,0.3c0.1,0.3,0.2,0.5,0.2,0.6
		c0.1,0,0.2-0.1,0.3-0.1c0.2-0.1,0.4-0.1,0.7-0.1c0.7,0,1.9,0.2,2.3,0.7l0.1,0.1c0.3,0.3,0.8,0.9,1.1,1.7c0.3,0.6,0,1-0.1,1.3
		c-0.2,0.3-0.2,0.3-0.1,0.5c0.1,0.2,0.5,0.5,0.6,0.5c1.6,0.7,2.1,1.5,2.5,2.1c0.1,0.2,0.2,0.3,0.3,0.5c0.2,0.3,0.7,0.5,1.2,0.5
		c0.2,0,0.4-0.1,0.4-0.1c0.1-0.1,0-0.2,0-0.4c-0.2-0.1-0.3-0.2-0.5-0.5c-0.1-0.2-0.2-0.5,0-0.7c0.1-0.1,0.2-0.2,0.6-0.2
		c0.2,0,0.4,0,0.7,0c0.7-0.2,0.7-0.4,0.9-0.8c0.1-0.2,0.1-0.3,0.2-0.5c0.1-0.2,0.2-0.5,0.5-0.5c0.2,0,0.3,0.1,0.4,0.2
		c0.7,0.7,3.7,1.9,5.2,1.9c0.2,0,0.3,0,0.4,0c0.6-0.2,1,0.2,1.3,0.6c0.1,0.1,0.2,0.2,0.3,0.4c0.4,0.4,0,0.8-0.2,1.1
		c-0.1,0.1-0.2,0.3-0.2,0.4c0,0.1,0.1,0.1,0.2,0.2c0.2,0.1,0.4,0.2,0.6,0.4c0,0,0.1,0.1,0.1,0.1c0,0,0,0,0,0c0.2,0,0.4,0.1,0.5,0.4
		c0,0,0.3,0.9-0.1,1.1c0,0,0,0,0,0c0.4,0.3,0.7,0,1-0.2c0.3-0.2,0.5-0.4,0.8-0.4c0.2,0,0.4,0.1,0.6,0.3c0.7,1,0.8,2.2,0.9,3.4
		c0,0.6,0.1,1.2,0.2,1.9c0.1-0.1,0.3-0.2,0.4-0.2h0.1l0.1,0.1c0.4,0.2,0.6,0.5,0.7,0.6c0.1,0.2,0.2,0.3,1.1,0.4
		c0.8,0.1,1,0.8,1.1,1.3c0,0.2,0.1,0.4,0.2,0.5c0.2,0.6,1.5,1.6,2.1,1.6c0.1,0,0.1,0,0.1,0c0.7-0.4,2.5-1,4-1c0.8,0,1.4,0.2,1.8,0.5
		c0.5,0.5,1.5,1.3,2.3,1.3c0.2,0,0.4-0.1,0.6-0.2c0.2-0.2,0.2-0.3,0.1-0.7c-0.1-0.4-0.1-0.9,0.3-1.3c0.2-0.2,0.2-0.3,0.2-0.4
		c0.1-0.3,0.3-0.4,0.4-0.4c0.1,0,0.2,0,0.3,0.1c1.3,0.7,1.9,1,2.1,1.1c0.1,0.1,0.4,0.2,0.3,0.5l-0.1,0.3c0.1,0.2,0.4,0.4,0.7,0.8
		c0.4,0.4,0.9,0.3,1.6,0.1c0.7-0.2,1.5-0.3,2.1,0.1c0.1,0,0.1,0,0.2,0c0.1,0,0.1,0,0.2,0c0.2,0,0.5,0.1,0.6,0.5
		c0.1,0.3,0.3,0.7,1,0.7c1.3,0,3.1-1,3.9-1.7c0.3-0.2,0.7-0.2,1.3,0c0.4,0.1,0.9,0.3,1.4,0.3c0.7,0,1.4-0.3,2-0.9
		c0.1-0.1,0.1-0.5,0.1-0.7c0-0.6,0-1.2,0.4-1.8c0,0,0,0,0,0c-0.3-0.2-0.9-0.5-0.6-1.1c0.6-1.5,1.5-2.2,2.6-2.2
		c1.8,0,3.6,2.1,4.3,2.9c0.1,0.1,0.2,0.2,0.2,0.2c0.7,0.7,1.8,1.1,3.4,1.3c0.3,0,0.6,0,0.7,0c0-0.1-0.1-0.1-0.1-0.2
		c-0.2-0.3-0.5-0.5-0.3-0.9c0.1-0.3,0.5-0.3,0.6-0.3c0.1,0,0.2,0,0.3,0c0.5,0.1,0.6,0,0.9,0c0.2-0.1,0.5-0.2,1-0.2
		c0.5,0,0.6,0.4,0.7,0.6c0,0.1,0.1,0.3,0.2,0.4c0.7,1,0.8,2.5,0.5,4.8c0,0.2-0.2,0.5-0.6,0.5c-0.1,0-0.2,0-0.4,0
		C-248.1-204.5-248.2-204.5-248.3-204.5z M-261.5-242.4c0.1,0.2,0.2,0.4,0.4,0.7l0,0c0.2,0,0.4-0.2,0.7-0.4
		C-260.7-242.1-261-242.2-261.5-242.4z M-262.7-244.8c0.1,0.2,0.1,0.3,0,0.5l-0.1,0.2l-0.3,0c-0.2,0-0.6,0.1-0.6,0.3
		c0,0.3,0.3,0.6,0.7,0.6c0.2,0,0.4-0.1,0.6-0.4c0.7-0.9,0.5-1.2,0.5-1.2C-261.9-244.8-262.2-244.9-262.7-244.8z M-293.5-241.5
		l-0.1,0c-0.3-0.1-1.4-0.5-1.5-1.5c-0.2-1.1,0.9-2.4,3.2-3.9c0.5-0.3,1-0.5,1.5-0.5c0.4,0,0.8,0.1,1.2,0.2c0.4,0.1,0.7,0.2,1,0.1
		c0.8-0.2,1.2,0,1.5,0.2c0.2,0.1,0.4,0.2,0.8,0.2l0.2,0c0.4,0,0.8,0.1,1,0.2c0.3,0.2,0.4,0.4,0.4,0.7c0,0.8-1,1.5-2,1.3
		c-0.7-0.1-1.4-0.2-2-0.2c-2.7,0-3.7,1.5-4.3,2.4C-292.9-241.8-293.1-241.5-293.5-241.5L-293.5-241.5z M-290.4-246.7
		c-0.4,0-0.7,0.1-1.1,0.4c-2.7,1.8-3,2.8-2.9,3.2c0.1,0.5,0.7,0.8,1,0.9c0.1-0.1,0.2-0.3,0.3-0.4c0.6-1,1.8-2.8,4.9-2.8
		c0.6,0,1.4,0.1,2.1,0.2c0.6,0.1,1.1-0.3,1.1-0.6c0,0,0-0.1-0.1-0.1c-0.1,0-0.2-0.1-0.6-0.1l-0.2,0c-0.6,0-0.9-0.2-1.1-0.3
		c-0.3-0.1-0.5-0.2-1-0.1c-0.5,0.1-0.9,0-1.4-0.2C-289.7-246.6-290.1-246.7-290.4-246.7z M-297.1-243v-0.7c0.1,0,0.2,0,0.3-0.1
		c0,0,0-0.1,0-0.1c0-0.1-0.1-0.3-0.2-0.3v-0.7c0.6,0,0.9,0.5,0.9,1c0,0.3-0.1,0.5-0.3,0.7C-296.5-243.1-296.7-243-297.1-243z
		 M-276-243.7l-0.1-0.1l0-0.2c0,0,0.1-0.4,0.2-0.8c-0.3,0-0.6-0.4-0.8-0.6c-0.1-0.2-0.3-0.4-0.5-0.5c-0.4-0.2-0.7-0.5-0.7-0.8
		c-0.1-0.5,0.2-1,0.4-1.3c0.1-0.1,0.1-0.2,0.2-0.3c0.1-0.1,0.4-0.8,1-0.8c0.1,0,0.2,0,0.3,0.1c0.4,0.2,0.4,0.5,0.4,0.7
		c0,0.1,0,0.2,0.1,0.2l0.1,0.1l0,0.2c0,0.2-0.1,0.3-0.2,0.3c0,0-0.1,0.1-0.1,0.1c0.2,0,0.4,0.1,0.5,0.3c0.2,0.3,0.2,0.6,0.3,0.9
		c0.1,0,0.1,0,0.2,0v0.7c-0.2,0.1-0.7,1.3-0.8,1.6l-0.4,0L-276-243.7z M-276.2-248.4c-0.1,0-0.3,0.2-0.4,0.4
		c-0.1,0.1-0.1,0.2-0.2,0.4c-0.2,0.3-0.4,0.6-0.3,0.7c0,0.1,0.2,0.3,0.4,0.4c0.3,0.2,0.5,0.5,0.7,0.7c0.1,0.1,0.2,0.3,0.3,0.3
		c0.3-0.3,0.4-0.7,0.2-1.2c-0.1,0-0.1,0-0.1,0c-0.2,0-0.3-0.1-0.4-0.2c-0.2-0.3-0.1-0.6,0.1-1C-276.2-248-276.2-248.2-276.2-248.4
		C-276.2-248.3-276.2-248.4-276.2-248.4z M-324.6-249.8c-0.2,0-0.4-0.1-0.6-0.3c-0.5-0.7-0.4-2.1-0.3-2.7c0.1-0.3,0.3-0.4,0.7-0.4
		c0.2,0,0.5,0.1,0.6,0.2c0.1,0.1,0.8,0.5,0.9,0.9c0,0.2,0,0.3-0.1,0.4c0,0.1-0.1,0.1-0.2,0.1c0,0,0,0,0,0c0.3,0.4,0.6,0.8,0.4,1.3
		C-323.4-249.9-324-249.8-324.6-249.8L-324.6-249.8z M-324.8-252.5c-0.1,0.6-0.1,1.7,0.1,2c0,0.1,0.1,0.1,0.1,0.1v0.4l0-0.4
		c0.7,0,0.8-0.2,0.8-0.2c0-0.1-0.2-0.4-0.3-0.5c-0.2-0.3-0.5-0.6-0.4-0.9l0.1-0.3c0,0-0.1,0-0.1,0
		C-324.6-252.5-324.7-252.5-324.8-252.5C-324.8-252.5-324.8-252.5-324.8-252.5z M-249-251.4c-0.5,0-0.9-0.5-0.9-1.3
		c0-0.4,0.1-0.8,0.2-1.1c0.2-0.4,0.5-0.7,0.9-0.7v0.7c-0.1,0-0.2,0.1-0.2,0.3c-0.1,0.2-0.2,0.5-0.2,0.8c0,0.4,0.1,0.6,0.2,0.6
		V-251.4z"/>
</g>
<g>
	<g>
		<path class="st1" d="M-201.8-190.8h-3.3c-2.1,0-4.4-1.6-4.6-5.1l-1.7-24.2c-2.4-0.5-4.1-2.5-4.3-5l-1-16.3
			c-0.1-1.7,0.4-3.4,1.6-4.7c1.2-1.3,2.8-2.1,4.5-2.2l1.5-0.1c-1.9-1.6-3-4-3-6.5c0-4.8,3.8-8.5,8.5-8.5c4.7,0,8.5,3.8,8.5,8.5
			c0,2.5-1.1,4.9-3,6.5l1.5,0.1c3.6,0.3,6.3,3.4,6.2,6.9l-1,16.3c-0.1,2.5-1.9,4.5-4.3,5l-1.7,24.2
			C-197.4-192.1-199.8-190.8-201.8-190.8z M-208.8-247.7l-1.8,0.1c-1.5,0.1-2.9,0.8-4,1.9c-1,1.2-1.5,2.6-1.4,4.2l1,16.3
			c0.2,2.2,1.8,4.1,4,4.4l0.3,0l1.7,24.8c0.2,3,2,4.4,3.8,4.4h3.3c1.7,0,3.7-1.1,3.8-4.4l1.7-24.8l0.3,0c2.2-0.3,3.9-2.2,4-4.4
			l1-16.4c0.2-3.1-2.3-5.8-5.5-6.1l-2.6-0.1h-1.3l1.1-0.7c2.2-1.4,3.5-3.9,3.5-6.5c0-4.3-3.5-7.8-7.8-7.8c-4.4,0-7.8,3.4-7.8,7.8
			c0,2.6,1.4,5.1,3.5,6.5l1.1,0.7H-208.8z"/>
	</g>
	<g>
		<path class="st1" d="M-172.8-190.8h-3.3c-2.1,0-4.4-1.6-4.6-5.1l-1.7-24.2c-2.4-0.5-4.1-2.5-4.3-5l-1-16.3
			c-0.1-1.7,0.4-3.4,1.6-4.7c1.2-1.3,2.8-2.1,4.5-2.2l1.5-0.1c-1.9-1.6-3-4-3-6.5c0-4.8,3.8-8.5,8.5-8.5c4.7,0,8.5,3.8,8.5,8.5
			c0,2.5-1.1,4.9-3,6.5l1.5,0.1c3.6,0.3,6.3,3.4,6.2,6.9l-1,16.3c-0.1,2.5-1.9,4.5-4.3,5l-1.7,24.2
			C-168.4-192.1-170.8-190.8-172.8-190.8z M-179.8-247.7l-1.8,0.1c-1.5,0.1-2.9,0.8-4,1.9c-1,1.2-1.5,2.6-1.4,4.2l1,16.3
			c0.2,2.2,1.8,4.1,4,4.4l0.3,0l1.7,24.8c0.2,3,2,4.4,3.8,4.4h3.3c1.7,0,3.7-1.1,3.8-4.4l1.7-24.8l0.3,0c2.2-0.3,3.9-2.2,4-4.4
			l1-16.4c0.2-3.1-2.3-5.8-5.5-6.1l-2.6-0.1h-1.3l1.1-0.7c2.2-1.4,3.5-3.9,3.5-6.5c0-4.3-3.5-7.8-7.8-7.8c-4.4,0-7.8,3.4-7.8,7.8
			c0,2.6,1.4,5.1,3.5,6.5l1.1,0.7H-179.8z"/>
	</g>
	<g>
		<path class="st1" d="M-143.8-190.8h-3.3c-2.1,0-4.4-1.6-4.6-5.1l-1.7-24.2c-2.4-0.5-4.1-2.5-4.3-5l-1-16.3
			c-0.1-1.7,0.4-3.4,1.6-4.7c1.2-1.3,2.8-2.1,4.5-2.2l1.5-0.1c-1.9-1.6-3-4-3-6.5c0-4.8,3.8-8.5,8.5-8.5c4.7,0,8.5,3.8,8.5,8.5
			c0,2.5-1.1,4.9-3,6.5l1.5,0.1c3.6,0.3,6.3,3.4,6.2,6.9l-1,16.3c-0.1,2.5-1.9,4.5-4.3,5l-1.7,24.2
			C-139.4-192.1-141.8-190.8-143.8-190.8z M-150.8-247.7l-1.8,0.1c-1.5,0.1-2.9,0.8-4,1.9c-1,1.2-1.5,2.6-1.4,4.2l1,16.3
			c0.2,2.2,1.8,4.1,4,4.4l0.3,0l1.7,24.8c0.2,3,2,4.4,3.8,4.4h3.3c1.7,0,3.7-1.1,3.8-4.4l1.7-24.8l0.3,0c2.2-0.3,3.9-2.2,4-4.4
			l1-16.4c0.2-3.1-2.3-5.8-5.5-6.1l-2.6-0.1h-1.3l1.1-0.7c2.2-1.4,3.5-3.9,3.5-6.5c0-4.3-3.5-7.8-7.8-7.8c-4.4,0-7.8,3.4-7.8,7.8
			c0,2.6,1.4,5.1,3.5,6.5l1.1,0.7H-150.8z"/>
	</g>
</g>
<g>
	<path class="st1" d="M-369.7-242c-3,0-5.4-2.4-5.4-5.4c0-1.6,0.7-3.1,2-4.2c0.7-0.5,1.4-0.9,2.2-1.1v-9.9c0-0.7,0.5-1.2,1.2-1.2
		s1.2,0.5,1.2,1.2v9.9c0.8,0.2,1.6,0.6,2.2,1.1c1.2,1,2,2.6,2,4.2C-364.3-244.4-366.7-242-369.7-242z M-369.7-263
		c-0.3,0-0.5,0.2-0.5,0.5v10.5l-0.3,0.1c-0.8,0.1-1.6,0.5-2.2,1c-1.1,0.9-1.7,2.2-1.7,3.6c0,2.6,2.1,4.7,4.7,4.7s4.7-2.1,4.7-4.7
		c0-1.4-0.6-2.7-1.7-3.6c-0.6-0.5-1.4-0.9-2.2-1l-0.3-0.1v-10.5C-369.2-262.8-369.4-263-369.7-263z"/>
	<path class="st1" d="M-401.6-242c-3,0-5.4-2.4-5.4-5.4c0-1.6,0.7-3.1,2-4.2c0.7-0.5,1.4-0.9,2.2-1.1v-9.9c0-0.7,0.5-1.2,1.2-1.2
		s1.2,0.5,1.2,1.2v9.9c0.8,0.2,1.6,0.6,2.2,1.1c1.2,1,2,2.6,2,4.2C-396.2-244.4-398.7-242-401.6-242z M-401.6-263
		c-0.3,0-0.5,0.2-0.5,0.5v10.5l-0.3,0.1c-0.8,0.1-1.6,0.5-2.2,1c-1.1,0.9-1.7,2.2-1.7,3.6c0,2.6,2.1,4.7,4.7,4.7s4.7-2.1,4.7-4.7
		c0-1.4-0.6-2.7-1.7-3.6c-0.6-0.5-1.4-0.9-2.2-1l-0.3-0.1v-10.5C-401.2-262.8-401.4-263-401.6-263z"/>
	<path class="st1" d="M-359.6-194.1h-52.1c-3.5,0-6.3-2.8-6.3-6.3v-32.5h64.7v32.5C-353.3-196.9-356.2-194.1-359.6-194.1z
		 M-417.2-232.1v31.8c0,3.1,2.5,5.5,5.5,5.5h52.1c3.1,0,5.5-2.5,5.5-5.5v-31.8H-417.2z M-353.3-237.8H-418v-13c0-0.4,0-0.9,0.1-1.3
		c0.2-1,0.7-1.9,1.3-2.7c0.1-0.2,0.3-0.3,0.4-0.4c0.9-0.9,2-1.5,3.2-1.7c0.4-0.1,0.8-0.1,1.3-0.1h5v0.8h-5c-0.4,0-0.8,0-1.1,0.1
		c-1.1,0.2-2,0.7-2.8,1.5c-0.1,0.1-0.2,0.3-0.4,0.4c-0.6,0.7-1,1.5-1.1,2.4c-0.1,0.4-0.1,0.7-0.1,1.1v12.2h63.2v-12.2
		c0-0.4,0-0.8-0.1-1.1c-0.4-2.2-2.1-3.9-4.3-4.3c-0.4-0.1-0.7-0.1-1.1-0.1h-5v-0.8h5c0.4,0,0.9,0,1.3,0.1c2.5,0.5,4.4,2.4,4.9,4.9
		c0.1,0.4,0.1,0.8,0.1,1.3V-237.8z"/>
	<path class="st3" d="M-396.6-258.4"/>
	<rect x="-396.6" y="-257.1" class="st1" width="21.9" height="0.8"/>
</g>
<g>
	
		<image style="overflow:visible;" width="405" height="394" xlink:href="93728EB1.png"  transform="matrix(1 0 0 1 -485.75 -77.07)">
	</image>
	
		<image style="overflow:visible;" width="203" height="388" xlink:href="93728EB3.png"  transform="matrix(1 0 0 1 -352.75 -73.07)">
	</image>
	
		<image style="overflow:visible;" width="203" height="390" xlink:href="93728EB6.png"  transform="matrix(1 0 0 1 -352.75 -75.07)">
	</image>
	<image style="overflow:visible;" width="73" height="162" xlink:href="93728EB7.png"  transform="matrix(1 0 0 1 -418.75 -73.07)">
	</image>
	<image style="overflow:visible;" width="92" height="218" xlink:href="93728EB2.png"  transform="matrix(1 0 0 1 -482.75 43.93)">
	</image>
</g>
<g>
	<path class="st4" d="M-309.1-364.7c-1.2,0-2.3-0.2-3.4-0.5c-0.5-0.2-1.2,0-1.5,0.3l-2.2,1.6c-2.5-1.3-4.1-2.9-5.4-5.4l1.6-2.1
		c0.4-0.4,0.5-1,0.4-1.5c-0.4-1.1-0.5-2.2-0.5-3.4c0-0.8-0.7-1.5-1.5-1.5h-3.5c-0.8,0-1.5,0.7-1.5,1.5c0,9.6,7.9,17.5,17.5,17.5
		c0.8,0,1.5-0.7,1.5-1.5v-3.5C-307.6-364-308.3-364.7-309.1-364.7z"/>
</g>
<g>
	<path class="st5" d="M-285.1-364.7c-1.2,0-2.3-0.2-3.4-0.5c-0.5-0.2-1.2,0-1.5,0.3l-2.2,1.6c-2.5-1.3-4.1-2.9-5.4-5.4l1.6-2.1
		c0.4-0.4,0.5-1,0.4-1.5c-0.4-1.1-0.5-2.2-0.5-3.4c0-0.8-0.7-1.5-1.5-1.5h-3.5c-0.8,0-1.5,0.7-1.5,1.5c0,9.6,7.9,17.5,17.5,17.5
		c0.8,0,1.5-0.7,1.5-1.5v-3.5C-283.6-364-284.3-364.7-285.1-364.7z"/>
</g>
<g>
	<path class="st6" d="M38.2-391.1c31.3,0,56.7,25.4,56.7,56.7c0,31.3-25.4,56.7-56.7,56.7c-31.3,0-56.7-25.4-56.7-56.7
		C-18.5-365.7,6.9-391.1,38.2-391.1"/>
	<path class="st7" d="M38.2-271.7c-3.3,0-6-2.7-6-6c0-3.3,2.7-6,6-6c3.3,0,6,2.7,6,6"/>
	<path class="st7" d="M44.2-277.7c0,3.3-2.7,6-6,6"/>
	<path class="st8" d="M38.2-271.7c-3.3,0-6-2.7-6-6c0-3.3,2.7-6,6-6c3.3,0,6,2.7,6,6C44.2-274.4,41.5-271.7,38.2-271.7"/>
	<line class="st9" x1="38.6" y1="-361" x2="38.6" y2="-368.1"/>
	<line class="st9" x1="27.3" y1="-358.8" x2="23.1" y2="-364.5"/>
	<line class="st9" x1="18.5" y1="-351.2" x2="12.4" y2="-354.7"/>
	<line class="st9" x1="16.7" y1="-329" x2="10.5" y2="-325.4"/>
	<line class="st9" x1="15.2" y1="-340.6" x2="8.1" y2="-340.6"/>
	<line class="st9" x1="49" y1="-358.8" x2="53.1" y2="-364.5"/>
	<line class="st9" x1="57.7" y1="-351.2" x2="63.8" y2="-354.7"/>
	<line class="st9" x1="59.6" y1="-329" x2="65.7" y2="-325.4"/>
	<line class="st9" x1="61" y1="-340.6" x2="68.1" y2="-340.6"/>
	<path class="st9" d="M53.8-337.6c0-8.9-7.5-16.1-16.5-15.6c-7.6,0.4-13.9,6.4-14.7,13.9c-0.6,5.4,1.6,10.3,5.3,13.5
		c2.2,1.9,3.6,4.7,3.6,7.6v8.9c0,3.7,3,6.6,6.6,6.6s6.6-3,6.6-6.6v-8.8c0-3,1.4-5.8,3.6-7.7C51.7-328.7,53.8-332.9,53.8-337.6z"/>
	<line class="st9" x1="32.2" y1="-313.9" x2="44" y2="-313.9"/>
	<polyline class="st9" points="29.1,-337.2 35.9,-330.4 46.5,-340.9 	"/>
</g>
<g>
	<circle class="st6" cx="35.8" cy="-209.8" r="56.7"/>
	<path class="st7" d="M96.5-196c0,3.3-2.7,6-6,6c-3.3,0-6-2.7-6-6c0-3.3,2.7-6,6-6C93.8-202,96.5-199.3,96.5-196"/>
	<circle class="st8" cx="90.5" cy="-196" r="6"/>
	<path class="st7" d="M27.4-214.6l-10,2.4c-1.2,0.3-2.4,0.2-3.5-0.4l-5.7-3.4v17.9l22.4,13c3.5,2,7.8,1.9,11.1-0.2l9-5.5
		c1.3-0.8,1.6-2.7,0.5-3.9l-17.8-18.1C31.8-214.5,29.5-215.2,27.4-214.6"/>
	<path class="st9" d="M27.4-214.6l-10,2.4c-1.2,0.3-2.4,0.2-3.5-0.4l-5.7-3.4v17.9l22.4,13c3.5,2,7.8,1.9,11.1-0.2l9-5.5
		c1.3-0.8,1.6-2.7,0.5-3.9l-17.8-18.1C31.8-214.5,29.5-215.2,27.4-214.6z"/>
	<path class="st7" d="M63.4-216.1l-4.7,3c-1.5,0.9-3.2,1.2-4.9,0.7l-7.2-2.1c-2.8-0.8-5.9-0.2-8.2,1.7l-10.6,9l2.4,2
		c1.9,1.6,4.6,1.9,6.8,0.7l5.3-2.9l9.5,10.6l11.5-4.8L63.4-216.1z"/>
	<path class="st9" d="M63.4-216.1l-4.7,3c-1.5,0.9-3.2,1.2-4.9,0.7l-7.2-2.1c-2.8-0.8-5.9-0.2-8.2,1.7l-10.6,9l2.4,2
		c1.9,1.6,4.6,1.9,6.8,0.7l5.3-2.9l9.5,10.6l11.5-4.8L63.4-216.1z"/>
	<path class="st7" d="M28.3-183.7l-8.9-6.6c-1-0.8-1.2-2.2-0.5-3.2l1.1-1.5c0.8-1,2.2-1.2,3.2-0.5l8.9,6.6c1,0.8,1.2,2.2,0.5,3.2
		l-1.1,1.5C30.8-183.1,29.4-182.9,28.3-183.7"/>
	<path class="st9" d="M28.3-183.7l-8.9-6.6c-1-0.8-1.2-2.2-0.5-3.2l1.1-1.5c0.8-1,2.2-1.2,3.2-0.5l8.9,6.6c1,0.8,1.2,2.2,0.5,3.2
		l-1.1,1.5C30.8-183.1,29.4-182.9,28.3-183.7z"/>
	<line class="st7" x1="40" y1="-226.4" x2="41.3" y2="-236.4"/>
	<line class="st9" x1="40" y1="-226.4" x2="41.3" y2="-236.4"/>
	<line class="st7" x1="47.1" y1="-223.8" x2="50.7" y2="-230.9"/>
	<line class="st9" x1="47.1" y1="-223.8" x2="50.7" y2="-230.9"/>
	<line class="st7" x1="32.1" y1="-226.4" x2="30.8" y2="-236.4"/>
	<line class="st9" x1="32.1" y1="-226.4" x2="30.8" y2="-236.4"/>
	<line class="st7" x1="25" y1="-223.8" x2="21.4" y2="-230.9"/>
	<line class="st9" x1="25" y1="-223.8" x2="21.4" y2="-230.9"/>
</g>
<g>
	<path class="st6" d="M-15.8-82"/>
	<path class="st6" d="M-15.8-82c-0.4-2.6-0.5-5.2-0.5-7.8c0-31.3,25.4-56.7,56.7-56.7c31.3,0,56.7,25.4,56.7,56.7
		c0,31.3-25.4,56.7-56.7,56.7c-24.3,0-45.1-15.3-53.1-36.8"/>
	<circle class="st8" cx="-14.3" cy="-75.9" r="6"/>
	<ellipse class="st9" cx="40.4" cy="-95.7" rx="9.3" ry="9.4"/>
	<path class="st9" d="M58.8-58.5H21.9v-6c0-8.3,6.7-15,15-15h7.6c7.9,0,14.3,6.4,14.3,14.3V-58.5z"/>
	<polygon class="st9" points="40.2,-63.6 43.5,-66.1 41.7,-79.2 38.8,-79.2 36.9,-66.1 	"/>
	<line class="st9" x1="29.1" y1="-58.5" x2="29.1" y2="-66.5"/>
	<line class="st9" x1="52.1" y1="-58.5" x2="52.1" y2="-66.5"/>
	<circle class="st9" cx="27.1" cy="-110" r="2.3"/>
	<circle class="st9" cx="39.9" cy="-118.8" r="2.3"/>
	<circle class="st9" cx="53.6" cy="-109.8" r="2.3"/>
	<line class="st9" x1="28.9" y1="-111.3" x2="37.6" y2="-117"/>
	<line class="st9" x1="51.6" y1="-111.3" x2="42.9" y2="-117"/>
</g>
<g>
	<circle class="st6" cx="36.9" cy="28.8" r="56.7"/>
	<path class="st10" d="M54,15.8c0-0.3,0.2-0.7,0.5-0.9l7.8-5.3c0.5-0.3,1.1-0.2,1.4,0.3c0.3,0.5,0.2,1.1-0.3,1.4l-7.8,5.3
		c-0.5,0.3-1.1,0.2-1.4-0.3C54,16.2,54,16,54,15.8"/>
	<path class="st11" d="M54,15.8c0-0.3,0.2-0.7,0.5-0.9l7.8-5.3c0.5-0.3,1.1-0.2,1.4,0.3c0.3,0.5,0.2,1.1-0.3,1.4l-7.8,5.3
		c-0.5,0.3-1.1,0.2-1.4-0.3C54,16.2,54,16,54,15.8z"/>
	<path class="st10" d="M55.7,24.8c0-0.5,0.4-0.9,0.9-1l15-2.4c0.6-0.1,1.1,0.3,1.2,0.9c0.1,0.6-0.3,1.1-0.9,1.2l-15,2.4
		c-0.6,0.1-1.1-0.3-1.2-0.9v0L55.7,24.8z"/>
	<path class="st11" d="M55.7,24.8c0-0.5,0.4-0.9,0.9-1l15-2.4c0.6-0.1,1.1,0.3,1.2,0.9c0.1,0.6-0.3,1.1-0.9,1.2l-15,2.4
		c-0.6,0.1-1.1-0.3-1.2-0.9v0L55.7,24.8z"/>
	<path class="st10" d="M54,43.2c0-0.6,0.5-1,1-1c0.2,0,0.4,0.1,0.6,0.2l7.8,5.3c0.5,0.3,0.6,1,0.3,1.4c-0.3,0.5-1,0.6-1.4,0.3
		c0,0,0,0-0.1,0L54.4,44C54.1,43.8,54,43.5,54,43.2"/>
	<path class="st11" d="M54,43.2c0-0.6,0.5-1,1-1c0.2,0,0.4,0.1,0.6,0.2l7.8,5.3c0.5,0.3,0.6,1,0.3,1.4c-0.3,0.5-1,0.6-1.4,0.3
		c0,0,0,0-0.1,0L54.4,44C54.1,43.8,54,43.5,54,43.2z"/>
	<path class="st10" d="M55.7,34.2V34c0.1-0.6,0.6-1,1.2-0.9l0,0l15,2.4c0.6,0.1,1,0.6,0.9,1.2c-0.1,0.6-0.6,1-1.2,0.9l-15-2.4
		C56.1,35.1,55.7,34.7,55.7,34.2"/>
	<path class="st11" d="M55.7,34.2V34c0.1-0.6,0.6-1,1.2-0.9l0,0l15,2.4c0.6,0.1,1,0.6,0.9,1.2c-0.1,0.6-0.6,1-1.2,0.9l-15-2.4
		C56.1,35.1,55.7,34.7,55.7,34.2z"/>
	<polyline class="st12" points="8.4,26.3 47.6,8.5 47.6,49 8.4,33 	"/>
	<rect x="2.1" y="23" class="st12" width="6.2" height="13.1"/>
	<path class="st12" d="M27.5,42.2c-1.4,2.9-4.9,4.1-7.8,2.7c-2.9-1.4-4.1-4.9-2.7-7.8"/>
	<path class="st7" d="M6.8-13.3c0,3.3-2.7,6-6,6s-6-2.7-6-6c0-3.3,2.7-6,6-6S6.8-16.6,6.8-13.3"/>
	<circle class="st8" cx="0.8" cy="-13.3" r="6"/>
</g>
<g>
	<circle class="st6" cx="35.3" cy="155.5" r="56.7"/>
	<path class="st7" d="M78.5,114.2c0,3.3-2.7,6-6,6c-3.3,0-6-2.7-6-6c0-3.3,2.7-6,6-6C75.8,108.1,78.5,110.8,78.5,114.2"/>
	<circle class="st8" cx="72.5" cy="114.2" r="6"/>
	<path class="st13" d="M32.1,170v-17.2V146h7.2c3.4,0,6.2,2.8,6.2,6.2c0,3.4-2.8,6.2-6.2,6.2H29.1"/>
	<line class="st14" x1="29.3" y1="162.9" x2="39.5" y2="162.9"/>
	<path class="st15" d="M32.1,170v-17.2V146h7.2c3.4,0,6.2,2.8,6.2,6.2c0,3.4-2.8,6.2-6.2,6.2H29.1"/>
	<line class="st15" x1="29.3" y1="162.9" x2="39.5" y2="162.9"/>
	<path class="st16" d="M63.5,147c-0.4-8.3-7.2-14.9-15.5-15.2c-5.1-0.2-9.6,2-12.7,5.5c-3.1-3.5-7.6-5.7-12.7-5.5
		c-8.2,0.3-14.9,6.9-15.5,15c-0.3,4.8,1.9,8.7,4.6,12.4c3.9,4.8,12.7,15.2,22.7,23.8c0.4,0.4,1.1,0.4,1.6,0
		c9.8-8.4,18.5-18.6,22.5-23.5C61.4,155.8,63.7,151.9,63.5,147z"/>
</g>
<g>
	<line class="st17" x1="-176.5" y1="528.9" x2="-398" y2="445.4"/>
	<line class="st18" x1="-144.8" y1="511.6" x2="-368.3" y2="427.4"/>
	<line class="st19" x1="-211" y1="547.3" x2="-434.5" y2="463.1"/>
	<line class="st19" x1="-283.5" y1="415.5" x2="-491.8" y2="532.2"/>
	<line class="st17" x1="-250.4" y1="427.6" x2="-458.6" y2="544.4"/>
	<line class="st18" x1="-219.6" y1="440.2" x2="-427.8" y2="557"/>
	<line class="st17" x1="-183.5" y1="455.4" x2="-391.8" y2="572.2"/>
</g>
<g>
	<line class="st7" x1="-140.1" y1="-369" x2="-140.1" y2="-361"/>
	<line class="st20" x1="-140.1" y1="-369" x2="-140.1" y2="-361"/>
	<line class="st7" x1="-136.1" y1="-365" x2="-144.1" y2="-365"/>
	<line class="st20" x1="-136.1" y1="-365" x2="-144.1" y2="-365"/>
</g>
<g>
	<path class="st21" d="M-63.6-357.8l-7,5.9l-12.2-10.3l-2.8-7.9l4.2-7h6.9l3.9,4.4l3.9-4.4h6.9l4.2,7c0,0-1.7,4.7-1.7,4.7h-6.6"/>
	<circle class="st22" cx="-67.6" cy="-365.2" r="3.2"/>
	<line class="st23" x1="-62.2" y1="-370.3" x2="-64.6" y2="-367.9"/>
	<line class="st23" x1="-72.9" y1="-370.3" x2="-70.5" y2="-367.9"/>
	<line class="st23" x1="-62.2" y1="-360.1" x2="-64.6" y2="-362.5"/>
	<line class="st23" x1="-72.9" y1="-360.1" x2="-70.5" y2="-362.5"/>
</g>
<g>
	<g>
		<line class="st24" x1="0.3" y1="278.2" x2="1.9" y2="279.2"/>
		<line class="st25" x1="6.8" y1="282.1" x2="69.8" y2="319.1"/>
		<line class="st24" x1="72.2" y1="320.5" x2="73.8" y2="321.5"/>
		<line class="st24" x1="-10.4" y1="278.2" x2="-12.1" y2="279.2"/>
		<line class="st25" x1="-17" y1="282.1" x2="-79.9" y2="319.1"/>
		<line class="st24" x1="-82.4" y1="320.5" x2="-84" y2="321.5"/>
		<line class="st26" x1="-17.5" y1="372.3" x2="-18.9" y2="371.4"/>
		<line class="st27" x1="-23.4" y1="368.8" x2="-80.3" y2="335.3"/>
		<line class="st26" x1="-82.5" y1="334" x2="-84" y2="333.2"/>
		<line class="st28" x1="3.6" y1="374.5" x2="5.1" y2="373.6"/>
		<line class="st29" x1="9.8" y1="370.8" x2="69.9" y2="335.5"/>
		<line class="st28" x1="72.3" y1="334.1" x2="73.8" y2="333.2"/>
		<circle class="st8" cx="-5.7" cy="274.2" r="6"/>
		<circle class="st30" cx="-5.7" cy="377.4" r="12.8"/>
		<circle class="st8" cx="78.8" cy="327.5" r="6"/>
		<circle class="st8" cx="-88.6" cy="327.5" r="6"/>
		<line class="st24" x1="-10.4" y1="479.3" x2="-12.1" y2="478.3"/>
		<line class="st25" x1="-17" y1="475.5" x2="-79.9" y2="438.4"/>
		<line class="st24" x1="-82.4" y1="437" x2="-84" y2="436"/>
		<line class="st24" x1="0.3" y1="479.3" x2="1.9" y2="478.3"/>
		<line class="st25" x1="6.8" y1="475.5" x2="69.8" y2="438.4"/>
		<line class="st24" x1="72.2" y1="437" x2="73.8" y2="436"/>
		<circle class="st8" cx="-5.7" cy="480.3" r="6"/>
		<circle class="st8" cx="78.8" cy="430.3" r="6"/>
		<circle class="st8" cx="-88.6" cy="430.3" r="6"/>
		<line class="st31" x1="78.9" y1="424.3" x2="78.9" y2="422.6"/>
		<line class="st32" x1="78.9" y1="417.7" x2="78.9" y2="337.7"/>
		<line class="st31" x1="78.9" y1="335.2" x2="78.9" y2="333.5"/>
		<line class="st33" x1="-5.7" y1="473.1" x2="-5.7" y2="471.5"/>
		<line class="st34" x1="-5.7" y1="466.9" x2="-5.7" y2="391.8"/>
		<line class="st33" x1="-5.7" y1="389.5" x2="-5.7" y2="387.9"/>
		<line class="st31" x1="-88.6" y1="424.3" x2="-88.6" y2="422.6"/>
		<line class="st32" x1="-88.6" y1="417.7" x2="-88.6" y2="337.7"/>
		<line class="st31" x1="-88.6" y1="335.2" x2="-88.6" y2="333.5"/>
		<line class="st35" x1="-81.4" y1="413.7" x2="-9.4" y2="311.3"/>
		<line class="st35" x1="1" y1="355" x2="59.6" y2="269.3"/>
		<line class="st35" x1="68.3" y1="296" x2="68.3" y2="307.9"/>
		<line class="st35" x1="74.3" y1="301.9" x2="62.3" y2="301.9"/>
		<circle class="st35" cx="-3.5" cy="301.5" r="5.3"/>
		<polyline class="st36" points="81.9,453.9 107.9,442.1 107.9,468.8 81.9,458.2 		"/>
		<rect x="77.8" y="451.6" class="st35" width="4.1" height="8.7"/>
		<path class="st35" d="M94.6,464.3c-0.9,1.9-3.2,2.7-5.2,1.8c-1.9-0.9-2.7-3.3-1.8-5.2"/>
		<polyline class="st37" points="-112.3,432.5 -108.3,455.2 -114.6,460.6 -121,455.2 -116.9,432.5 		"/>
		<line class="st37" x1="-122.1" y1="447.2" x2="-114.5" y2="447.2"/>
		<polygon class="st37" points="-112.3,424.3 -117,424.3 -119.1,427 -116.9,432.5 -112.3,432.5 -110.2,427 		"/>
		<polyline class="st36" points="-112.3,432.5 -108.3,455.2 -114.6,460.6 -121,455.2 -116.9,432.5 		"/>
		<line class="st36" x1="-122.1" y1="447.2" x2="-114.5" y2="447.2"/>
		<polygon class="st36" points="-112.3,424.3 -117,424.3 -119.1,427 -116.9,432.5 -112.3,432.5 -110.2,427 		"/>
		<path class="st36" d="M-108.5,333.6c-0.3-4.8-4.2-8.6-9-8.8c-2.9-0.1-5.6,1.1-7.3,3.2c-1.8-2-4.4-3.3-7.3-3.2
			c-4.7,0.2-8.6,4-8.9,8.7c-0.2,2.8,1.1,5,2.7,7.2c2.3,2.8,7.3,8.8,13.1,13.7c0.3,0.2,0.6,0.2,0.9,0c5.7-4.8,10.7-10.7,13-13.6
			C-109.7,338.7-108.3,336.5-108.5,333.6z"/>
	</g>
	<polyline class="st35" points="79,247.8 74,251.4 77.5,262.3 68.3,255.5 59,262.3 62.6,251.4 53.3,244.7 64.8,244.7 68.3,233.8 
		71.8,244.7 83.3,244.7 	"/>
</g>
<g>
	<path class="st0" d="M-199.7-372.8c-0.2,0.2-0.2,0.5-0.1,0.7l3.9,4.7l-3.9,4.7c-0.2,0.2-0.1,0.5,0.1,0.7c0.2,0.2,0.5,0.1,0.7-0.1
		l4.2-5c0.1-0.1,0.1-0.2,0.1-0.3c0-0.1,0-0.2-0.1-0.3l-4.2-5C-199.2-373-199.5-373-199.7-372.8z"/>
</g>
<g>
	<path class="st0" d="M-205.9-372.8c0.2,0.2,0.2,0.5,0.1,0.7l-3.9,4.7l3.9,4.7c0.2,0.2,0.1,0.5-0.1,0.7c-0.2,0.2-0.5,0.1-0.7-0.1
		l-4.2-5c-0.1-0.1-0.1-0.2-0.1-0.3c0-0.1,0-0.2,0.1-0.3l4.2-5C-206.4-373-206.1-373-205.9-372.8z"/>
</g>
<g>
	<path class="st1" d="M-138.2-351.8c-0.4,0.3-0.4,0.8-0.1,1.2l6.9,8.2l-6.9,8.2c-0.3,0.4-0.3,0.9,0.1,1.2c0.4,0.3,0.9,0.3,1.2-0.1
		l7.3-8.8c0.1-0.2,0.2-0.4,0.2-0.6c0-0.2-0.1-0.4-0.2-0.6l-7.3-8.8C-137.3-352-137.8-352.1-138.2-351.8z"/>
</g>
<g>
	<path class="st1" d="M-149-351.8c0.4,0.3,0.4,0.8,0.1,1.2l-6.9,8.2l6.9,8.2c0.3,0.4,0.3,0.9-0.1,1.2c-0.4,0.3-0.9,0.3-1.2-0.1
		l-7.3-8.8c-0.1-0.2-0.2-0.4-0.2-0.6c0-0.2,0.1-0.4,0.2-0.6l7.3-8.8C-149.9-352-149.3-352.1-149-351.8z"/>
</g>
<g>
	<path class="st5" d="M-187.1-351.8c-0.4,0.3-0.4,0.8-0.1,1.2l6.9,8.2l-6.9,8.2c-0.3,0.4-0.3,0.9,0.1,1.2c0.4,0.3,0.9,0.3,1.2-0.1
		l7.3-8.8c0.1-0.2,0.2-0.4,0.2-0.6c0-0.2-0.1-0.4-0.2-0.6l-7.3-8.8C-186.2-352-186.7-352.1-187.1-351.8z"/>
</g>
<g>
	<path class="st5" d="M-197.9-351.8c0.4,0.3,0.4,0.8,0.1,1.2l-6.9,8.2l6.9,8.2c0.3,0.4,0.3,0.9-0.1,1.2c-0.4,0.3-0.9,0.3-1.2-0.1
		l-7.3-8.8c-0.1-0.2-0.2-0.4-0.2-0.6c0-0.2,0.1-0.4,0.2-0.6l7.3-8.8C-198.8-352-198.2-352.1-197.9-351.8z"/>
</g>
<g>
	<path class="st1" d="M-168.7-372.8c-0.2,0.2-0.2,0.5-0.1,0.7l3.9,4.7l-3.9,4.7c-0.2,0.2-0.1,0.5,0.1,0.7c0.2,0.2,0.5,0.1,0.7-0.1
		l4.2-5c0.1-0.1,0.1-0.2,0.1-0.3c0-0.1,0-0.2-0.1-0.3l-4.2-5C-168.2-373-168.5-373-168.7-372.8z"/>
</g>
<g>
	<path class="st1" d="M-174.9-372.8c0.2,0.2,0.2,0.5,0.1,0.7l-3.9,4.7l3.9,4.7c0.2,0.2,0.1,0.5-0.1,0.7c-0.2,0.2-0.5,0.1-0.7-0.1
		l-4.2-5c-0.1-0.1-0.1-0.2-0.1-0.3c0-0.1,0-0.2,0.1-0.3l4.2-5C-175.4-373-175.1-373-174.9-372.8z"/>
</g>
<g>
	<line class="st35" x1="-118.1" y1="-371" x2="-118.1" y2="-359"/>
	<line class="st35" x1="-112.1" y1="-365" x2="-124.1" y2="-365"/>
</g>
<g id="Mail_1">
	<g id="_Group_">
		<path id="_Rectangle_" class="st4" d="M-269-374.6h16.7c0.5,0,1,0.5,1,1v11.6c0,0.5-0.5,1-1,1H-269c-0.5,0-1-0.5-1-1v-11.6
			C-270-374.2-269.5-374.6-269-374.6z"/>
		<rect id="_Rectangle_2" x="-257.1" y="-372.1" class="st4" width="3.2" height="3.9"/>
		<line id="_Path_" class="st4" x1="-267.4" y1="-363.7" x2="-260.9" y2="-363.7"/>
		<line id="_Path_2" class="st4" x1="-267.4" y1="-365.6" x2="-264.2" y2="-365.6"/>
	</g>
</g>
<g>
	<path class="st0" d="M-380.7-335.4c0.1,0.4-0.3,1.2-1.3,2.5c-0.1,0.2-0.3,0.4-0.6,0.7c-0.2,0.3-0.4,0.5-0.5,0.6
		c-0.1,0.1-0.2,0.3-0.3,0.4c-0.1,0.2-0.1,0.3-0.1,0.4c0,0.1,0.1,0.2,0.1,0.3c0.1,0.1,0.1,0.2,0.3,0.4c0.1,0.1,0.3,0.3,0.5,0.5
		c0,0,0,0,0,0c0.8,0.8,1.4,1.4,1.6,1.9c0,0,0,0.1,0.1,0.1c0,0,0,0.1,0.1,0.2c0,0.1,0,0.2,0,0.3c0,0.1-0.1,0.2-0.2,0.2
		c-0.1,0.1-0.3,0.1-0.5,0.1l-2.2,0c-0.1,0-0.3,0-0.5,0c-0.2-0.1-0.3-0.1-0.4-0.2l-0.2-0.1c-0.2-0.1-0.4-0.3-0.6-0.6
		c-0.2-0.2-0.4-0.5-0.6-0.7c-0.2-0.2-0.3-0.4-0.5-0.5c-0.2-0.1-0.3-0.2-0.5-0.1c0,0,0,0-0.1,0c0,0-0.1,0.1-0.1,0.1
		c-0.1,0.1-0.1,0.2-0.2,0.3c-0.1,0.1-0.1,0.3-0.1,0.4c0,0.2-0.1,0.4-0.1,0.7c0,0.1,0,0.2,0,0.2c0,0.1,0,0.1-0.1,0.2l0,0
		c-0.1,0.1-0.3,0.2-0.5,0.2h-1c-0.4,0-0.8,0-1.3-0.1c-0.4-0.1-0.8-0.3-1.1-0.5c-0.3-0.2-0.6-0.4-0.9-0.6c-0.3-0.2-0.5-0.4-0.6-0.5
		l-0.2-0.2c-0.1-0.1-0.1-0.1-0.2-0.3c-0.1-0.1-0.3-0.4-0.6-0.8c-0.3-0.4-0.6-0.8-0.9-1.3c-0.3-0.5-0.7-1.1-1.1-1.8
		c-0.4-0.8-0.8-1.5-1.1-2.3c0-0.1-0.1-0.2-0.1-0.2c0-0.1,0-0.1,0-0.1l0-0.1c0.1-0.1,0.3-0.2,0.5-0.2l2.4,0c0.1,0,0.1,0,0.2,0.1
		c0.1,0,0.1,0.1,0.1,0.1l0,0c0.1,0.1,0.2,0.2,0.2,0.3c0.1,0.3,0.2,0.6,0.4,0.9c0.1,0.3,0.3,0.5,0.4,0.7l0.1,0.3
		c0.2,0.3,0.3,0.6,0.5,0.9c0.2,0.3,0.3,0.5,0.4,0.6s0.2,0.3,0.4,0.3c0.1,0.1,0.2,0.1,0.3,0.1s0.2,0,0.2,0c0,0,0,0,0,0
		s0.1-0.1,0.1-0.2c0.1-0.1,0.1-0.2,0.1-0.4c0-0.2,0.1-0.4,0.1-0.7c0-0.3,0-0.7,0-1.1c0-0.2,0-0.4-0.1-0.6c0-0.2-0.1-0.3-0.1-0.4
		l-0.1-0.1c-0.1-0.2-0.4-0.3-0.7-0.4c-0.1,0-0.1-0.1,0-0.2c0.1-0.1,0.2-0.2,0.3-0.3c0.3-0.1,1-0.2,2.1-0.2c0.5,0,0.9,0,1.2,0.1
		c0.1,0,0.2,0.1,0.3,0.1c0.1,0,0.1,0.1,0.2,0.2c0,0.1,0.1,0.2,0.1,0.3c0,0.1,0,0.2,0,0.4c0,0.2,0,0.3,0,0.5c0,0.1,0,0.4,0,0.6
		c0,0.3,0,0.5,0,0.7c0,0.1,0,0.2,0,0.4c0,0.2,0,0.3,0,0.4c0,0.1,0,0.2,0,0.3c0,0.1,0.1,0.2,0.1,0.3c0,0.1,0.1,0.2,0.2,0.2
		c0,0,0.1,0,0.1,0s0.1,0,0.2-0.1c0.1-0.1,0.2-0.2,0.3-0.3c0.1-0.1,0.3-0.3,0.4-0.6c0.2-0.3,0.4-0.6,0.6-0.9c0.3-0.6,0.7-1.2,0.9-1.9
		c0-0.1,0.1-0.1,0.1-0.2c0,0,0.1-0.1,0.1-0.1l0,0c0,0,0,0,0,0c0,0,0.1,0,0.1,0c0.1,0,0.1,0,0.2,0l2.5,0c0.2,0,0.4,0,0.6,0
		C-380.9-335.6-380.8-335.5-380.7-335.4L-380.7-335.4z"/>
</g>
<g>
	<path class="st0" d="M-360.7-331.6c0.1,0.2,0.1,0.3,0.1,0.4c0,0.1,0,0.2,0,0.3c0,0.1-0.1,0.2-0.2,0.3c-0.1,0.1-0.2,0.2-0.4,0.3
		c-0.1,0.1-0.3,0.2-0.5,0.4c-0.7,0.4-1.6,0.7-2.7,0.8l0.6,0.6l2.3,2.3c0.2,0.2,0.3,0.4,0.3,0.6c0,0.2-0.1,0.5-0.3,0.6l-0.1,0.1
		c-0.2,0.2-0.4,0.3-0.6,0.3c-0.2,0-0.5-0.1-0.6-0.3c-0.4-0.4-1.2-1.2-2.3-2.3l-2.3,2.3c-0.2,0.2-0.4,0.3-0.6,0.3
		c-0.2,0-0.5-0.1-0.6-0.3l-0.1-0.1c-0.2-0.2-0.3-0.4-0.3-0.6c0-0.2,0.1-0.5,0.3-0.6l2.3-2.3l0.6-0.6c-1.2-0.1-2.1-0.4-2.7-0.8
		c-0.2-0.1-0.4-0.3-0.5-0.4c-0.1-0.1-0.3-0.2-0.4-0.3c-0.1-0.1-0.2-0.2-0.2-0.3c0-0.1-0.1-0.2,0-0.3c0-0.1,0.1-0.3,0.1-0.4
		c0.1-0.1,0.1-0.2,0.2-0.3c0.1-0.1,0.2-0.1,0.4-0.2c0.1,0,0.3,0,0.5,0c0.2,0.1,0.4,0.2,0.6,0.3c0,0,0.1,0.1,0.1,0.1
		c0.1,0,0.2,0.1,0.4,0.2c0.2,0.1,0.4,0.2,0.6,0.3c0.2,0.1,0.5,0.1,0.8,0.2s0.6,0.1,1,0.1c0.5,0,1-0.1,1.5-0.2c0.5-0.1,0.8-0.3,1-0.4
		l0.3-0.2c0.2-0.1,0.4-0.3,0.6-0.3c0.2-0.1,0.3-0.1,0.5,0c0.1,0,0.3,0.1,0.4,0.2C-360.9-331.8-360.8-331.7-360.7-331.6z
		 M-362.5-333.2c-0.8,0.8-1.7,1.1-2.8,1.1c-1.1,0-2-0.4-2.8-1.1s-1.1-1.7-1.1-2.8c0-1.1,0.4-2,1.1-2.8c0.8-0.8,1.7-1.1,2.8-1.1
		c1.1,0,2,0.4,2.8,1.1c0.8,0.8,1.1,1.7,1.1,2.8C-361.3-334.9-361.7-334-362.5-333.2z M-363.9-337.3c-0.4-0.4-0.8-0.6-1.4-0.6
		c-0.5,0-1,0.2-1.4,0.6c-0.4,0.4-0.6,0.8-0.6,1.4c0,0.5,0.2,1,0.6,1.4c0.4,0.4,0.8,0.6,1.4,0.6c0.5,0,1-0.2,1.4-0.6
		c0.4-0.4,0.6-0.8,0.6-1.4C-363.3-336.5-363.5-337-363.9-337.3z"/>
</g>
<g>
	<path class="st0" d="M-403.7-338.5v2.3h-1.4c-0.5,0-0.8,0.1-1,0.3c-0.2,0.2-0.3,0.5-0.3,0.9v1.6h2.5l-0.3,2.6h-2.2v6.5h-2.6v-6.5
		h-2.2v-2.6h2.2v-1.9c0-1.1,0.3-1.9,0.9-2.5c0.6-0.6,1.4-0.9,2.4-0.9C-404.8-338.6-404.1-338.6-403.7-338.5z"/>
</g>
<g>
	<path class="st38" d="M-380.7-316.1c0.1,0.4-0.3,1.2-1.3,2.5c-0.1,0.2-0.3,0.4-0.6,0.7c-0.2,0.3-0.4,0.5-0.5,0.6
		c-0.1,0.1-0.2,0.3-0.3,0.4c-0.1,0.2-0.1,0.3-0.1,0.4c0,0.1,0.1,0.2,0.1,0.3c0.1,0.1,0.1,0.2,0.3,0.4c0.1,0.1,0.3,0.3,0.5,0.5
		c0,0,0,0,0,0c0.8,0.8,1.4,1.4,1.6,1.9c0,0,0,0.1,0.1,0.1c0,0,0,0.1,0.1,0.2c0,0.1,0,0.2,0,0.3c0,0.1-0.1,0.2-0.2,0.2
		c-0.1,0.1-0.3,0.1-0.5,0.1l-2.2,0c-0.1,0-0.3,0-0.5,0c-0.2-0.1-0.3-0.1-0.4-0.2l-0.2-0.1c-0.2-0.1-0.4-0.3-0.6-0.6
		c-0.2-0.2-0.4-0.5-0.6-0.7c-0.2-0.2-0.3-0.4-0.5-0.5c-0.2-0.1-0.3-0.2-0.5-0.1c0,0,0,0-0.1,0c0,0-0.1,0.1-0.1,0.1
		c-0.1,0.1-0.1,0.2-0.2,0.3c-0.1,0.1-0.1,0.3-0.1,0.4c0,0.2-0.1,0.4-0.1,0.7c0,0.1,0,0.2,0,0.2c0,0.1,0,0.1-0.1,0.2l0,0
		c-0.1,0.1-0.3,0.2-0.5,0.2h-1c-0.4,0-0.8,0-1.3-0.1c-0.4-0.1-0.8-0.3-1.1-0.5c-0.3-0.2-0.6-0.4-0.9-0.6c-0.3-0.2-0.5-0.4-0.6-0.5
		l-0.2-0.2c-0.1-0.1-0.1-0.1-0.2-0.3c-0.1-0.1-0.3-0.4-0.6-0.8c-0.3-0.4-0.6-0.8-0.9-1.3c-0.3-0.5-0.7-1.1-1.1-1.8
		c-0.4-0.8-0.8-1.5-1.1-2.3c0-0.1-0.1-0.2-0.1-0.2c0-0.1,0-0.1,0-0.1l0-0.1c0.1-0.1,0.3-0.2,0.5-0.2l2.4,0c0.1,0,0.1,0,0.2,0.1
		c0.1,0,0.1,0.1,0.1,0.1l0,0c0.1,0.1,0.2,0.2,0.2,0.3c0.1,0.3,0.2,0.6,0.4,0.9c0.1,0.3,0.3,0.5,0.4,0.7l0.1,0.3
		c0.2,0.3,0.3,0.6,0.5,0.9c0.2,0.3,0.3,0.5,0.4,0.6s0.2,0.3,0.4,0.3c0.1,0.1,0.2,0.1,0.3,0.1s0.2,0,0.2,0c0,0,0,0,0,0
		s0.1-0.1,0.1-0.2c0.1-0.1,0.1-0.2,0.1-0.4c0-0.2,0.1-0.4,0.1-0.7c0-0.3,0-0.7,0-1.1c0-0.2,0-0.4-0.1-0.6c0-0.2-0.1-0.3-0.1-0.4
		l-0.1-0.1c-0.1-0.2-0.4-0.3-0.7-0.4c-0.1,0-0.1-0.1,0-0.2c0.1-0.1,0.2-0.2,0.3-0.3c0.3-0.1,1-0.2,2.1-0.2c0.5,0,0.9,0,1.2,0.1
		c0.1,0,0.2,0.1,0.3,0.1c0.1,0,0.1,0.1,0.2,0.2c0,0.1,0.1,0.2,0.1,0.3c0,0.1,0,0.2,0,0.4c0,0.2,0,0.3,0,0.5c0,0.1,0,0.4,0,0.6
		c0,0.3,0,0.5,0,0.7c0,0.1,0,0.2,0,0.4c0,0.2,0,0.3,0,0.4c0,0.1,0,0.2,0,0.3c0,0.1,0.1,0.2,0.1,0.3c0,0.1,0.1,0.2,0.2,0.2
		c0,0,0.1,0,0.1,0s0.1,0,0.2-0.1c0.1-0.1,0.2-0.2,0.3-0.3c0.1-0.1,0.3-0.3,0.4-0.6c0.2-0.3,0.4-0.6,0.6-0.9c0.3-0.6,0.7-1.2,0.9-1.9
		c0-0.1,0.1-0.1,0.1-0.2c0,0,0.1-0.1,0.1-0.1l0,0c0,0,0,0,0,0c0,0,0.1,0,0.1,0c0.1,0,0.1,0,0.2,0l2.5,0c0.2,0,0.4,0,0.6,0
		C-380.9-316.3-380.8-316.2-380.7-316.1L-380.7-316.1z"/>
</g>
<g>
	<path class="st39" d="M-360.7-312.3c0.1,0.2,0.1,0.3,0.1,0.4c0,0.1,0,0.2,0,0.3c0,0.1-0.1,0.2-0.2,0.3c-0.1,0.1-0.2,0.2-0.4,0.3
		c-0.1,0.1-0.3,0.2-0.5,0.4c-0.7,0.4-1.6,0.7-2.7,0.8l0.6,0.6l2.3,2.3c0.2,0.2,0.3,0.4,0.3,0.6c0,0.2-0.1,0.5-0.3,0.6l-0.1,0.1
		c-0.2,0.2-0.4,0.3-0.6,0.3c-0.2,0-0.5-0.1-0.6-0.3c-0.4-0.4-1.2-1.2-2.3-2.3l-2.3,2.3c-0.2,0.2-0.4,0.3-0.6,0.3
		c-0.2,0-0.5-0.1-0.6-0.3l-0.1-0.1c-0.2-0.2-0.3-0.4-0.3-0.6c0-0.2,0.1-0.5,0.3-0.6l2.3-2.3l0.6-0.6c-1.2-0.1-2.1-0.4-2.7-0.8
		c-0.2-0.1-0.4-0.3-0.5-0.4c-0.1-0.1-0.3-0.2-0.4-0.3c-0.1-0.1-0.2-0.2-0.2-0.3c0-0.1-0.1-0.2,0-0.3c0-0.1,0.1-0.3,0.1-0.4
		c0.1-0.1,0.1-0.2,0.2-0.3c0.1-0.1,0.2-0.1,0.4-0.2c0.1,0,0.3,0,0.5,0c0.2,0.1,0.4,0.2,0.6,0.3c0,0,0.1,0.1,0.1,0.1
		c0.1,0,0.2,0.1,0.4,0.2c0.2,0.1,0.4,0.2,0.6,0.3c0.2,0.1,0.5,0.1,0.8,0.2s0.6,0.1,1,0.1c0.5,0,1-0.1,1.5-0.2c0.5-0.1,0.8-0.3,1-0.4
		l0.3-0.2c0.2-0.1,0.4-0.3,0.6-0.3c0.2-0.1,0.3-0.1,0.5,0s0.3,0.1,0.4,0.2C-360.9-312.5-360.8-312.4-360.7-312.3z M-362.5-313.9
		c-0.8,0.8-1.7,1.1-2.8,1.1c-1.1,0-2-0.4-2.8-1.1c-0.8-0.8-1.1-1.7-1.1-2.8c0-1.1,0.4-2,1.1-2.8c0.8-0.8,1.7-1.1,2.8-1.1
		c1.1,0,2,0.4,2.8,1.1c0.8,0.8,1.1,1.7,1.1,2.8C-361.3-315.6-361.7-314.7-362.5-313.9z M-363.9-318c-0.4-0.4-0.8-0.6-1.4-0.6
		c-0.5,0-1,0.2-1.4,0.6c-0.4,0.4-0.6,0.8-0.6,1.4c0,0.5,0.2,1,0.6,1.4c0.4,0.4,0.8,0.6,1.4,0.6c0.5,0,1-0.2,1.4-0.6
		c0.4-0.4,0.6-0.8,0.6-1.4C-363.3-317.2-363.5-317.6-363.9-318z"/>
</g>
<g>
	<path class="st40" d="M-403.7-319.2v2.3h-1.4c-0.5,0-0.8,0.1-1,0.3c-0.2,0.2-0.3,0.5-0.3,0.9v1.6h2.5l-0.3,2.6h-2.2v6.5h-2.6v-6.5
		h-2.2v-2.6h2.2v-1.9c0-1.1,0.3-1.9,0.9-2.5c0.6-0.6,1.4-0.9,2.4-0.9C-404.8-319.3-404.1-319.3-403.7-319.2z"/>
</g>
<path class="st35" d="M-300.4-303.6c-0.4,0-0.8,0-1.2-0.2c-1.6-0.4-5.6-4.5-6-6c-0.1-0.4-0.2-0.7-0.2-1.1"/>
<path class="st35" d="M-303.5-318.9c2.2-2.4,4.5-4.2,4.8-4.4c5.6-4,13.4-5.6,16-5.4c0.3,2.5-1.3,10.4-5.3,16c-0.3,0.4-2,2.6-4.4,4.8
	"/>
<path class="st35" d="M-291.6-315.9c-1.1,1.7-3.5,1.7-4.6,0c-0.6-0.9-0.6-2.2,0-3.1c1.1-1.7,3.5-1.7,4.6,0
	C-291-318.1-291-316.9-291.6-315.9z"/>
<circle class="st35" cx="-289.1" cy="-322.3" r="1.7"/>
<path class="st35" d="M-307.7-311l-7.3-1.5l3.7-3.7c2.3-2.3,5.5-3.2,8.6-2.6l2.3,0.5L-307.7-311z"/>
<path class="st35" d="M-300.4-303.7l1.5,7.3l3.7-3.7c2.3-2.3,3.2-5.5,2.6-8.6l-0.5-2.3L-300.4-303.7z"/>
<line class="st35" x1="-297.7" y1="-313.8" x2="-309" y2="-302.5"/>
<g>
	<path class="st10" d="M-228.8-315.4c-0.1-0.3-0.2-0.6-0.4-0.9c0,0,0,0,0-0.1c-0.2-0.3-0.3-0.5-0.5-0.8c0,0,0-0.1-0.1-0.1
		c-0.2-0.2-0.4-0.5-0.7-0.6c0,0-0.1-0.1-0.1-0.1c-0.3-0.2-0.5-0.4-0.8-0.5c0,0,0,0,0,0c0,0,0,0,0,0c-0.3-0.1-0.6-0.3-0.9-0.4
		c0,0-0.1,0-0.1,0c-0.3-0.1-0.6-0.1-0.9-0.2c0,0-0.1,0-0.1,0c-0.3,0-0.6,0-0.9,0c0,0,0,0-0.1,0c-0.3,0-0.7,0.1-1,0.2
		c-1.4,0.4-2.5,1.4-3.1,2.6c-0.7,1.3-0.8,2.7-0.4,4.1l0,0c0.1,0.3,0.2,0.6,0.4,0.9c0.1,0.1,0.1,0.2,0.2,0.3c0.1,0.2,0.2,0.3,0.3,0.5
		c0.1,0.1,0.2,0.2,0.3,0.3c0.1,0.1,0.3,0.3,0.4,0.4c0.1,0.1,0.2,0.2,0.3,0.3c0.2,0.1,0.4,0.3,0.6,0.4c0.1,0,0.1,0.1,0.2,0.1
		c0,0,0,0,0.1,0c0,0,0,0,0,0c0.2,0.1,0.4,0.2,0.7,0.3c0,0,0.1,0,0.2,0c0.2,0.1,0.4,0.1,0.6,0.2c0,0,0.1,0,0.1,0
		c0.3,0,0.5,0.1,0.8,0.1c0.5,0,1.1-0.1,1.6-0.2c1.4-0.4,2.5-1.4,3.1-2.6C-228.5-312.6-228.3-314-228.8-315.4L-228.8-315.4z
		 M-232.9-310.6c-1.3,0.4-2.6,0-3.5-1c0,0-0.1,0-0.1-0.1c-0.1-0.1-0.2-0.3-0.3-0.4c0-0.1-0.1-0.1-0.1-0.1c-0.1-0.2-0.2-0.3-0.2-0.5
		c0,0,0-0.1,0-0.1c-0.3-0.9-0.2-1.8,0.2-2.6c0.4-0.8,1.1-1.4,2-1.6c0.2-0.1,0.4-0.1,0.7-0.1c0,0,0.1,0,0.1,0
		c1.1-0.1,2.1,0.4,2.8,1.2c0,0,0,0,0,0c0.1,0.1,0.2,0.3,0.3,0.5c0,0,0,0.1,0.1,0.1c0.1,0.2,0.2,0.4,0.3,0.6l0,0l0,0
		c0,0.1,0.1,0.3,0.1,0.4c0.1,0.7,0,1.5-0.3,2.1C-231.3-311.4-232-310.9-232.9-310.6z"/>
	<path class="st10" d="M-214.6-312.5c-1.6-1.9-3.6-3.7-5.9-5.5c2.9-8.9,2.5-16.3-1.5-18.4l0,0l0,0c-2.9-1.5-6.9,0-11.1,3.8
		c-1.7,1.5-3.3,3.3-4.9,5.4c-0.3-0.1-0.5-0.2-0.8-0.2c-0.4-0.1-0.9-0.3-1.3-0.4c-0.2-0.1-0.4-0.1-0.6-0.2c-0.5-0.1-1-0.3-1.5-0.4
		c-0.1,0-0.2,0-0.3-0.1c-0.6-0.1-1.2-0.2-1.8-0.3c0,0,0,0,0,0c-0.5-0.1-1-0.2-1.4-0.2c-5.4-0.6-9.1,0.6-10.5,3.3
		c-1.4,2.7-0.3,6.4,3.3,10.5c1.6,1.9,3.6,3.7,5.9,5.5c-2.9,8.9-2.5,16.3,1.5,18.4l0,0l0,0c0.7,0.4,1.5,0.6,2.4,0.6
		c1,0,2.1-0.3,3.3-0.7c0.3-0.1,0.6-0.3,0.9-0.4c0.1,0,0.2-0.1,0.2-0.1c2.9-1.6,6.1-4.5,9.2-8.5c0.3,0.1,0.6,0.2,0.9,0.3
		c0.2,0.1,0.4,0.1,0.6,0.2c2.2,0.6,4.4,1.1,6.4,1.3c0.9,0.1,1.8,0.1,2.6,0.1c4,0,6.8-1.2,8-3.4
		C-209.9-304.6-211.1-308.3-214.6-312.5z M-222.2-319.2c-2.1-1.5-4.3-2.8-6.7-4.1c-0.1-0.1-0.2-0.1-0.3-0.2c-0.6-0.3-1.3-0.7-1.9-1
		c-0.4-0.2-0.7-0.3-1.1-0.5c-0.4-0.2-0.8-0.4-1.2-0.5c-0.4-0.2-0.8-0.3-1.1-0.5c-0.4-0.2-0.8-0.3-1.1-0.4c-0.1,0-0.2-0.1-0.4-0.1
		c2.1-2.6,4.2-4.7,6.1-6.1c2.9-2.1,5.4-2.8,7-2C-220.2-333.1-219.7-327.2-222.2-319.2z M-230.4-302.8c-1.1-0.4-2.1-0.8-3.2-1.3
		c-0.1,0-0.1-0.1-0.2-0.1c-0.6-0.3-1.3-0.6-1.9-0.9c-0.7-0.3-1.4-0.7-2.2-1.1c-2.5-1.3-4.8-2.8-6.9-4.3c0.9-2.4,1.9-4.9,3.3-7.5
		c1.4-2.6,2.8-4.9,4.3-6.9c1.7,0.6,3.5,1.4,5.3,2.2c0.6,0.3,1.1,0.5,1.7,0.8c0.2,0.1,0.3,0.2,0.5,0.2l0,0l0,0
		c2.5,1.3,4.8,2.8,6.9,4.3c-0.9,2.4-1.9,4.9-3.3,7.5C-227.5-307.1-229-304.8-230.4-302.8z M-251.6-316.4c-2.9-3.4-4-6.4-3-8.3
		c0.1-0.2,0.3-0.5,0.5-0.7c0.1-0.1,0.2-0.2,0.3-0.3c0.1-0.1,0.2-0.2,0.3-0.3c0.1-0.1,0.2-0.1,0.4-0.2c0.2-0.1,0.3-0.2,0.5-0.3
		c0,0,0.1,0,0.1,0c1.5-0.6,3.8-0.8,6.5-0.5c2.1,0.2,4.4,0.7,6.8,1.5c-1.4,2-2.8,4.3-4.1,6.7c-1.3,2.4-2.3,4.8-3.2,7.1
		C-248.5-313.2-250.2-314.8-251.6-316.4z M-245.5-308.4c2.1,1.5,4.3,2.8,6.7,4.1c0.8,0.4,1.7,0.8,2.5,1.2c0.3,0.1,0.6,0.3,0.8,0.4
		c0.5,0.2,1.1,0.5,1.6,0.7c0.3,0.1,0.6,0.3,0.9,0.4c0.4,0.2,0.8,0.3,1.3,0.5c-1.2,1.5-2.4,2.9-3.6,4c-3.9,3.7-7.5,5.2-9.5,4.1
		C-247.5-294.4-248-300.4-245.5-308.4z M-213.6-302.2c-0.1,0.1-0.3,0.3-0.5,0.4c-0.1,0.1-0.1,0.1-0.2,0.2c-0.1,0.1-0.3,0.2-0.4,0.2
		c-0.1,0.1-0.3,0.2-0.4,0.2c0,0-0.1,0-0.1,0c-1.5,0.6-3.7,0.8-6.4,0.5c-2.1-0.2-4.4-0.7-6.8-1.5c1.4-2,2.8-4.2,4.1-6.7
		c1.3-2.4,2.3-4.8,3.2-7.1c2,1.6,3.7,3.2,5.1,4.8c2.9,3.4,4,6.4,3,8.3C-213.2-302.6-213.4-302.4-213.6-302.2z"/>
</g>
</svg>
