<?xml version="1.0" encoding="utf-8"?>
<!-- Generator: Adobe Illustrator 19.1.1, SVG Export Plug-In . SVG Version: 6.00 Build 0)  -->
<svg version="1.1" id="Слой_1" xmlns="http://www.w3.org/2000/svg" xmlns:xlink="http://www.w3.org/1999/xlink" x="0px" y="0px"
	 viewBox="0 0 60 57.8" style="enable-background:new 0 0 60 57.8;" xml:space="preserve">
<style type="text/css">
	.st0{fill:#242424;}
	.st1{fill:#EF3B57;}
	.st2{fill:none;stroke:#F7F7F7;stroke-miterlimit:10;}
	.st3{fill:#EF3B57;stroke:#33499F;stroke-width:0.75;stroke-miterlimit:10;}
	.st4{fill:none;stroke:#242424;stroke-miterlimit:10;}
	.st5{fill:#F7F7F7;}
	.st6{fill:none;stroke:#ED1438;stroke-width:2;stroke-linecap:round;stroke-miterlimit:10;stroke-dasharray:2.012,4.023;}
	.st7{fill:#FFFFFF;}
	.st8{fill:none;stroke:#ED1438;stroke-width:4;stroke-miterlimit:10;}
	.st9{fill:none;stroke:#04A94D;stroke-width:3;stroke-linecap:round;stroke-linejoin:round;stroke-miterlimit:10;}
	.st10{fill:#04A94D;}
	.st11{fill:none;stroke:#04A94D;stroke-miterlimit:10;}
	.st12{fill:none;stroke:#04A94D;stroke-width:3;stroke-linejoin:round;stroke-miterlimit:10;}
	.st13{fill:none;stroke:#04A94D;stroke-width:2.485;stroke-linejoin:round;stroke-miterlimit:10;}
	.st14{fill:none;stroke:#04A94D;stroke-width:1.657;stroke-miterlimit:10;}
	.st15{fill:none;stroke:#04A94D;stroke-width:3;stroke-linejoin:bevel;stroke-miterlimit:10;}
	.st16{fill:none;stroke:#04A94D;stroke-width:3;stroke-miterlimit:10;}
	.st17{fill:none;stroke:#929497;stroke-width:0.5;stroke-miterlimit:10;}
	.st18{fill:none;stroke:#929497;stroke-width:0.5;stroke-miterlimit:10;stroke-dasharray:10.988,4.578;}
	.st19{fill:none;stroke:#929497;stroke-width:0.5;stroke-miterlimit:10;stroke-dasharray:10.399,10.399;}
	.st20{fill:none;stroke:#ED1438;stroke-width:2;stroke-miterlimit:10;}
	.st21{fill:none;stroke:#04A94D;stroke-width:1.699;stroke-miterlimit:10;}
	.st22{fill:none;stroke:#060E9F;stroke-width:2.725;stroke-miterlimit:10;}
	.st23{fill:none;stroke:#060E9F;stroke-width:1.09;stroke-miterlimit:10;}
	.st24{fill:none;stroke:#ED1438;stroke-width:3.736;stroke-miterlimit:10;}
	.st25{fill:none;stroke:#ED1438;stroke-width:3.736;stroke-miterlimit:10;stroke-dasharray:3.794,5.691;}
	.st26{fill:none;stroke:#ED1438;stroke-width:3.379;stroke-miterlimit:10;}
	.st27{fill:none;stroke:#ED1438;stroke-width:3.379;stroke-miterlimit:10;stroke-dasharray:3.431,5.147;}
	.st28{fill:none;stroke:#ED1438;stroke-width:3.568;stroke-miterlimit:10;}
	.st29{fill:none;stroke:#ED1438;stroke-width:3.568;stroke-miterlimit:10;stroke-dasharray:3.624,5.435;}
	.st30{fill:none;stroke:#ED1438;stroke-width:8.537;stroke-miterlimit:10;}
	.st31{fill:none;stroke:#ED1438;stroke-width:3.341;stroke-miterlimit:10;}
	.st32{fill:none;stroke:#ED1438;stroke-width:3.341;stroke-miterlimit:10;stroke-dasharray:3.3,4.95;}
	.st33{fill:none;stroke:#ED1438;stroke-width:3.236;stroke-miterlimit:10;}
	.st34{fill:none;stroke:#ED1438;stroke-width:3.236;stroke-miterlimit:10;stroke-dasharray:3.094,4.641;}
	.st35{fill:none;stroke:#04A94D;stroke-width:2;stroke-miterlimit:10;}
	.st36{fill:none;stroke:#04A94D;stroke-width:2;stroke-linejoin:bevel;stroke-miterlimit:10;}
	.st37{fill:none;stroke:#FFFFFF;stroke-width:2;stroke-miterlimit:10;}
	.st38{fill:#5B719A;}
	.st39{fill:#DB831C;}
	.st40{fill:#5266AB;}
</style>
<g>
	<rect x="-495.3" y="-139.3" class="st0" width="30.5" height="2"/>
	<rect x="-495.3" y="-119" class="st0" width="30.5" height="2"/>
	<rect x="-491.3" y="-129.2" class="st0" width="22.4" height="2"/>
</g>
<g>
	
		<rect x="-404.3" y="-129.3" transform="matrix(0.7071 -0.7071 0.7071 0.7071 -23.2263 -312.7065)" class="st0" width="30.5" height="2"/>
	
		<rect x="-404.3" y="-129.3" transform="matrix(-0.7071 -0.7071 0.7071 -0.7071 -573.4732 -494.1737)" class="st0" width="30.5" height="2"/>
</g>
<g>
	
		<rect x="-373.3" y="-129.3" transform="matrix(0.7071 -0.7071 0.7071 0.7071 -14.1466 -290.7862)" class="st1" width="30.5" height="2"/>
	
		<rect x="-373.3" y="-129.3" transform="matrix(-0.7071 -0.7071 0.7071 -0.7071 -520.5529 -472.2534)" class="st1" width="30.5" height="2"/>
</g>
<g>
	
		<rect x="-121.3" y="-102.6" transform="matrix(0.7071 -0.7071 0.7071 0.7071 38.8601 -110.3587)" class="st1" width="14.9" height="1"/>
	
		<rect x="-121.3" y="-102.6" transform="matrix(-0.7071 -0.7071 0.7071 -0.7071 -122.0557 -254.7323)" class="st1" width="14.9" height="1"/>
</g>
<g>
	<rect x="-454.3" y="-139.3" class="st1" width="30.5" height="2"/>
	<rect x="-454.3" y="-119" class="st1" width="30.5" height="2"/>
	<rect x="-450.3" y="-129.2" class="st1" width="22.4" height="2"/>
</g>
<g>
	<path class="st2" d="M-455.6-94.2c0-4.3-4.1-7.7-9.2-7.7s-9.2,3.5-9.2,7.7v14.5c0,4.3,4.1,7.7,9.2,7.7s9.2-3.5,9.2-7.7V-94.2z"/>
	<line class="st2" x1="-464.8" y1="-97" x2="-464.8" y2="-87.5"/>
</g>
<g>
	<path class="st1" d="M-462.8,19c-7.8,0-14.1-6.4-14.1-14.4s6.3-14.4,14.1-14.4s14.1,6.4,14.1,14.4S-455.1,19-462.8,19z M-462.8-9
		c-7.3,0-13.3,6.1-13.3,13.6s6,13.6,13.3,13.6s13.3-6.1,13.3-13.6S-455.5-9-462.8-9z"/>
	<path class="st1" d="M-462.8,49.4l-19.8-23c-3-3.2-5.1-6.5-6.4-10.1c-1.4-3.9-1.9-7.7-1.6-11.3c0.9-13.1,11.5-26.7,27.8-26.7
		c7.5,0,14.5,3,19.7,8.4c4.7,5,7.7,11.6,8.1,18.3c0.3,3.6-0.3,7.5-1.6,11.3c-1.3,3.7-3.5,7-6.5,10.1L-462.8,49.4z M-462.8-21
		c-15.8,0-26.1,13.2-27,26.1c-0.3,3.5,0.2,7.1,1.6,10.9c1.3,3.5,3.3,6.8,6.2,9.9l19.2,22.4l19.1-22.4c3-3.1,5-6.3,6.3-9.9l0,0
		c1.3-3.6,1.9-7.4,1.6-10.9C-436.8-11.2-450.3-21-462.8-21z"/>
</g>
<g>
	<path class="st1" d="M-253.9,38.7c-0.2,0-0.5-0.1-0.6-0.4c-0.2-0.2-0.2-0.5-0.1-0.7c0.4-0.8,0.2-1.7-0.5-2.5
		c-0.2-0.2-0.2-0.4-0.2-0.6c0-0.4,0.4-0.7,0.8-1c0.3-0.2,0.6-0.2,1-0.2c0.1,0,0.1,0,0.2,0c0.3-1.9,0.1-3.3-0.4-4.1
		c-0.1-0.2-0.2-0.4-0.2-0.5c0,0,0-0.1-0.1-0.2c-0.4,0.1-0.6,0.1-0.8,0.2c-0.3,0.1-0.5,0.2-1.1,0.1c0.2,0.3,0.5,0.6,0.3,0.9
		c-0.2,0.3-0.6,0.4-0.9,0.4c-0.2,0-0.4,0-0.7,0c-1.9-0.2-3.1-0.7-3.9-1.5c0-0.1-0.1-0.1-0.2-0.3c-0.6-0.7-2.2-2.7-3.7-2.7
		c-0.8,0-1.4,0.6-1.9,1.8c0,0.1,0.2,0.2,0.3,0.2c0.2,0.1,0.4,0.3,0.5,0.5c0,0.1,0,0.3-0.1,0.4c-0.4,0.4-0.4,1-0.3,1.5
		c0,0.5,0,1-0.3,1.3c-0.7,0.8-1.6,1.2-2.5,1.2c-0.6,0-1.2-0.2-1.6-0.3c-0.2-0.1-0.5-0.1-0.6-0.1c-0.8,0.8-2.9,1.9-4.4,1.9
		c-0.9,0-1.5-0.4-1.7-1.2c-0.2,0-0.5,0-0.7-0.1c-0.4-0.3-0.9-0.2-1.4,0c-0.3,0.1-0.7,0.2-1.1,0.2c-0.5,0-0.8-0.1-1.2-0.5
		c-0.9-0.9-1.2-1.3-1.2-1.6c-0.3-0.2-0.8-0.4-1.6-0.8c-0.1,0.1-0.1,0.3-0.3,0.4c-0.2,0.2-0.2,0.4-0.1,0.7c0.1,0.4,0.1,0.9-0.4,1.3
		c-0.3,0.2-0.6,0.4-1,0.4c-1.2,0-2.5-1.3-2.8-1.5c-0.2-0.2-0.7-0.3-1.3-0.3c-1.3,0-3,0.5-3.7,0.9c-0.1,0.1-0.3,0.1-0.5,0.1
		c-1,0-2.4-1.2-2.8-2c-0.1-0.2-0.1-0.4-0.2-0.6c-0.2-0.6-0.2-0.8-0.5-0.8c-1.2-0.1-1.4-0.4-1.6-0.7c-0.1-0.1-0.1-0.2-0.3-0.3
		c0,0-0.1,0.1-0.1,0.1c-0.2,0.2-0.3,0.3-0.5,0.3h-0.3l-0.1-0.3c-0.2-0.9-0.3-1.7-0.3-2.5c-0.1-1.2-0.1-2.2-0.7-3
		c0,0-0.2,0.1-0.3,0.2c-0.3,0.2-0.7,0.5-1.1,0.5c-0.4,0-0.7-0.2-1.1-0.6c-0.1-0.2-0.3-0.3-0.2-0.5l0.1-0.2l0.3-0.1c0,0,0,0,0.1,0
		c0-0.1,0-0.1,0-0.2c-0.1,0-0.3,0-0.5-0.1l-0.2-0.1l-0.1-0.2c0-0.1,0-0.2,0-0.3c-0.1,0-0.1-0.1-0.2-0.1c-0.2-0.1-0.7-0.3-0.6-0.9
		c0-0.3,0.2-0.5,0.4-0.8c0-0.1,0.1-0.1,0.2-0.2c-0.1-0.1-0.2-0.2-0.3-0.3c-0.2-0.3-0.3-0.4-0.5-0.3c-1.3,0.4-4.9-1-6.1-1.9
		c-0.1,0.2-0.1,0.3-0.1,0.4c-0.2,0.6-0.4,0.9-1.3,1.2c-0.2,0.1-0.4,0.1-0.6,0.1c0.1,0,0.2,0.1,0.3,0.3c0.2,0.6,0.1,1,0,1.2
		c-0.2,0.3-0.6,0.5-1,0.5c-0.6,0-1.4-0.3-1.8-0.8c-0.1-0.2-0.2-0.3-0.3-0.5c-0.4-0.6-0.8-1.3-2.2-1.9c-0.1,0-0.6-0.4-0.9-0.7
		c-0.4-0.5-0.2-1,0-1.2c0.2-0.3,0.2-0.4,0.1-0.7c-0.3-0.6-0.8-1.2-1-1.5l-0.1-0.1c-0.1-0.2-1-0.4-1.8-0.4c-0.3,0-0.4,0-0.5,0
		c-0.3,0.1-0.5,0.2-0.6,0.2c-0.1,0-0.2,0.1-0.2,0.1h-0.2l-0.2-0.3l0-0.2c0-0.1,0-0.2-0.1-0.6c-0.2,0.1-0.5,0.3-1.2,0.8
		c-0.2,0.2-0.6,0.2-0.9,0.2c0,0-0.1,0-0.1,0c0.1,0.3,0.1,0.5-0.1,0.8c0.2,0.1,0.3,0.2,0.4,0.5c0.1,0.6-0.1,1.7-0.5,2.1
		c-0.1,0.1-0.2,0.2-0.4,0.3c0,0.1,0,0.2,0,0.3c-0.1,0.2-0.2,0.3-0.4,0.4c-0.5,0.2-0.8,0.3-1,0.3c-0.5,0-0.6-0.5-0.6-0.6
		c0-0.1,0-0.2-0.1-0.3c0,0-0.1,0-0.2,0c-0.3,0-0.6,0.1-0.9,0.4l-0.1,0.1l-0.2,0c-0.1,0-0.3-0.1-0.4-0.1c0,0,0,0.1,0,0.1
		c0,0.1,0,0.2,0,0.3c0.1,0.1,0.2,0.1,0.3,0.3l0.1,0.2l-0.1,0.2c-0.2,0.3-0.5,0.3-0.7,0.4c-0.1,0-0.2,0-0.2,0.1
		c-0.1,0.2-0.2,0.5-0.2,0.9c-0.1,0.7-0.3,1.4-0.9,1.8c-0.6,0.4-1.1,0.3-1.5-0.1c-0.8-0.9-0.5-3.5-0.5-3.5c0.1-0.7-0.2-1.2-0.5-1.9
		c-0.2-0.3-0.4-0.7-0.5-1.1c-0.3-0.8-0.8-1.5-1.3-2.2l-0.3-0.4c-0.6-0.9-0.4-1.8-0.2-2.7c0.1-0.4,0.1-0.8,0.2-1.1c0-0.1,0-0.3,0-0.4
		c0-0.1,0-0.2,0-0.3c0,0-0.1-0.3-0.5-0.6c-1.1-0.7-2.3-1.6-1.7-2.5c0.3-0.4,0.3-0.6,0.3-0.8c0-0.3,0.1-0.5,0.4-0.9
		c0.1-0.1,0.3-0.3,0.6-0.3c0.6,0,1.8,0.5,2,0.9c0.3,0.8,0.2,1.1,0,1.4c-0.1,0.1-0.2,0.3-0.2,0.6c-0.1,1,1.6,1.6,2.5,1.9
		c0,0,0,0,0.1,0c0-0.3,0-0.6,0.3-0.8c0.1-0.1,0.3-0.2,0.5-0.2c0.5,0,1.1,0.4,2,1.1c0,0,0.2-0.1,0.2-0.3c0,0,0,0,0-0.1
		c0-0.1-0.1-0.3,0.1-0.4c0.1-0.2,0.4-0.2,0.9-0.3c0.2,0,0.4,0,0.5,0c-0.3-0.3-0.8-0.9-0.6-1.7c0.1-0.2,0.1-0.3,0.2-0.4
		c0-0.1,0.1-0.2,0.1-0.2c-1.6-2.3-0.5-3.4,0.2-4.1c0.4-0.4,0.5-0.6,0.5-0.8c0,0-0.1-0.1-0.2-0.1c-0.2-0.1-0.5-0.2-0.6-0.6
		c-0.3-0.6,0.3-0.9,0.5-1.1l0.1-0.1c0.6-0.4,0.8-0.5,1-0.5c0.2,0,0.4,0.1,0.4,0.4c0,0.1,0.1,0.2,0.3,0.3c0-0.1,0.1-0.2,0.1-0.4
		c0.1-0.3,0.1-0.7,0.3-1c0.2-0.3,0.5-0.6,0.8-0.9c0.4-0.4,0.7-0.7,0.6-0.9c-0.1-0.3,0.1-0.5,0.2-0.6c0,0,0,0,0-0.1
		c-0.1-0.3-0.4-0.7,0-1.2c0.4-0.5,1.3-1.2,2-1.5l0.3-0.1c1-0.4,1.7-0.7,2.9-0.3c0.4,0.1,0.6,0.3,0.8,0.5c0-0.1,0-0.2,0-0.3
		c0-0.7,0-0.8,0.1-0.9c0.2-0.2,0.5-0.3,0.8-0.3c0.6,0,1.1,0.4,1.7,0.8c0.7,0.5,1.4,1,2,0.7c0.5-0.2,0.6-0.3,0.8-0.6
		c0.1-0.2,0.3-0.4,0.6-0.7c0.9-0.8,4-1.8,4.7-2.1c0,0,0-0.2,0-0.3c0-0.3,0.1-0.7,0.5-0.9c0.3-0.1,0.6-0.2,0.9-0.2
		c0.8,0,1.8,0.3,2.3,1c0.3,0.4,0.4,0.9,0.2,1.4c-0.1,0.3-0.2,0.4-0.3,0.4c0,0,0,0.1,0,0.1c0.4,1.8,0.1,3.5-0.6,4.4
		c-0.8,1-2.1,1.1-2.9,0.2c-0.6-0.7-0.9-1.9-0.8-3.4c-0.1,0.2-0.3,0.4-0.4,0.5c-0.5,0.7-1,1.4-1.5,1.8c-0.1,0.1-0.2,0.3-0.2,0.7
		c0,0.3,0,0.5,0.1,0.6c0,0,0.1-0.1,0.2-0.2c0,0,0-0.1,0.1-0.2c0.1-0.3,0.1-0.7,0.5-1c0.4-0.3,0.9-0.1,1.2,0.4c0.2,0.5,0,0.9-0.1,1.2
		c0,0.1-0.1,0.2-0.1,0.3c0,0,0,0,0,0c0.1-0.2,0.2-0.3,0.3-0.3c0.3-0.1,0.5-0.2,0.7-0.2c0.7,0,1,0.4,1.3,0.8c0.2,0.3,0.4,0.5,0.6,0.5
		c0.3,0,0.8-0.2,1.9-1.3c0,0,0.1-0.2,0.1-0.3c0.1-0.3,0.2-0.6,0.6-0.6h0.1l0.1,0.1c0.9,0.5,1.3,1,1.2,1.5c-0.1,0.8-1.2,1.3-1.7,1.4
		c-0.2,0.1-0.4,0.3-0.4,0.5c0.1,0,0.3-0.1,0.5-0.2c0.3-0.2,0.5-0.1,0.6,0l0.2,0c0.2,0,0.4,0.1,0.5,0.3c0,0,0,0.1,0.2,0.1
		c2.4,0.4,2.5,0.4,2.6,0.8c0.1,0.2-0.1,0.4-0.1,0.5c0.1,0.1,0.5,0.4,1.9,1c0.2,0.1,0.3,0.3,0.3,0.5c0-0.1,0-0.2,0.1-0.3
		c0-0.4,0.1-1.1,0.9-1.1c0,0,0,0,0,0c0.5,0,0.6,0.5,1,2c0.2,0.8,0.6,2.4,0.9,2.6c0,0,0,0,0,0c-0.2-0.8,0.2-1.9,1-2.1l0.1-0.4
		l-0.2,0.3c-0.1-0.1-0.3-0.3-0.2-0.6c0.2-0.7,2.2-2.7,3.3-2.7c0.4,0,0.7,0.2,0.8,0.7c0.1,0.4-0.1,0.6-1.4,1.9l-0.3,0.3
		c-0.4,0.4-0.8,1.3-1.2,2.2c-0.6,1.4-1.3,3-2.4,3.6c0.1,0.1,0.3,0.2,0.4,0.3c0,0,0.1,0,0.1,0c0.5,0,1.3-0.6,1.4-0.9
		c0.2-0.2,0.4-0.6,0.8-0.6c0.2,0,0.5,0.1,0.8,0.3c0.3,0.2,0.5,0.2,0.5,0.2c0,0,0-0.1,0-0.1c0-0.1,0-0.3-0.8-0.9
		c-1.1-0.9-0.2-2.4,0.6-3.7l0.1-0.1c0.2-0.4,0.4-0.6,0.4-0.7c0.2-0.4,0.3-0.5,1-1.1c0,0,0.2-0.2,0.3-0.2h0.2l0.1,0.1
		c0.2,0.2,0.1,0.5,0,1.1c-0.1,0.3-0.2,1-0.1,1.3c0.1-0.1,0.3-0.3,0.3-0.5c-0.1-0.2-0.1-0.4-0.1-0.6c0.1-0.2,0.3-0.3,0.4-0.3
		c0.1,0,0.3,0,0.5,0.3c0.4,0.5,0.6,0.8,0.8,0.9c0,0,0,0,0-0.1c0-0.1-0.1-0.3-0.2-0.4c-0.1-0.2-0.3-0.4-0.2-0.7
		c0-0.2,0.1-0.4,0.4-0.5c0.5-0.3,1.5-0.7,2.1-0.9c0.2-0.1,0.3-0.1,0.3-0.1c0.4-0.2,0.8-0.4,1.2-0.6c0.8-0.4,1.5-0.8,2.4-0.8
		c0.2,0,0.4,0,0.7,0.1c0.4,0.1,0.5,0.3,0.5,0.5c0,0,0,0,0,0c0-0.1,0.1-0.2,0.1-0.2c0.1-0.3,0.5-0.3,0.8-0.2c0-0.1,0-0.2,0.1-0.3
		c0.2-0.7,0.3-1,1-1.4l0.2,0c0.4,0,4.1,1.9,4.2,3.2c0,0.4-0.2,0.9-1.3,1.1c-0.3,0-0.5,0.2-0.7,0.7l-0.2,0.3
		c-0.2,0.3-0.5,0.8-0.6,1.1c0.3,0,0.7-0.1,0.7-0.1c0.1-0.1,0.1-0.2,0.2-0.5c0-0.3,0.1-0.7,0.5-1.1c0.1-0.1,0.2-0.1,0.4-0.1
		c0.3,0,0.6,0.1,0.7,0.3c0.1,0.1,0.1,0.3,0.1,0.6c0,0.1,0,0.2,0,0.4c0.1,0,0.2-0.1,0.3-0.2c0.3-0.1,0.5-0.3,0.8-0.3
		c0.2,0,0.5,0.1,0.8,0.5c0.1,0.2,0.9,0.1,1.1-0.1c0.1-0.1,0-0.4-0.1-0.5c-0.1-0.3-0.2-0.6,0-0.8c0.1-0.1,0.2-0.2,0.5-0.2
		c0.2,0,0.4,0,0.5,0c0.2,0,0.5,0,0.7,0c0.9,0,1.5,0.5,1.9,1.6c0.5,1.1,0.7,1.5,0.8,1.6c0.1-0.2,0.2-0.8,0.3-1.1
		c0.1-0.6,0.2-0.9,0.4-1c0.4-0.2,0.8,0,1.1,0.2c0.1,0.1,0.2,0.2,0.3,0.2c0,0,0.2-0.1,0.4-0.5c0.2-0.4,0-0.9-0.3-1.4
		c-0.1-0.1-0.1-0.2-0.2-0.3c-0.3,0-0.5-0.1-0.6-0.3c-0.3-0.5-0.5-0.8-0.6-1.3c0,0,0,0,0,0c-0.2,0.1-0.5,0.2-0.6,0.2
		c-0.8,0-1.4-0.7-1.4-1.4c0-0.4,0.2-0.8,0.9-1c-0.1-0.1-0.1-0.3,0-0.5l0.1-0.2L-269-7c0.3-0.1,0.6-0.1,0.9-0.1c0.7,0,1,0.3,1.1,0.5
		c0.2,0.5,0.1,1.1-0.5,1.9c0,0,0.1,0,0.1,0l0.2,0c1.7,0.5,1.8,0.6,1.9,0.8l0,0.1c1.1-0.4,2.4-0.6,3.1-0.3c0.3,0.1,0.5,0.2,0.6,0.3
		c0.1,0.1,0.3,0.1,0.3,0.1c0,0,0.1,0,0.3-0.3c0.9-1,2-1.4,3-1.8c0.9-0.3,1.6-0.6,1.9-1.2c0.1-0.1,0.1-0.2,0.2-0.4
		c0.2-0.3,0.3-0.4,0.1-0.7c-0.2-0.3-0.2-0.6,0-0.9c0.2-0.3,0.5-0.4,0.8-0.4c-0.2-0.3-0.3-0.6,0.1-1c0.4-0.4,0.6-0.7,0.9-1.1
		c0.6-0.9,1.3-1.8,3.1-2.9c0.6-0.4,1.8-0.5,2.6-0.7c0.1,0,0.2,0,0.3,0c-0.1-0.1-0.2-0.3-0.2-0.4c-0.1-0.7,0.1-1.4,0.6-1.9
		c0.4-0.4,0.9-0.7,1.4-0.7c0.3,0,0.7,0.1,0.8,0.7c0.2,0.9,0.8,1.5,1.2,1.9c0.3,0.3,0.6,0.6,0.4,0.9c-1,1.5-1.3,1.6-1.8,1.7
		c-0.1,0-0.3,0-0.6,0.2c-0.4,0.2-0.6,0.2-0.8,0.2c-0.1,0-0.2,0-0.4-0.1c0,0.2,0,0.5,0,0.7c0.2-0.2,0.5-0.3,0.9-0.1
		c0.6,0.3,0.6,0.4,0.8,0.9c0,0.1,0,0.2,0.1,0.4c0,0.2,0.1,0.4,0.1,0.5c0.3,0,0.7,0,1.2-0.1c0.8-0.1,1.4-0.1,1.6,0
		c0.3,0.1,0.4,0.4,0.5,0.6c0,0.2,0,0.4-0.2,0.5c-0.5,0.4-0.6,1.6-0.4,3.4c0,0.3,0.3,0.7,0.5,1.2c0.5,0.8,1,1.8,0.3,2.4
		c-0.9,0.8-0.9,1.1-1,1.7c0,0.3-0.1,0.6-0.2,1c-0.1,0.4-0.4,0.4-0.5,0.5c-0.2,0.9,0,2.5,0.2,3c0,0,0,0,0,0c0.1-0.2,0.2-0.6,0.7-0.6
		c0.3,0,0.6,0.2,1,0.7c0.1,0.1,0.4,0.2,0.6,0.3c0.4,0.1,0.8,0.2,0.9,0.6c0.1,0.2,0.1,0.4,0,0.7c-0.1,0.2-0.2,0.3-0.3,0.4
		c0.1,0.1,0.2,0.2,0.4,0.3c0.3,0.2,0.7,0.4,0.8,0.9c0.1,0.3,0,0.7-0.4,1.2c-0.1,0.1-0.1,0.1-0.1,0.1c0,0,0.2,0.1,0.3,0.2
		c0.4,0.2,0.8,0.5,0.9,1.1c0,0.3,0.3,0.9,0.5,1.5c0.6,1.6,1,2.7,0.6,3.3c-0.2,0.2-0.6,0.5-1.3,0.3c-6.7-1.7-6.7-4.2-6.8-6.1
		c0-0.5,0-0.9-0.1-1.3c-0.5-2-0.6-4.8-0.2-6.7c0-0.1-0.2-0.6-0.7-1.1c-0.3-0.3-0.6-0.5-0.7-0.5c0,0-0.1,0-0.1,0.1
		c0,0,0.1,0.1,0.1,0.1c0.5,0.5,1.3,1.4,0.7,3.8l-0.1,0.3l-0.3,0.1c-0.3,0-0.5-0.3-0.9-0.8c-0.1-0.1-0.2-0.2-0.3-0.3
		c-0.2,0.3-0.5,0.4-0.7,0.5c-0.1,0-0.1,0-0.1,0c-0.9,0.8-0.5,1.9,0.2,3.3c0.2-0.2,0.6-0.3,1,0c0.3,0.2,0.4,0.6,0.4,1.1
		c-0.1,0.5-0.3,1.1-0.7,1.3l0,0c-0.1,0.3-0.4,0.9-1.1,0.9c-0.2,0-0.4-0.1-0.6-0.2c-0.1-0.1-0.2-0.2-0.3-0.3l0,0l-0.2,0
		c-0.4,0.1-0.6,0-0.8,0c0,0,0,0,0,0c0,0,0,0,0.1,0.1c0.2,0.2,0.5,0.5,0.3,0.8c-0.1,0.3-0.5,0.3-0.8,0.2c-0.1,0-0.1-0.1-0.2-0.1
		c0,0,0,0-0.1,0.1c-0.1,0.1-0.3,0.3-0.8,0.6c-2.4,1.5-3.4,6.1-3.6,9c0.4-0.3,0.9-0.5,1.2-0.2c0.1,0.1,0.2,0.2,0.4,0.4
		c0.1,0.1,0.2,0.2,0.3,0.4c0,0,0-0.1,0-0.1c-0.1-0.3-0.1-0.6,0.1-0.9c0.2-0.3,0.5-0.4,1-0.4c0.4,0,0.9,0.1,1.4,0.2
		c0.3,0.1,0.6,0.1,0.8,0.2c0-0.2-0.2-0.7-0.4-1c-0.4-0.3-0.4-0.5-0.4-0.7c0.1-0.5,0.8-0.6,1-0.6c0.1,0,0.3,0,0.3,0.1
		c0.6,0.4,1,1.2,1.5,2c0.4,0.6,0.7,1.3,1.1,1.6c0.1,0.1,0.8,0.4,1.3,0.6c1.6,0.6,2.5,1,2.3,1.7c-0.2,0.6-0.7,0.6-1.1,0.7
		c-0.1,0-0.2,0-0.2,0c0,0.4,0.3,0.9,0.7,1.3c0.2,0.2,0.5,0.3,0.8,0.5c0.6,0.2,1.4,0.5,1.2,2c0,0.3-0.2,0.5-0.5,0.5
		c-0.3,0-0.6-0.2-0.9-0.3c-0.2-0.1-0.3-0.2-0.5-0.2c0,0,0,0-0.1,0c0,0.1,0,0.3,0,0.4c0,0.5,0,1.2-0.6,1.5l-0.1,0l-0.1,0
		c-0.6,0-1.2-1.2-2.7-4.8c-0.5-1.1-0.9-2.3-1.1-2.5c-0.1-0.1-0.1-0.1-0.1-0.2c0.1,0.8,0.4,1.5,0.8,2.3c1.1,2,1,6.8-0.3,9.9
		c-0.7,1.7-1.7,2.8-2.8,3.2l-0.1,0c-0.2,0-0.3-0.1-0.3-0.2c0,0-0.1,0.1-0.1,0.1c-0.1,0.1-0.1,0.3-0.2,0.4
		C-253.2,38.1-253.4,38.7-253.9,38.7L-253.9,38.7z M-254,34l-0.1,0c-0.2,0.1-0.5,0.4-0.5,0.5c0.9,1,1.1,2.3,0.6,3.3c0,0,0,0,0.1,0.1
		c0-0.1,0.1-0.3,0.1-0.4c0.1-0.2,0.2-0.5,0.3-0.7c0.1-0.1,0.1-0.1,0.3-0.4l0.3-0.4l0.2,0c0.3,0,0.4,0.2,0.4,0.4
		c0.9-0.4,1.6-1.7,2-2.6c1.2-3,1.4-7.5,0.4-9.3c-0.6-1.2-0.9-2.1-1-3.3c0-0.1,0-0.3,0.1-0.4l0.1-0.1l0.2,0c0.2,0,0.4,0.1,1.1,0.9
		c0.2,0.3,0.6,1.2,1.2,2.7c0.6,1.4,1.6,3.8,2,4.3c0.1-0.2,0.1-0.5,0.1-0.8c0-0.3,0-0.5,0.1-0.7c0.1-0.4,0.4-0.5,0.6-0.5
		c0.2,0,0.3,0.1,0.5,0.1c0.2,0.1,0.4,0.2,0.6,0.3c0.1,0.1,0.3,0.2,0.4,0.2c0.1-0.7-0.2-0.8-0.8-1c-0.3-0.1-0.7-0.3-1.1-0.6
		c-0.5-0.4-1-1.2-0.9-2c0-0.5,0.6-0.5,0.9-0.6c0.1,0,0.4,0,0.5-0.1c-0.3-0.2-1.3-0.6-1.8-0.9c-0.8-0.3-1.3-0.5-1.5-0.7
		c-0.5-0.4-0.8-1.1-1.2-1.8c-0.4-0.7-0.8-1.4-1.2-1.8c0,0-0.1,0-0.1,0c0.2,0.2,0.6,1.2,0.6,1.6c0,0.3-0.1,0.5-0.2,0.6
		c-0.3,0.2-0.8,0.1-1.4-0.1c-0.6-0.2-1.4-0.3-1.6-0.1c0,0,0,0.2,0.1,0.3c0.1,0.3,0.2,1-0.4,1.1l-0.1,0c-0.3,0-0.5-0.3-1-0.8
		c-0.1-0.1-0.2-0.2-0.2-0.3c-0.1,0-0.4,0.2-0.5,0.3c-0.2,0.2-0.4,0.3-0.6,0.3h-0.2l-0.2-0.1c-0.1-0.1-0.1-0.2-0.1-0.4
		c0.2-3.6,1.4-8.4,4-10c0.5-0.3,0.6-0.4,0.7-0.5c0.1-0.1,0.2-0.1,0.3-0.2c0.1,0,0.1-0.1,0.2-0.1c-0.1-0.2-0.1-0.4,0-0.6
		c0.1-0.2,0.3-0.5,0.6-0.5c0,0,0.1,0,0.1,0c0.1,0,0.2,0,0.3,0c0-0.3,0.2-0.4,0.3-0.4c0.1,0,0.1,0,0.2-0.1c0.2-0.1,0.5-0.3,0.7,0.3
		l0,0.2c0,0.2,0,0.3,0.1,0.3c0.1,0.1,0.2,0.1,0.2,0.1c0.2,0,0.3-0.3,0.4-0.5c0.1-0.1,0.1-0.2,0.2-0.3c0.2-0.1,0.4-0.5,0.4-0.8
		c0-0.2,0-0.4-0.1-0.5c0-0.1,0,0,0,0c-0.1,0.1-0.2,0.3-0.5,0.3c-0.3,0-0.4-0.3-0.5-0.4c-0.7-1.4-1.6-3.2-0.2-4.4
		c0.2-0.2,0.3-0.2,0.5-0.2c0.2,0,0.2-0.1,0.3-0.4c0.1-0.3,0.3-0.4,0.4-0.4c0.3,0,0.5,0.3,1,0.9c0,0,0.1,0.1,0.1,0.2
		c0.3-1.6-0.3-2.2-0.7-2.6c-0.2-0.2-0.4-0.4-0.3-0.7c0-0.3,0.3-0.4,0.5-0.6c0.1-0.1,0.3-0.1,0.4-0.1c0.6,0,1.2,0.7,1.5,1
		c0.2,0.2,0.7,1,0.6,1.5c-0.4,1.8-0.3,4.5,0.2,6.4c0.1,0.5,0.1,0.9,0.2,1.4c0.1,1.8,0.1,3.9,6.3,5.5c0.3,0.1,0.5,0,0.5,0
		c0.2-0.3-0.3-1.8-0.7-2.6c-0.3-0.7-0.5-1.2-0.5-1.6c0-0.2-0.2-0.4-0.6-0.5c-0.3-0.1-0.6-0.3-0.7-0.7c-0.1-0.2,0-0.4,0.2-0.7
		c0.2-0.3,0.3-0.5,0.3-0.7c0-0.1-0.2-0.3-0.4-0.4c-0.4-0.2-1-0.6-0.8-1.5l0.1-0.3c-0.1,0-0.1,0-0.2-0.1c-0.4-0.1-0.8-0.2-1-0.5
		c-0.2-0.2-0.3-0.3-0.3-0.4c0,0,0,0.1,0,0.1c-0.1,0.2-0.2,0.7-0.7,0.7c-0.1,0-0.3,0-0.5-0.3c-0.5-0.7-0.7-2.8-0.4-3.9
		c0.1-0.3,0.4-0.4,0.5-0.4c0.1-0.3,0.1-0.6,0.1-0.8c0.1-0.8,0.2-1.2,1.2-2.2c0.2-0.2-0.1-0.9-0.5-1.5c-0.3-0.5-0.6-1-0.6-1.5
		c-0.2-2,0-3.3,0.6-3.9c0,0,0,0,0,0c0,0-0.1,0-0.2,0c-0.3,0-0.7,0-1.1,0.1c-0.4,0-0.9,0.1-1.2,0.1c-0.3,0-0.5,0-0.6-0.2
		c-0.1-0.1-0.1-0.3-0.1-0.3c0-0.1,0-0.2-0.1-0.5c0-0.2-0.1-0.3-0.1-0.4c0-0.1,0-0.2-0.1-0.2c0,0-0.2-0.1-0.3-0.2c-0.1,0-0.1,0-0.1,0
		c0,0,0,0-0.1,0.1c-0.1,0.1-0.4,0.3-0.7,0.2c-0.6-0.2-0.4-1.7-0.4-1.7c0.1-0.3,0.2-0.5,0.4-0.5c0.5,0,0.7,0.1,0.8,0.1
		c0.1,0,0.2,0,0.3-0.1c0.4-0.3,0.7-0.3,0.9-0.3c0.2,0,0.3,0,1.1-1.2c-0.1-0.1-0.1-0.1-0.2-0.2c-0.4-0.4-1.1-1.2-1.4-2.2
		c0-0.1-0.1-0.1-0.1-0.1c0,0,0,0,0,0c-0.2,0-0.6,0.1-0.8,0.5c-0.2,0.2-0.5,0.7-0.4,1.3c0,0.1,0.1,0.1,0.2,0.2
		c0.1,0.1,0.3,0.2,0.4,0.4l0.1,0.2l-0.1,0.2c-0.1,0.2-0.4,0.3-1.2,0.4c-0.7,0.1-1.8,0.3-2.3,0.6c-1.6,1-2.2,1.8-2.9,2.7
		c-0.3,0.4-0.6,0.8-1,1.2c0,0.1,0.1,0.2,0.1,0.3c0.1,0.2,0.3,0.4,0.2,0.6c-0.1,0.3-0.4,0.3-0.6,0.3c-0.1,0-0.5,0-0.5,0.1
		c0,0,0,0.1,0.1,0.2c0.3,0.7,0,1.2-0.2,1.5c-0.1,0.1-0.1,0.2-0.1,0.2c-0.4,0.9-1.3,1.3-2.3,1.6c-0.9,0.4-1.9,0.7-2.7,1.6
		c-0.2,0.3-0.5,0.5-0.8,0.5c-0.2,0-0.4-0.1-0.6-0.2c-0.1-0.1-0.3-0.2-0.6-0.2c-0.7-0.3-2.7,0.2-3.6,0.8c0,0,0,0.1,0.1,0.1
		c0.3,0.4,0.7,1.3,0.3,2.1c-0.2,0.4-0.5,0.9-1,0.9c-0.3,0-0.5-0.2-0.7-0.3c-0.1-0.1-0.2-0.1-0.3-0.2c0,0.1-0.1,0.4-0.1,0.5
		c-0.2,0.8-0.3,1.7-1,1.7c-0.4,0-0.8-0.4-1.5-2.1c-0.4-1.1-0.8-1.1-1.3-1.1c-0.2,0-0.4,0-0.6,0c-0.1,0-0.3,0-0.4,0c0,0,0,0.1,0,0.1
		c0.1,0.3,0.3,0.8,0,1.2c-0.2,0.3-0.7,0.6-1.3,0.6c-0.5,0-0.8-0.2-1-0.5c-0.1-0.1-0.1-0.1-0.2-0.1c-0.1,0-0.3,0.1-0.5,0.2
		c-0.2,0.1-0.5,0.3-0.8,0.3c0,0,0,0,0,0c-0.5,0-0.5-0.6-0.6-1.1c0-0.1,0-0.1,0-0.2c0,0-0.1,0-0.1,0c-0.2,0.1-0.2,0.3-0.2,0.6
		c0,0.3-0.1,0.6-0.4,0.9c-0.3,0.3-1.1,0.3-1.2,0.3c-0.3,0-0.5,0-0.7-0.1l-0.2-0.1l-0.1-0.2c-0.1-0.4,0.6-1.5,0.8-1.8l0.2-0.2
		c0.3-0.5,0.6-0.9,1.2-1c0.6-0.1,0.7-0.2,0.7-0.3c0-0.6-2.6-2.2-3.5-2.5c-0.4,0.2-0.4,0.3-0.5,0.8c0,0.2-0.1,0.3-0.1,0.6
		c-0.1,0.3-0.5,0.4-0.8,0.2c0,0,0,0,0,0c0,0,0,0,0,0c-0.1,0.2-0.2,0.6-0.6,0.6c-0.1,0-0.3-0.1-0.5-0.2c-0.2-0.1-0.3-0.3-0.3-0.4
		c-0.2,0-0.3,0-0.5,0c-0.7,0-1.3,0.3-2,0.7c-0.4,0.2-0.8,0.4-1.2,0.6c-0.1,0-0.2,0.1-0.4,0.1c-0.5,0.2-1.5,0.5-1.9,0.8
		c0,0-0.1,0-0.1,0.1c0,0,0.1,0.1,0.1,0.1c0.1,0.2,0.4,0.5,0.3,0.9c0,0.7-0.4,0.8-0.6,0.8c-0.3,0-0.6-0.2-1-0.7c0,0,0,0,0,0.1
		c-0.1,0.3-0.5,0.8-1,0.8l-0.2,0c-0.7-0.2-0.5-1.2-0.4-2c-0.2,0.2-0.2,0.3-0.3,0.5c-0.1,0.2-0.2,0.4-0.5,0.8l-0.1,0.1
		c-0.9,1.3-1.4,2.2-0.8,2.7c1.1,0.9,1.3,1.3,1,1.8c-0.1,0.3-0.4,0.5-0.7,0.5c-0.2,0-0.6-0.1-0.9-0.4c-0.2-0.2-0.3-0.2-0.3-0.2
		c0,0-0.1,0-0.3,0.2c-0.2,0.3-1.2,1.2-2,1.2c-0.2,0-0.4,0-0.5-0.1c-0.3-0.2-0.6-0.3-0.8-0.4c-0.2-0.1-0.5-0.2-0.4-0.5
		c0-0.3,0.3-0.4,0.6-0.5c1-0.3,1.7-1.9,2.3-3.3c0.4-1,0.8-1.9,1.3-2.4l0.3-0.3c0.7-0.7,1.1-1.2,1.2-1.3c0-0.1-0.1-0.1-0.1-0.1
		c-0.7,0-2.2,1.5-2.5,2c0.2,0.2,0.3,0.4,0.2,0.7c0,0.3-0.2,0.5-0.5,0.6c-0.4,0.1-0.6,0.9-0.5,1.3c0,0.2,0,0.3-0.1,0.5
		c-0.2,0.2-0.4,0.3-0.7,0.3l-0.2,0c-0.6-0.2-0.8-1.1-1.3-3.1c-0.1-0.5-0.3-1-0.4-1.4c0,0.1,0,0.2-0.1,0.4c0,0.4-0.1,0.9-0.7,1.2
		c-0.3,0.2-0.6,0.1-0.7-0.1c-0.2-0.2-0.1-0.4-0.1-0.6c0,0,0-0.1,0-0.1c-1.7-0.7-2.2-1.1-2.2-1.5c0-0.1,0-0.2,0-0.3
		c-0.5-0.1-1.4-0.3-1.9-0.3c-0.4-0.1-0.6-0.2-0.6-0.4c-0.2,0-0.3,0-0.4-0.1c-0.9,0.4-1.4,0.3-1.5-0.2c-0.1-0.5,0.3-1.2,0.8-1.4
		l0.1,0c1.1-0.4,1.2-0.7,1.2-0.8c0-0.1-0.2-0.4-0.6-0.7c0,0,0,0,0,0c-0.1,0.2-0.1,0.4-0.3,0.6c-1,1-1.8,1.5-2.4,1.5
		c-0.6,0-0.9-0.4-1.2-0.7c-0.4-0.5-0.6-0.7-1.2-0.4c0,0,0,0-0.1,0.1c-0.2,0.3-0.5,0.6-0.8,0.6c-0.2,0-0.5-0.1-0.5-0.8
		c0-0.3,0.1-0.5,0.2-0.7c0.1-0.3,0.2-0.5,0.1-0.6c0-0.1-0.1-0.2-0.1-0.2c-0.1,0.1-0.2,0.3-0.2,0.5c0,0.2-0.1,0.4-0.2,0.5
		c-0.3,0.3-0.5,0.5-0.8,0.5c-0.1,0-0.5-0.1-0.6-0.5c-0.2-0.6-0.1-1.7,0.4-2.1c0.4-0.3,1-1.1,1.4-1.7c0.7-1,0.9-1.3,1.3-1.3h0.2
		l0.2,0.1c0.2,0.2,0.2,0.5,0.1,0.7c-0.2,2,0.3,2.9,0.6,3.2c0.5,0.6,1.3,0.5,1.8-0.2c0.7-0.8,0.8-2.2,0.5-3.8
		c-0.1-0.2-0.2-0.8,0.4-0.9c0.1-0.3,0-0.5-0.1-0.8c-0.3-0.4-1-0.7-1.7-0.7c-0.2,0-0.5,0-0.6,0.1c0,0,0,0.2-0.1,0.3
		c0,0.3-0.1,0.8-0.6,0.9c-0.9,0.2-3.7,1.3-4.5,1.9c-0.3,0.2-0.4,0.4-0.5,0.6c-0.2,0.3-0.4,0.6-1.1,0.8c-0.2,0.1-0.4,0.1-0.6,0.1
		c-0.8,0-1.4-0.5-2-0.9c-0.5-0.4-1.1-0.8-1.4-0.6c0,0.1,0,0.2,0,0.4c0.1,0.9,0.1,1.1-0.1,1.3l-0.1,0.1l-0.3,0l-0.1-0.1
		c-0.2-0.2-0.4-0.3-0.5-0.4c-0.2-0.2-0.4-0.3-0.6-0.4c-1-0.3-1.5-0.1-2.4,0.3l-0.3,0.1c-0.6,0.2-1.3,0.9-1.7,1.3c0,0,0,0.1,0.1,0.3
		c0.1,0.1,0.1,0.2,0.2,0.3c0.1,0.3-0.1,0.5-0.2,0.6c0.1,0.6-0.4,1.1-0.8,1.5c-0.2,0.2-0.5,0.5-0.7,0.8c-0.1,0.2-0.2,0.5-0.2,0.8
		c-0.1,0.5-0.2,1-0.7,1l-0.2,0c-0.5-0.2-0.7-0.4-0.8-0.6c-0.1,0.1-0.3,0.2-0.5,0.3l-0.1,0.1c-0.1,0-0.2,0.1-0.2,0.2
		c0.1,0.1,0.2,0.2,0.3,0.2c0.2,0.1,0.5,0.2,0.6,0.5c0.2,0.7-0.2,1.1-0.6,1.5c-0.7,0.7-1.4,1.4-0.1,3.3c0.2,0.3,0,0.7-0.1,0.9
		c-0.1,0.1-0.1,0.2-0.1,0.2c-0.1,0.4,0.2,0.7,0.5,1.1c0.2,0.2,0.4,0.5,0.3,0.8c-0.1,0.3-0.5,0.4-1.3,0.5c-0.1,0-0.2,0-0.2,0
		c0,0.1,0,0.3-0.1,0.5c-0.2,0.2-0.5,0.5-0.9,0.5c-0.1,0-0.3,0-0.4-0.1c-1-0.9-1.4-0.9-1.6-0.9c-0.1,0.1-0.1,0.4-0.1,0.5
		c0,0.2,0,0.4-0.1,0.6l-0.1,0.1l-0.2,0l-0.1,0c-0.1,0-0.3-0.1-0.4-0.2c-1.1-0.4-3.1-1.1-3-2.6c0-0.5,0.2-0.7,0.3-0.9
		c0.1-0.2,0.2-0.2-0.1-0.7c-0.1-0.1-0.9-0.5-1.3-0.5c-0.2,0.3-0.3,0.4-0.3,0.5c0,0.2-0.1,0.5-0.4,1c-0.2,0.3,0.9,1.1,1.4,1.5
		c0.6,0.4,0.8,1,0.8,1.1c0,0.1,0,0.2,0,0.3c0,0.2,0.1,0.4,0,0.6c0,0.4-0.1,0.8-0.2,1.2c-0.2,0.8-0.3,1.5,0.1,2.1l0.3,0.4
		c0.5,0.7,1.1,1.5,1.4,2.3c0.1,0.4,0.3,0.7,0.5,1c0.4,0.7,0.7,1.4,0.6,2.3c-0.1,0.9,0,2.5,0.4,2.9c0.2,0.2,0.2,0.2,0.6,0
		c0.3-0.2,0.5-0.8,0.6-1.3c0.1-0.4,0.2-0.8,0.3-1.1c0.1-0.2,0.3-0.3,0.6-0.3c0-0.1,0-0.1,0-0.2c0-0.1,0-0.3,0-0.4
		c0-0.2,0-0.6,0.2-0.8c0.2-0.3,0.6-0.1,0.8,0c0.7-0.5,1.7-0.5,2-0.1c0.1,0.2,0.2,0.4,0.2,0.5c0,0,0,0,0,0c0.1,0,0.3-0.1,0.6-0.2
		c-0.1-0.2-0.2-0.4-0.2-0.6c0-0.1,0-0.5,0.4-0.5h0.3l0.1,0.3c0,0,0,0,0,0.1c0.2-0.2,0.4-1,0.4-1.5c0,0-0.1-0.1-0.1-0.1
		c-0.2-0.1-0.4-0.2-0.4-0.4l0-0.2l0.2-0.3c0.1-0.1,0.1-0.2,0.1-0.2c0,0,0,0,0,0c0,0,0-0.1-0.1-0.2c-0.1-0.2,0-0.4,0-0.5
		c0.2-0.3,0.5-0.3,0.8-0.3c0.1,0,0.4,0,0.4-0.1c1.1-0.9,1.5-1,1.7-1c0.2,0,0.4,0.1,0.5,0.3c0.1,0.3,0.2,0.5,0.2,0.6
		c0.1,0,0.2-0.1,0.3-0.1c0.2-0.1,0.4-0.1,0.7-0.1c0.7,0,1.9,0.2,2.3,0.7l0.1,0.1c0.3,0.3,0.8,0.9,1.1,1.7c0.3,0.6,0,1-0.1,1.3
		c-0.2,0.3-0.2,0.3-0.1,0.5c0.1,0.2,0.5,0.5,0.6,0.5c1.6,0.7,2.1,1.5,2.5,2.1c0.1,0.2,0.2,0.3,0.3,0.5c0.2,0.3,0.7,0.5,1.2,0.5
		c0.2,0,0.4-0.1,0.4-0.1c0.1-0.1,0-0.2,0-0.4c-0.2-0.1-0.3-0.2-0.5-0.5c-0.1-0.2-0.2-0.5,0-0.7c0.1-0.1,0.2-0.2,0.6-0.2
		c0.2,0,0.4,0,0.7,0c0.7-0.2,0.7-0.4,0.9-0.8c0.1-0.2,0.1-0.3,0.2-0.5c0.1-0.2,0.2-0.5,0.5-0.5c0.2,0,0.3,0.1,0.4,0.2
		c0.7,0.7,3.7,1.9,5.2,1.9c0.2,0,0.3,0,0.4,0c0.6-0.2,1,0.2,1.3,0.6c0.1,0.1,0.2,0.2,0.3,0.4c0.4,0.4,0,0.8-0.2,1.1
		c-0.1,0.1-0.2,0.3-0.2,0.4c0,0.1,0.1,0.1,0.2,0.2c0.2,0.1,0.4,0.2,0.6,0.4c0,0,0.1,0.1,0.1,0.1c0,0,0,0,0,0c0.2,0,0.4,0.1,0.5,0.4
		c0,0,0.3,0.9-0.1,1.1c0,0,0,0,0,0c0.4,0.3,0.7,0,1-0.2c0.3-0.2,0.5-0.4,0.8-0.4c0.2,0,0.4,0.1,0.6,0.3c0.7,1,0.8,2.2,0.9,3.4
		c0,0.6,0.1,1.2,0.2,1.9c0.1-0.1,0.3-0.2,0.4-0.2h0.1l0.1,0.1c0.4,0.2,0.6,0.5,0.7,0.6c0.1,0.2,0.2,0.3,1.1,0.4
		c0.8,0.1,1,0.8,1.1,1.3c0,0.2,0.1,0.4,0.2,0.5c0.2,0.6,1.5,1.6,2.1,1.6c0.1,0,0.1,0,0.1,0c0.7-0.4,2.5-1,4-1c0.8,0,1.4,0.2,1.8,0.5
		c0.5,0.5,1.5,1.3,2.3,1.3c0.2,0,0.4-0.1,0.6-0.2c0.2-0.2,0.2-0.3,0.1-0.7c-0.1-0.4-0.1-0.9,0.3-1.3c0.2-0.2,0.2-0.3,0.2-0.4
		c0.1-0.3,0.3-0.4,0.4-0.4c0.1,0,0.2,0,0.3,0.1c1.3,0.7,1.9,1,2.1,1.1c0.1,0.1,0.4,0.2,0.3,0.5l-0.1,0.3c0.1,0.2,0.4,0.4,0.7,0.8
		c0.4,0.4,0.9,0.3,1.6,0.1c0.7-0.2,1.5-0.3,2.1,0.1c0.1,0,0.1,0,0.2,0c0.1,0,0.1,0,0.2,0c0.2,0,0.5,0.1,0.6,0.5
		c0.1,0.3,0.3,0.7,1,0.7c1.3,0,3.1-1,3.9-1.7c0.3-0.2,0.7-0.2,1.3,0c0.4,0.1,0.9,0.3,1.4,0.3c0.7,0,1.4-0.3,2-0.9
		c0.1-0.1,0.1-0.5,0.1-0.7c0-0.6,0-1.2,0.4-1.8c0,0,0,0,0,0c-0.3-0.2-0.9-0.5-0.6-1.1c0.6-1.5,1.5-2.2,2.6-2.2
		c1.8,0,3.6,2.1,4.3,2.9c0.1,0.1,0.2,0.2,0.2,0.2c0.7,0.7,1.8,1.1,3.4,1.3c0.3,0,0.6,0,0.7,0c0-0.1-0.1-0.1-0.1-0.2
		c-0.2-0.3-0.5-0.5-0.3-0.9c0.1-0.3,0.5-0.3,0.6-0.3c0.1,0,0.2,0,0.3,0c0.5,0.1,0.6,0,0.9,0c0.2-0.1,0.5-0.2,1-0.2
		c0.5,0,0.6,0.4,0.7,0.6c0,0.1,0.1,0.3,0.2,0.4c0.7,1,0.8,2.5,0.5,4.8c0,0.2-0.2,0.5-0.6,0.5c-0.1,0-0.2,0-0.4,0
		C-253.8,34-253.9,34-254,34z M-267.3-3.9c0.1,0.2,0.2,0.4,0.4,0.7l0,0c0.2,0,0.4-0.2,0.7-0.4C-266.4-3.6-266.8-3.7-267.3-3.9z
		 M-268.4-6.3c0.1,0.2,0.1,0.3,0,0.5l-0.1,0.2l-0.3,0c-0.2,0-0.6,0.1-0.6,0.3c0,0.3,0.3,0.6,0.7,0.6c0.2,0,0.4-0.1,0.6-0.4
		c0.7-0.9,0.5-1.2,0.5-1.2C-267.7-6.3-267.9-6.4-268.4-6.3z M-299.3-3l-0.1,0c-0.3-0.1-1.4-0.5-1.5-1.5c-0.2-1.1,0.9-2.4,3.2-3.9
		c0.5-0.3,1-0.5,1.5-0.5c0.4,0,0.8,0.1,1.2,0.2c0.4,0.1,0.7,0.2,1,0.1c0.8-0.2,1.2,0,1.5,0.2c0.2,0.1,0.4,0.2,0.8,0.2l0.2,0
		c0.4,0,0.8,0.1,1,0.2c0.3,0.2,0.4,0.4,0.4,0.7c0,0.8-1,1.5-2,1.3c-0.7-0.1-1.4-0.2-2-0.2c-2.7,0-3.7,1.5-4.3,2.4
		C-298.6-3.3-298.8-3-299.3-3L-299.3-3z M-296.2-8.2c-0.4,0-0.7,0.1-1.1,0.4c-2.7,1.8-3,2.8-2.9,3.2c0.1,0.5,0.7,0.8,1,0.9
		c0.1-0.1,0.2-0.3,0.3-0.4c0.6-1,1.8-2.8,4.9-2.8c0.6,0,1.4,0.1,2.1,0.2c0.6,0.1,1.1-0.3,1.1-0.6c0,0,0-0.1-0.1-0.1
		c-0.1,0-0.2-0.1-0.6-0.1l-0.2,0c-0.6,0-0.9-0.2-1.1-0.3c-0.3-0.1-0.5-0.2-1-0.1c-0.5,0.1-0.9,0-1.4-0.2
		C-295.5-8.1-295.8-8.2-296.2-8.2z M-302.9-4.5v-0.7c0.1,0,0.2,0,0.3-0.1c0,0,0-0.1,0-0.1c0-0.1-0.1-0.3-0.2-0.3v-0.7
		c0.6,0,0.9,0.5,0.9,1c0,0.3-0.1,0.5-0.3,0.7C-302.2-4.6-302.5-4.5-302.9-4.5z M-281.8-5.2l-0.1-0.1l0-0.2c0,0,0.1-0.4,0.2-0.8
		c-0.3,0-0.6-0.4-0.8-0.6c-0.1-0.2-0.3-0.4-0.5-0.5c-0.4-0.2-0.7-0.5-0.7-0.8c-0.1-0.5,0.2-1,0.4-1.3c0.1-0.1,0.1-0.2,0.2-0.3
		c0.1-0.1,0.4-0.8,1-0.8c0.1,0,0.2,0,0.3,0.1c0.4,0.2,0.4,0.5,0.4,0.7c0,0.1,0,0.2,0.1,0.2l0.1,0.1l0,0.2c0,0.2-0.1,0.3-0.2,0.3
		c0,0-0.1,0.1-0.1,0.1c0.2,0,0.4,0.1,0.5,0.3c0.2,0.3,0.2,0.6,0.3,0.9c0.1,0,0.1,0,0.2,0V-7c-0.2,0.1-0.7,1.3-0.8,1.6l-0.4,0
		L-281.8-5.2z M-282-9.9c-0.1,0-0.3,0.2-0.4,0.4c-0.1,0.1-0.1,0.2-0.2,0.4c-0.2,0.3-0.4,0.6-0.3,0.7c0,0.1,0.2,0.3,0.4,0.4
		c0.3,0.2,0.5,0.5,0.7,0.7c0.1,0.1,0.2,0.3,0.3,0.3c0.3-0.3,0.4-0.7,0.2-1.2c-0.1,0-0.1,0-0.1,0c-0.2,0-0.3-0.1-0.4-0.2
		c-0.2-0.3-0.1-0.6,0.1-1C-282-9.5-282-9.7-282-9.9C-282-9.8-282-9.9-282-9.9z M-330.4-11.3c-0.2,0-0.4-0.1-0.6-0.3
		c-0.5-0.7-0.4-2.1-0.3-2.7c0.1-0.3,0.3-0.4,0.7-0.4c0.2,0,0.5,0.1,0.6,0.2c0.1,0.1,0.8,0.5,0.9,0.9c0,0.2,0,0.3-0.1,0.4
		c0,0.1-0.1,0.1-0.2,0.1c0,0,0,0,0,0c0.3,0.4,0.6,0.8,0.4,1.3C-329.1-11.4-329.8-11.3-330.4-11.3L-330.4-11.3z M-330.6-14
		c-0.1,0.6-0.1,1.7,0.1,2c0,0.1,0.1,0.1,0.1,0.1v0.4l0-0.4c0.7,0,0.8-0.2,0.8-0.2c0-0.1-0.2-0.4-0.3-0.5c-0.2-0.3-0.5-0.6-0.4-0.9
		l0.1-0.3c0,0-0.1,0-0.1,0C-330.4-14-330.5-14-330.6-14C-330.6-14-330.6-14-330.6-14z M-254.8-12.9c-0.5,0-0.9-0.5-0.9-1.3
		c0-0.4,0.1-0.8,0.2-1.1c0.2-0.4,0.5-0.7,0.9-0.7v0.7c-0.1,0-0.2,0.1-0.2,0.3c-0.1,0.2-0.2,0.5-0.2,0.8c0,0.4,0.1,0.6,0.2,0.6V-12.9
		z"/>
</g>
<g>
	<g>
		<path class="st1" d="M-207.5,47.7h-3.3c-2.1,0-4.4-1.6-4.6-5.1l-1.7-24.2c-2.4-0.5-4.1-2.5-4.3-5l-1-16.3
			c-0.1-1.7,0.4-3.4,1.6-4.7c1.2-1.3,2.8-2.1,4.5-2.2l1.5-0.1c-1.9-1.6-3-4-3-6.5c0-4.8,3.8-8.5,8.5-8.5c4.7,0,8.5,3.8,8.5,8.5
			c0,2.5-1.1,4.9-3,6.5l1.5,0.1c3.6,0.3,6.3,3.4,6.2,6.9l-1,16.3c-0.1,2.5-1.9,4.5-4.3,5l-1.7,24.2
			C-203.1,46.4-205.5,47.7-207.5,47.7z M-214.5-9.2l-1.8,0.1c-1.5,0.1-2.9,0.8-4,1.9c-1,1.2-1.5,2.6-1.4,4.2l1,16.3
			c0.2,2.2,1.8,4.1,4,4.4l0.3,0l1.7,24.8c0.2,3,2,4.4,3.8,4.4h3.3c1.7,0,3.7-1.1,3.8-4.4l1.7-24.8l0.3,0c2.2-0.3,3.9-2.2,4-4.4
			l1-16.4c0.2-3.1-2.3-5.8-5.5-6.1l-2.6-0.1h-1.3l1.1-0.7c2.2-1.4,3.5-3.9,3.5-6.5c0-4.3-3.5-7.8-7.8-7.8c-4.4,0-7.8,3.4-7.8,7.8
			c0,2.6,1.4,5.1,3.5,6.5l1.1,0.7H-214.5z"/>
	</g>
	<g>
		<path class="st1" d="M-178.5,47.7h-3.3c-2.1,0-4.4-1.6-4.6-5.1l-1.7-24.2c-2.4-0.5-4.1-2.5-4.3-5l-1-16.3
			c-0.1-1.7,0.4-3.4,1.6-4.7c1.2-1.3,2.8-2.1,4.5-2.2l1.5-0.1c-1.9-1.6-3-4-3-6.5c0-4.8,3.8-8.5,8.5-8.5c4.7,0,8.5,3.8,8.5,8.5
			c0,2.5-1.1,4.9-3,6.5l1.5,0.1c3.6,0.3,6.3,3.4,6.2,6.9l-1,16.3c-0.1,2.5-1.9,4.5-4.3,5l-1.7,24.2
			C-174.1,46.4-176.5,47.7-178.5,47.7z M-185.5-9.2l-1.8,0.1c-1.5,0.1-2.9,0.8-4,1.9c-1,1.2-1.5,2.6-1.4,4.2l1,16.3
			c0.2,2.2,1.8,4.1,4,4.4l0.3,0l1.7,24.8c0.2,3,2,4.4,3.8,4.4h3.3c1.7,0,3.7-1.1,3.8-4.4l1.7-24.8l0.3,0c2.2-0.3,3.9-2.2,4-4.4
			l1-16.4c0.2-3.1-2.3-5.8-5.5-6.1l-2.6-0.1h-1.3l1.1-0.7c2.2-1.4,3.5-3.9,3.5-6.5c0-4.3-3.5-7.8-7.8-7.8c-4.4,0-7.8,3.4-7.8,7.8
			c0,2.6,1.4,5.1,3.5,6.5l1.1,0.7H-185.5z"/>
	</g>
	<g>
		<path class="st1" d="M-149.5,47.7h-3.3c-2.1,0-4.4-1.6-4.6-5.1l-1.7-24.2c-2.4-0.5-4.1-2.5-4.3-5l-1-16.3
			c-0.1-1.7,0.4-3.4,1.6-4.7c1.2-1.3,2.8-2.1,4.5-2.2l1.5-0.1c-1.9-1.6-3-4-3-6.5c0-4.8,3.8-8.5,8.5-8.5c4.7,0,8.5,3.8,8.5,8.5
			c0,2.5-1.1,4.9-3,6.5l1.5,0.1c3.6,0.3,6.3,3.4,6.2,6.9l-1,16.3c-0.1,2.5-1.9,4.5-4.3,5l-1.7,24.2
			C-145.1,46.4-147.5,47.7-149.5,47.7z M-156.5-9.2l-1.8,0.1c-1.5,0.1-2.9,0.8-4,1.9c-1,1.2-1.5,2.6-1.4,4.2l1,16.3
			c0.2,2.2,1.8,4.1,4,4.4l0.3,0l1.7,24.8c0.2,3,2,4.4,3.8,4.4h3.3c1.7,0,3.7-1.1,3.8-4.4l1.7-24.8l0.3,0c2.2-0.3,3.9-2.2,4-4.4
			l1-16.4c0.2-3.1-2.3-5.8-5.5-6.1l-2.6-0.1h-1.3l1.1-0.7c2.2-1.4,3.5-3.9,3.5-6.5c0-4.3-3.5-7.8-7.8-7.8c-4.4,0-7.8,3.4-7.8,7.8
			c0,2.6,1.4,5.1,3.5,6.5l1.1,0.7H-156.5z"/>
	</g>
</g>
<g>
	<path class="st1" d="M-375.4-3.5c-3,0-5.4-2.4-5.4-5.4c0-1.6,0.7-3.1,2-4.2c0.7-0.5,1.4-0.9,2.2-1.1v-9.9c0-0.7,0.5-1.2,1.2-1.2
		s1.2,0.5,1.2,1.2v9.9c0.8,0.2,1.6,0.6,2.2,1.1c1.2,1,2,2.6,2,4.2C-370-5.9-372.4-3.5-375.4-3.5z M-375.4-24.5
		c-0.3,0-0.5,0.2-0.5,0.5v10.5l-0.3,0.1c-0.8,0.1-1.6,0.5-2.2,1c-1.1,0.9-1.7,2.2-1.7,3.6c0,2.6,2.1,4.7,4.7,4.7s4.7-2.1,4.7-4.7
		c0-1.4-0.6-2.7-1.7-3.6c-0.6-0.5-1.4-0.9-2.2-1l-0.3-0.1v-10.5C-375-24.3-375.2-24.5-375.4-24.5z"/>
	<path class="st1" d="M-407.4-3.5c-3,0-5.4-2.4-5.4-5.4c0-1.6,0.7-3.1,2-4.2c0.7-0.5,1.4-0.9,2.2-1.1v-9.9c0-0.7,0.5-1.2,1.2-1.2
		s1.2,0.5,1.2,1.2v9.9c0.8,0.2,1.6,0.6,2.2,1.1c1.2,1,2,2.6,2,4.2C-402-5.9-404.4-3.5-407.4-3.5z M-407.4-24.5
		c-0.3,0-0.5,0.2-0.5,0.5v10.5l-0.3,0.1c-0.8,0.1-1.6,0.5-2.2,1c-1.1,0.9-1.7,2.2-1.7,3.6c0,2.6,2.1,4.7,4.7,4.7s4.7-2.1,4.7-4.7
		c0-1.4-0.6-2.7-1.7-3.6c-0.6-0.5-1.4-0.9-2.2-1l-0.3-0.1v-10.5C-406.9-24.3-407.1-24.5-407.4-24.5z"/>
	<path class="st1" d="M-365.4,44.4h-52.1c-3.5,0-6.3-2.8-6.3-6.3V5.6h64.7v32.5C-359.1,41.6-361.9,44.4-365.4,44.4z M-423,6.4v31.8
		c0,3.1,2.5,5.5,5.5,5.5h52.1c3.1,0,5.5-2.5,5.5-5.5V6.4H-423z M-359.1,0.7h-64.7v-13c0-0.4,0-0.9,0.1-1.3c0.2-1,0.7-1.9,1.3-2.7
		c0.1-0.2,0.3-0.3,0.4-0.4c0.9-0.9,2-1.5,3.2-1.7c0.4-0.1,0.8-0.1,1.3-0.1h5v0.8h-5c-0.4,0-0.8,0-1.1,0.1c-1.1,0.2-2,0.7-2.8,1.5
		c-0.1,0.1-0.2,0.3-0.4,0.4c-0.6,0.7-1,1.5-1.1,2.4c-0.1,0.4-0.1,0.7-0.1,1.1v12.2h63.2v-12.2c0-0.4,0-0.8-0.1-1.1
		c-0.4-2.2-2.1-3.9-4.3-4.3c-0.4-0.1-0.7-0.1-1.1-0.1h-5v-0.8h5c0.4,0,0.9,0,1.3,0.1c2.5,0.5,4.4,2.4,4.9,4.9
		c0.1,0.4,0.1,0.8,0.1,1.3V0.7z"/>
	<path class="st3" d="M-402.3-19.9"/>
	<rect x="-402.3" y="-18.6" class="st1" width="21.9" height="0.8"/>
</g>
<g>
	<image style="overflow:visible;" width="405" height="394" xlink:href="B41136B3.png"  transform="matrix(1 0 0 1 -491.5 161.43)">
	</image>
	<image style="overflow:visible;" width="203" height="388" xlink:href="B41136B1.png"  transform="matrix(1 0 0 1 -358.5 165.43)">
	</image>
	<image style="overflow:visible;" width="203" height="390" xlink:href="B41136B7.png"  transform="matrix(1 0 0 1 -358.5 163.43)">
	</image>
	<image style="overflow:visible;" width="73" height="162" xlink:href="B41136B0.png"  transform="matrix(1 0 0 1 -424.5 165.43)">
	</image>
	<image style="overflow:visible;" width="92" height="218" xlink:href="B41136BE.png"  transform="matrix(1 0 0 1 -488.5 282.43)">
	</image>
</g>
<g>
	<path class="st4" d="M-314.9-126.2c-1.2,0-2.3-0.2-3.4-0.5c-0.5-0.2-1.2,0-1.5,0.3l-2.2,1.6c-2.5-1.3-4.1-2.9-5.4-5.4l1.6-2.1
		c0.4-0.4,0.5-1,0.4-1.5c-0.4-1.1-0.5-2.2-0.5-3.4c0-0.8-0.7-1.5-1.5-1.5h-3.5c-0.8,0-1.5,0.7-1.5,1.5c0,9.6,7.9,17.5,17.5,17.5
		c0.8,0,1.5-0.7,1.5-1.5v-3.5C-313.4-125.5-314.1-126.2-314.9-126.2z"/>
</g>
<g>
	<path class="st5" d="M-290.9-126.2c-1.2,0-2.3-0.2-3.4-0.5c-0.5-0.2-1.2,0-1.5,0.3l-2.2,1.6c-2.5-1.3-4.1-2.9-5.4-5.4l1.6-2.1
		c0.4-0.4,0.5-1,0.4-1.5c-0.4-1.1-0.5-2.2-0.5-3.4c0-0.8-0.7-1.5-1.5-1.5h-3.5c-0.8,0-1.5,0.7-1.5,1.5c0,9.6,7.9,17.5,17.5,17.5
		c0.8,0,1.5-0.7,1.5-1.5v-3.5C-289.4-125.5-290.1-126.2-290.9-126.2z"/>
</g>
<g>
	<path class="st6" d="M32.4-152.6c31.3,0,56.7,25.4,56.7,56.7c0,31.3-25.4,56.7-56.7,56.7c-31.3,0-56.7-25.4-56.7-56.7
		C-24.3-127.2,1.1-152.6,32.4-152.6"/>
	<path class="st7" d="M32.4-33.2c-3.3,0-6-2.7-6-6c0-3.3,2.7-6,6-6c3.3,0,6,2.7,6,6"/>
	<path class="st7" d="M38.4-39.2c0,3.3-2.7,6-6,6"/>
	<path class="st8" d="M32.4-33.2c-3.3,0-6-2.7-6-6c0-3.3,2.7-6,6-6c3.3,0,6,2.7,6,6C38.4-35.9,35.7-33.2,32.4-33.2"/>
	<line class="st9" x1="32.8" y1="-122.5" x2="32.8" y2="-129.6"/>
	<line class="st9" x1="21.5" y1="-120.3" x2="17.4" y2="-126"/>
	<line class="st9" x1="12.8" y1="-112.7" x2="6.7" y2="-116.2"/>
	<line class="st9" x1="10.9" y1="-90.5" x2="4.8" y2="-86.9"/>
	<line class="st9" x1="9.5" y1="-102.1" x2="2.4" y2="-102.1"/>
	<line class="st9" x1="43.2" y1="-120.3" x2="47.4" y2="-126"/>
	<line class="st9" x1="51.9" y1="-112.7" x2="58.1" y2="-116.2"/>
	<line class="st9" x1="53.8" y1="-90.5" x2="60" y2="-86.9"/>
	<line class="st9" x1="55.3" y1="-102.1" x2="62.4" y2="-102.1"/>
	<path class="st9" d="M48-99.1c0-8.9-7.5-16.1-16.5-15.6c-7.6,0.4-13.9,6.4-14.7,13.9c-0.6,5.4,1.6,10.3,5.3,13.5
		c2.2,1.9,3.6,4.7,3.6,7.6v8.9c0,3.7,3,6.6,6.6,6.6s6.6-3,6.6-6.6v-8.8c0-3,1.4-5.8,3.6-7.7C45.9-90.2,48-94.4,48-99.1z"/>
	<line class="st9" x1="26.5" y1="-75.4" x2="38.3" y2="-75.4"/>
	<polyline class="st9" points="23.4,-98.7 30.2,-91.9 40.7,-102.4 	"/>
</g>
<g>
	<circle class="st6" cx="30" cy="28.7" r="56.7"/>
	<path class="st7" d="M90.7,42.5c0,3.3-2.7,6-6,6c-3.3,0-6-2.7-6-6c0-3.3,2.7-6,6-6C88,36.5,90.7,39.2,90.7,42.5"/>
	<circle class="st8" cx="84.7" cy="42.5" r="6"/>
	<path class="st7" d="M21.6,23.9l-10,2.4c-1.2,0.3-2.4,0.2-3.5-0.4l-5.7-3.4v17.9l22.4,13c3.5,2,7.8,1.9,11.1-0.2l9-5.5
		c1.3-0.8,1.6-2.7,0.5-3.9L27.6,25.6C26.1,24,23.8,23.3,21.6,23.9"/>
	<path class="st9" d="M21.6,23.9l-10,2.4c-1.2,0.3-2.4,0.2-3.5-0.4l-5.7-3.4v17.9l22.4,13c3.5,2,7.8,1.9,11.1-0.2l9-5.5
		c1.3-0.8,1.6-2.7,0.5-3.9L27.6,25.6C26.1,24,23.8,23.3,21.6,23.9z"/>
	<path class="st7" d="M57.7,22.4l-4.7,3c-1.5,0.9-3.2,1.2-4.9,0.7l-7.2-2.1c-2.8-0.8-5.9-0.2-8.2,1.7l-10.6,9l2.4,2
		c1.9,1.6,4.6,1.9,6.8,0.7l5.3-2.9L46,45l11.5-4.8L57.7,22.4z"/>
	<path class="st9" d="M57.7,22.4l-4.7,3c-1.5,0.9-3.2,1.2-4.9,0.7l-7.2-2.1c-2.8-0.8-5.9-0.2-8.2,1.7l-10.6,9l2.4,2
		c1.9,1.6,4.6,1.9,6.8,0.7l5.3-2.9L46,45l11.5-4.8L57.7,22.4z"/>
	<path class="st7" d="M22.6,54.8l-8.9-6.6c-1-0.8-1.2-2.2-0.5-3.2l1.1-1.5c0.8-1,2.2-1.2,3.2-0.5l8.9,6.6c1,0.8,1.2,2.2,0.5,3.2
		l-1.1,1.5C25,55.4,23.6,55.6,22.6,54.8"/>
	<path class="st9" d="M22.6,54.8l-8.9-6.6c-1-0.8-1.2-2.2-0.5-3.2l1.1-1.5c0.8-1,2.2-1.2,3.2-0.5l8.9,6.6c1,0.8,1.2,2.2,0.5,3.2
		l-1.1,1.5C25,55.4,23.6,55.6,22.6,54.8z"/>
	<line class="st7" x1="34.2" y1="12.1" x2="35.6" y2="2.1"/>
	<line class="st9" x1="34.2" y1="12.1" x2="35.6" y2="2.1"/>
	<line class="st7" x1="41.4" y1="14.7" x2="44.9" y2="7.6"/>
	<line class="st9" x1="41.4" y1="14.7" x2="44.9" y2="7.6"/>
	<line class="st7" x1="26.4" y1="12.1" x2="25.1" y2="2.1"/>
	<line class="st9" x1="26.4" y1="12.1" x2="25.1" y2="2.1"/>
	<line class="st7" x1="19.3" y1="14.7" x2="15.7" y2="7.6"/>
	<line class="st9" x1="19.3" y1="14.7" x2="15.7" y2="7.6"/>
</g>
<g>
	<path class="st6" d="M-21.5,156.5"/>
	<path class="st6" d="M-21.5,156.5c-0.4-2.6-0.5-5.2-0.5-7.8c0-31.3,25.4-56.7,56.7-56.7c31.3,0,56.7,25.4,56.7,56.7
		c0,31.3-25.4,56.7-56.7,56.7c-24.3,0-45.1-15.3-53.1-36.8"/>
	<circle class="st8" cx="-20.1" cy="162.6" r="6"/>
	<ellipse class="st9" cx="34.6" cy="142.8" rx="9.3" ry="9.4"/>
	<path class="st9" d="M53.1,180H16.2v-6c0-8.3,6.7-15,15-15h7.6c7.9,0,14.3,6.4,14.3,14.3V180z"/>
	<polygon class="st9" points="34.5,174.9 37.8,172.4 36,159.3 33,159.3 31.2,172.4 	"/>
	<line class="st9" x1="23.3" y1="180" x2="23.3" y2="172"/>
	<line class="st9" x1="46.3" y1="180" x2="46.3" y2="172"/>
	<circle class="st9" cx="21.4" cy="128.5" r="2.3"/>
	<circle class="st9" cx="34.1" cy="119.7" r="2.3"/>
	<circle class="st9" cx="47.9" cy="128.7" r="2.3"/>
	<line class="st9" x1="23.1" y1="127.2" x2="31.9" y2="121.5"/>
	<line class="st9" x1="45.9" y1="127.2" x2="37.1" y2="121.5"/>
</g>
<g>
	<circle class="st6" cx="31.2" cy="267.3" r="56.7"/>
	<path class="st10" d="M48.2,254.3c0-0.3,0.2-0.7,0.5-0.9l7.8-5.3c0.5-0.3,1.1-0.2,1.4,0.3c0.3,0.5,0.2,1.1-0.3,1.4l-7.8,5.3
		c-0.5,0.3-1.1,0.2-1.4-0.3C48.3,254.7,48.2,254.5,48.2,254.3"/>
	<path class="st11" d="M48.2,254.3c0-0.3,0.2-0.7,0.5-0.9l7.8-5.3c0.5-0.3,1.1-0.2,1.4,0.3c0.3,0.5,0.2,1.1-0.3,1.4l-7.8,5.3
		c-0.5,0.3-1.1,0.2-1.4-0.3C48.3,254.7,48.2,254.5,48.2,254.3z"/>
	<path class="st10" d="M49.9,263.3c0-0.5,0.4-0.9,0.9-1l15-2.4c0.6-0.1,1.1,0.3,1.2,0.9c0.1,0.6-0.3,1.1-0.9,1.2l-15,2.4
		c-0.6,0.1-1.1-0.3-1.2-0.9v0L49.9,263.3z"/>
	<path class="st11" d="M49.9,263.3c0-0.5,0.4-0.9,0.9-1l15-2.4c0.6-0.1,1.1,0.3,1.2,0.9c0.1,0.6-0.3,1.1-0.9,1.2l-15,2.4
		c-0.6,0.1-1.1-0.3-1.2-0.9v0L49.9,263.3z"/>
	<path class="st10" d="M48.2,281.7c0-0.6,0.5-1,1-1c0.2,0,0.4,0.1,0.6,0.2l7.8,5.3c0.5,0.3,0.6,1,0.3,1.4c-0.3,0.5-1,0.6-1.4,0.3
		c0,0,0,0-0.1,0l-7.8-5.3C48.4,282.3,48.2,282,48.2,281.7"/>
	<path class="st11" d="M48.2,281.7c0-0.6,0.5-1,1-1c0.2,0,0.4,0.1,0.6,0.2l7.8,5.3c0.5,0.3,0.6,1,0.3,1.4c-0.3,0.5-1,0.6-1.4,0.3
		c0,0,0,0-0.1,0l-7.8-5.3C48.4,282.3,48.2,282,48.2,281.7z"/>
	<path class="st10" d="M49.9,272.7v-0.2c0.1-0.6,0.6-1,1.2-0.9l0,0l15,2.4c0.6,0.1,1,0.6,0.9,1.2c-0.1,0.6-0.6,1-1.2,0.9l-15-2.4
		C50.3,273.6,49.9,273.2,49.9,272.7"/>
	<path class="st11" d="M49.9,272.7v-0.2c0.1-0.6,0.6-1,1.2-0.9l0,0l15,2.4c0.6,0.1,1,0.6,0.9,1.2c-0.1,0.6-0.6,1-1.2,0.9l-15-2.4
		C50.3,273.6,49.9,273.2,49.9,272.7z"/>
	<polyline class="st12" points="2.6,264.8 41.9,247 41.9,287.5 2.6,271.5 	"/>
	<rect x="-3.6" y="261.5" class="st12" width="6.2" height="13.1"/>
	<path class="st12" d="M21.8,280.7c-1.4,2.9-4.9,4.1-7.8,2.7c-2.9-1.4-4.1-4.9-2.7-7.8"/>
	<path class="st7" d="M1.1,225.2c0,3.3-2.7,6-6,6s-6-2.7-6-6c0-3.3,2.7-6,6-6S1.1,221.9,1.1,225.2"/>
	<circle class="st8" cx="-5" cy="225.2" r="6"/>
</g>
<g>
	<circle class="st6" cx="29.5" cy="394" r="56.7"/>
	<path class="st7" d="M72.7,352.7c0,3.3-2.7,6-6,6c-3.3,0-6-2.7-6-6c0-3.3,2.7-6,6-6C70,346.6,72.7,349.3,72.7,352.7"/>
	<circle class="st8" cx="66.7" cy="352.7" r="6"/>
	<path class="st13" d="M26.3,408.5v-17.2v-6.8h7.2c3.4,0,6.2,2.8,6.2,6.2c0,3.4-2.8,6.2-6.2,6.2H23.4"/>
	<line class="st14" x1="23.5" y1="401.4" x2="33.8" y2="401.4"/>
	<path class="st15" d="M26.3,408.5v-17.2v-6.8h7.2c3.4,0,6.2,2.8,6.2,6.2c0,3.4-2.8,6.2-6.2,6.2H23.4"/>
	<line class="st15" x1="23.5" y1="401.4" x2="33.8" y2="401.4"/>
	<path class="st16" d="M57.7,385.5c-0.4-8.3-7.2-14.9-15.5-15.2c-5.1-0.2-9.6,2-12.7,5.5c-3.1-3.5-7.6-5.7-12.7-5.5
		c-8.2,0.3-14.9,6.9-15.5,15C1,390.2,3.2,394,6,397.7c3.9,4.8,12.7,15.2,22.7,23.8c0.4,0.4,1.1,0.4,1.6,0
		c9.8-8.4,18.5-18.6,22.5-23.5C55.6,394.3,58,390.4,57.7,385.5z"/>
</g>
<g>
	<line class="st17" x1="-182.2" y1="767.4" x2="-403.7" y2="683.9"/>
	<line class="st18" x1="-150.6" y1="750.1" x2="-374.1" y2="665.9"/>
	<line class="st19" x1="-216.8" y1="785.8" x2="-440.3" y2="701.6"/>
	<line class="st19" x1="-289.2" y1="654" x2="-497.5" y2="770.7"/>
	<line class="st17" x1="-256.1" y1="666.1" x2="-464.4" y2="782.9"/>
	<line class="st18" x1="-225.3" y1="678.7" x2="-433.6" y2="795.5"/>
	<line class="st17" x1="-189.3" y1="693.9" x2="-397.5" y2="810.7"/>
</g>
<g>
	<line class="st7" x1="-145.8" y1="-130.5" x2="-145.8" y2="-122.5"/>
	<line class="st20" x1="-145.8" y1="-130.5" x2="-145.8" y2="-122.5"/>
	<line class="st7" x1="-141.8" y1="-126.5" x2="-149.8" y2="-126.5"/>
	<line class="st20" x1="-141.8" y1="-126.5" x2="-149.8" y2="-126.5"/>
</g>
<g>
	<path class="st21" d="M-69.4-119.3l-7,5.9l-12.2-10.3l-2.8-7.9l4.2-7h6.9l3.9,4.4l3.9-4.4h6.9l4.2,7c0,0-1.7,4.7-1.7,4.7h-6.6"/>
	<circle class="st22" cx="-73.3" cy="-126.7" r="3.2"/>
	<line class="st23" x1="-68" y1="-131.8" x2="-70.4" y2="-129.4"/>
	<line class="st23" x1="-78.7" y1="-131.8" x2="-76.3" y2="-129.4"/>
	<line class="st23" x1="-68" y1="-121.6" x2="-70.4" y2="-124"/>
	<line class="st23" x1="-78.7" y1="-121.6" x2="-76.3" y2="-124"/>
</g>
<g>
	<g>
		<line class="st24" x1="-5.5" y1="516.7" x2="-3.8" y2="517.7"/>
		<line class="st25" x1="1.1" y1="520.6" x2="64" y2="557.6"/>
		<line class="st24" x1="66.5" y1="559" x2="68.1" y2="560"/>
		<line class="st24" x1="-16.2" y1="516.7" x2="-17.8" y2="517.7"/>
		<line class="st25" x1="-22.7" y1="520.6" x2="-85.7" y2="557.6"/>
		<line class="st24" x1="-88.1" y1="559" x2="-89.7" y2="560"/>
		<line class="st26" x1="-23.2" y1="610.8" x2="-24.7" y2="609.9"/>
		<line class="st27" x1="-29.1" y1="607.3" x2="-86.1" y2="573.8"/>
		<line class="st26" x1="-88.3" y1="572.5" x2="-89.7" y2="571.7"/>
		<line class="st28" x1="-2.1" y1="613" x2="-0.6" y2="612.1"/>
		<line class="st29" x1="4.1" y1="609.3" x2="64.2" y2="574"/>
		<line class="st28" x1="66.5" y1="572.6" x2="68.1" y2="571.7"/>
		<circle class="st8" cx="-11.5" cy="512.7" r="6"/>
		<circle class="st30" cx="-11.5" cy="615.9" r="12.8"/>
		<circle class="st8" cx="73" cy="566" r="6"/>
		<circle class="st8" cx="-94.4" cy="566" r="6"/>
		<line class="st24" x1="-16.2" y1="717.8" x2="-17.8" y2="716.8"/>
		<line class="st25" x1="-22.7" y1="714" x2="-85.7" y2="676.9"/>
		<line class="st24" x1="-88.1" y1="675.5" x2="-89.7" y2="674.5"/>
		<line class="st24" x1="-5.5" y1="717.8" x2="-3.8" y2="716.8"/>
		<line class="st25" x1="1.1" y1="714" x2="64" y2="676.9"/>
		<line class="st24" x1="66.5" y1="675.5" x2="68.1" y2="674.5"/>
		<circle class="st8" cx="-11.5" cy="718.8" r="6"/>
		<circle class="st8" cx="73" cy="668.8" r="6"/>
		<circle class="st8" cx="-94.4" cy="668.8" r="6"/>
		<line class="st31" x1="73.2" y1="662.8" x2="73.2" y2="661.1"/>
		<line class="st32" x1="73.2" y1="656.2" x2="73.2" y2="576.2"/>
		<line class="st31" x1="73.2" y1="573.7" x2="73.2" y2="572"/>
		<line class="st33" x1="-11.5" y1="711.6" x2="-11.5" y2="710"/>
		<line class="st34" x1="-11.5" y1="705.4" x2="-11.5" y2="630.3"/>
		<line class="st33" x1="-11.5" y1="628" x2="-11.5" y2="626.4"/>
		<line class="st31" x1="-94.4" y1="662.8" x2="-94.4" y2="661.1"/>
		<line class="st32" x1="-94.4" y1="656.2" x2="-94.4" y2="576.2"/>
		<line class="st31" x1="-94.4" y1="573.7" x2="-94.4" y2="572"/>
		<line class="st35" x1="-87.2" y1="652.2" x2="-15.2" y2="549.8"/>
		<line class="st35" x1="-4.7" y1="593.5" x2="53.9" y2="507.8"/>
		<line class="st35" x1="62.5" y1="534.5" x2="62.5" y2="546.4"/>
		<line class="st35" x1="68.5" y1="540.4" x2="56.6" y2="540.4"/>
		<circle class="st35" cx="-9.3" cy="540" r="5.3"/>
		<polyline class="st36" points="76.2,692.4 102.2,680.6 102.2,707.3 76.2,696.7 		"/>
		<rect x="72" y="690.1" class="st35" width="4.1" height="8.7"/>
		<path class="st35" d="M88.8,702.8c-0.9,1.9-3.2,2.7-5.2,1.8c-1.9-0.9-2.7-3.3-1.8-5.2"/>
		<polyline class="st37" points="-118.1,671 -114.1,693.7 -120.4,699.1 -126.7,693.7 -122.7,671 		"/>
		<line class="st37" x1="-127.9" y1="685.7" x2="-120.2" y2="685.7"/>
		<polygon class="st37" points="-118.1,662.8 -122.7,662.8 -124.9,665.5 -122.7,671 -118.1,671 -115.9,665.5 		"/>
		<polyline class="st36" points="-118.1,671 -114.1,693.7 -120.4,699.1 -126.7,693.7 -122.7,671 		"/>
		<line class="st36" x1="-127.9" y1="685.7" x2="-120.2" y2="685.7"/>
		<polygon class="st36" points="-118.1,662.8 -122.7,662.8 -124.9,665.5 -122.7,671 -118.1,671 -115.9,665.5 		"/>
		<path class="st36" d="M-114.2,572.1c-0.3-4.8-4.2-8.6-9-8.8c-2.9-0.1-5.6,1.1-7.3,3.2c-1.8-2-4.4-3.3-7.3-3.2
			c-4.7,0.2-8.6,4-8.9,8.7c-0.2,2.8,1.1,5,2.7,7.2c2.3,2.8,7.3,8.8,13.1,13.7c0.3,0.2,0.6,0.2,0.9,0c5.7-4.8,10.7-10.7,13-13.6
			C-115.4,577.2-114.1,575-114.2,572.1z"/>
	</g>
	<polyline class="st35" points="73.3,486.3 68.3,489.9 71.8,500.8 62.5,494 53.3,500.8 56.8,489.9 47.6,483.2 59,483.2 62.5,472.3 
		66.1,483.2 77.5,483.2 	"/>
</g>
<g>
	<path class="st0" d="M-205.4-134.3c-0.2,0.2-0.2,0.5-0.1,0.7l3.9,4.7l-3.9,4.7c-0.2,0.2-0.1,0.5,0.1,0.7c0.2,0.2,0.5,0.1,0.7-0.1
		l4.2-5c0.1-0.1,0.1-0.2,0.1-0.3c0-0.1,0-0.2-0.1-0.3l-4.2-5C-204.9-134.5-205.2-134.5-205.4-134.3z"/>
</g>
<g>
	<path class="st0" d="M-211.6-134.3c0.2,0.2,0.2,0.5,0.1,0.7l-3.9,4.7l3.9,4.7c0.2,0.2,0.1,0.5-0.1,0.7c-0.2,0.2-0.5,0.1-0.7-0.1
		l-4.2-5c-0.1-0.1-0.1-0.2-0.1-0.3c0-0.1,0-0.2,0.1-0.3l4.2-5C-212.1-134.5-211.8-134.5-211.6-134.3z"/>
</g>
<g>
	<path class="st1" d="M-144-113.3c-0.4,0.3-0.4,0.8-0.1,1.2l6.9,8.2l-6.9,8.2c-0.3,0.4-0.3,0.9,0.1,1.2c0.4,0.3,0.9,0.3,1.2-0.1
		l7.3-8.8c0.1-0.2,0.2-0.4,0.2-0.6c0-0.2-0.1-0.4-0.2-0.6l-7.3-8.8C-143.1-113.5-143.6-113.6-144-113.3z"/>
</g>
<g>
	<path class="st1" d="M-154.7-113.3c0.4,0.3,0.4,0.8,0.1,1.2l-6.9,8.2l6.9,8.2c0.3,0.4,0.3,0.9-0.1,1.2c-0.4,0.3-0.9,0.3-1.2-0.1
		l-7.3-8.8c-0.1-0.2-0.2-0.4-0.2-0.6c0-0.2,0.1-0.4,0.2-0.6l7.3-8.8C-155.6-113.5-155.1-113.6-154.7-113.3z"/>
</g>
<g>
	<path class="st5" d="M-192.8-113.3c-0.4,0.3-0.4,0.8-0.1,1.2l6.9,8.2l-6.9,8.2c-0.3,0.4-0.3,0.9,0.1,1.2c0.4,0.3,0.9,0.3,1.2-0.1
		l7.3-8.8c0.1-0.2,0.2-0.4,0.2-0.6c0-0.2-0.1-0.4-0.2-0.6l-7.3-8.8C-191.9-113.5-192.5-113.6-192.8-113.3z"/>
</g>
<g>
	<path class="st5" d="M-203.6-113.3c0.4,0.3,0.4,0.8,0.1,1.2l-6.9,8.2l6.9,8.2c0.3,0.4,0.3,0.9-0.1,1.2c-0.4,0.3-0.9,0.3-1.2-0.1
		l-7.3-8.8c-0.1-0.2-0.2-0.4-0.2-0.6c0-0.2,0.1-0.4,0.2-0.6l7.3-8.8C-204.5-113.5-204-113.6-203.6-113.3z"/>
</g>
<g>
	<path class="st1" d="M-174.4-134.3c-0.2,0.2-0.2,0.5-0.1,0.7l3.9,4.7l-3.9,4.7c-0.2,0.2-0.1,0.5,0.1,0.7c0.2,0.2,0.5,0.1,0.7-0.1
		l4.2-5c0.1-0.1,0.1-0.2,0.1-0.3c0-0.1,0-0.2-0.1-0.3l-4.2-5C-173.9-134.5-174.2-134.5-174.4-134.3z"/>
</g>
<g>
	<path class="st1" d="M-180.6-134.3c0.2,0.2,0.2,0.5,0.1,0.7l-3.9,4.7l3.9,4.7c0.2,0.2,0.1,0.5-0.1,0.7c-0.2,0.2-0.5,0.1-0.7-0.1
		l-4.2-5c-0.1-0.1-0.1-0.2-0.1-0.3c0-0.1,0-0.2,0.1-0.3l4.2-5C-181.1-134.5-180.8-134.5-180.6-134.3z"/>
</g>
<g>
	<line class="st35" x1="-123.8" y1="-132.5" x2="-123.8" y2="-120.5"/>
	<line class="st35" x1="-117.8" y1="-126.5" x2="-129.8" y2="-126.5"/>
</g>
<g id="Mail_1">
	<g id="_Group_">
		<path id="_Rectangle_" class="st4" d="M-274.7-136.1h16.7c0.5,0,1,0.5,1,1v11.6c0,0.5-0.5,1-1,1h-16.7c-0.5,0-1-0.5-1-1v-11.6
			C-275.7-135.7-275.3-136.1-274.7-136.1z"/>
		<rect id="_Rectangle_2" x="-262.8" y="-133.6" class="st4" width="3.2" height="3.9"/>
		<line id="_Path_" class="st4" x1="-273.1" y1="-125.2" x2="-266.7" y2="-125.2"/>
		<line id="_Path_2" class="st4" x1="-273.1" y1="-127.1" x2="-269.9" y2="-127.1"/>
	</g>
</g>
<g>
	<path class="st0" d="M-386.5-96.9c0.1,0.4-0.3,1.2-1.3,2.5c-0.1,0.2-0.3,0.4-0.6,0.7c-0.2,0.3-0.4,0.5-0.5,0.6
		c-0.1,0.1-0.2,0.3-0.3,0.4c-0.1,0.2-0.1,0.3-0.1,0.4c0,0.1,0.1,0.2,0.1,0.3c0.1,0.1,0.1,0.2,0.3,0.4c0.1,0.1,0.3,0.3,0.5,0.5
		c0,0,0,0,0,0c0.8,0.8,1.4,1.4,1.6,1.9c0,0,0,0.1,0.1,0.1c0,0,0,0.1,0.1,0.2c0,0.1,0,0.2,0,0.3c0,0.1-0.1,0.2-0.2,0.2
		c-0.1,0.1-0.3,0.1-0.5,0.1l-2.2,0c-0.1,0-0.3,0-0.5,0c-0.2-0.1-0.3-0.1-0.4-0.2l-0.2-0.1c-0.2-0.1-0.4-0.3-0.6-0.6
		c-0.2-0.2-0.4-0.5-0.6-0.7c-0.2-0.2-0.3-0.4-0.5-0.5c-0.2-0.1-0.3-0.2-0.5-0.1c0,0,0,0-0.1,0c0,0-0.1,0.1-0.1,0.1
		c-0.1,0.1-0.1,0.2-0.2,0.3c-0.1,0.1-0.1,0.3-0.1,0.4c0,0.2-0.1,0.4-0.1,0.7c0,0.1,0,0.2,0,0.2c0,0.1,0,0.1-0.1,0.2l0,0
		c-0.1,0.1-0.3,0.2-0.5,0.2h-1c-0.4,0-0.8,0-1.3-0.1c-0.4-0.1-0.8-0.3-1.1-0.5c-0.3-0.2-0.6-0.4-0.9-0.6c-0.3-0.2-0.5-0.4-0.6-0.5
		l-0.2-0.2c-0.1-0.1-0.1-0.1-0.2-0.3c-0.1-0.1-0.3-0.4-0.6-0.8s-0.6-0.8-0.9-1.3c-0.3-0.5-0.7-1.1-1.1-1.8c-0.4-0.8-0.8-1.5-1.1-2.3
		c0-0.1-0.1-0.2-0.1-0.2c0-0.1,0-0.1,0-0.1l0-0.1c0.1-0.1,0.3-0.2,0.5-0.2l2.4,0c0.1,0,0.1,0,0.2,0.1c0.1,0,0.1,0.1,0.1,0.1l0,0
		c0.1,0.1,0.2,0.2,0.2,0.3c0.1,0.3,0.2,0.6,0.4,0.9c0.1,0.3,0.3,0.5,0.4,0.7l0.1,0.3c0.2,0.3,0.3,0.6,0.5,0.9
		c0.2,0.3,0.3,0.5,0.4,0.6s0.2,0.3,0.4,0.3c0.1,0.1,0.2,0.1,0.3,0.1s0.2,0,0.2,0c0,0,0,0,0,0s0.1-0.1,0.1-0.2
		c0.1-0.1,0.1-0.2,0.1-0.4c0-0.2,0.1-0.4,0.1-0.7c0-0.3,0-0.7,0-1.1c0-0.2,0-0.4-0.1-0.6s-0.1-0.3-0.1-0.4l-0.1-0.1
		c-0.1-0.2-0.4-0.3-0.7-0.4c-0.1,0-0.1-0.1,0-0.2c0.1-0.1,0.2-0.2,0.3-0.3c0.3-0.1,1-0.2,2.1-0.2c0.5,0,0.9,0,1.2,0.1
		c0.1,0,0.2,0.1,0.3,0.1c0.1,0,0.1,0.1,0.2,0.2c0,0.1,0.1,0.2,0.1,0.3c0,0.1,0,0.2,0,0.4c0,0.2,0,0.3,0,0.5c0,0.1,0,0.4,0,0.6
		c0,0.3,0,0.5,0,0.7c0,0.1,0,0.2,0,0.4c0,0.2,0,0.3,0,0.4c0,0.1,0,0.2,0,0.3c0,0.1,0.1,0.2,0.1,0.3c0,0.1,0.1,0.2,0.2,0.2
		c0,0,0.1,0,0.1,0s0.1,0,0.2-0.1c0.1-0.1,0.2-0.2,0.3-0.3c0.1-0.1,0.3-0.3,0.4-0.6c0.2-0.3,0.4-0.6,0.6-0.9c0.3-0.6,0.7-1.2,0.9-1.9
		c0-0.1,0.1-0.1,0.1-0.2c0,0,0.1-0.1,0.1-0.1l0,0c0,0,0,0,0,0c0,0,0.1,0,0.1,0c0.1,0,0.1,0,0.2,0l2.5,0c0.2,0,0.4,0,0.6,0
		C-386.6-97.1-386.6-97-386.5-96.9L-386.5-96.9z"/>
</g>
<g>
	<path class="st0" d="M-366.5-93.1c0.1,0.2,0.1,0.3,0.1,0.4c0,0.1,0,0.2,0,0.3c0,0.1-0.1,0.2-0.2,0.3c-0.1,0.1-0.2,0.2-0.4,0.3
		c-0.1,0.1-0.3,0.2-0.5,0.4c-0.7,0.4-1.6,0.7-2.7,0.8l0.6,0.6l2.3,2.3c0.2,0.2,0.3,0.4,0.3,0.6c0,0.2-0.1,0.5-0.3,0.6l-0.1,0.1
		c-0.2,0.2-0.4,0.3-0.6,0.3c-0.2,0-0.5-0.1-0.6-0.3c-0.4-0.4-1.2-1.2-2.3-2.3l-2.3,2.3c-0.2,0.2-0.4,0.3-0.6,0.3
		c-0.2,0-0.5-0.1-0.6-0.3l-0.1-0.1c-0.2-0.2-0.3-0.4-0.3-0.6c0-0.2,0.1-0.5,0.3-0.6l2.3-2.3l0.6-0.6c-1.2-0.1-2.1-0.4-2.7-0.8
		c-0.2-0.1-0.4-0.3-0.5-0.4c-0.1-0.1-0.3-0.2-0.4-0.3c-0.1-0.1-0.2-0.2-0.2-0.3c0-0.1-0.1-0.2,0-0.3c0-0.1,0.1-0.3,0.1-0.4
		c0.1-0.1,0.1-0.2,0.2-0.3c0.1-0.1,0.2-0.1,0.4-0.2c0.1,0,0.3,0,0.5,0c0.2,0.1,0.4,0.2,0.6,0.3c0,0,0.1,0.1,0.1,0.1
		c0.1,0,0.2,0.1,0.4,0.2c0.2,0.1,0.4,0.2,0.6,0.3c0.2,0.1,0.5,0.1,0.8,0.2c0.3,0.1,0.6,0.1,1,0.1c0.5,0,1-0.1,1.5-0.2
		c0.5-0.1,0.8-0.3,1-0.4l0.3-0.2c0.2-0.1,0.4-0.3,0.6-0.3c0.2-0.1,0.3-0.1,0.5,0c0.1,0,0.3,0.1,0.4,0.2
		C-366.6-93.3-366.6-93.2-366.5-93.1z M-368.2-94.7c-0.8,0.8-1.7,1.1-2.8,1.1c-1.1,0-2-0.4-2.8-1.1c-0.8-0.8-1.1-1.7-1.1-2.8
		c0-1.1,0.4-2,1.1-2.8c0.8-0.8,1.7-1.1,2.8-1.1c1.1,0,2,0.4,2.8,1.1c0.8,0.8,1.1,1.7,1.1,2.8C-367.1-96.4-367.5-95.5-368.2-94.7z
		 M-369.6-98.8c-0.4-0.4-0.8-0.6-1.4-0.6c-0.5,0-1,0.2-1.4,0.6c-0.4,0.4-0.6,0.8-0.6,1.4c0,0.5,0.2,1,0.6,1.4
		c0.4,0.4,0.8,0.6,1.4,0.6c0.5,0,1-0.2,1.4-0.6c0.4-0.4,0.6-0.8,0.6-1.4C-369.1-98-369.3-98.5-369.6-98.8z"/>
</g>
<g>
	<path class="st0" d="M-409.4-100v2.3h-1.4c-0.5,0-0.8,0.1-1,0.3c-0.2,0.2-0.3,0.5-0.3,0.9v1.6h2.5l-0.3,2.6h-2.2v6.5h-2.6v-6.5
		h-2.2v-2.6h2.2v-1.9c0-1.1,0.3-1.9,0.9-2.5c0.6-0.6,1.4-0.9,2.4-0.9C-410.5-100.1-409.9-100.1-409.4-100z"/>
</g>
<g>
	<path class="st38" d="M-386.5-77.6c0.1,0.4-0.3,1.2-1.3,2.5c-0.1,0.2-0.3,0.4-0.6,0.7c-0.2,0.3-0.4,0.5-0.5,0.6
		c-0.1,0.1-0.2,0.3-0.3,0.4c-0.1,0.2-0.1,0.3-0.1,0.4c0,0.1,0.1,0.2,0.1,0.3c0.1,0.1,0.1,0.2,0.3,0.4c0.1,0.1,0.3,0.3,0.5,0.5
		c0,0,0,0,0,0c0.8,0.8,1.4,1.4,1.6,1.9c0,0,0,0.1,0.1,0.1c0,0,0,0.1,0.1,0.2c0,0.1,0,0.2,0,0.3c0,0.1-0.1,0.2-0.2,0.2
		c-0.1,0.1-0.3,0.1-0.5,0.1l-2.2,0c-0.1,0-0.3,0-0.5,0c-0.2-0.1-0.3-0.1-0.4-0.2l-0.2-0.1c-0.2-0.1-0.4-0.3-0.6-0.6
		c-0.2-0.2-0.4-0.5-0.6-0.7c-0.2-0.2-0.3-0.4-0.5-0.5c-0.2-0.1-0.3-0.2-0.5-0.1c0,0,0,0-0.1,0c0,0-0.1,0.1-0.1,0.1
		c-0.1,0.1-0.1,0.2-0.2,0.3c-0.1,0.1-0.1,0.3-0.1,0.4c0,0.2-0.1,0.4-0.1,0.7c0,0.1,0,0.2,0,0.2c0,0.1,0,0.1-0.1,0.2l0,0
		c-0.1,0.1-0.3,0.2-0.5,0.2h-1c-0.4,0-0.8,0-1.3-0.1c-0.4-0.1-0.8-0.3-1.1-0.5c-0.3-0.2-0.6-0.4-0.9-0.6c-0.3-0.2-0.5-0.4-0.6-0.5
		l-0.2-0.2c-0.1-0.1-0.1-0.1-0.2-0.3c-0.1-0.1-0.3-0.4-0.6-0.8s-0.6-0.8-0.9-1.3c-0.3-0.5-0.7-1.1-1.1-1.8c-0.4-0.8-0.8-1.5-1.1-2.3
		c0-0.1-0.1-0.2-0.1-0.2c0-0.1,0-0.1,0-0.1l0-0.1c0.1-0.1,0.3-0.2,0.5-0.2l2.4,0c0.1,0,0.1,0,0.2,0.1c0.1,0,0.1,0.1,0.1,0.1l0,0
		c0.1,0.1,0.2,0.2,0.2,0.3c0.1,0.3,0.2,0.6,0.4,0.9c0.1,0.3,0.3,0.5,0.4,0.7l0.1,0.3c0.2,0.3,0.3,0.6,0.5,0.9
		c0.2,0.3,0.3,0.5,0.4,0.6s0.2,0.3,0.4,0.3c0.1,0.1,0.2,0.1,0.3,0.1s0.2,0,0.2,0c0,0,0,0,0,0c0,0,0.1-0.1,0.1-0.2
		c0.1-0.1,0.1-0.2,0.1-0.4c0-0.2,0.1-0.4,0.1-0.7c0-0.3,0-0.7,0-1.1c0-0.2,0-0.4-0.1-0.6c0-0.2-0.1-0.3-0.1-0.4l-0.1-0.1
		c-0.1-0.2-0.4-0.3-0.7-0.4c-0.1,0-0.1-0.1,0-0.2c0.1-0.1,0.2-0.2,0.3-0.3c0.3-0.1,1-0.2,2.1-0.2c0.5,0,0.9,0,1.2,0.1
		c0.1,0,0.2,0.1,0.3,0.1c0.1,0,0.1,0.1,0.2,0.2c0,0.1,0.1,0.2,0.1,0.3c0,0.1,0,0.2,0,0.4c0,0.2,0,0.3,0,0.5c0,0.1,0,0.4,0,0.6
		c0,0.3,0,0.5,0,0.7c0,0.1,0,0.2,0,0.4c0,0.2,0,0.3,0,0.4c0,0.1,0,0.2,0,0.3c0,0.1,0.1,0.2,0.1,0.3c0,0.1,0.1,0.2,0.2,0.2
		c0,0,0.1,0,0.1,0s0.1,0,0.2-0.1c0.1-0.1,0.2-0.2,0.3-0.3c0.1-0.1,0.3-0.3,0.4-0.6c0.2-0.3,0.4-0.6,0.6-0.9c0.3-0.6,0.7-1.2,0.9-1.9
		c0-0.1,0.1-0.1,0.1-0.2c0,0,0.1-0.1,0.1-0.1l0,0c0,0,0,0,0,0c0,0,0.1,0,0.1,0c0.1,0,0.1,0,0.2,0l2.5,0c0.2,0,0.4,0,0.6,0
		C-386.6-77.8-386.6-77.7-386.5-77.6L-386.5-77.6z"/>
</g>
<g>
	<path class="st39" d="M-366.5-73.8c0.1,0.2,0.1,0.3,0.1,0.4c0,0.1,0,0.2,0,0.3c0,0.1-0.1,0.2-0.2,0.3c-0.1,0.1-0.2,0.2-0.4,0.3
		c-0.1,0.1-0.3,0.2-0.5,0.4c-0.7,0.4-1.6,0.7-2.7,0.8l0.6,0.6l2.3,2.3c0.2,0.2,0.3,0.4,0.3,0.6c0,0.2-0.1,0.5-0.3,0.6l-0.1,0.1
		c-0.2,0.2-0.4,0.3-0.6,0.3c-0.2,0-0.5-0.1-0.6-0.3c-0.4-0.4-1.2-1.2-2.3-2.3l-2.3,2.3c-0.2,0.2-0.4,0.3-0.6,0.3
		c-0.2,0-0.5-0.1-0.6-0.3l-0.1-0.1c-0.2-0.2-0.3-0.4-0.3-0.6c0-0.2,0.1-0.5,0.3-0.6l2.3-2.3l0.6-0.6c-1.2-0.1-2.1-0.4-2.7-0.8
		c-0.2-0.1-0.4-0.3-0.5-0.4c-0.1-0.1-0.3-0.2-0.4-0.3c-0.1-0.1-0.2-0.2-0.2-0.3c0-0.1-0.1-0.2,0-0.3c0-0.1,0.1-0.3,0.1-0.4
		c0.1-0.1,0.1-0.2,0.2-0.3c0.1-0.1,0.2-0.1,0.4-0.2c0.1,0,0.3,0,0.5,0c0.2,0.1,0.4,0.2,0.6,0.3c0,0,0.1,0.1,0.1,0.1
		c0.1,0,0.2,0.1,0.4,0.2c0.2,0.1,0.4,0.2,0.6,0.3c0.2,0.1,0.5,0.1,0.8,0.2s0.6,0.1,1,0.1c0.5,0,1-0.1,1.5-0.2c0.5-0.1,0.8-0.3,1-0.4
		l0.3-0.2c0.2-0.1,0.4-0.3,0.6-0.3c0.2-0.1,0.3-0.1,0.5,0c0.1,0,0.3,0.1,0.4,0.2C-366.6-74-366.6-73.9-366.5-73.8z M-368.2-75.4
		c-0.8,0.8-1.7,1.1-2.8,1.1c-1.1,0-2-0.4-2.8-1.1c-0.8-0.8-1.1-1.7-1.1-2.8c0-1.1,0.4-2,1.1-2.8c0.8-0.8,1.7-1.1,2.8-1.1
		c1.1,0,2,0.4,2.8,1.1c0.8,0.8,1.1,1.7,1.1,2.8C-367.1-77.1-367.5-76.2-368.2-75.4z M-369.6-79.5c-0.4-0.4-0.8-0.6-1.4-0.6
		c-0.5,0-1,0.2-1.4,0.6c-0.4,0.4-0.6,0.8-0.6,1.4c0,0.5,0.2,1,0.6,1.4c0.4,0.4,0.8,0.6,1.4,0.6c0.5,0,1-0.2,1.4-0.6
		c0.4-0.4,0.6-0.8,0.6-1.4C-369.1-78.7-369.3-79.1-369.6-79.5z"/>
</g>
<g>
	<path class="st40" d="M-409.4-80.7v2.3h-1.4c-0.5,0-0.8,0.1-1,0.3c-0.2,0.2-0.3,0.5-0.3,0.9v1.6h2.5l-0.3,2.6h-2.2v6.5h-2.6V-73
		h-2.2v-2.6h2.2v-1.9c0-1.1,0.3-1.9,0.9-2.5c0.6-0.6,1.4-0.9,2.4-0.9C-410.5-80.8-409.9-80.8-409.4-80.7z"/>
</g>
<path class="st35" d="M-306.1-65.1c-0.4,0-0.8,0-1.2-0.2c-1.6-0.4-5.6-4.5-6-6c-0.1-0.4-0.2-0.7-0.2-1.1"/>
<path class="st35" d="M-309.3-80.4c2.2-2.4,4.5-4.2,4.8-4.4c5.6-4,13.4-5.6,16-5.4c0.3,2.5-1.3,10.4-5.3,16c-0.3,0.4-2,2.6-4.4,4.8"
	/>
<path class="st35" d="M-297.4-77.4c-1.1,1.7-3.5,1.7-4.6,0c-0.6-0.9-0.6-2.2,0-3.1c1.1-1.7,3.5-1.7,4.6,0
	C-296.7-79.6-296.7-78.4-297.4-77.4z"/>
<circle class="st35" cx="-294.9" cy="-83.8" r="1.7"/>
<path class="st35" d="M-313.4-72.5l-7.3-1.5l3.7-3.7c2.3-2.3,5.5-3.2,8.6-2.6l2.3,0.5L-313.4-72.5z"/>
<path class="st35" d="M-306.1-65.2l1.5,7.3l3.7-3.7c2.3-2.3,3.2-5.5,2.6-8.6l-0.5-2.3L-306.1-65.2z"/>
<line class="st35" x1="-303.5" y1="-75.3" x2="-314.7" y2="-64"/>
<g>
	<path class="st10" d="M-234.5-76.9c-0.1-0.3-0.2-0.6-0.4-0.9c0,0,0,0,0-0.1c-0.2-0.3-0.3-0.5-0.5-0.8c0,0,0-0.1-0.1-0.1
		c-0.2-0.2-0.4-0.5-0.7-0.6c0,0-0.1-0.1-0.1-0.1c-0.3-0.2-0.5-0.4-0.8-0.5c0,0,0,0,0,0c0,0,0,0,0,0c-0.3-0.1-0.6-0.3-0.9-0.4
		c0,0-0.1,0-0.1,0c-0.3-0.1-0.6-0.1-0.9-0.2c0,0-0.1,0-0.1,0c-0.3,0-0.6,0-0.9,0c0,0,0,0-0.1,0c-0.3,0-0.7,0.1-1,0.2
		c-1.4,0.4-2.5,1.4-3.1,2.6c-0.7,1.3-0.8,2.7-0.4,4.1l0,0c0.1,0.3,0.2,0.6,0.4,0.9c0.1,0.1,0.1,0.2,0.2,0.3c0.1,0.2,0.2,0.3,0.3,0.5
		c0.1,0.1,0.2,0.2,0.3,0.3c0.1,0.1,0.3,0.3,0.4,0.4c0.1,0.1,0.2,0.2,0.3,0.3c0.2,0.1,0.4,0.3,0.6,0.4c0.1,0,0.1,0.1,0.2,0.1
		c0,0,0,0,0.1,0c0,0,0,0,0,0c0.2,0.1,0.4,0.2,0.7,0.3c0,0,0.1,0,0.2,0c0.2,0.1,0.4,0.1,0.6,0.2c0,0,0.1,0,0.1,0
		c0.3,0,0.5,0.1,0.8,0.1c0.5,0,1.1-0.1,1.6-0.2c1.4-0.4,2.5-1.4,3.1-2.6C-234.2-74.1-234.1-75.5-234.5-76.9L-234.5-76.9z
		 M-238.6-72.1c-1.3,0.4-2.6,0-3.5-1c0,0-0.1,0-0.1-0.1c-0.1-0.1-0.2-0.3-0.3-0.4c0-0.1-0.1-0.1-0.1-0.1c-0.1-0.2-0.2-0.3-0.2-0.5
		c0,0,0-0.1,0-0.1c-0.3-0.9-0.2-1.8,0.2-2.6c0.4-0.8,1.1-1.4,2-1.6c0.2-0.1,0.4-0.1,0.7-0.1c0,0,0.1,0,0.1,0
		c1.1-0.1,2.1,0.4,2.8,1.2c0,0,0,0,0,0c0.1,0.1,0.2,0.3,0.3,0.5c0,0,0,0.1,0.1,0.1c0.1,0.2,0.2,0.4,0.3,0.6l0,0l0,0
		c0,0.1,0.1,0.3,0.1,0.4c0.1,0.7,0,1.5-0.3,2.1C-237.1-72.9-237.8-72.4-238.6-72.1z"/>
	<path class="st10" d="M-220.3-74c-1.6-1.9-3.6-3.7-5.9-5.5c2.9-8.9,2.5-16.3-1.5-18.4l0,0l0,0c-2.9-1.5-6.9,0-11.1,3.8
		c-1.7,1.5-3.3,3.3-4.9,5.4c-0.3-0.1-0.5-0.2-0.8-0.2c-0.4-0.1-0.9-0.3-1.3-0.4c-0.2-0.1-0.4-0.1-0.6-0.2c-0.5-0.1-1-0.3-1.5-0.4
		c-0.1,0-0.2,0-0.3-0.1c-0.6-0.1-1.2-0.2-1.8-0.3c0,0,0,0,0,0c-0.5-0.1-1-0.2-1.4-0.2c-5.4-0.6-9.1,0.6-10.5,3.3
		c-1.4,2.7-0.3,6.4,3.3,10.5c1.6,1.9,3.6,3.7,5.9,5.5c-2.9,8.9-2.5,16.3,1.5,18.4l0,0l0,0c0.7,0.4,1.5,0.6,2.4,0.6
		c1,0,2.1-0.3,3.3-0.7c0.3-0.1,0.6-0.3,0.9-0.4c0.1,0,0.2-0.1,0.2-0.1c2.9-1.6,6.1-4.5,9.2-8.5c0.3,0.1,0.6,0.2,0.9,0.3
		c0.2,0.1,0.4,0.1,0.6,0.2c2.2,0.6,4.4,1.1,6.4,1.3c0.9,0.1,1.8,0.1,2.6,0.1c4,0,6.8-1.2,8-3.4C-215.7-66.1-216.8-69.8-220.3-74z
		 M-227.9-80.7c-2.1-1.5-4.3-2.8-6.7-4.1c-0.1-0.1-0.2-0.1-0.3-0.2c-0.6-0.3-1.3-0.7-1.9-1c-0.4-0.2-0.7-0.3-1.1-0.5
		c-0.4-0.2-0.8-0.4-1.2-0.5c-0.4-0.2-0.8-0.3-1.1-0.5c-0.4-0.2-0.8-0.3-1.1-0.4c-0.1,0-0.2-0.1-0.4-0.1c2.1-2.6,4.2-4.7,6.1-6.1
		c2.9-2.1,5.4-2.8,7-2C-226-94.6-225.5-88.7-227.9-80.7z M-236.2-64.3c-1.1-0.4-2.1-0.8-3.2-1.3c-0.1,0-0.1-0.1-0.2-0.1
		c-0.6-0.3-1.3-0.6-1.9-0.9c-0.7-0.3-1.4-0.7-2.2-1.1c-2.5-1.3-4.8-2.8-6.9-4.3c0.9-2.4,1.9-4.9,3.3-7.5c1.4-2.6,2.8-4.9,4.3-6.9
		c1.7,0.6,3.5,1.4,5.3,2.2c0.6,0.3,1.1,0.5,1.7,0.8c0.2,0.1,0.3,0.2,0.5,0.2l0,0l0,0c2.5,1.3,4.8,2.8,6.9,4.3
		c-0.9,2.4-1.9,4.9-3.3,7.5C-233.3-68.6-234.7-66.3-236.2-64.3z M-257.4-77.9c-2.9-3.4-4-6.4-3-8.3c0.1-0.2,0.3-0.5,0.5-0.7
		c0.1-0.1,0.2-0.2,0.3-0.3c0.1-0.1,0.2-0.2,0.3-0.3c0.1-0.1,0.2-0.1,0.4-0.2c0.2-0.1,0.3-0.2,0.5-0.3c0,0,0.1,0,0.1,0
		c1.5-0.6,3.8-0.8,6.5-0.5c2.1,0.2,4.4,0.7,6.8,1.5c-1.4,2-2.8,4.3-4.1,6.7c-1.3,2.4-2.3,4.8-3.2,7.1
		C-254.3-74.7-256-76.3-257.4-77.9z M-251.3-69.9c2.1,1.5,4.3,2.8,6.7,4.1c0.8,0.4,1.7,0.8,2.5,1.2c0.3,0.1,0.6,0.3,0.8,0.4
		c0.5,0.2,1.1,0.5,1.6,0.7c0.3,0.1,0.6,0.3,0.9,0.4c0.4,0.2,0.8,0.3,1.3,0.5c-1.2,1.5-2.4,2.9-3.6,4c-3.9,3.7-7.5,5.2-9.5,4.1
		C-253.3-55.9-253.8-61.9-251.3-69.9z M-219.3-63.7c-0.1,0.1-0.3,0.3-0.5,0.4c-0.1,0.1-0.1,0.1-0.2,0.2c-0.1,0.1-0.3,0.2-0.4,0.2
		c-0.1,0.1-0.3,0.2-0.4,0.2c0,0-0.1,0-0.1,0c-1.5,0.6-3.7,0.8-6.4,0.5c-2.1-0.2-4.4-0.7-6.8-1.5c1.4-2,2.8-4.2,4.1-6.7
		c1.3-2.4,2.3-4.8,3.2-7.1c2,1.6,3.7,3.2,5.1,4.8c2.9,3.4,4,6.4,3,8.3C-219-64.1-219.1-63.9-219.3-63.7z"/>
</g>
</svg>
