<?xml version="1.0" encoding="utf-8"?>
<!-- Generator: Adobe Illustrator 19.1.1, SVG Export Plug-In . SVG Version: 6.00 Build 0)  -->
<svg version="1.1" id="Layer_1" xmlns="http://www.w3.org/2000/svg" xmlns:xlink="http://www.w3.org/1999/xlink" x="0px" y="0px"
	 viewBox="0 0 74.3 47.9" style="enable-background:new 0 0 74.3 47.9;" xml:space="preserve">
<style type="text/css">
	.st0{fill:#354A9F;}
	.st1{fill:#EF3E57;}
	.st2{fill:#04AA4D;}
</style>
<g>
	<g>
		<path class="st0" d="M5.5,14.1c-2.5,0-4.6-2.1-4.6-4.6S3,4.9,5.5,4.9s4.6,2.1,4.6,4.6S8.1,14.1,5.5,14.1z M5.5,7.7
			c-1,0-1.8,0.8-1.8,1.8c0,1,0.8,1.8,1.8,1.8s1.8-0.8,1.8-1.8C7.3,8.5,6.5,7.7,5.5,7.7z"/>
		<g>
			<rect x="8.9" y="3.6" transform="matrix(0.7071 0.7071 -0.7071 0.7071 6.5545 -5.1195)" class="st0" width="1.1" height="3.4"/>
			<rect x="1.1" y="12" transform="matrix(0.7071 0.7071 -0.7071 0.7071 10.1775 2.8806)" class="st0" width="1.1" height="3.4"/>
			<rect x="-0.1" y="4.8" transform="matrix(0.7071 0.7071 -0.7071 0.7071 4.2567 0.4281)" class="st0" width="3.4" height="1.1"/>
			<rect x="7.7" y="13.2" transform="matrix(0.7072 0.707 -0.707 0.7072 12.4736 -2.6671)" class="st0" width="3.4" height="1.1"/>
		</g>
	</g>
	<path class="st1" d="M49.3,47.9l-5.8-12.1l4.1-6.7l12.9,9.3L49.3,47.9z M45.5,35.9l4.4,9.1l7.6-6.5l-9.4-6.8L45.5,35.9z"/>
	
		<rect x="37.3" y="33.3" transform="matrix(0.9086 0.4178 -0.4178 0.9086 18.0611 -14.0121)" class="st1" width="7.6" height="1.8"/>
	<polygon class="st1" points="22.4,29.2 19,16.1 30,14.4 30.3,16.2 21.3,17.6 24.2,28.7 	"/>
	<polygon class="st1" points="21.1,16.9 19.3,16.8 19.7,5.7 25.4,6.4 32.1,11.2 30.7,15.4 29,14.8 30,11.9 24.7,8.1 21.4,7.7 	"/>
	<polygon class="st1" points="57.2,14.3 55.8,13.2 62,5 31.2,12.4 30.8,10.7 66.6,2 	"/>
	<polygon class="st1" points="19.5,17.5 10.2,9.1 19.9,5.7 20.5,7.4 13.7,9.8 20.8,16.1 	"/>
	<path class="st2" d="M37.8,34.1l-15.4-4.9l6.7-14.6l0.1,0l0,0L74.3,12L48.1,31L37.8,34.1z M31.8,16.2L38.3,32l9-2.6l21-15.3
		L31.8,16.2z M24.9,28.1l11.3,3.6l-6.1-14.9L24.9,28.1z"/>
</g>
</svg>
