<?xml version="1.0" encoding="utf-8"?>
<!-- Generator: Adobe Illustrator 19.1.1, SVG Export Plug-In . SVG Version: 6.00 Build 0)  -->
<svg version="1.1" id="Layer_1" xmlns="http://www.w3.org/2000/svg" xmlns:xlink="http://www.w3.org/1999/xlink" x="0px" y="0px"
	 viewBox="0 0 209 47.9" style="enable-background:new 0 0 209 47.9;" xml:space="preserve">
<style type="text/css">
	.st0{fill:#212121;}
	.st1{fill:#354A9F;}
	.st2{fill:#EF3E57;}
	.st3{fill:#04AA4D;}
</style>
<g>
	<g>
		<g>
			<path class="st0" d="M89.6,8.4c-0.5,0.5-1.4,0.8-2.3,0.8c-2.2,0-3.8-1.5-3.8-3.8c0-2.1,1.3-3.8,3.7-3.8c1,0,1.7,0.3,2.2,0.7
				l-0.6,1c-0.4-0.3-0.9-0.5-1.7-0.5c-1.4,0-2.4,1-2.4,2.6c0,1.5,1,2.6,2.5,2.6c0.6,0,1.2-0.2,1.7-0.6L89.6,8.4z"/>
			<path class="st0" d="M94.9,1.7c2.2,0,3.8,1.5,3.8,3.8c0,2.2-1.6,3.8-3.8,3.8c-2.2,0-3.8-1.5-3.8-3.8C91.1,3.3,92.6,1.7,94.9,1.7z
				 M94.9,8c1.5,0,2.5-1.1,2.5-2.6c0-1.5-1.1-2.6-2.5-2.6c-1.4,0-2.4,1.1-2.4,2.6C92.5,6.9,93.5,8,94.9,8z"/>
			<path class="st0" d="M101.1,1.8h1.3v6.1h3.2V1.8h1.3v6.1h1v2.5h-1.2V9.1h-5.6V1.8z"/>
			<path class="st0" d="M110.1,9.1V1.8h1.3V7l3.8-5.2h1.1v7.3H115V3.9l-3.8,5.2H110.1z"/>
			<path class="st0" d="M121.5,1.8h1.1l3.1,7.3h-1.4l-0.8-1.9h-3.1l-0.8,1.9h-1.3L121.5,1.8z M121,6h2.1L122,3.4L121,6z"/>
			<path class="st0" d="M132.6,3h-2.1l-0.1,1.4c-0.4,4.3-1.4,4.9-2.8,4.7l0-1.3c0.6,0.1,1.3-0.2,1.6-4.6l0.1-1.5h4.6v7.3h-1.3V3z"/>
			<path class="st0" d="M138,4.3c0.3,0,0.6-0.1,0.8-0.1c1.9,0,2.8,0.9,2.8,2.4c0,1.5-1.1,2.5-3,2.5c-0.7,0-1.4,0-1.9,0V1.8h1.3V4.3z
				 M138,5.5v2.4c0.2,0,0.5,0,0.7,0c0.9,0,1.5-0.4,1.5-1.3c0-0.8-0.6-1.2-1.5-1.2C138.5,5.4,138.3,5.5,138,5.5z"/>
			<path class="st0" d="M148.5,6h-3.3v3.1h-1.3V1.8h1.3v3h3.3v-3h1.3v7.3h-1.3V6z"/>
			<path class="st0" d="M153.9,4.3c0.3,0,0.6-0.1,0.8-0.1c1.8,0,2.7,0.9,2.7,2.4c0,1.5-1.1,2.5-3,2.5c-0.7,0-1.4,0-1.8,0V1.8h1.3
				V4.3z M153.9,5.5v2.4c0.2,0,0.4,0,0.7,0c0.9,0,1.4-0.4,1.4-1.3c0-0.8-0.5-1.2-1.4-1.2C154.4,5.4,154.2,5.5,153.9,5.5z M158.4,1.8
				h1.3v7.3h-1.3V1.8z"/>
			<path class="st0" d="M162.5,9.1V1.8h1.3V7l3.8-5.2h1.1v7.3h-1.3V3.9l-3.8,5.2H162.5z M164.9,0c0.1,0.4,0.4,0.6,0.9,0.6
				c0.5,0,0.8-0.2,0.8-0.6h1.2c0,0.9-0.9,1.5-2,1.5c-1.3,0-2-0.6-2.1-1.5H164.9z"/>
			<path class="st0" d="M84,14.3h1.3v3.5l2.9-3.5h1.5l-3,3.4l3.2,3.9h-1.6l-3-3.8v3.8H84V14.3z"/>
			<path class="st0" d="M94.8,14.2c2.2,0,3.8,1.5,3.8,3.8c0,2.2-1.6,3.8-3.8,3.8c-2.2,0-3.8-1.5-3.8-3.8
				C91,15.9,92.6,14.2,94.8,14.2z M94.8,20.6c1.5,0,2.5-1.1,2.5-2.6c0-1.5-1.1-2.6-2.5-2.6c-1.4,0-2.4,1.1-2.4,2.6
				C92.4,19.5,93.4,20.6,94.8,20.6z"/>
			<path class="st0" d="M105.6,18.5h-3.3v3.1H101v-7.3h1.3v3h3.3v-3h1.3v7.3h-1.3V18.5z"/>
			<path class="st0" d="M115.4,21c-0.5,0.5-1.4,0.8-2.3,0.8c-2.2,0-3.8-1.5-3.8-3.8c0-2.1,1.3-3.8,3.7-3.8c1,0,1.7,0.3,2.2,0.7
				l-0.6,1c-0.4-0.3-0.9-0.5-1.7-0.5c-1.4,0-2.4,1-2.4,2.6c0,1.5,1,2.6,2.5,2.6c0.6,0,1.2-0.2,1.7-0.6L115.4,21z"/>
			<path class="st0" d="M117,14.3h6v1.2h-2.4v6.1h-1.3v-6.1H117V14.3z"/>
			<path class="st0" d="M125.2,21.7v-7.3c0.4,0,1.6,0,2.1,0c2.2,0,2.8,1.2,2.8,2.4c0,1.2-0.9,2.4-2.7,2.4c-0.2,0-0.6,0-1,0v2.6
				H125.2z M126.5,15.5v2.2c0.3,0,0.6,0.1,0.9,0.1c0.8,0,1.4-0.4,1.4-1.2c0-0.8-0.5-1.1-1.3-1.1C127.2,15.5,126.8,15.5,126.5,15.5z"
				/>
			<path class="st0" d="M136,20c-0.5,1.1-1.1,1.7-2,1.7c-0.4,0-0.8-0.1-1-0.3l0.5-1.1c0.2,0.1,0.3,0.2,0.5,0.2
				c0.3,0,0.6-0.2,0.7-0.5l0.1-0.3l-3.2-5.4h1.5l2.4,4.1l1.7-4.1h1.3L136,20z"/>
			<path class="st0" d="M140.6,14.3h1.3v3.5l2.9-3.5h1.5l-3,3.4l3.2,3.9h-1.6l-3-3.8v3.8h-1.3V14.3z"/>
			<path class="st0" d="M148.1,14.3h6v1.2h-2.4v6.1h-1.3v-6.1h-2.4V14.3z"/>
			<path class="st0" d="M159.4,14.2c2.2,0,3.8,1.5,3.8,3.8c0,2.2-1.6,3.8-3.8,3.8c-2.2,0-3.8-1.5-3.8-3.8
				C155.6,15.9,157.2,14.2,159.4,14.2z M159.4,20.6c1.5,0,2.5-1.1,2.5-2.6c0-1.5-1.1-2.6-2.5-2.6c-1.4,0-2.4,1.1-2.4,2.6
				C157,19.5,158.1,20.6,159.4,20.6z"/>
			<path class="st0" d="M165.6,21.7v-7.3c0.4,0,1.6,0,2.1,0c2.2,0,2.8,1.2,2.8,2.4c0,1.2-0.9,2.4-2.7,2.4c-0.2,0-0.6,0-1,0v2.6
				H165.6z M166.9,15.5v2.2c0.3,0,0.6,0.1,0.9,0.1c0.8,0,1.4-0.4,1.4-1.2c0-0.8-0.5-1.1-1.3-1.1C167.6,15.5,167.3,15.5,166.9,15.5z"
				/>
			<path class="st0" d="M176.3,14.3h1.3v3h1.2c0.3-1.8,1.6-3.1,3.6-3.1c2.2,0,3.7,1.5,3.7,3.8c0,2.2-1.5,3.8-3.7,3.8
				c-1.9,0-3.4-1.3-3.6-3.2h-1.2v3.1h-1.3V14.3z M182.5,20.6c1.5,0,2.3-1.1,2.3-2.6c0-1.5-0.9-2.6-2.3-2.6c-1.3,0-2.3,1.1-2.3,2.6
				C180.2,19.5,181.2,20.6,182.5,20.6z"/>
			<path class="st0" d="M188.5,14.3h4.1v1.2h-2.8v6.1h-1.3V14.3z"/>
			<path class="st0" d="M194.8,21.7v-7.3c0.4,0,1.6,0,2.1,0c2.2,0,2.8,1.2,2.8,2.4c0,1.2-0.9,2.4-2.7,2.4c-0.2,0-0.6,0-1,0v2.6
				H194.8z M196.1,15.5v2.2c0.3,0,0.6,0.1,0.9,0.1c0.8,0,1.4-0.4,1.4-1.2c0-0.8-0.5-1.1-1.3-1.1C196.8,15.5,196.4,15.5,196.1,15.5z"
				/>
			<path class="st0" d="M203.3,16.9c0.3,0,0.6-0.1,0.8-0.1c1.8,0,2.7,0.9,2.7,2.4c0,1.5-1.1,2.5-3,2.5c-0.7,0-1.4,0-1.8,0v-7.3h1.3
				V16.9z M203.3,18.1v2.4c0.2,0,0.4,0,0.7,0c0.9,0,1.4-0.4,1.4-1.3c0-0.8-0.5-1.2-1.4-1.2C203.8,18,203.6,18,203.3,18.1z
				 M207.8,14.3h1.3v7.3h-1.3V14.3z"/>
		</g>
	</g>
	<g>
		<g>
			<path class="st1" d="M5.5,14.1c-2.5,0-4.6-2.1-4.6-4.6S3,4.9,5.5,4.9s4.6,2.1,4.6,4.6S8.1,14.1,5.5,14.1z M5.5,7.7
				c-1,0-1.8,0.8-1.8,1.8c0,1,0.8,1.8,1.8,1.8s1.8-0.8,1.8-1.8C7.3,8.5,6.5,7.7,5.5,7.7z"/>
			<g>
				<rect x="8.9" y="3.6" transform="matrix(0.7071 0.7071 -0.7071 0.7071 6.5545 -5.1195)" class="st1" width="1.1" height="3.4"/>
				<rect x="1.1" y="12" transform="matrix(0.7071 0.7071 -0.7071 0.7071 10.1775 2.8806)" class="st1" width="1.1" height="3.4"/>
				<rect x="-0.1" y="4.8" transform="matrix(0.7071 0.7071 -0.7071 0.7071 4.2567 0.4281)" class="st1" width="3.4" height="1.1"/>
				<rect x="7.7" y="13.2" transform="matrix(0.7072 0.707 -0.707 0.7072 12.4736 -2.6671)" class="st1" width="3.4" height="1.1"/>
			</g>
		</g>
		<path class="st2" d="M49.3,47.9l-5.8-12.1l4.1-6.7l12.9,9.3L49.3,47.9z M45.5,35.9l4.4,9.1l7.6-6.5l-9.4-6.8L45.5,35.9z"/>
		
			<rect x="37.3" y="33.3" transform="matrix(0.9086 0.4178 -0.4178 0.9086 18.0611 -14.0121)" class="st2" width="7.6" height="1.8"/>
		<polygon class="st2" points="22.4,29.2 19,16.1 30,14.4 30.3,16.2 21.3,17.6 24.2,28.7 		"/>
		<polygon class="st2" points="21.1,16.9 19.3,16.8 19.7,5.7 25.4,6.4 32.1,11.2 30.7,15.4 29,14.8 30,11.9 24.7,8.1 21.4,7.7 		"/>
		<polygon class="st2" points="57.2,14.3 55.8,13.2 62,5 31.2,12.4 30.8,10.7 66.6,2 		"/>
		<polygon class="st2" points="19.5,17.5 10.2,9.1 19.9,5.7 20.5,7.4 13.7,9.8 20.8,16.1 		"/>
		<path class="st3" d="M37.8,34.1l-15.4-4.9l6.7-14.6l0.1,0l0,0L74.3,12L48.1,31L37.8,34.1z M31.8,16.2L38.3,32l9-2.6l21-15.3
			L31.8,16.2z M24.9,28.1l11.3,3.6l-6.1-14.9L24.9,28.1z"/>
	</g>
</g>
</svg>
