<?xml version="1.0" encoding="utf-8"?>
<!-- Generator: Adobe Illustrator 19.1.1, SVG Export Plug-In . SVG Version: 6.00 Build 0)  -->
<svg version="1.1" id="Слой_1" xmlns="http://www.w3.org/2000/svg" xmlns:xlink="http://www.w3.org/1999/xlink" x="0px" y="0px"
	 viewBox="0 0 84.9 73.8" style="enable-background:new 0 0 84.9 73.8;" xml:space="preserve">
<style type="text/css">
	.st0{fill:none;stroke:#EF3B57;stroke-width:0.75;stroke-miterlimit:10;}
</style>
<g>
	<g>
		<path class="st0" d="M20.5,16l-1.9-0.1h-0.8c2.2-1.4,3.7-4,3.7-6.8c0-4.5-3.6-8.2-8.2-8.2S5.3,4.5,5.3,9c0,2.9,1.5,5.4,3.7,6.8
			H8.1L6.4,16c-3.4,0.2-6,3.1-5.7,6.5l1,16.3c0.2,2.4,2,4.4,4.3,4.7L7.6,68c0.2,3.2,2.2,4.7,4.2,4.7h3.3c2,0,4-1.4,4.2-4.7L21,43.5
			c2.4-0.3,4.2-2.3,4.3-4.7l1-16.3C26.5,19.1,23.9,16.2,20.5,16z"/>
	</g>
	<g>
		<path class="st0" d="M49.5,16l-1.9-0.1h-0.8c2.2-1.4,3.7-4,3.7-6.8c0-4.5-3.6-8.2-8.2-8.2S34.3,4.5,34.3,9c0,2.9,1.5,5.4,3.7,6.8
			h-0.8L35.4,16c-3.4,0.2-6,3.1-5.7,6.5l1,16.3c0.2,2.4,2,4.4,4.3,4.7L36.6,68c0.2,3.2,2.2,4.7,4.2,4.7h3.3c2,0,4-1.4,4.2-4.7
			L50,43.5c2.4-0.3,4.2-2.3,4.3-4.7l1-16.3C55.5,19.1,52.9,16.2,49.5,16z"/>
	</g>
	<g>
		<path class="st0" d="M78.5,16l-1.9-0.1h-0.8c2.2-1.4,3.7-4,3.7-6.8c0-4.5-3.6-8.2-8.2-8.2c-4.5,0-8.2,3.6-8.2,8.2
			c0,2.9,1.5,5.4,3.7,6.8h-0.8L64.4,16c-3.4,0.2-6,3.1-5.7,6.5l1,16.3c0.2,2.4,2,4.4,4.3,4.7L65.6,68c0.2,3.2,2.2,4.7,4.2,4.7h3.3
			c2,0,4-1.4,4.2-4.7L79,43.5c2.4-0.3,4.2-2.3,4.3-4.7l1-16.3C84.5,19.1,81.9,16.2,78.5,16z"/>
	</g>
</g>
</svg>
