<?xml version="1.0" encoding="utf-8"?>
<!-- Generator: Adobe Illustrator 19.1.1, SVG Export Plug-In . SVG Version: 6.00 Build 0)  -->
<svg version="1.1" id="Слой_1" xmlns="http://www.w3.org/2000/svg" xmlns:xlink="http://www.w3.org/1999/xlink" x="0px" y="0px"
	 viewBox="0 0 55.7 71.2" style="enable-background:new 0 0 55.7 71.2;" xml:space="preserve">
<style type="text/css">
	.st0{fill:none;stroke:#EF3B57;stroke-width:0.75;stroke-miterlimit:10;}
</style>
<g>
	<path class="st0" d="M27.9,12.4c-7.5,0-13.7,6.3-13.7,14s6.1,14,13.7,14s13.7-6.3,13.7-14S35.4,12.4,27.9,12.4z"/>
	<path class="st0" d="M53.7,37.9c-1.3,3.6-3.4,6.9-6.4,10L27.9,70.6L8.4,47.9c-2.9-3.1-5-6.4-6.3-10c-1.3-3.7-1.9-7.4-1.6-11.1
		c0.9-13,11.4-26.4,27.4-26.4s26.6,13.4,27.4,26.4C55.6,30.5,55,34.3,53.7,37.9z"/>
</g>
</svg>
