<?xml version="1.0" encoding="utf-8"?>
<!-- Generator: Adobe Illustrator 19.1.1, SVG Export Plug-In . SVG Version: 6.00 Build 0)  -->
<svg version="1.1" id="Слой_1" xmlns="http://www.w3.org/2000/svg" xmlns:xlink="http://www.w3.org/1999/xlink" x="0px" y="0px"
	 viewBox="0 0 104.3 58.5" style="enable-background:new 0 0 104.3 58.5;" xml:space="preserve">
<style type="text/css">
	.st0{fill:#EF3B57;}
</style>
<g>
	<path class="st0" d="M87.7,57.6c-0.2,0-0.5-0.1-0.6-0.4c-0.2-0.2-0.2-0.5-0.1-0.7c0.4-0.8,0.2-1.7-0.5-2.5
		c-0.2-0.2-0.2-0.4-0.2-0.6c0-0.4,0.4-0.7,0.8-1c0.3-0.2,0.6-0.2,1-0.2c0.1,0,0.1,0,0.2,0c0.3-1.9,0.1-3.3-0.4-4.1
		c-0.1-0.2-0.2-0.4-0.2-0.5c0,0,0-0.1-0.1-0.2c-0.4,0.1-0.6,0.1-0.8,0.2c-0.3,0.1-0.5,0.2-1.1,0.1c0.2,0.3,0.5,0.6,0.3,0.9
		C85.7,49,85.3,49,85,49c-0.2,0-0.4,0-0.7,0c-1.9-0.2-3.1-0.7-3.9-1.5c0-0.1-0.1-0.1-0.2-0.3c-0.6-0.7-2.2-2.7-3.7-2.7
		c-0.8,0-1.4,0.6-1.9,1.8c0,0.1,0.2,0.2,0.3,0.2c0.2,0.1,0.4,0.3,0.5,0.5c0,0.1,0,0.3-0.1,0.4c-0.4,0.4-0.4,1-0.3,1.5
		c0,0.5,0,1-0.3,1.3c-0.7,0.8-1.6,1.2-2.5,1.2c-0.6,0-1.2-0.2-1.6-0.3c-0.2-0.1-0.5-0.1-0.6-0.1c-0.8,0.8-2.9,1.9-4.4,1.9
		c-0.9,0-1.5-0.4-1.7-1.2c-0.2,0-0.5,0-0.7-0.1c-0.4-0.3-0.9-0.2-1.4,0c-0.3,0.1-0.7,0.2-1.1,0.2c-0.5,0-0.8-0.1-1.2-0.5
		c-0.9-0.9-1.2-1.3-1.2-1.6c-0.3-0.2-0.8-0.4-1.6-0.8c-0.1,0.1-0.1,0.3-0.3,0.4c-0.2,0.2-0.2,0.4-0.1,0.7c0.1,0.4,0.1,0.9-0.4,1.3
		c-0.3,0.2-0.6,0.4-1,0.4c-1.2,0-2.5-1.3-2.8-1.5c-0.2-0.2-0.7-0.3-1.3-0.3c-1.3,0-3,0.5-3.7,0.9c-0.1,0.1-0.3,0.1-0.5,0.1
		c-1,0-2.4-1.2-2.8-2c-0.1-0.2-0.1-0.4-0.2-0.6c-0.2-0.6-0.2-0.8-0.5-0.8c-1.2-0.1-1.4-0.4-1.6-0.7c-0.1-0.1-0.1-0.2-0.3-0.3
		c0,0-0.1,0.1-0.1,0.1c-0.2,0.2-0.3,0.3-0.5,0.3h-0.3l-0.1-0.3c-0.2-0.9-0.3-1.7-0.3-2.5c-0.1-1.2-0.1-2.2-0.7-3
		c0,0-0.2,0.1-0.3,0.2c-0.3,0.2-0.7,0.5-1.1,0.5c-0.4,0-0.7-0.2-1.1-0.6c-0.1-0.2-0.3-0.3-0.2-0.5l0.1-0.2l0.3-0.1c0,0,0,0,0.1,0
		c0-0.1,0-0.1,0-0.2c-0.1,0-0.3,0-0.5-0.1l-0.2-0.1L36,39.7c0-0.1,0-0.2,0-0.3c-0.1,0-0.1-0.1-0.2-0.1c-0.2-0.1-0.7-0.3-0.6-0.9
		c0-0.3,0.2-0.5,0.4-0.8c0-0.1,0.1-0.1,0.2-0.2c-0.1-0.1-0.2-0.2-0.3-0.3c-0.2-0.3-0.3-0.4-0.5-0.3c-1.3,0.4-4.9-1-6.1-1.9
		c-0.1,0.2-0.1,0.3-0.1,0.4c-0.2,0.6-0.4,0.9-1.3,1.2c-0.2,0.1-0.4,0.1-0.6,0.1c0.1,0,0.2,0.1,0.3,0.3c0.2,0.6,0.1,1,0,1.2
		c-0.2,0.3-0.6,0.5-1,0.5c-0.6,0-1.4-0.3-1.8-0.8c-0.1-0.2-0.2-0.3-0.3-0.5c-0.4-0.6-0.8-1.3-2.2-1.9c-0.1,0-0.6-0.4-0.9-0.7
		c-0.4-0.5-0.2-1,0-1.2c0.2-0.3,0.2-0.4,0.1-0.7c-0.3-0.6-0.8-1.2-1-1.5l-0.1-0.1c-0.1-0.2-1-0.4-1.8-0.4c-0.3,0-0.4,0-0.5,0
		c-0.3,0.1-0.5,0.2-0.6,0.2c-0.1,0-0.2,0.1-0.2,0.1h-0.2l-0.2-0.3l0-0.2c0-0.1,0-0.2-0.1-0.6c-0.2,0.1-0.5,0.3-1.2,0.8
		c-0.2,0.2-0.6,0.2-0.9,0.2c0,0-0.1,0-0.1,0c0.1,0.3,0.1,0.5-0.1,0.8c0.2,0.1,0.3,0.2,0.4,0.5c0.1,0.6-0.1,1.7-0.5,2.1
		c-0.1,0.1-0.2,0.2-0.4,0.3c0,0.1,0,0.2,0,0.3c-0.1,0.2-0.2,0.3-0.4,0.4c-0.5,0.2-0.8,0.3-1,0.3c-0.5,0-0.6-0.5-0.6-0.6
		c0-0.1,0-0.2-0.1-0.3c0,0-0.1,0-0.2,0c-0.3,0-0.6,0.1-0.9,0.4l-0.1,0.1l-0.2,0c-0.1,0-0.3-0.1-0.4-0.1c0,0,0,0.1,0,0.1
		c0,0.1,0,0.2,0,0.3c0.1,0.1,0.2,0.1,0.3,0.3l0.1,0.2L10,36.2c-0.2,0.3-0.5,0.3-0.7,0.4c-0.1,0-0.2,0-0.2,0.1
		c-0.1,0.2-0.2,0.5-0.2,0.9c-0.1,0.7-0.3,1.4-0.9,1.8c-0.6,0.4-1.1,0.3-1.5-0.1c-0.8-0.9-0.5-3.5-0.5-3.5C6,35,5.7,34.5,5.4,33.9
		c-0.2-0.3-0.4-0.7-0.5-1.1C4.5,32,4,31.2,3.5,30.6l-0.3-0.4c-0.6-0.9-0.4-1.8-0.2-2.7c0.1-0.4,0.1-0.8,0.2-1.1c0-0.1,0-0.3,0-0.4
		c0-0.1,0-0.2,0-0.3c0,0-0.1-0.3-0.5-0.6c-1.1-0.7-2.3-1.6-1.7-2.5c0.3-0.4,0.3-0.6,0.3-0.8c0-0.3,0.1-0.5,0.4-0.9
		c0.1-0.1,0.3-0.3,0.6-0.3c0.6,0,1.8,0.5,2,0.9c0.3,0.8,0.2,1.1,0,1.4C4.1,23.1,4,23.3,4,23.6c-0.1,1,1.6,1.6,2.5,1.9c0,0,0,0,0.1,0
		c0-0.3,0-0.6,0.3-0.8c0.1-0.1,0.3-0.2,0.5-0.2c0.5,0,1.1,0.4,2,1.1c0,0,0.2-0.1,0.2-0.3c0,0,0,0,0-0.1c0-0.1-0.1-0.3,0.1-0.4
		c0.1-0.2,0.4-0.2,0.9-0.3c0.2,0,0.4,0,0.5,0c-0.3-0.3-0.8-0.9-0.6-1.7c0.1-0.2,0.1-0.3,0.2-0.4c0-0.1,0.1-0.2,0.1-0.2
		c-1.6-2.3-0.5-3.4,0.2-4.1c0.4-0.4,0.5-0.6,0.5-0.8c0,0-0.1-0.1-0.2-0.1c-0.2-0.1-0.5-0.2-0.6-0.6c-0.3-0.6,0.3-0.9,0.5-1.1
		l0.1-0.1c0.6-0.4,0.8-0.5,1-0.5c0.2,0,0.4,0.1,0.4,0.4c0,0.1,0.1,0.2,0.3,0.3c0-0.1,0.1-0.2,0.1-0.4c0.1-0.3,0.1-0.7,0.3-1
		c0.2-0.3,0.5-0.6,0.8-0.9c0.4-0.4,0.7-0.7,0.6-0.9c-0.1-0.3,0.1-0.5,0.2-0.6c0,0,0,0,0-0.1c-0.1-0.3-0.4-0.7,0-1.2
		c0.4-0.5,1.3-1.2,2-1.5L17,8.9c1-0.4,1.7-0.7,2.9-0.3c0.4,0.1,0.6,0.3,0.8,0.5c0-0.1,0-0.2,0-0.3c0-0.7,0-0.8,0.1-0.9
		c0.2-0.2,0.5-0.3,0.8-0.3c0.6,0,1.1,0.4,1.7,0.8c0.7,0.5,1.4,1,2,0.7C25.7,9,25.8,8.8,26,8.6c0.1-0.2,0.3-0.4,0.6-0.7
		c0.9-0.8,4-1.8,4.7-2.1c0,0,0-0.2,0-0.3c0-0.3,0.1-0.7,0.5-0.9c0.3-0.1,0.6-0.2,0.9-0.2c0.8,0,1.8,0.3,2.3,1
		c0.3,0.4,0.4,0.9,0.2,1.4c-0.1,0.3-0.2,0.4-0.3,0.4c0,0,0,0.1,0,0.1c0.4,1.8,0.1,3.5-0.6,4.4c-0.8,1-2.1,1.1-2.9,0.2
		c-0.6-0.7-0.9-1.9-0.8-3.4c-0.1,0.2-0.3,0.4-0.4,0.5c-0.5,0.7-1,1.4-1.5,1.8c-0.1,0.1-0.2,0.3-0.2,0.7c0,0.3,0,0.5,0.1,0.6
		c0,0,0.1-0.1,0.2-0.2c0,0,0-0.1,0.1-0.2c0.1-0.3,0.1-0.7,0.5-1c0.4-0.3,0.9-0.1,1.2,0.4c0.2,0.5,0,0.9-0.1,1.2
		c0,0.1-0.1,0.2-0.1,0.3c0,0,0,0,0,0c0.1-0.2,0.2-0.3,0.3-0.3c0.3-0.1,0.5-0.2,0.7-0.2c0.7,0,1,0.4,1.3,0.8c0.2,0.3,0.4,0.5,0.6,0.5
		c0.3,0,0.8-0.2,1.9-1.3c0,0,0.1-0.2,0.1-0.3c0.1-0.3,0.2-0.6,0.6-0.6h0.1l0.1,0.1c0.9,0.5,1.3,1,1.2,1.5c-0.1,0.8-1.2,1.3-1.7,1.4
		c-0.2,0.1-0.4,0.3-0.4,0.5c0.1,0,0.3-0.1,0.5-0.2c0.3-0.2,0.5-0.1,0.6,0l0.2,0c0.2,0,0.4,0.1,0.5,0.3c0,0,0,0.1,0.2,0.1
		c2.4,0.4,2.5,0.4,2.6,0.8c0.1,0.2-0.1,0.4-0.1,0.5c0.1,0.1,0.5,0.4,1.9,1c0.2,0.1,0.3,0.3,0.3,0.5c0-0.1,0-0.2,0.1-0.3
		c0-0.4,0.1-1.1,0.9-1.1c0,0,0,0,0,0c0.5,0,0.6,0.5,1,2c0.2,0.8,0.6,2.4,0.9,2.6c0,0,0,0,0,0c-0.2-0.8,0.2-1.9,1-2.1l0.1-0.4
		l-0.2,0.3c-0.1-0.1-0.3-0.3-0.2-0.6c0.2-0.7,2.2-2.7,3.3-2.7c0.4,0,0.7,0.2,0.8,0.7c0.1,0.4-0.1,0.6-1.4,1.9l-0.3,0.3
		c-0.4,0.4-0.8,1.3-1.2,2.2c-0.6,1.4-1.3,3-2.4,3.6c0.1,0.1,0.3,0.2,0.4,0.3c0,0,0.1,0,0.1,0c0.5,0,1.3-0.6,1.4-0.9
		c0.2-0.2,0.4-0.6,0.8-0.6c0.2,0,0.5,0.1,0.8,0.3c0.3,0.2,0.5,0.2,0.5,0.2c0,0,0-0.1,0-0.1c0-0.1,0-0.3-0.8-0.9
		c-1.1-0.9-0.2-2.4,0.6-3.7l0.1-0.1c0.2-0.4,0.4-0.6,0.4-0.7c0.2-0.4,0.3-0.5,1-1.1c0,0,0.2-0.2,0.3-0.2h0.2l0.1,0.1
		c0.2,0.2,0.1,0.5,0,1.1c-0.1,0.3-0.2,1-0.1,1.3c0.1-0.1,0.3-0.3,0.3-0.5c-0.1-0.2-0.1-0.4-0.1-0.6c0.1-0.2,0.3-0.3,0.4-0.3
		c0.1,0,0.3,0,0.5,0.3c0.4,0.5,0.6,0.8,0.8,0.9c0,0,0,0,0-0.1c0-0.1-0.1-0.3-0.2-0.4c-0.1-0.2-0.3-0.4-0.2-0.7
		c0-0.2,0.1-0.4,0.4-0.5c0.5-0.3,1.5-0.7,2.1-0.9c0.2-0.1,0.3-0.1,0.3-0.1c0.4-0.2,0.8-0.4,1.2-0.6c0.8-0.4,1.5-0.8,2.4-0.8
		c0.2,0,0.4,0,0.7,0.1c0.4,0.1,0.5,0.3,0.5,0.5c0,0,0,0,0,0c0-0.1,0.1-0.2,0.1-0.2c0.1-0.3,0.5-0.3,0.8-0.2c0-0.1,0-0.2,0.1-0.3
		c0.2-0.7,0.3-1,1-1.4l0.2,0c0.4,0,4.1,1.9,4.2,3.2c0,0.4-0.2,0.9-1.3,1.1c-0.3,0-0.5,0.2-0.7,0.7l-0.2,0.3
		c-0.2,0.3-0.5,0.8-0.6,1.1c0.3,0,0.7-0.1,0.7-0.1c0.1-0.1,0.1-0.2,0.2-0.5c0-0.3,0.1-0.7,0.5-1.1c0.1-0.1,0.2-0.1,0.4-0.1
		c0.3,0,0.6,0.1,0.7,0.3c0.1,0.1,0.1,0.3,0.1,0.6c0,0.1,0,0.2,0,0.4c0.1,0,0.2-0.1,0.3-0.2c0.3-0.1,0.5-0.3,0.8-0.3
		c0.2,0,0.5,0.1,0.8,0.5c0.1,0.2,0.9,0.1,1.1-0.1c0.1-0.1,0-0.4-0.1-0.5c-0.1-0.3-0.2-0.6,0-0.8c0.1-0.1,0.2-0.2,0.5-0.2
		c0.2,0,0.4,0,0.5,0c0.2,0,0.5,0,0.7,0c0.9,0,1.5,0.5,1.9,1.6c0.5,1.1,0.7,1.5,0.8,1.6c0.1-0.2,0.2-0.8,0.3-1.1
		c0.1-0.6,0.2-0.9,0.4-1c0.4-0.2,0.8,0,1.1,0.2c0.1,0.1,0.2,0.2,0.3,0.2c0,0,0.2-0.1,0.4-0.5c0.2-0.4,0-0.9-0.3-1.4
		c-0.1-0.1-0.1-0.2-0.2-0.3c-0.3,0-0.5-0.1-0.6-0.3c-0.3-0.5-0.5-0.8-0.6-1.3c0,0,0,0,0,0c-0.2,0.1-0.5,0.2-0.6,0.2
		c-0.8,0-1.4-0.7-1.4-1.4c0-0.4,0.2-0.8,0.9-1c-0.1-0.1-0.1-0.3,0-0.5l0.1-0.2l0.2-0.1c0.3-0.1,0.6-0.1,0.9-0.1c0.7,0,1,0.3,1.1,0.5
		c0.2,0.5,0.1,1.1-0.5,1.9c0,0,0.1,0,0.1,0l0.2,0c1.7,0.5,1.8,0.6,1.9,0.8l0,0.1c1.1-0.4,2.4-0.6,3.1-0.3c0.3,0.1,0.5,0.2,0.6,0.3
		c0.1,0.1,0.3,0.1,0.3,0.1c0,0,0.1,0,0.3-0.3c0.9-1,2-1.4,3-1.8c0.9-0.3,1.6-0.6,1.9-1.2c0.1-0.1,0.1-0.2,0.2-0.4
		c0.2-0.3,0.3-0.4,0.1-0.7c-0.2-0.3-0.2-0.6,0-0.9c0.2-0.3,0.5-0.4,0.8-0.4c-0.2-0.3-0.3-0.6,0.1-1c0.4-0.4,0.6-0.7,0.9-1.1
		c0.6-0.9,1.3-1.8,3.1-2.9c0.6-0.4,1.8-0.5,2.6-0.7c0.1,0,0.2,0,0.3,0c-0.1-0.1-0.2-0.3-0.2-0.4c-0.1-0.7,0.1-1.4,0.6-1.9
		c0.4-0.4,0.9-0.7,1.4-0.7c0.3,0,0.7,0.1,0.8,0.7c0.2,0.9,0.8,1.5,1.2,1.9c0.3,0.3,0.6,0.6,0.4,0.9c-1,1.5-1.3,1.6-1.8,1.7
		c-0.1,0-0.3,0-0.6,0.2c-0.4,0.2-0.6,0.2-0.8,0.2c-0.1,0-0.2,0-0.4-0.1c0,0.2,0,0.5,0,0.7c0.2-0.2,0.5-0.3,0.9-0.1
		c0.6,0.3,0.6,0.4,0.8,0.9c0,0.1,0,0.2,0.1,0.4c0,0.2,0.1,0.4,0.1,0.5c0.3,0,0.7,0,1.2-0.1c0.8-0.1,1.4-0.1,1.6,0
		c0.3,0.1,0.4,0.4,0.5,0.6c0,0.2,0,0.4-0.2,0.5c-0.5,0.4-0.6,1.6-0.4,3.4c0,0.3,0.3,0.7,0.5,1.2c0.5,0.8,1,1.8,0.3,2.4
		c-0.9,0.8-0.9,1.1-1,1.7c0,0.3-0.1,0.6-0.2,1c-0.1,0.4-0.4,0.4-0.5,0.5c-0.2,0.9,0,2.5,0.2,3c0,0,0,0,0,0c0.1-0.2,0.2-0.6,0.7-0.6
		c0.3,0,0.6,0.2,1,0.7c0.1,0.1,0.4,0.2,0.6,0.3c0.4,0.1,0.8,0.2,0.9,0.6c0.1,0.2,0.1,0.4,0,0.7c-0.1,0.2-0.2,0.3-0.3,0.4
		c0.1,0.1,0.2,0.2,0.4,0.3c0.3,0.2,0.7,0.4,0.8,0.9c0.1,0.3,0,0.7-0.4,1.2c-0.1,0.1-0.1,0.1-0.1,0.1c0,0,0.2,0.1,0.3,0.2
		c0.4,0.2,0.8,0.5,0.9,1.1c0,0.3,0.3,0.9,0.5,1.5c0.6,1.6,1,2.7,0.6,3.3c-0.2,0.2-0.6,0.5-1.3,0.3c-6.7-1.7-6.7-4.2-6.8-6.1
		c0-0.5,0-0.9-0.1-1.3c-0.5-2-0.6-4.8-0.2-6.7c0-0.1-0.2-0.6-0.7-1.1c-0.3-0.3-0.6-0.5-0.7-0.5c0,0-0.1,0-0.1,0.1
		c0,0,0.1,0.1,0.1,0.1c0.5,0.5,1.3,1.4,0.7,3.8l-0.1,0.3l-0.3,0.1c-0.3,0-0.5-0.3-0.9-0.8c-0.1-0.1-0.2-0.2-0.3-0.3
		c-0.2,0.3-0.5,0.4-0.7,0.5c-0.1,0-0.1,0-0.1,0c-0.9,0.8-0.5,1.9,0.2,3.3c0.2-0.2,0.6-0.3,1,0c0.3,0.2,0.4,0.6,0.4,1.1
		c-0.1,0.5-0.3,1.1-0.7,1.3l0,0c-0.1,0.3-0.4,0.9-1.1,0.9c-0.2,0-0.4-0.1-0.6-0.2c-0.1-0.1-0.2-0.2-0.3-0.3l0,0l-0.2,0
		c-0.4,0.1-0.6,0-0.8,0c0,0,0,0,0,0c0,0,0,0,0.1,0.1c0.2,0.2,0.5,0.5,0.3,0.8c-0.1,0.3-0.5,0.3-0.8,0.2c-0.1,0-0.1-0.1-0.2-0.1
		c0,0,0,0-0.1,0.1c-0.1,0.1-0.3,0.3-0.8,0.6c-2.4,1.5-3.4,6.1-3.6,9c0.4-0.3,0.9-0.5,1.2-0.2c0.1,0.1,0.2,0.2,0.4,0.4
		c0.1,0.1,0.2,0.2,0.3,0.4c0,0,0-0.1,0-0.1c-0.1-0.3-0.1-0.6,0.1-0.9c0.2-0.3,0.5-0.4,1-0.4c0.4,0,0.9,0.1,1.4,0.2
		c0.3,0.1,0.6,0.1,0.8,0.2c0-0.2-0.2-0.7-0.4-1c-0.4-0.3-0.4-0.5-0.4-0.7c0.1-0.5,0.8-0.6,1-0.6c0.1,0,0.3,0,0.3,0.1
		c0.6,0.4,1,1.2,1.5,2c0.4,0.6,0.7,1.3,1.1,1.6c0.1,0.1,0.8,0.4,1.3,0.6c1.6,0.6,2.5,1,2.3,1.7c-0.2,0.6-0.7,0.6-1.1,0.7
		c-0.1,0-0.2,0-0.2,0c0,0.4,0.3,0.9,0.7,1.3c0.2,0.2,0.5,0.3,0.8,0.5c0.6,0.2,1.4,0.5,1.2,2c0,0.3-0.2,0.5-0.5,0.5
		c-0.3,0-0.6-0.2-0.9-0.3c-0.2-0.1-0.3-0.2-0.5-0.2c0,0,0,0-0.1,0c0,0.1,0,0.3,0,0.4c0,0.5,0,1.2-0.6,1.5l-0.1,0l-0.1,0
		c-0.6,0-1.2-1.2-2.7-4.8c-0.5-1.1-0.9-2.3-1.1-2.5c-0.1-0.1-0.1-0.1-0.1-0.2c0.1,0.8,0.4,1.5,0.8,2.3c1.1,2,1,6.8-0.3,9.9
		c-0.7,1.7-1.7,2.8-2.8,3.2l-0.1,0c-0.2,0-0.3-0.1-0.3-0.2c0,0-0.1,0.1-0.1,0.1c-0.1,0.1-0.1,0.3-0.2,0.4
		C88.4,57,88.2,57.5,87.7,57.6L87.7,57.6z M87.6,52.9l-0.1,0c-0.2,0.1-0.5,0.4-0.5,0.5c0.9,1,1.1,2.3,0.6,3.3c0,0,0,0,0.1,0.1
		c0-0.1,0.1-0.3,0.1-0.4c0.1-0.2,0.2-0.5,0.3-0.7c0.1-0.1,0.1-0.1,0.3-0.4l0.3-0.4l0.2,0c0.3,0,0.4,0.2,0.4,0.4
		c0.9-0.4,1.6-1.7,2-2.6c1.2-3,1.4-7.5,0.4-9.3c-0.6-1.2-0.9-2.1-1-3.3c0-0.1,0-0.3,0.1-0.4l0.1-0.1l0.2,0c0.2,0,0.4,0.1,1.1,0.9
		c0.2,0.3,0.6,1.2,1.2,2.7c0.6,1.4,1.6,3.8,2,4.3c0.1-0.2,0.1-0.5,0.1-0.8c0-0.3,0-0.5,0.1-0.7c0.1-0.4,0.4-0.5,0.6-0.5
		c0.2,0,0.3,0.1,0.5,0.1c0.2,0.1,0.4,0.2,0.6,0.3c0.1,0.1,0.3,0.2,0.4,0.2c0.1-0.7-0.2-0.8-0.8-1c-0.3-0.1-0.7-0.3-1.1-0.6
		c-0.5-0.4-1-1.2-0.9-2c0-0.5,0.6-0.5,0.9-0.6c0.1,0,0.4,0,0.5-0.1c-0.3-0.2-1.3-0.6-1.8-0.9c-0.8-0.3-1.3-0.5-1.5-0.7
		c-0.5-0.4-0.8-1.1-1.2-1.8c-0.4-0.7-0.8-1.4-1.2-1.8c0,0-0.1,0-0.1,0c0.2,0.2,0.6,1.2,0.6,1.6c0,0.3-0.1,0.5-0.2,0.6
		c-0.3,0.2-0.8,0.1-1.4-0.1c-0.6-0.2-1.4-0.3-1.6-0.1c0,0,0,0.2,0.1,0.3c0.1,0.3,0.2,1-0.4,1.1l-0.1,0c-0.3,0-0.5-0.3-1-0.8
		c-0.1-0.1-0.2-0.2-0.2-0.3c-0.1,0-0.4,0.2-0.5,0.3c-0.2,0.2-0.4,0.3-0.6,0.3h-0.2l-0.2-0.1c-0.1-0.1-0.1-0.2-0.1-0.4
		c0.2-3.6,1.4-8.4,4-10c0.5-0.3,0.6-0.4,0.7-0.5c0.1-0.1,0.2-0.1,0.3-0.2c0.1,0,0.1-0.1,0.2-0.1c-0.1-0.2-0.1-0.4,0-0.6
		c0.1-0.2,0.3-0.5,0.6-0.5c0,0,0.1,0,0.1,0c0.1,0,0.2,0,0.3,0c0-0.3,0.2-0.4,0.3-0.4c0.1,0,0.1,0,0.2-0.1c0.2-0.1,0.5-0.3,0.7,0.3
		l0,0.2c0,0.2,0,0.3,0.1,0.3c0.1,0.1,0.2,0.1,0.2,0.1c0.2,0,0.3-0.3,0.4-0.5c0.1-0.1,0.1-0.2,0.2-0.3c0.2-0.1,0.4-0.5,0.4-0.8
		c0-0.2,0-0.4-0.1-0.5c0-0.1,0,0,0,0C93,25.8,92.9,26,92.7,26c-0.3,0-0.4-0.3-0.5-0.4c-0.7-1.4-1.6-3.2-0.2-4.4
		c0.2-0.2,0.3-0.2,0.5-0.2c0.2,0,0.2-0.1,0.3-0.4c0.1-0.3,0.3-0.4,0.4-0.4c0.3,0,0.5,0.3,1,0.9c0,0,0.1,0.1,0.1,0.2
		c0.3-1.6-0.3-2.2-0.7-2.6c-0.2-0.2-0.4-0.4-0.3-0.7c0-0.3,0.3-0.4,0.5-0.6c0.1-0.1,0.3-0.1,0.4-0.1c0.6,0,1.2,0.7,1.5,1
		c0.2,0.2,0.7,1,0.6,1.5c-0.4,1.8-0.3,4.5,0.2,6.4c0.1,0.5,0.1,0.9,0.2,1.4c0.1,1.8,0.1,3.9,6.3,5.5c0.3,0.1,0.5,0,0.5,0
		c0.2-0.3-0.3-1.8-0.7-2.6c-0.3-0.7-0.5-1.2-0.5-1.6c0-0.2-0.2-0.4-0.6-0.5c-0.3-0.1-0.6-0.3-0.7-0.7c-0.1-0.2,0-0.4,0.2-0.7
		c0.2-0.3,0.3-0.5,0.3-0.7c0-0.1-0.2-0.3-0.4-0.4c-0.4-0.2-1-0.6-0.8-1.5l0.1-0.3c-0.1,0-0.1,0-0.2-0.1c-0.4-0.1-0.8-0.2-1-0.5
		c-0.2-0.2-0.3-0.3-0.3-0.4c0,0,0,0.1,0,0.1c-0.1,0.2-0.2,0.7-0.7,0.7c-0.1,0-0.3,0-0.5-0.3c-0.5-0.7-0.7-2.8-0.4-3.9
		c0.1-0.3,0.4-0.4,0.5-0.4c0.1-0.3,0.1-0.6,0.1-0.8c0.1-0.8,0.2-1.2,1.2-2.2c0.2-0.2-0.1-0.9-0.5-1.5c-0.3-0.5-0.6-1-0.6-1.5
		c-0.2-2,0-3.3,0.6-3.9c0,0,0,0,0,0c0,0-0.1,0-0.2,0c-0.3,0-0.7,0-1.1,0.1c-0.4,0-0.9,0.1-1.2,0.1c-0.3,0-0.5,0-0.6-0.2
		c-0.1-0.1-0.1-0.3-0.1-0.3c0-0.1,0-0.2-0.1-0.5c0-0.2-0.1-0.3-0.1-0.4c0-0.1,0-0.2-0.1-0.2c0,0-0.2-0.1-0.3-0.2c-0.1,0-0.1,0-0.1,0
		c0,0,0,0-0.1,0.1c-0.1,0.1-0.4,0.3-0.7,0.2c-0.6-0.2-0.4-1.7-0.4-1.7c0.1-0.3,0.2-0.5,0.4-0.5c0.5,0,0.7,0.1,0.8,0.1
		c0.1,0,0.2,0,0.3-0.1c0.4-0.3,0.7-0.3,0.9-0.3c0.2,0,0.3,0,1.1-1.2c-0.1-0.1-0.1-0.1-0.2-0.2c-0.4-0.4-1.1-1.2-1.4-2.2
		c0-0.1-0.1-0.1-0.1-0.1c0,0,0,0,0,0c-0.2,0-0.6,0.1-0.8,0.5c-0.2,0.2-0.5,0.7-0.4,1.3c0,0.1,0.1,0.1,0.2,0.2
		c0.1,0.1,0.3,0.2,0.4,0.4L94.7,4l-0.1,0.2c-0.1,0.2-0.4,0.3-1.2,0.4c-0.7,0.1-1.8,0.3-2.3,0.6c-1.6,1-2.2,1.8-2.9,2.7
		c-0.3,0.4-0.6,0.8-1,1.2c0,0.1,0.1,0.2,0.1,0.3c0.1,0.2,0.3,0.4,0.2,0.6c-0.1,0.3-0.4,0.3-0.6,0.3c-0.1,0-0.5,0-0.5,0.1
		c0,0,0,0.1,0.1,0.2c0.3,0.7,0,1.2-0.2,1.5c-0.1,0.1-0.1,0.2-0.1,0.2c-0.4,0.9-1.3,1.3-2.3,1.6c-0.9,0.4-1.9,0.7-2.7,1.6
		c-0.2,0.3-0.5,0.5-0.8,0.5c-0.2,0-0.4-0.1-0.6-0.2c-0.1-0.1-0.3-0.2-0.6-0.2c-0.7-0.3-2.7,0.2-3.6,0.8c0,0,0,0.1,0.1,0.1
		c0.3,0.4,0.7,1.3,0.3,2.1c-0.2,0.4-0.5,0.9-1,0.9c-0.3,0-0.5-0.2-0.7-0.3C74,19,73.9,19,73.9,18.9c0,0.1-0.1,0.4-0.1,0.5
		c-0.2,0.8-0.3,1.7-1,1.7c-0.4,0-0.8-0.4-1.5-2.1c-0.4-1.1-0.8-1.1-1.3-1.1c-0.2,0-0.4,0-0.6,0c-0.1,0-0.3,0-0.4,0c0,0,0,0.1,0,0.1
		c0.1,0.3,0.3,0.8,0,1.2c-0.2,0.3-0.7,0.6-1.3,0.6c-0.5,0-0.8-0.2-1-0.5c-0.1-0.1-0.1-0.1-0.2-0.1c-0.1,0-0.3,0.1-0.5,0.2
		c-0.2,0.1-0.5,0.3-0.8,0.3c0,0,0,0,0,0c-0.5,0-0.5-0.6-0.6-1.1c0-0.1,0-0.1,0-0.2c0,0-0.1,0-0.1,0c-0.2,0.1-0.2,0.3-0.2,0.6
		c0,0.3-0.1,0.6-0.4,0.9c-0.3,0.3-1.1,0.3-1.2,0.3c-0.3,0-0.5,0-0.7-0.1L62,20.1l-0.1-0.2c-0.1-0.4,0.6-1.5,0.8-1.8l0.2-0.2
		c0.3-0.5,0.6-0.9,1.2-1c0.6-0.1,0.7-0.2,0.7-0.3c0-0.6-2.6-2.2-3.5-2.5c-0.4,0.2-0.4,0.3-0.5,0.8c0,0.2-0.1,0.3-0.1,0.6
		c-0.1,0.3-0.5,0.4-0.8,0.2c0,0,0,0,0,0c0,0,0,0,0,0c-0.1,0.2-0.2,0.6-0.6,0.6c-0.1,0-0.3-0.1-0.5-0.2c-0.2-0.1-0.3-0.3-0.3-0.4
		c-0.2,0-0.3,0-0.5,0c-0.7,0-1.3,0.3-2,0.7c-0.4,0.2-0.8,0.4-1.2,0.6c-0.1,0-0.2,0.1-0.4,0.1c-0.5,0.2-1.5,0.5-1.9,0.8
		c0,0-0.1,0-0.1,0.1c0,0,0.1,0.1,0.1,0.1c0.1,0.2,0.4,0.5,0.3,0.9c0,0.7-0.4,0.8-0.6,0.8c-0.3,0-0.6-0.2-1-0.7c0,0,0,0,0,0.1
		c-0.1,0.3-0.5,0.8-1,0.8l-0.2,0c-0.7-0.2-0.5-1.2-0.4-2c-0.2,0.2-0.2,0.3-0.3,0.5c-0.1,0.2-0.2,0.4-0.5,0.8l-0.1,0.1
		c-0.9,1.3-1.4,2.2-0.8,2.7c1.1,0.9,1.3,1.3,1,1.8c-0.1,0.3-0.4,0.5-0.7,0.5c-0.2,0-0.6-0.1-0.9-0.4c-0.2-0.2-0.3-0.2-0.3-0.2
		c0,0-0.1,0-0.3,0.2c-0.2,0.3-1.2,1.2-2,1.2c-0.2,0-0.4,0-0.5-0.1c-0.3-0.2-0.6-0.3-0.8-0.4c-0.2-0.1-0.5-0.2-0.4-0.5
		c0-0.3,0.3-0.4,0.6-0.5c1-0.3,1.7-1.9,2.3-3.3c0.4-1,0.8-1.9,1.3-2.4l0.3-0.3c0.7-0.7,1.1-1.2,1.2-1.3c0-0.1-0.1-0.1-0.1-0.1
		c-0.7,0-2.2,1.5-2.5,2c0.2,0.2,0.3,0.4,0.2,0.7c0,0.3-0.2,0.5-0.5,0.6c-0.4,0.1-0.6,0.9-0.5,1.3c0,0.2,0,0.3-0.1,0.5
		c-0.2,0.2-0.4,0.3-0.7,0.3l-0.2,0c-0.6-0.2-0.8-1.1-1.3-3.1c-0.1-0.5-0.3-1-0.4-1.4c0,0.1,0,0.2-0.1,0.4c0,0.4-0.1,0.9-0.7,1.2
		c-0.3,0.2-0.6,0.1-0.7-0.1c-0.2-0.2-0.1-0.4-0.1-0.6c0,0,0-0.1,0-0.1c-1.7-0.7-2.2-1.1-2.2-1.5c0-0.1,0-0.2,0-0.3
		c-0.5-0.1-1.4-0.3-1.9-0.3c-0.4-0.1-0.6-0.2-0.6-0.4c-0.2,0-0.3,0-0.4-0.1c-0.9,0.4-1.4,0.3-1.5-0.2c-0.1-0.5,0.3-1.2,0.8-1.4
		l0.1,0c1.1-0.4,1.2-0.7,1.2-0.8c0-0.1-0.2-0.4-0.6-0.7c0,0,0,0,0,0c-0.1,0.2-0.1,0.4-0.3,0.6c-1,1-1.8,1.5-2.4,1.5
		c-0.6,0-0.9-0.4-1.2-0.7c-0.4-0.5-0.6-0.7-1.2-0.4c0,0,0,0-0.1,0.1c-0.2,0.3-0.5,0.6-0.8,0.6c-0.2,0-0.5-0.1-0.5-0.8
		c0-0.3,0.1-0.5,0.2-0.7c0.1-0.3,0.2-0.5,0.1-0.6c0-0.1-0.1-0.2-0.1-0.2c-0.1,0.1-0.2,0.3-0.2,0.5c0,0.2-0.1,0.4-0.2,0.5
		C29,12.8,28.7,13,28.5,13c-0.1,0-0.5-0.1-0.6-0.5c-0.2-0.6-0.1-1.7,0.4-2.1c0.4-0.3,1-1.1,1.4-1.7c0.7-1,0.9-1.3,1.3-1.3H31
		l0.2,0.1c0.2,0.2,0.2,0.5,0.1,0.7c-0.2,2,0.3,2.9,0.6,3.2c0.5,0.6,1.3,0.5,1.8-0.2c0.7-0.8,0.8-2.2,0.5-3.8
		c-0.1-0.2-0.2-0.8,0.4-0.9c0.1-0.3,0-0.5-0.1-0.8c-0.3-0.4-1-0.7-1.7-0.7c-0.2,0-0.5,0-0.6,0.1c0,0,0,0.2-0.1,0.3
		c0,0.3-0.1,0.8-0.6,0.9c-0.9,0.2-3.7,1.3-4.5,1.9c-0.3,0.2-0.4,0.4-0.5,0.6c-0.2,0.3-0.4,0.6-1.1,0.8c-0.2,0.1-0.4,0.1-0.6,0.1
		c-0.8,0-1.4-0.5-2-0.9c-0.5-0.4-1.1-0.8-1.4-0.6c0,0.1,0,0.2,0,0.4c0.1,0.9,0.1,1.1-0.1,1.3l-0.1,0.1l-0.3,0l-0.1-0.1
		c-0.2-0.2-0.4-0.3-0.5-0.4c-0.2-0.2-0.4-0.3-0.6-0.4c-1-0.3-1.5-0.1-2.4,0.3L17,9.6c-0.6,0.2-1.3,0.9-1.7,1.3c0,0,0,0.1,0.1,0.3
		c0.1,0.1,0.1,0.2,0.2,0.3c0.1,0.3-0.1,0.5-0.2,0.6c0.1,0.6-0.4,1.1-0.8,1.5c-0.2,0.2-0.5,0.5-0.7,0.8c-0.1,0.2-0.2,0.5-0.2,0.8
		c-0.1,0.5-0.2,1-0.7,1l-0.2,0c-0.5-0.2-0.7-0.4-0.8-0.6c-0.1,0.1-0.3,0.2-0.5,0.3L11.4,16c-0.1,0-0.2,0.1-0.2,0.2
		c0.1,0.1,0.2,0.2,0.3,0.2c0.2,0.1,0.5,0.2,0.6,0.5c0.2,0.7-0.2,1.1-0.6,1.5c-0.7,0.7-1.4,1.4-0.1,3.3c0.2,0.3,0,0.7-0.1,0.9
		c-0.1,0.1-0.1,0.2-0.1,0.2c-0.1,0.4,0.2,0.7,0.5,1.1c0.2,0.2,0.4,0.5,0.3,0.8c-0.1,0.3-0.5,0.4-1.3,0.5c-0.1,0-0.2,0-0.2,0
		c0,0.1,0,0.3-0.1,0.5c-0.2,0.2-0.5,0.5-0.9,0.5c-0.1,0-0.3,0-0.4-0.1c-1-0.9-1.4-0.9-1.6-0.9c-0.1,0.1-0.1,0.4-0.1,0.5
		c0,0.2,0,0.4-0.1,0.6L7,26.3l-0.2,0l-0.1,0c-0.1,0-0.3-0.1-0.4-0.2c-1.1-0.4-3.1-1.1-3-2.6c0-0.5,0.2-0.7,0.3-0.9
		c0.1-0.2,0.2-0.2-0.1-0.7c-0.1-0.1-0.9-0.5-1.3-0.5C2,21.6,2,21.8,1.9,21.9c0,0.2-0.1,0.5-0.4,1C1.3,23.3,2.4,24,3,24.4
		c0.6,0.4,0.8,1,0.8,1.1c0,0.1,0,0.2,0,0.3c0,0.2,0.1,0.4,0,0.6c0,0.4-0.1,0.8-0.2,1.2c-0.2,0.8-0.3,1.5,0.1,2.1l0.3,0.4
		c0.5,0.7,1.1,1.5,1.4,2.3c0.1,0.4,0.3,0.7,0.5,1c0.4,0.7,0.7,1.4,0.6,2.3c-0.1,0.9,0,2.5,0.4,2.9c0.2,0.2,0.2,0.2,0.6,0
		c0.3-0.2,0.5-0.8,0.6-1.3c0.1-0.4,0.2-0.8,0.3-1.1C8.6,36,8.8,36,9,35.9c0-0.1,0-0.1,0-0.2c0-0.1,0-0.3,0-0.4c0-0.2,0-0.6,0.2-0.8
		c0.2-0.3,0.6-0.1,0.8,0c0.7-0.5,1.7-0.5,2-0.1c0.1,0.2,0.2,0.4,0.2,0.5c0,0,0,0,0,0c0.1,0,0.3-0.1,0.6-0.2
		c-0.1-0.2-0.2-0.4-0.2-0.6c0-0.1,0-0.5,0.4-0.5h0.3l0.1,0.3c0,0,0,0,0,0.1c0.2-0.2,0.4-1,0.4-1.5c0,0-0.1-0.1-0.1-0.1
		c-0.2-0.1-0.4-0.2-0.4-0.4l0-0.2l0.2-0.3c0.1-0.1,0.1-0.2,0.1-0.2c0,0,0,0,0,0c0,0,0-0.1-0.1-0.2c-0.1-0.2,0-0.4,0-0.5
		c0.2-0.3,0.5-0.3,0.8-0.3c0.1,0,0.4,0,0.4-0.1c1.1-0.9,1.5-1,1.7-1c0.2,0,0.4,0.1,0.5,0.3c0.1,0.3,0.2,0.5,0.2,0.6
		c0.1,0,0.2-0.1,0.3-0.1c0.2-0.1,0.4-0.1,0.7-0.1c0.7,0,1.9,0.2,2.3,0.7l0.1,0.1c0.3,0.3,0.8,0.9,1.1,1.7c0.3,0.6,0,1-0.1,1.3
		c-0.2,0.3-0.2,0.3-0.1,0.5c0.1,0.2,0.5,0.5,0.6,0.5c1.6,0.7,2.1,1.5,2.5,2.1c0.1,0.2,0.2,0.3,0.3,0.5c0.2,0.3,0.7,0.5,1.2,0.5
		c0.2,0,0.4-0.1,0.4-0.1c0.1-0.1,0-0.2,0-0.4c-0.2-0.1-0.3-0.2-0.5-0.5c-0.1-0.2-0.2-0.5,0-0.7c0.1-0.1,0.2-0.2,0.6-0.2
		c0.2,0,0.4,0,0.7,0c0.7-0.2,0.7-0.4,0.9-0.8c0.1-0.2,0.1-0.3,0.2-0.5c0.1-0.2,0.2-0.5,0.5-0.5c0.2,0,0.3,0.1,0.4,0.2
		c0.7,0.7,3.7,1.9,5.2,1.9c0.2,0,0.3,0,0.4,0c0.6-0.2,1,0.2,1.3,0.6c0.1,0.1,0.2,0.2,0.3,0.4c0.4,0.4,0,0.8-0.2,1.1
		c-0.1,0.1-0.2,0.3-0.2,0.4c0,0.1,0.1,0.1,0.2,0.2c0.2,0.1,0.4,0.2,0.6,0.4c0,0,0.1,0.1,0.1,0.1c0,0,0,0,0,0c0.2,0,0.4,0.1,0.5,0.4
		c0,0,0.3,0.9-0.1,1.1c0,0,0,0,0,0c0.4,0.3,0.7,0,1-0.2c0.3-0.2,0.5-0.4,0.8-0.4c0.2,0,0.4,0.1,0.6,0.3c0.7,1,0.8,2.2,0.9,3.4
		c0,0.6,0.1,1.2,0.2,1.9c0.1-0.1,0.3-0.2,0.4-0.2h0.1l0.1,0.1c0.4,0.2,0.6,0.5,0.7,0.6c0.1,0.2,0.2,0.3,1.1,0.4
		c0.8,0.1,1,0.8,1.1,1.3c0,0.2,0.1,0.4,0.2,0.5c0.2,0.6,1.5,1.6,2.1,1.6c0.1,0,0.1,0,0.1,0c0.7-0.4,2.5-1,4-1c0.8,0,1.4,0.2,1.8,0.5
		c0.5,0.5,1.5,1.3,2.3,1.3c0.2,0,0.4-0.1,0.6-0.2c0.2-0.2,0.2-0.3,0.1-0.7c-0.1-0.4-0.1-0.9,0.3-1.3c0.2-0.2,0.2-0.3,0.2-0.4
		c0.1-0.3,0.3-0.4,0.4-0.4c0.1,0,0.2,0,0.3,0.1c1.3,0.7,1.9,1,2.1,1.1c0.1,0.1,0.4,0.2,0.3,0.5l-0.1,0.3c0.1,0.2,0.4,0.4,0.7,0.8
		c0.4,0.4,0.9,0.3,1.6,0.1c0.7-0.2,1.5-0.3,2.1,0.1c0.1,0,0.1,0,0.2,0c0.1,0,0.1,0,0.2,0c0.2,0,0.5,0.1,0.6,0.5
		c0.1,0.3,0.3,0.7,1,0.7c1.3,0,3.1-1,3.9-1.7c0.3-0.2,0.7-0.2,1.3,0c0.4,0.1,0.9,0.3,1.4,0.3c0.7,0,1.4-0.3,2-0.9
		c0.1-0.1,0.1-0.5,0.1-0.7c0-0.6,0-1.2,0.4-1.8c0,0,0,0,0,0c-0.3-0.2-0.9-0.5-0.6-1.1c0.6-1.5,1.5-2.2,2.6-2.2
		c1.8,0,3.6,2.1,4.3,2.9c0.1,0.1,0.2,0.2,0.2,0.2c0.7,0.7,1.8,1.1,3.4,1.3c0.3,0,0.6,0,0.7,0c0-0.1-0.1-0.1-0.1-0.2
		c-0.2-0.3-0.5-0.5-0.3-0.9c0.1-0.3,0.5-0.3,0.6-0.3c0.1,0,0.2,0,0.3,0c0.5,0.1,0.6,0,0.9,0c0.2-0.1,0.5-0.2,1-0.2
		c0.5,0,0.6,0.4,0.7,0.6c0,0.1,0.1,0.3,0.2,0.4c0.7,1,0.8,2.5,0.5,4.8c0,0.2-0.2,0.5-0.6,0.5c-0.1,0-0.2,0-0.4,0
		C87.8,52.9,87.7,52.9,87.6,52.9z M74.3,15c0.1,0.2,0.2,0.4,0.4,0.7l0,0c0.2,0,0.4-0.2,0.7-0.4C75.2,15.3,74.9,15.1,74.3,15z
		 M73.2,12.5c0.1,0.2,0.1,0.3,0,0.5l-0.1,0.2l-0.3,0c-0.2,0-0.6,0.1-0.6,0.3c0,0.3,0.3,0.6,0.7,0.6c0.2,0,0.4-0.1,0.6-0.4
		c0.7-0.9,0.5-1.2,0.5-1.2C74,12.6,73.7,12.5,73.2,12.5z M42.4,15.9l-0.1,0c-0.3-0.1-1.4-0.5-1.5-1.5c-0.2-1.1,0.9-2.4,3.2-3.9
		c0.5-0.3,1-0.5,1.5-0.5c0.4,0,0.8,0.1,1.2,0.2c0.4,0.1,0.7,0.2,1,0.1c0.8-0.2,1.2,0,1.5,0.2c0.2,0.1,0.4,0.2,0.8,0.2l0.2,0
		c0.4,0,0.8,0.1,1,0.2c0.3,0.2,0.4,0.4,0.4,0.7c0,0.8-1,1.5-2,1.3c-0.7-0.1-1.4-0.2-2-0.2c-2.7,0-3.7,1.5-4.3,2.4
		C43,15.5,42.8,15.9,42.4,15.9L42.4,15.9z M45.4,10.6c-0.4,0-0.7,0.1-1.1,0.4c-2.7,1.8-3,2.8-2.9,3.2c0.1,0.5,0.7,0.8,1,0.9
		c0.1-0.1,0.2-0.3,0.3-0.4c0.6-1,1.8-2.8,4.9-2.8c0.6,0,1.4,0.1,2.1,0.2c0.6,0.1,1.1-0.3,1.1-0.6c0,0,0-0.1-0.1-0.1
		c-0.1,0-0.2-0.1-0.6-0.1l-0.2,0c-0.6,0-0.9-0.2-1.1-0.3c-0.3-0.1-0.5-0.2-1-0.1c-0.5,0.1-0.9,0-1.4-0.2
		C46.1,10.7,45.8,10.6,45.4,10.6z M38.8,14.4v-0.7c0.1,0,0.2,0,0.3-0.1c0,0,0-0.1,0-0.1c0-0.1-0.1-0.3-0.2-0.3v-0.7
		c0.6,0,0.9,0.5,0.9,1c0,0.3-0.1,0.5-0.3,0.7C39.4,14.2,39.2,14.4,38.8,14.4z M59.9,13.7l-0.1-0.1l0-0.2c0,0,0.1-0.4,0.2-0.8
		c-0.3,0-0.6-0.4-0.8-0.6c-0.1-0.2-0.3-0.4-0.5-0.5c-0.4-0.2-0.7-0.5-0.7-0.8c-0.1-0.5,0.2-1,0.4-1.3c0.1-0.1,0.1-0.2,0.2-0.3
		c0.1-0.1,0.4-0.8,1-0.8c0.1,0,0.2,0,0.3,0.1c0.4,0.2,0.4,0.5,0.4,0.7c0,0.1,0,0.2,0.1,0.2l0.1,0.1l0,0.2c0,0.2-0.1,0.3-0.2,0.3
		c0,0-0.1,0.1-0.1,0.1c0.2,0,0.4,0.1,0.5,0.3c0.2,0.3,0.2,0.6,0.3,0.9c0.1,0,0.1,0,0.2,0v0.7c-0.2,0.1-0.7,1.3-0.8,1.6l-0.4,0
		L59.9,13.7z M59.6,9c-0.1,0-0.3,0.2-0.4,0.4c-0.1,0.1-0.1,0.2-0.2,0.4c-0.2,0.3-0.4,0.6-0.3,0.7c0,0.1,0.2,0.3,0.4,0.4
		c0.3,0.2,0.5,0.5,0.7,0.7c0.1,0.1,0.2,0.3,0.3,0.3c0.3-0.3,0.4-0.7,0.2-1.2c-0.1,0-0.1,0-0.1,0c-0.2,0-0.3-0.1-0.4-0.2
		c-0.2-0.3-0.1-0.6,0.1-1C59.7,9.4,59.6,9.2,59.6,9C59.6,9.1,59.6,9,59.6,9z M11.3,7.6c-0.2,0-0.4-0.1-0.6-0.3
		c-0.5-0.7-0.4-2.1-0.3-2.7c0.1-0.3,0.3-0.4,0.7-0.4c0.2,0,0.5,0.1,0.6,0.2c0.1,0.1,0.8,0.5,0.9,0.9c0,0.2,0,0.3-0.1,0.4
		c0,0.1-0.1,0.1-0.2,0.1c0,0,0,0,0,0c0.3,0.4,0.6,0.8,0.4,1.3C12.5,7.5,11.8,7.6,11.3,7.6L11.3,7.6z M11,4.9c-0.1,0.6-0.1,1.7,0.1,2
		c0,0.1,0.1,0.1,0.1,0.1v0.4l0-0.4c0.7,0,0.8-0.2,0.8-0.2c0-0.1-0.2-0.4-0.3-0.5c-0.2-0.3-0.5-0.6-0.4-0.9L11.4,5c0,0-0.1,0-0.1,0
		C11.3,4.9,11.1,4.9,11,4.9C11,4.9,11,4.9,11,4.9z M86.8,5.9c-0.5,0-0.9-0.5-0.9-1.3c0-0.4,0.1-0.8,0.2-1.1c0.2-0.4,0.5-0.7,0.9-0.7
		v0.7c-0.1,0-0.2,0.1-0.2,0.3c-0.1,0.2-0.2,0.5-0.2,0.8c0,0.4,0.1,0.6,0.2,0.6V5.9z"/>
</g>
</svg>
