<svg id="Слой_1" xmlns="http://www.w3.org/2000/svg" viewBox="0 0 46.3 46.4"><style>.st0{fill:#0fa94d}</style><path class="st0" d="M28.2 21.7c-.1-.3-.2-.6-.4-.9v-.1c-.2-.3-.3-.5-.5-.8 0 0 0-.1-.1-.1-.2-.2-.4-.5-.7-.6l-.1-.1c-.3-.2-.5-.4-.8-.5s-.6-.3-.9-.4h-.1c-.3-.2-.6-.2-.9-.3h-1.1c-.3 0-.7.1-1 .2-1.4.4-2.5 1.4-3.1 2.6-.7 1.3-.8 2.7-.4 4.1.1.3.2.6.4.9.1.1.1.2.2.3.1.2.2.3.3.5l.3.3.4.4.3.3c.2.1.4.3.6.4.1 0 .1.1.2.1h.1c.2.1.4.2.7.3h.2c.2.1.4.1.6.2h.1c.3 0 .5.1.8.1.5 0 1.1-.1 1.6-.2 1.4-.4 2.5-1.4 3.1-2.6.5-1.3.7-2.8.2-4.1zm-4.1 4.8c-1.3.4-2.6 0-3.5-1 0 0-.1 0-.1-.1-.1-.1-.2-.3-.3-.4 0-.1-.1-.1-.1-.1-.1-.2-.2-.3-.2-.5v-.1c-.3-.9-.2-1.8.2-2.6s1.1-1.4 2-1.6c.2-.1.4-.1.7-.1h.1c1.1-.1 2.1.4 2.8 1.2.1.1.2.3.3.5 0 0 0 .1.1.1l.3.6c0 .1.1.3.1.4.1.7 0 1.5-.3 2.1-.5.7-1.2 1.3-2.1 1.6z"/><path class="st0" d="M42.4 24.6c-1.6-1.9-3.6-3.7-5.9-5.5C39.4 10.2 39 2.8 35 .7c-2.9-1.5-6.9 0-11.1 3.8C22.3 6 20.6 7.8 19 9.9c-.3-.1-.5-.2-.8-.2-.4-.1-.9-.3-1.3-.4-.2-.1-.4-.1-.6-.2-.5-.1-1-.3-1.5-.4-.1 0-.2 0-.3-.1l-1.8-.3c-.5-.1-1-.2-1.4-.2C5.7 7.6 2 8.7.6 11.4s-.3 6.4 3.3 10.5c1.6 1.9 3.6 3.7 5.9 5.5-2.9 8.9-2.5 16.3 1.5 18.4.7.4 1.5.6 2.4.6 1 0 2.1-.3 3.3-.7.3-.1.6-.3.9-.4.1 0 .2-.1.2-.1 2.9-1.6 6.1-4.5 9.2-8.5l.9.3c.2.1.4.1.6.2 2.2.6 4.4 1.1 6.4 1.3.9.1 1.8.1 2.6.1 4 0 6.8-1.2 8-3.4 1.3-2.7.1-6.5-3.4-10.6zm-7.6-6.7c-2.1-1.5-4.3-2.8-6.7-4.1-.1-.1-.2-.1-.3-.2-.6-.3-1.3-.7-1.9-1-.4-.2-.7-.3-1.1-.5s-.8-.4-1.2-.5c-.4-.2-.8-.3-1.1-.5-.4-.2-.8-.3-1.1-.4-.1 0-.2-.1-.4-.1 2.1-2.6 4.2-4.7 6.1-6.1 2.9-2.1 5.4-2.8 7-2 2.7 1.4 3.2 7.4.7 15.4zm-8.2 16.4c-1.1-.4-2.1-.8-3.2-1.3-.1 0-.1-.1-.2-.1-.6-.3-1.3-.6-1.9-.9-.7-.3-1.4-.7-2.2-1.1-2.5-1.3-4.8-2.8-6.9-4.3.9-2.4 1.9-4.9 3.3-7.5s2.8-4.9 4.3-6.9c1.7.6 3.5 1.4 5.3 2.2.6.3 1.1.5 1.7.8.2.1.3.2.5.2 2.5 1.3 4.8 2.8 6.9 4.3-.9 2.4-1.9 4.9-3.3 7.5-1.4 2.7-2.9 5-4.3 7.1zM5.4 20.6c-2.9-3.4-4-6.4-3-8.3.1-.2.3-.5.5-.7l.3-.3.3-.3c.1-.1.2-.1.4-.2s.3-.2.5-.3h.1C6 9.9 8.3 9.7 11 10c2.1.2 4.4.7 6.8 1.5-1.4 2-2.8 4.3-4.1 6.7s-2.3 4.8-3.2 7.1c-2-1.4-3.7-3.1-5.1-4.7zm6.1 8.1c2.1 1.5 4.3 2.8 6.7 4.1.8.4 1.7.8 2.5 1.2.3.1.6.3.8.4.5.2 1.1.5 1.6.7.3.1.6.3.9.4.4.2.8.3 1.3.5-1.2 1.5-2.4 2.9-3.6 4-3.9 3.7-7.5 5.2-9.5 4.1-2.7-1.5-3.2-7.5-.7-15.4zm32 6.2c-.1.1-.3.3-.5.4l-.2.2c-.1.1-.3.2-.4.2-.1.1-.3.2-.4.2h-.1c-1.5.6-3.7.8-6.4.5-2.1-.2-4.4-.7-6.8-1.5 1.4-2 2.8-4.2 4.1-6.7 1.3-2.4 2.3-4.8 3.2-7.1 2 1.6 3.7 3.2 5.1 4.8 2.9 3.4 4 6.4 3 8.3-.3.2-.5.5-.6.7z"/></svg>