<svg id="Слой_1" xmlns="http://www.w3.org/2000/svg" xmlns:xlink="http://www.w3.org/1999/xlink" viewBox="0 0 67.7 71.4"><style>.st0{fill:#242424}.st1{fill:#ef3b57}.st2{fill:none;stroke:#f7f7f7}.st2,.st3,.st4{stroke-miterlimit:10}.st3{stroke-width:.75;fill:#ef3b57;stroke:#33499f}.st4{fill:none;stroke:#242424}.st5{fill:#f7f7f7}.st6{fill:none;stroke:#ed1438;stroke-width:2;stroke-linecap:round;stroke-miterlimit:10;stroke-dasharray:2.012,4.023}.st7{fill:#fff}.st8,.st9{fill:none;stroke:#ed1438;stroke-width:4;stroke-miterlimit:10}.st9{stroke:#04a94d;stroke-width:3;stroke-linecap:round;stroke-linejoin:round}.st10{fill:#04a94d}.st11{fill:none;stroke:#04a94d;stroke-miterlimit:10}.st12{stroke-width:3;stroke-linejoin:round}.st12,.st13,.st14{fill:none;stroke:#04a94d;stroke-miterlimit:10}.st13{stroke-linejoin:round;stroke-width:2.485}.st14{stroke-width:1.657}.st15{stroke-linejoin:bevel}.st15,.st16,.st17,.st18,.st19{fill:none;stroke:#04a94d;stroke-width:3;stroke-miterlimit:10}.st17,.st18,.st19{stroke:#929497;stroke-width:.5}.st18{stroke-dasharray:10.988,4.578}.st19{stroke-dasharray:10.399,10.399}.st20{stroke:#ed1438;stroke-width:2}.st20,.st21,.st22,.st23{fill:none;stroke-miterlimit:10}.st21{stroke:#04a94d;stroke-width:1.699}.st22,.st23{stroke:#060e9f;stroke-width:2.725}.st23{stroke-width:1.09}.st24{stroke-width:3.736}.st24,.st25,.st26,.st27{fill:none;stroke:#ed1438;stroke-miterlimit:10}.st25{stroke-dasharray:3.794,5.691;stroke-width:3.736}.st26,.st27{stroke-width:3.379}.st27{stroke-dasharray:3.431,5.147}.st28{stroke-width:3.568}.st28,.st29,.st30{fill:none;stroke:#ed1438;stroke-miterlimit:10}.st29{stroke-dasharray:3.624,5.435;stroke-width:3.568}.st30{stroke-width:8.537}.st31{stroke-width:3.341}.st31,.st32,.st33,.st34{fill:none;stroke:#ed1438;stroke-miterlimit:10}.st32{stroke-dasharray:3.3,4.95;stroke-width:3.341}.st33,.st34{stroke-width:3.236}.st34{stroke-dasharray:3.094,4.641}.st35{stroke:#04a94d}.st35,.st36,.st37{fill:none;stroke-width:2;stroke-miterlimit:10}.st36{stroke-linejoin:bevel;stroke:#04a94d}.st37{stroke:#fff}.st38{fill:#5b719a}.st39{fill:#db831c}.st40{fill:#5266ab}</style><path class="st0" d="M-493.5-6.8h30.5v2h-30.5zm0 20.3h30.5v2h-30.5zm4-10.1h22.4v2h-22.4z"/><path transform="rotate(-45.001 -387.252 4.199)" class="st0" d="M-402.5 3.2h30.5v2h-30.5z"/><path transform="rotate(-134.999 -387.252 4.202)" class="st0" d="M-402.5 3.2h30.5v2h-30.5z"/><path transform="rotate(-45.001 -356.252 4.199)" class="st1" d="M-371.5 3.2h30.5v2h-30.5z"/><path transform="rotate(-134.999 -356.252 4.202)" class="st1" d="M-371.5 3.2h30.5v2h-30.5z"/><path transform="rotate(-45.001 -111.952 30.43)" class="st1" d="M-119.4 29.9h14.9v1h-14.9z"/><path transform="rotate(-134.999 -111.952 30.432)" class="st1" d="M-119.4 29.9h14.9v1h-14.9z"/><path class="st1" d="M-452.5-6.8h30.5v2h-30.5zm0 20.3h30.5v2h-30.5zm4-10.1h22.4v2h-22.4z"/><path class="st2" d="M-453.8 38.4c0-4.3-4.1-7.7-9.2-7.7s-9.2 3.5-9.2 7.7v14.5c0 4.3 4.1 7.7 9.2 7.7s9.2-3.5 9.2-7.7V38.4zm-9.2-2.9V45"/><path class="st1" d="M-461 151.6c-7.8 0-14.1-6.4-14.1-14.4s6.3-14.4 14.1-14.4 14.1 6.4 14.1 14.4-6.4 14.4-14.1 14.4zm0-28c-7.3 0-13.3 6.1-13.3 13.6s6 13.6 13.3 13.6 13.3-6.1 13.3-13.6-6-13.6-13.3-13.6z"/><path class="st1" d="M-461 182l-19.8-23c-3-3.2-5.1-6.5-6.4-10.1-1.4-3.9-1.9-7.7-1.6-11.3.9-13.1 11.5-26.7 27.8-26.7 7.5 0 14.5 3 19.7 8.4 4.7 5 7.7 11.6 8.1 18.3.3 3.6-.3 7.5-1.6 11.3-1.3 3.7-3.5 7-6.5 10.1l-19.7 23zm0-70.4c-15.8 0-26.1 13.2-27 26.1-.3 3.5.2 7.1 1.6 10.9 1.3 3.5 3.3 6.8 6.2 9.9l19.2 22.4 19.1-22.4c3-3.1 5-6.3 6.3-9.9 1.3-3.6 1.9-7.4 1.6-10.9-1-16.4-14.5-26.1-27-26.1zm208.9 59.6c-.2 0-.5-.1-.6-.4-.2-.2-.2-.5-.1-.7.4-.8.2-1.7-.5-2.5-.2-.2-.2-.4-.2-.6 0-.4.4-.7.8-1 .3-.2.6-.2 1-.2h.2c.3-1.9.1-3.3-.4-4.1-.1-.2-.2-.4-.2-.5 0 0 0-.1-.1-.2-.4.1-.6.1-.8.2-.3.1-.5.2-1.1.1.2.3.5.6.3.9-.2.3-.6.4-.9.4h-.7c-1.9-.2-3.1-.7-3.9-1.5 0-.1-.1-.1-.2-.3-.6-.7-2.2-2.7-3.7-2.7-.8 0-1.4.6-1.9 1.8 0 .1.2.2.3.2.2.1.4.3.5.5 0 .1 0 .3-.1.4-.4.4-.4 1-.3 1.5 0 .5 0 1-.3 1.3-.7.8-1.6 1.2-2.5 1.2-.6 0-1.2-.2-1.6-.3-.2-.1-.5-.1-.6-.1-.8.8-2.9 1.9-4.4 1.9-.9 0-1.5-.4-1.7-1.2-.2 0-.5 0-.7-.1-.4-.3-.9-.2-1.4 0-.3.1-.7.2-1.1.2-.5 0-.8-.1-1.2-.5-.9-.9-1.2-1.3-1.2-1.6-.3-.2-.8-.4-1.6-.8-.1.1-.1.3-.3.4-.2.2-.2.4-.1.7.1.4.1.9-.4 1.3-.3.2-.6.4-1 .4-1.2 0-2.5-1.3-2.8-1.5-.2-.2-.7-.3-1.3-.3-1.3 0-3 .5-3.7.9-.1.1-.3.1-.5.1-1 0-2.4-1.2-2.8-2-.1-.2-.1-.4-.2-.6-.2-.6-.2-.8-.5-.8-1.2-.1-1.4-.4-1.6-.7-.1-.1-.1-.2-.3-.3l-.1.1c-.2.2-.3.3-.5.3h-.3l-.1-.3c-.2-.9-.3-1.7-.3-2.5-.1-1.2-.1-2.2-.7-3 0 0-.2.1-.3.2-.3.2-.7.5-1.1.5-.4 0-.7-.2-1.1-.6-.1-.2-.3-.3-.2-.5l.1-.2.3-.1h.1v-.2c-.1 0-.3 0-.5-.1l-.2-.1-.1-.2v-.3c-.1 0-.1-.1-.2-.1-.2-.1-.7-.3-.6-.9 0-.3.2-.5.4-.8 0-.1.1-.1.2-.2l-.3-.3c-.2-.3-.3-.4-.5-.3-1.3.4-4.9-1-6.1-1.9-.1.2-.1.3-.1.4-.2.6-.4.9-1.3 1.2-.2.1-.4.1-.6.1.1 0 .2.1.3.3.2.6.1 1 0 1.2-.2.3-.6.5-1 .5-.6 0-1.4-.3-1.8-.8-.1-.2-.2-.3-.3-.5-.4-.6-.8-1.3-2.2-1.9-.1 0-.6-.4-.9-.7-.4-.5-.2-1 0-1.2.2-.3.2-.4.1-.7-.3-.6-.8-1.2-1-1.5l-.1-.1c-.1-.2-1-.4-1.8-.4h-.5c-.3.1-.5.2-.6.2-.1 0-.2.1-.2.1h-.2l-.2-.3v-.2c0-.1 0-.2-.1-.6-.2.1-.5.3-1.2.8-.2.2-.6.2-.9.2h-.1c.1.3.1.5-.1.8.2.1.3.2.4.5.1.6-.1 1.7-.5 2.1-.1.1-.2.2-.4.3v.3c-.1.2-.2.3-.4.4-.5.2-.8.3-1 .3-.5 0-.6-.5-.6-.6 0-.1 0-.2-.1-.3h-.2c-.3 0-.6.1-.9.4l-.1.1h-.2c-.1 0-.3-.1-.4-.1v.4c.1.1.2.1.3.3l.1.2-.1.2c-.2.3-.5.3-.7.4-.1 0-.2 0-.2.1-.1.2-.2.5-.2.9-.1.7-.3 1.4-.9 1.8-.6.4-1.1.3-1.5-.1-.8-.9-.5-3.5-.5-3.5.1-.7-.2-1.2-.5-1.9-.2-.3-.4-.7-.5-1.1-.3-.8-.8-1.5-1.3-2.2l-.3-.4c-.6-.9-.4-1.8-.2-2.7.1-.4.1-.8.2-1.1v-.7s-.1-.3-.5-.6c-1.1-.7-2.3-1.6-1.7-2.5.3-.4.3-.6.3-.8 0-.3.1-.5.4-.9.1-.1.3-.3.6-.3.6 0 1.8.5 2 .9.3.8.2 1.1 0 1.4-.1.1-.2.3-.2.6-.1 1 1.6 1.6 2.5 1.9h.1c0-.3 0-.6.3-.8.1-.1.3-.2.5-.2.5 0 1.1.4 2 1.1 0 0 .2-.1.2-.3v-.1c0-.1-.1-.3.1-.4.1-.2.4-.2.9-.3h.5c-.3-.3-.8-.9-.6-1.7.1-.2.1-.3.2-.4 0-.1.1-.2.1-.2-1.6-2.3-.5-3.4.2-4.1.4-.4.5-.6.5-.8 0 0-.1-.1-.2-.1-.2-.1-.5-.2-.6-.6-.3-.6.3-.9.5-1.1l.1-.1c.6-.4.8-.5 1-.5.2 0 .4.1.4.4 0 .1.1.2.3.3 0-.1.1-.2.1-.4.1-.3.1-.7.3-1 .2-.3.5-.6.8-.9.4-.4.7-.7.6-.9-.1-.3.1-.5.2-.6v-.1c-.1-.3-.4-.7 0-1.2s1.3-1.2 2-1.5l.3-.1c1-.4 1.7-.7 2.9-.3.4.1.6.3.8.5v-.3c0-.7 0-.8.1-.9.2-.2.5-.3.8-.3.6 0 1.1.4 1.7.8.7.5 1.4 1 2 .7.5-.2.6-.3.8-.6.1-.2.3-.4.6-.7.9-.8 4-1.8 4.7-2.1v-.3c0-.3.1-.7.5-.9.3-.1.6-.2.9-.2.8 0 1.8.3 2.3 1 .3.4.4.9.2 1.4-.1.3-.2.4-.3.4v.1c.4 1.8.1 3.5-.6 4.4-.8 1-2.1 1.1-2.9.2-.6-.7-.9-1.9-.8-3.4-.1.2-.3.4-.4.5-.5.7-1 1.4-1.5 1.8-.1.1-.2.3-.2.7 0 .3 0 .5.1.6l.2-.2s0-.1.1-.2c.1-.3.1-.7.5-1 .4-.3.9-.1 1.2.4.2.5 0 .9-.1 1.2 0 .1-.1.2-.1.3.1-.2.2-.3.3-.3.3-.1.5-.2.7-.2.7 0 1 .4 1.3.8.2.3.4.5.6.5.3 0 .8-.2 1.9-1.3 0 0 .1-.2.1-.3.1-.3.2-.6.6-.6h.1l.1.1c.9.5 1.3 1 1.2 1.5-.1.8-1.2 1.3-1.7 1.4-.2.1-.4.3-.4.5.1 0 .3-.1.5-.2.3-.2.5-.1.6 0h.2c.2 0 .4.1.5.3 0 0 0 .1.2.1 2.4.4 2.5.4 2.6.8.1.2-.1.4-.1.5.1.1.5.4 1.9 1 .2.1.3.3.3.5 0-.1 0-.2.1-.3 0-.4.1-1.1.9-1.1.5 0 .6.5 1 2 .2.8.6 2.4.9 2.6-.2-.8.2-1.9 1-2.1l.1-.4-.2.3c-.1-.1-.3-.3-.2-.6.2-.7 2.2-2.7 3.3-2.7.4 0 .7.2.8.7.1.4-.1.6-1.4 1.9l-.3.3c-.4.4-.8 1.3-1.2 2.2-.6 1.4-1.3 3-2.4 3.6.1.1.3.2.4.3h.1c.5 0 1.3-.6 1.4-.9.2-.2.4-.6.8-.6.2 0 .5.1.8.3.3.2.5.2.5.2v-.1c0-.1 0-.3-.8-.9-1.1-.9-.2-2.4.6-3.7l.1-.1c.2-.4.4-.6.4-.7.2-.4.3-.5 1-1.1 0 0 .2-.2.3-.2h.2l.1.1c.2.2.1.5 0 1.1-.1.3-.2 1-.1 1.3.1-.1.3-.3.3-.5-.1-.2-.1-.4-.1-.6.1-.2.3-.3.4-.3.1 0 .3 0 .5.3.4.5.6.8.8.9v-.1c0-.1-.1-.3-.2-.4-.1-.2-.3-.4-.2-.7 0-.2.1-.4.4-.5.5-.3 1.5-.7 2.1-.9.2-.1.3-.1.3-.1l1.2-.6c.8-.4 1.5-.8 2.4-.8.2 0 .4 0 .7.1.4.1.5.3.5.5 0-.1.1-.2.1-.2.1-.3.5-.3.8-.2 0-.1 0-.2.1-.3.2-.7.3-1 1-1.4h.2c.4 0 4.1 1.9 4.2 3.2 0 .4-.2.9-1.3 1.1-.3 0-.5.2-.7.7l-.2.3c-.2.3-.5.8-.6 1.1.3 0 .7-.1.7-.1.1-.1.1-.2.2-.5 0-.3.1-.7.5-1.1.1-.1.2-.1.4-.1.3 0 .6.1.7.3.1.1.1.3.1.6v.4c.1 0 .2-.1.3-.2.3-.1.5-.3.8-.3.2 0 .5.1.8.5.1.2.9.1 1.1-.1.1-.1 0-.4-.1-.5-.1-.3-.2-.6 0-.8.1-.1.2-.2.5-.2h1.2c.9 0 1.5.5 1.9 1.6.5 1.1.7 1.5.8 1.6.1-.2.2-.8.3-1.1.1-.6.2-.9.4-1 .4-.2.8 0 1.1.2.1.1.2.2.3.2 0 0 .2-.1.4-.5s0-.9-.3-1.4c-.1-.1-.1-.2-.2-.3-.3 0-.5-.1-.6-.3-.3-.5-.5-.8-.6-1.3-.2.1-.5.2-.6.2-.8 0-1.4-.7-1.4-1.4 0-.4.2-.8.9-1-.1-.1-.1-.3 0-.5l.1-.2.2-.1c.3-.1.6-.1.9-.1.7 0 1 .3 1.1.5.2.5.1 1.1-.5 1.9h.3c1.7.5 1.8.6 1.9.8v.1c1.1-.4 2.4-.6 3.1-.3.3.1.5.2.6.3.1.1.3.1.3.1s.1 0 .3-.3c.9-1 2-1.4 3-1.8.9-.3 1.6-.6 1.9-1.2.1-.1.1-.2.2-.4.2-.3.3-.4.1-.7-.2-.3-.2-.6 0-.9.2-.3.5-.4.8-.4-.2-.3-.3-.6.1-1s.6-.7.9-1.1c.6-.9 1.3-1.8 3.1-2.9.6-.4 1.8-.5 2.6-.7h.3c-.1-.1-.2-.3-.2-.4-.1-.7.1-1.4.6-1.9.4-.4.9-.7 1.4-.7.3 0 .7.1.8.7.2.9.8 1.5 1.2 1.9.3.3.6.6.4.9-1 1.5-1.3 1.6-1.8 1.7-.1 0-.3 0-.6.2-.4.2-.6.2-.8.2-.1 0-.2 0-.4-.1v.7c.2-.2.5-.3.9-.1.6.3.6.4.8.9 0 .1 0 .2.1.4 0 .2.1.4.1.5.3 0 .7 0 1.2-.1.8-.1 1.4-.1 1.6 0 .3.1.4.4.5.6 0 .2 0 .4-.2.5-.5.4-.6 1.6-.4 3.4 0 .3.3.7.5 1.2.5.8 1 1.8.3 2.4-.9.8-.9 1.1-1 1.7 0 .3-.1.6-.2 1s-.4.4-.5.5c-.2.9 0 2.5.2 3 .1-.2.2-.6.7-.6.3 0 .6.2 1 .7.1.1.4.2.6.3.4.1.8.2.9.6.1.2.1.4 0 .7-.1.2-.2.3-.3.4.1.1.2.2.4.3.3.2.7.4.8.9.1.3 0 .7-.4 1.2l-.1.1s.2.1.3.2c.4.2.8.5.9 1.1 0 .3.3.9.5 1.5.6 1.6 1 2.7.6 3.3-.2.2-.6.5-1.3.3-6.7-1.7-6.7-4.2-6.8-6.1 0-.5 0-.9-.1-1.3-.5-2-.6-4.8-.2-6.7 0-.1-.2-.6-.7-1.1-.3-.3-.6-.5-.7-.5 0 0-.1 0-.1.1l.1.1c.5.5 1.3 1.4.7 3.8l-.1.3-.3.1c-.3 0-.5-.3-.9-.8l-.3-.3c-.2.3-.5.4-.7.5h-.1c-.9.8-.5 1.9.2 3.3.2-.2.6-.3 1 0 .3.2.4.6.4 1.1-.1.5-.3 1.1-.7 1.3-.1.3-.4.9-1.1.9-.2 0-.4-.1-.6-.2l-.3-.3h-.2c-.4.1-.6 0-.8 0l.1.1c.2.2.5.5.3.8-.1.3-.5.3-.8.2-.1 0-.1-.1-.2-.1l-.1.1c-.1.1-.3.3-.8.6-2.4 1.5-3.4 6.1-3.6 9 .4-.3.9-.5 1.2-.2l.4.4c.1.1.2.2.3.4v-.1c-.1-.3-.1-.6.1-.9.2-.3.5-.4 1-.4.4 0 .9.1 1.4.2.3.1.6.1.8.2 0-.2-.2-.7-.4-1-.4-.3-.4-.5-.4-.7.1-.5.8-.6 1-.6.1 0 .3 0 .3.1.6.4 1 1.2 1.5 2 .4.6.7 1.3 1.1 1.6.1.1.8.4 1.3.6 1.6.6 2.5 1 2.3 1.7-.2.6-.7.6-1.1.7h-.2c0 .4.3.9.7 1.3.2.2.5.3.8.5.6.2 1.4.5 1.2 2 0 .3-.2.5-.5.5s-.6-.2-.9-.3c-.2-.1-.3-.2-.5-.2h-.1v.4c0 .5 0 1.2-.6 1.5h-.2c-.6 0-1.2-1.2-2.7-4.8-.5-1.1-.9-2.3-1.1-2.5-.1-.1-.1-.1-.1-.2.1.8.4 1.5.8 2.3 1.1 2 1 6.8-.3 9.9-.7 1.7-1.7 2.8-2.8 3.2h-.1c-.2 0-.3-.1-.3-.2l-.1.1c-.1.1-.1.3-.2.4-1.6 0-1.8.5-2.3.5zm-.1-4.7h-.1c-.2.1-.5.4-.5.5.9 1 1.1 2.3.6 3.3l.1.1c0-.1.1-.3.1-.4.1-.2.2-.5.3-.7.1-.1.1-.1.3-.4l.3-.4h.2c.3 0 .4.2.4.4.9-.4 1.6-1.7 2-2.6 1.2-3 1.4-7.5.4-9.3-.6-1.2-.9-2.1-1-3.3 0-.1 0-.3.1-.4l.1-.1h.2c.2 0 .4.1 1.1.9.2.3.6 1.2 1.2 2.7.6 1.4 1.6 3.8 2 4.3.1-.2.1-.5.1-.8 0-.3 0-.5.1-.7.1-.4.4-.5.6-.5.2 0 .3.1.5.1l.6.3c.1.1.3.2.4.2.1-.7-.2-.8-.8-1-.3-.1-.7-.3-1.1-.6-.5-.4-1-1.2-.9-2 0-.5.6-.5.9-.6.1 0 .4 0 .5-.1-.3-.2-1.3-.6-1.8-.9-.8-.3-1.3-.5-1.5-.7-.5-.4-.8-1.1-1.2-1.8-.4-.7-.8-1.4-1.2-1.8h-.1c.2.2.6 1.2.6 1.6 0 .3-.1.5-.2.6-.3.2-.8.1-1.4-.1-.6-.2-1.4-.3-1.6-.1 0 0 0 .2.1.3.1.3.2 1-.4 1.1h-.1c-.3 0-.5-.3-1-.8-.1-.1-.2-.2-.2-.3-.1 0-.4.2-.5.3-.2.2-.4.3-.6.3h-.2l-.2-.1c-.1-.1-.1-.2-.1-.4.2-3.6 1.4-8.4 4-10 .5-.3.6-.4.7-.5.1-.1.2-.1.3-.2.1 0 .1-.1.2-.1-.1-.2-.1-.4 0-.6.1-.2.3-.5.6-.5h.4c0-.3.2-.4.3-.4.1 0 .1 0 .2-.1.2-.1.5-.3.7.3v.2c0 .2 0 .3.1.3.1.1.2.1.2.1.2 0 .3-.3.4-.5.1-.1.1-.2.2-.3.2-.1.4-.5.4-.8 0-.2 0-.4-.1-.5 0-.1 0 0 0 0-.1.1-.2.3-.5.3s-.4-.3-.5-.4c-.7-1.4-1.6-3.2-.2-4.4.2-.2.3-.2.5-.2s.2-.1.3-.4c.1-.3.3-.4.4-.4.3 0 .5.3 1 .9 0 0 .1.1.1.2.3-1.6-.3-2.2-.7-2.6-.2-.2-.4-.4-.3-.7 0-.3.3-.4.5-.6.1-.1.3-.1.4-.1.6 0 1.2.7 1.5 1 .2.2.7 1 .6 1.5-.4 1.8-.3 4.5.2 6.4.1.5.1.9.2 1.4.1 1.8.1 3.9 6.3 5.5.3.1.5 0 .5 0 .2-.3-.3-1.8-.7-2.6-.3-.7-.5-1.2-.5-1.6 0-.2-.2-.4-.6-.5-.3-.1-.6-.3-.7-.7-.1-.2 0-.4.2-.7.2-.3.3-.5.3-.7 0-.1-.2-.3-.4-.4-.4-.2-1-.6-.8-1.5l.1-.3c-.1 0-.1 0-.2-.1-.4-.1-.8-.2-1-.5-.2-.2-.3-.3-.3-.4v.1c-.1.2-.2.7-.7.7-.1 0-.3 0-.5-.3-.5-.7-.7-2.8-.4-3.9.1-.3.4-.4.5-.4.1-.3.1-.6.1-.8.1-.8.2-1.2 1.2-2.2.2-.2-.1-.9-.5-1.5-.3-.5-.6-1-.6-1.5-.2-2 0-3.3.6-3.9h-.2c-.3 0-.7 0-1.1.1-.4 0-.9.1-1.2.1-.3 0-.5 0-.6-.2-.1-.1-.1-.3-.1-.3 0-.1 0-.2-.1-.5 0-.2-.1-.3-.1-.4 0-.1 0-.2-.1-.2 0 0-.2-.1-.3-.2h-.1l-.1.1c-.1.1-.4.3-.7.2-.6-.2-.4-1.7-.4-1.7.1-.3.2-.5.4-.5.5 0 .7.1.8.1.1 0 .2 0 .3-.1.4-.3.7-.3.9-.3.2 0 .3 0 1.1-1.2l-.2-.2c-.4-.4-1.1-1.2-1.4-2.2 0-.1-.1-.1-.1-.1-.2 0-.6.1-.8.5-.2.2-.5.7-.4 1.3 0 .1.1.1.2.2s.3.2.4.4l.1.2-.1.2c-.1.2-.4.3-1.2.4-.7.1-1.8.3-2.3.6-1.6 1-2.2 1.8-2.9 2.7-.3.4-.6.8-1 1.2 0 .1.1.2.1.3.1.2.3.4.2.6-.1.3-.4.3-.6.3-.1 0-.5 0-.5.1 0 0 0 .1.1.2.3.7 0 1.2-.2 1.5-.1.1-.1.2-.1.2-.4.9-1.3 1.3-2.3 1.6-.9.4-1.9.7-2.7 1.6-.2.3-.5.5-.8.5-.2 0-.4-.1-.6-.2-.1-.1-.3-.2-.6-.2-.7-.3-2.7.2-3.6.8 0 0 0 .1.1.1.3.4.7 1.3.3 2.1-.2.4-.5.9-1 .9-.3 0-.5-.2-.7-.3-.1-.1-.2-.1-.3-.2 0 .1-.1.4-.1.5-.2.8-.3 1.7-1 1.7-.4 0-.8-.4-1.5-2.1-.4-1.1-.8-1.1-1.3-1.1h-1v.1c.1.3.3.8 0 1.2-.2.3-.7.6-1.3.6-.5 0-.8-.2-1-.5-.1-.1-.1-.1-.2-.1s-.3.1-.5.2-.5.3-.8.3c-.5 0-.5-.6-.6-1.1v-.2h-.1c-.2.1-.2.3-.2.6s-.1.6-.4.9c-.3.3-1.1.3-1.2.3-.3 0-.5 0-.7-.1l-.2-.1-.1-.2c-.1-.4.6-1.5.8-1.8l.2-.2c.3-.5.6-.9 1.2-1 .6-.1.7-.2.7-.3 0-.6-2.6-2.2-3.5-2.5-.4.2-.4.3-.5.8 0 .2-.1.3-.1.6-.1.3-.5.4-.8.2-.1.2-.2.6-.6.6-.1 0-.3-.1-.5-.2s-.3-.3-.3-.4h-.5c-.7 0-1.3.3-2 .7l-1.2.6c-.1 0-.2.1-.4.1-.5.2-1.5.5-1.9.8 0 0-.1 0-.1.1l.1.1c.1.2.4.5.3.9 0 .7-.4.8-.6.8-.3 0-.6-.2-1-.7v.1c-.1.3-.5.8-1 .8h-.2c-.7-.2-.5-1.2-.4-2-.2.2-.2.3-.3.5-.1.2-.2.4-.5.8l-.1.1c-.9 1.3-1.4 2.2-.8 2.7 1.1.9 1.3 1.3 1 1.8-.1.3-.4.5-.7.5-.2 0-.6-.1-.9-.4-.2-.2-.3-.2-.3-.2s-.1 0-.3.2c-.2.3-1.2 1.2-2 1.2-.2 0-.4 0-.5-.1-.3-.2-.6-.3-.8-.4-.2-.1-.5-.2-.4-.5 0-.3.3-.4.6-.5 1-.3 1.7-1.9 2.3-3.3.4-1 .8-1.9 1.3-2.4l.3-.3c.7-.7 1.1-1.2 1.2-1.3 0-.1-.1-.1-.1-.1-.7 0-2.2 1.5-2.5 2 .2.2.3.4.2.7 0 .3-.2.5-.5.6-.4.1-.6.9-.5 1.3 0 .2 0 .3-.1.5-.2.2-.4.3-.7.3h-.2c-.6-.2-.8-1.1-1.3-3.1-.1-.5-.3-1-.4-1.4 0 .1 0 .2-.1.4 0 .4-.1.9-.7 1.2-.3.2-.6.1-.7-.1-.2-.2-.1-.4-.1-.6v-.1c-1.7-.7-2.2-1.1-2.2-1.5v-.3c-.5-.1-1.4-.3-1.9-.3-.4-.1-.6-.2-.6-.4-.2 0-.3 0-.4-.1-.9.4-1.4.3-1.5-.2-.1-.5.3-1.2.8-1.4h.1c1.1-.4 1.2-.7 1.2-.8 0-.1-.2-.4-.6-.7-.1.2-.1.4-.3.6-1 1-1.8 1.5-2.4 1.5-.6 0-.9-.4-1.2-.7-.4-.5-.6-.7-1.2-.4l-.1.1c-.2.3-.5.6-.8.6-.2 0-.5-.1-.5-.8 0-.3.1-.5.2-.7.1-.3.2-.5.1-.6 0-.1-.1-.2-.1-.2-.1.1-.2.3-.2.5s-.1.4-.2.5c-.3.3-.5.5-.8.5-.1 0-.5-.1-.6-.5-.2-.6-.1-1.7.4-2.1.4-.3 1-1.1 1.4-1.7.7-1 .9-1.3 1.3-1.3h.2l.2.1c.2.2.2.5.1.7-.2 2 .3 2.9.6 3.2.5.6 1.3.5 1.8-.2.7-.8.8-2.2.5-3.8-.1-.2-.2-.8.4-.9.1-.3 0-.5-.1-.8-.3-.4-1-.7-1.7-.7-.2 0-.5 0-.6.1 0 0 0 .2-.1.3 0 .3-.1.8-.6.9-.9.2-3.7 1.3-4.5 1.9-.3.2-.4.4-.5.6-.2.3-.4.6-1.1.8-.2.1-.4.1-.6.1-.8 0-1.4-.5-2-.9-.5-.4-1.1-.8-1.4-.6v.4c.1.9.1 1.1-.1 1.3l-.1.1h-.3l-.1-.1c-.2-.2-.4-.3-.5-.4-.2-.2-.4-.3-.6-.4-1-.3-1.5-.1-2.4.3l-.3.1c-.6.2-1.3.9-1.7 1.3 0 0 0 .1.1.3.1.1.1.2.2.3.1.3-.1.5-.2.6.1.6-.4 1.1-.8 1.5-.2.2-.5.5-.7.8-.1.2-.2.5-.2.8-.1.5-.2 1-.7 1h-.2c-.5-.2-.7-.4-.8-.6-.1.1-.3.2-.5.3l-.1.1c-.1 0-.2.1-.2.2.1.1.2.2.3.2.2.1.5.2.6.5.2.7-.2 1.1-.6 1.5-.7.7-1.4 1.4-.1 3.3.2.3 0 .7-.1.9-.1.1-.1.2-.1.2-.1.4.2.7.5 1.1.2.2.4.5.3.8-.1.3-.5.4-1.3.5h-.2c0 .1 0 .3-.1.5-.2.2-.5.5-.9.5-.1 0-.3 0-.4-.1-1-.9-1.4-.9-1.6-.9-.1.1-.1.4-.1.5 0 .2 0 .4-.1.6l-.1.1h-.3c-.1 0-.3-.1-.4-.2-1.1-.4-3.1-1.1-3-2.6 0-.5.2-.7.3-.9.1-.2.2-.2-.1-.7-.1-.1-.9-.5-1.3-.5-.2.3-.3.4-.3.5 0 .2-.1.5-.4 1-.2.3.9 1.1 1.4 1.5.6.4.8 1 .8 1.1v.3c0 .2.1.4 0 .6 0 .4-.1.8-.2 1.2-.2.8-.3 1.5.1 2.1l.3.4c.5.7 1.1 1.5 1.4 2.3.1.4.3.7.5 1 .4.7.7 1.4.6 2.3-.1.9 0 2.5.4 2.9.2.2.2.2.6 0 .3-.2.5-.8.6-1.3.1-.4.2-.8.3-1.1.1-.2.3-.3.6-.3v-.6c0-.2 0-.6.2-.8.2-.3.6-.1.8 0 .7-.5 1.7-.5 2-.1.1.2.2.4.2.5.1 0 .3-.1.6-.2-.1-.2-.2-.4-.2-.6 0-.1 0-.5.4-.5h.3l.1.3v.1c.2-.2.4-1 .4-1.5l-.1-.1c-.2-.1-.4-.2-.4-.4v-.2l.2-.3c.1-.1.1-.2.1-.2s0-.1-.1-.2c-.1-.2 0-.4 0-.5.2-.3.5-.3.8-.3.1 0 .4 0 .4-.1 1.1-.9 1.5-1 1.7-1 .2 0 .4.1.5.3.1.3.2.5.2.6.1 0 .2-.1.3-.1.2-.1.4-.1.7-.1.7 0 1.9.2 2.3.7l.1.1c.3.3.8.9 1.1 1.7.3.6 0 1-.1 1.3-.2.3-.2.3-.1.5s.5.5.6.5c1.6.7 2.1 1.5 2.5 2.1.1.2.2.3.3.5.2.3.7.5 1.2.5.2 0 .4-.1.4-.1.1-.1 0-.2 0-.4-.2-.1-.3-.2-.5-.5-.1-.2-.2-.5 0-.7.1-.1.2-.2.6-.2h.7c.7-.2.7-.4.9-.8.1-.2.1-.3.2-.5s.2-.5.5-.5c.2 0 .3.1.4.2.7.7 3.7 1.9 5.2 1.9h.4c.6-.2 1 .2 1.3.6.1.1.2.2.3.4.4.4 0 .8-.2 1.1-.1.1-.2.3-.2.4 0 .1.1.1.2.2.2.1.4.2.6.4l.1.1c.2 0 .4.1.5.4 0 0 .3.9-.1 1.1.4.3.7 0 1-.2.3-.2.5-.4.8-.4.2 0 .4.1.6.3.7 1 .8 2.2.9 3.4 0 .6.1 1.2.2 1.9.1-.1.3-.2.4-.2h.1l.1.1c.4.2.6.5.7.6.1.2.2.3 1.1.4.8.1 1 .8 1.1 1.3 0 .2.1.4.2.5.2.6 1.5 1.6 2.1 1.6h.1c.7-.4 2.5-1 4-1 .8 0 1.4.2 1.8.5.5.5 1.5 1.3 2.3 1.3.2 0 .4-.1.6-.2.2-.2.2-.3.1-.7-.1-.4-.1-.9.3-1.3.2-.2.2-.3.2-.4.1-.3.3-.4.4-.4.1 0 .2 0 .3.1 1.3.7 1.9 1 2.1 1.1.1.1.4.2.3.5l-.1.3c.1.2.4.4.7.8.4.4.9.3 1.6.1.7-.2 1.5-.3 2.1.1h.4c.2 0 .5.1.6.5.1.3.3.7 1 .7 1.3 0 3.1-1 3.9-1.7.3-.2.7-.2 1.3 0 .4.1.9.3 1.4.3.7 0 1.4-.3 2-.9.1-.1.1-.5.1-.7 0-.6 0-1.2.4-1.8-.3-.2-.9-.5-.6-1.1.6-1.5 1.5-2.2 2.6-2.2 1.8 0 3.6 2.1 4.3 2.9l.2.2c.7.7 1.8 1.1 3.4 1.3h.7c0-.1-.1-.1-.1-.2-.2-.3-.5-.5-.3-.9.1-.3.5-.3.6-.3h.3c.5.1.6 0 .9 0 .2-.1.5-.2 1-.2s.6.4.7.6c0 .1.1.3.2.4.7 1 .8 2.5.5 4.8 0 .2-.2.5-.6.5h-.4c-.4-.6-.5-.7-.6-.7zm-13.3-37.9c.1.2.2.4.4.7.2 0 .4-.2.7-.4-.2 0-.5-.1-1.1-.3zm-1.1-2.4c.1.2.1.3 0 .5l-.1.2h-.3c-.2 0-.6.1-.6.3 0 .3.3.6.7.6.2 0 .4-.1.6-.4.7-.9.5-1.2.5-1.2s-.3-.1-.8 0zm-30.8 3.3h-.1c-.3-.1-1.4-.5-1.5-1.5-.2-1.1.9-2.4 3.2-3.9.5-.3 1-.5 1.5-.5.4 0 .8.1 1.2.2.4.1.7.2 1 .1.8-.2 1.2 0 1.5.2.2.1.4.2.8.2h.2c.4 0 .8.1 1 .2.3.2.4.4.4.7 0 .8-1 1.5-2 1.3-.7-.1-1.4-.2-2-.2-2.7 0-3.7 1.5-4.3 2.4-.3.5-.5.8-.9.8zm3.1-5.2c-.4 0-.7.1-1.1.4-2.7 1.8-3 2.8-2.9 3.2.1.5.7.8 1 .9.1-.1.2-.3.3-.4.6-1 1.8-2.8 4.9-2.8.6 0 1.4.1 2.1.2.6.1 1.1-.3 1.1-.6 0 0 0-.1-.1-.1s-.2-.1-.6-.1h-.2c-.6 0-.9-.2-1.1-.3-.3-.1-.5-.2-1-.1s-.9 0-1.4-.2c-.4 0-.7-.1-1-.1zm-6.7 3.7v-.7c.1 0 .2 0 .3-.1v-.1c0-.1-.1-.3-.2-.3v-.7c.6 0 .9.5.9 1 0 .3-.1.5-.3.7-.1.1-.3.2-.7.2zm21.1-.6l-.1-.1v-.2l.2-.8c-.3 0-.6-.4-.8-.6-.1-.2-.3-.4-.5-.5-.4-.2-.7-.5-.7-.8-.1-.5.2-1 .4-1.3.1-.1.1-.2.2-.3.1-.1.4-.8 1-.8.1 0 .2 0 .3.1.4.2.4.5.4.7 0 .1 0 .2.1.2l.1.1v.2c0 .2-.1.3-.2.3l-.1.1c.2 0 .4.1.5.3.2.3.2.6.3.9h.2v.7c-.2.1-.7 1.3-.8 1.6h-.4l-.1.2zm-.3-4.8c-.1 0-.3.2-.4.4-.1.1-.1.2-.2.4-.2.3-.4.6-.3.7 0 .1.2.3.4.4.3.2.5.5.7.7.1.1.2.3.3.3.3-.3.4-.7.2-1.2h-.1c-.2 0-.3-.1-.4-.2-.2-.3-.1-.6.1-1-.2-.1-.2-.2-.3-.5 0 .1 0 .1 0 0zm-48.3-1.3c-.2 0-.4-.1-.6-.3-.5-.7-.4-2.1-.3-2.7.1-.3.3-.4.7-.4.2 0 .5.1.6.2.1.1.8.5.9.9 0 .2 0 .3-.1.4 0 .1-.1.1-.2.1.3.4.6.8.4 1.3-.2.4-.8.4-1.4.5zm-.3-2.8c-.1.6-.1 1.7.1 2 0 .1.1.1.1.1v.4-.4c.7 0 .8-.2.8-.2 0-.1-.2-.4-.3-.5-.2-.3-.5-.6-.4-.9l.1-.3h-.1c0-.2-.1-.2-.3-.2.1 0 .1 0 0 0zm75.8 1.1c-.5 0-.9-.5-.9-1.3 0-.4.1-.8.2-1.1.2-.4.5-.7.9-.7v.7c-.1 0-.2.1-.2.3-.1.2-.2.5-.2.8 0 .4.1.6.2.6v.7zm47.3 60.6h-3.3c-2.1 0-4.4-1.6-4.6-5.1l-1.7-24.2c-2.4-.5-4.1-2.5-4.3-5l-1-16.3c-.1-1.7.4-3.4 1.6-4.7 1.2-1.3 2.8-2.1 4.5-2.2l1.5-.1c-1.9-1.6-3-4-3-6.5 0-4.8 3.8-8.5 8.5-8.5s8.5 3.8 8.5 8.5c0 2.5-1.1 4.9-3 6.5l1.5.1c3.6.3 6.3 3.4 6.2 6.9l-1 16.3c-.1 2.5-1.9 4.5-4.3 5l-1.7 24.2c0 3.8-2.4 5.1-4.4 5.1zm-7-56.9l-1.8.1c-1.5.1-2.9.8-4 1.9-1 1.2-1.5 2.6-1.4 4.2l1 16.3c.2 2.2 1.8 4.1 4 4.4h.3l1.7 24.8c.2 3 2 4.4 3.8 4.4h3.3c1.7 0 3.7-1.1 3.8-4.4l1.7-24.8h.3c2.2-.3 3.9-2.2 4-4.4l1-16.4c.2-3.1-2.3-5.8-5.5-6.1l-2.6-.1h-1.3l1.1-.7c2.2-1.4 3.5-3.9 3.5-6.5 0-4.3-3.5-7.8-7.8-7.8-4.4 0-7.8 3.4-7.8 7.8 0 2.6 1.4 5.1 3.5 6.5l1.1.7h-1.9zm36 56.9h-3.3c-2.1 0-4.4-1.6-4.6-5.1l-1.7-24.2c-2.4-.5-4.1-2.5-4.3-5l-1-16.3c-.1-1.7.4-3.4 1.6-4.7 1.2-1.3 2.8-2.1 4.5-2.2l1.5-.1c-1.9-1.6-3-4-3-6.5 0-4.8 3.8-8.5 8.5-8.5s8.5 3.8 8.5 8.5c0 2.5-1.1 4.9-3 6.5l1.5.1c3.6.3 6.3 3.4 6.2 6.9l-1 16.3c-.1 2.5-1.9 4.5-4.3 5l-1.7 24.2c0 3.8-2.4 5.1-4.4 5.1zm-7-56.9l-1.8.1c-1.5.1-2.9.8-4 1.9-1 1.2-1.5 2.6-1.4 4.2l1 16.3c.2 2.2 1.8 4.1 4 4.4h.3l1.7 24.8c.2 3 2 4.4 3.8 4.4h3.3c1.7 0 3.7-1.1 3.8-4.4l1.7-24.8h.3c2.2-.3 3.9-2.2 4-4.4l1-16.4c.2-3.1-2.3-5.8-5.5-6.1l-2.6-.1h-1.3l1.1-.7c2.2-1.4 3.5-3.9 3.5-6.5 0-4.3-3.5-7.8-7.8-7.8-4.4 0-7.8 3.4-7.8 7.8 0 2.6 1.4 5.1 3.5 6.5l1.1.7h-1.9zm36 56.9h-3.3c-2.1 0-4.4-1.6-4.6-5.1l-1.7-24.2c-2.4-.5-4.1-2.5-4.3-5l-1-16.3c-.1-1.7.4-3.4 1.6-4.7 1.2-1.3 2.8-2.1 4.5-2.2l1.5-.1c-1.9-1.6-3-4-3-6.5 0-4.8 3.8-8.5 8.5-8.5s8.5 3.8 8.5 8.5c0 2.5-1.1 4.9-3 6.5l1.5.1c3.6.3 6.3 3.4 6.2 6.9l-1 16.3c-.1 2.5-1.9 4.5-4.3 5l-1.7 24.2c0 3.8-2.4 5.1-4.4 5.1zm-7-56.9l-1.8.1c-1.5.1-2.9.8-4 1.9-1 1.2-1.5 2.6-1.4 4.2l1 16.3c.2 2.2 1.8 4.1 4 4.4h.3l1.7 24.8c.2 3 2 4.4 3.8 4.4h3.3c1.7 0 3.7-1.1 3.8-4.4l1.7-24.8h.3c2.2-.3 3.9-2.2 4-4.4l1-16.4c.2-3.1-2.3-5.8-5.5-6.1l-2.6-.1h-1.3l1.1-.7c2.2-1.4 3.5-3.9 3.5-6.5 0-4.3-3.5-7.8-7.8-7.8-4.4 0-7.8 3.4-7.8 7.8 0 2.6 1.4 5.1 3.5 6.5l1.1.7h-1.9zm-218.9 5.7c-3 0-5.4-2.4-5.4-5.4 0-1.6.7-3.1 2-4.2.7-.5 1.4-.9 2.2-1.1v-9.9c0-.7.5-1.2 1.2-1.2s1.2.5 1.2 1.2v9.9c.8.2 1.6.6 2.2 1.1 1.2 1 2 2.6 2 4.2 0 3-2.4 5.4-5.4 5.4zm0-21c-.3 0-.5.2-.5.5V119l-.3.1c-.8.1-1.6.5-2.2 1a4.6 4.6 0 0 0-1.7 3.6c0 2.6 2.1 4.7 4.7 4.7s4.7-2.1 4.7-4.7c0-1.4-.6-2.7-1.7-3.6-.6-.5-1.4-.9-2.2-1l-.3-.1v-10.5c0-.3-.2-.5-.5-.5zm-32 21c-3 0-5.4-2.4-5.4-5.4 0-1.6.7-3.1 2-4.2.7-.5 1.4-.9 2.2-1.1v-9.9c0-.7.5-1.2 1.2-1.2s1.2.5 1.2 1.2v9.9c.8.2 1.6.6 2.2 1.1 1.2 1 2 2.6 2 4.2.1 3-2.4 5.4-5.4 5.4zm0-21c-.3 0-.5.2-.5.5V119l-.3.1c-.8.1-1.6.5-2.2 1a4.6 4.6 0 0 0-1.7 3.6c0 2.6 2.1 4.7 4.7 4.7s4.7-2.1 4.7-4.7c0-1.4-.6-2.7-1.7-3.6-.6-.5-1.4-.9-2.2-1l-.3-.1v-10.5c0-.3-.2-.5-.5-.5z"/><path class="st1" d="M-363.5 176.9h-52.1c-3.5 0-6.3-2.8-6.3-6.3v-32.5h64.7v32.5c-.1 3.5-2.9 6.3-6.3 6.3zm-57.7-38v31.8c0 3.1 2.5 5.5 5.5 5.5h52.1c3.1 0 5.5-2.5 5.5-5.5v-31.8h-63.1zm63.9-5.7H-422v-13c0-.4 0-.9.1-1.3.2-1 .7-1.9 1.3-2.7.1-.2.3-.3.4-.4.9-.9 2-1.5 3.2-1.7.4-.1.8-.1 1.3-.1h5v.8h-5c-.4 0-.8 0-1.1.1-1.1.2-2 .7-2.8 1.5-.1.1-.2.3-.4.4-.6.7-1 1.5-1.1 2.4-.1.4-.1.7-.1 1.1v12.2h63.2v-12.2c0-.4 0-.8-.1-1.1-.4-2.2-2.1-3.9-4.3-4.3-.4-.1-.7-.1-1.1-.1h-5v-.8h5c.4 0 .9 0 1.3.1 2.5.5 4.4 2.4 4.9 4.9.1.4.1.8.1 1.3v12.9z"/><path class="st1" d="M-400.5 114h21.9v.8h-21.9z"/><image width="405" height="394" xlink:href="57BB905E.png" transform="translate(-489.667 293.95)" overflow="visible"/><image width="203" height="388" xlink:href="57BB9062.png" transform="translate(-356.667 297.95)" overflow="visible"/><image width="203" height="390" xlink:href="57BB9065.png" transform="translate(-356.667 295.95)" overflow="visible"/><image width="73" height="162" xlink:href="57BB9066.png" transform="translate(-422.667 297.95)" overflow="visible"/><image width="92" height="218" xlink:href="57BB9064.png" transform="translate(-486.667 414.95)" overflow="visible"/><path class="st4" d="M-313 6.4c-1.2 0-2.3-.2-3.4-.5-.5-.2-1.2 0-1.5.3l-2.2 1.6c-2.5-1.3-4.1-2.9-5.4-5.4l1.6-2.1c.4-.4.5-1 .4-1.5-.4-1.1-.5-2.2-.5-3.4 0-.8-.7-1.5-1.5-1.5h-3.5c-.8 0-1.5.7-1.5 1.5 0 9.6 7.9 17.5 17.5 17.5.8 0 1.5-.7 1.5-1.5V7.9c0-.9-.7-1.5-1.5-1.5z"/><path class="st5" d="M-289 6.4c-1.2 0-2.3-.2-3.4-.5-.5-.2-1.2 0-1.5.3l-2.2 1.6c-2.5-1.3-4.1-2.9-5.4-5.4l1.6-2.1c.4-.4.5-1 .4-1.5-.4-1.1-.5-2.2-.5-3.4 0-.8-.7-1.5-1.5-1.5h-3.5c-.8 0-1.5.7-1.5 1.5 0 9.6 7.9 17.5 17.5 17.5.8 0 1.5-.7 1.5-1.5V7.9c0-.9-.7-1.5-1.5-1.5z"/><path class="st6" d="M34.2-20.1c31.3 0 56.7 25.4 56.7 56.7 0 31.3-25.4 56.7-56.7 56.7-31.3 0-56.7-25.4-56.7-56.7.1-31.3 25.4-56.7 56.7-56.7"/><path class="st7" d="M34.2 99.3c-3.3 0-6-2.7-6-6s2.7-6 6-6 6 2.7 6 6m.1 0c0 3.3-2.7 6-6 6"/><path class="st8" d="M34.2 99.3c-3.3 0-6-2.7-6-6s2.7-6 6-6 6 2.7 6 6c.1 3.3-2.6 6-6 6"/><path class="st9" d="M34.7 10V2.9m-11.3 9.3l-4.2-5.7m-4.6 13.4l-6.1-3.6m4.2 25.8l-6.1 3.5m4.7-15.2H4.2M45 12.2l4.2-5.7m4.6 13.4l6.1-3.6m-4.2 25.8l6.1 3.5m-4.7-15.2h7.1m-14.4 3c0-8.9-7.5-16.1-16.5-15.6-7.6.4-13.9 6.4-14.7 13.9-.5 5.4 1.7 10.3 5.4 13.5 2.2 1.9 3.6 4.7 3.6 7.6v8.9c0 3.7 3 6.6 6.6 6.6s6.6-3 6.6-6.6v-8.8c0-3 1.4-5.8 3.6-7.7 3.4-2.9 5.4-7.1 5.4-11.8zM28.3 57.1h11.8"/><path class="st9" d="M25.2 33.8l6.8 6.8 10.5-10.5"/><circle class="st6" cx="31.9" cy="161.2" r="56.7"/><path class="st7" d="M92.6 175c0 3.3-2.7 6-6 6s-6-2.7-6-6 2.7-6 6-6 6 2.7 6 6"/><circle class="st8" cx="86.6" cy="175" r="6"/><path class="st7" d="M23.5 156.4l-10 2.4c-1.2.3-2.4.2-3.5-.4L4.3 155v17.9l22.4 13c3.5 2 7.8 1.9 11.1-.2l9-5.5c1.3-.8 1.6-2.7.5-3.9l-17.8-18.1c-1.6-1.7-3.9-2.4-6-1.8"/><path class="st9" d="M23.5 156.4l-10 2.4c-1.2.3-2.4.2-3.5-.4L4.3 155v17.9l22.4 13c3.5 2 7.8 1.9 11.1-.2l9-5.5c1.3-.8 1.6-2.7.5-3.9l-17.8-18.1c-1.6-1.7-3.9-2.4-6-1.8z"/><path class="st7" d="M59.5 154.9l-4.7 3c-1.5.9-3.2 1.2-4.9.7l-7.2-2.1c-2.8-.8-5.9-.2-8.2 1.7l-10.6 9 2.4 2c1.9 1.6 4.6 1.9 6.8.7l5.3-2.9 9.5 10.6 11.5-4.8.1-17.9z"/><path class="st9" d="M59.5 154.9l-4.7 3c-1.5.9-3.2 1.2-4.9.7l-7.2-2.1c-2.8-.8-5.9-.2-8.2 1.7l-10.6 9 2.4 2c1.9 1.6 4.6 1.9 6.8.7l5.3-2.9 9.5 10.6 11.5-4.8.1-17.9z"/><path class="st7" d="M24.4 187.4l-8.9-6.6c-1-.8-1.2-2.2-.5-3.2l1.1-1.5c.8-1 2.2-1.2 3.2-.5l8.9 6.6c1 .8 1.2 2.2.5 3.2l-1.1 1.5c-.7 1-2.2 1.2-3.2.5"/><path class="st9" d="M24.4 187.4l-8.9-6.6c-1-.8-1.2-2.2-.5-3.2l1.1-1.5c.8-1 2.2-1.2 3.2-.5l8.9 6.6c1 .8 1.2 2.2.5 3.2l-1.1 1.5c-.7 1-2.2 1.2-3.2.5z"/><path class="st7" d="M36.1 144.6l1.3-10"/><path class="st9" d="M36.1 144.6l1.3-10"/><path class="st7" d="M43.2 147.2l3.6-7.1"/><path class="st9" d="M43.2 147.2l3.6-7.1"/><path class="st7" d="M28.2 144.6l-1.3-10"/><path class="st9" d="M28.2 144.6l-1.3-10"/><path class="st7" d="M21.1 147.2l-3.6-7.1"/><path class="st9" d="M21.1 147.2l-3.6-7.1"/><path class="st6" d="M-19.7 289.1c-.4-2.6-.5-5.2-.5-7.8 0-31.3 25.4-56.7 56.7-56.7 31.3 0 56.7 25.4 56.7 56.7 0 31.3-25.4 56.7-56.7 56.7-24.3 0-45.1-15.3-53.1-36.8"/><circle class="st8" cx="-18.2" cy="295.1" r="6"/><ellipse class="st9" cx="36.5" cy="275.4" rx="9.3" ry="9.4"/><path class="st9" d="M54.9 312.5H18v-6c0-8.3 6.7-15 15-15h7.6c7.9 0 14.3 6.4 14.3 14.3v6.7z"/><path class="st9" d="M36.3 307.4l3.3-2.5-1.8-13.1h-3L33 304.9zm-11.1 5.1v-8m23 8v-8"/><circle class="st9" cx="23.2" cy="261" r="2.3"/><circle class="st9" cx="36" cy="252.3" r="2.3"/><circle class="st9" cx="49.7" cy="261.3" r="2.3"/><path class="st9" d="M25 259.8l8.7-5.8m14 5.8L39 254"/><circle class="st6" cx="33" cy="399.8" r="56.7"/><path class="st10" d="M50 386.8c0-.3.2-.7.5-.9l7.8-5.3c.5-.3 1.1-.2 1.4.3.3.5.2 1.1-.3 1.4l-7.8 5.3c-.5.3-1.1.2-1.4-.3-.1 0-.2-.3-.2-.5"/><path class="st11" d="M50 386.8c0-.3.2-.7.5-.9l7.8-5.3c.5-.3 1.1-.2 1.4.3.3.5.2 1.1-.3 1.4l-7.8 5.3c-.5.3-1.1.2-1.4-.3-.1 0-.2-.3-.2-.5z"/><path class="st10" d="M51.8 395.8c0-.5.4-.9.9-1l15-2.4c.6-.1 1.1.3 1.2.9.1.6-.3 1.1-.9 1.2l-15 2.4c-.6.1-1.1-.3-1.2-.9v-.2z"/><path class="st11" d="M51.8 395.8c0-.5.4-.9.9-1l15-2.4c.6-.1 1.1.3 1.2.9.1.6-.3 1.1-.9 1.2l-15 2.4c-.6.1-1.1-.3-1.2-.9v-.2z"/><path class="st10" d="M50 414.2c0-.6.5-1 1-1 .2 0 .4.1.6.2l7.8 5.3c.5.3.6 1 .3 1.4-.3.5-1 .6-1.4.3h-.1l-7.8-5.3c-.2-.3-.4-.6-.4-.9"/><path class="st11" d="M50 414.2c0-.6.5-1 1-1 .2 0 .4.1.6.2l7.8 5.3c.5.3.6 1 .3 1.4-.3.5-1 .6-1.4.3h-.1l-7.8-5.3c-.2-.3-.4-.6-.4-.9z"/><path class="st10" d="M51.8 405.2v-.2c.1-.6.6-1 1.2-.9l15 2.4c.6.1 1 .6.9 1.2-.1.6-.6 1-1.2.9l-15-2.4c-.6-.1-.9-.5-.9-1"/><path class="st11" d="M51.8 405.2v-.2c.1-.6.6-1 1.2-.9l15 2.4c.6.1 1 .6.9 1.2-.1.6-.6 1-1.2.9l-15-2.4c-.6-.1-.9-.5-.9-1z"/><path class="st12" d="M4.4 397.4l39.3-17.8V420L4.4 404m-6.2-10h6.2v13.1h-6.2zm25.4 19.2c-1.4 2.9-4.9 4.1-7.8 2.7-2.9-1.4-4.1-4.9-2.7-7.8"/><path class="st7" d="M2.9 357.7c0 3.3-2.7 6-6 6s-6-2.7-6-6 2.7-6 6-6 6 2.7 6 6"/><circle class="st8" cx="-3.1" cy="357.7" r="6"/><circle class="st6" cx="31.4" cy="526.6" r="56.7"/><path class="st7" d="M74.6 485.2c0 3.3-2.7 6-6 6s-6-2.7-6-6 2.7-6 6-6 6 2.7 6 6"/><circle class="st8" cx="68.6" cy="485.2" r="6"/><path class="st13" d="M28.2 541v-24h7.2c3.4 0 6.2 2.8 6.2 6.2 0 3.4-2.8 6.2-6.2 6.2H25.2"/><path class="st14" d="M25.3 533.9h10.3"/><path class="st15" d="M28.2 541v-24h7.2c3.4 0 6.2 2.8 6.2 6.2 0 3.4-2.8 6.2-6.2 6.2H25.2m.1 4.5h10.3"/><path class="st16" d="M59.6 518c-.4-8.3-7.2-14.9-15.5-15.2-5.1-.2-9.6 2-12.7 5.5-3.1-3.5-7.6-5.7-12.7-5.5-8.2.3-14.9 6.9-15.5 15-.3 4.8 1.9 8.7 4.6 12.4 3.9 4.8 12.7 15.2 22.7 23.8.4.4 1.1.4 1.6 0 9.8-8.4 18.5-18.6 22.5-23.5 2.9-3.7 5.2-7.6 5-12.5z"/><path class="st17" d="M-180.4 900l-221.5-83.6"/><path class="st18" d="M-148.7 882.6l-223.6-84.2"/><path class="st19" d="M-214.9 918.4l-223.5-84.3m151-47.6l-208.3 116.7"/><path class="st17" d="M-254.3 798.7l-208.3 116.7"/><path class="st18" d="M-223.5 811.2L-431.8 928"/><path class="st17" d="M-187.4 826.4l-208.3 116.8"/><path class="st7" d="M-144 2v8"/><path class="st20" d="M-144 2v8"/><path class="st7" d="M-140 6h-8"/><path class="st20" d="M-140 6h-8"/><path class="st21" d="M-67.6 13.2l-7 5.9-12.1-10.4-2.8-7.9 4.2-7h6.9l3.9 4.4 3.9-4.4h6.9l4.2 7-1.7 4.7h-6.6"/><circle class="st22" cx="-71.5" cy="5.8" r="3.2"/><path class="st23" d="M-66.1.7l-2.4 2.5M-76.9.7l2.5 2.5m8.3 7.7l-2.4-2.4m-8.4 2.4l2.5-2.4"/><path class="st24" d="M-3.6 649.3l1.6.9"/><path class="st25" d="M2.9 653.1l62.9 37"/><path class="st24" d="M68.3 691.6l1.6.9m-84.3-43.2l-1.6.9"/><path class="st25" d="M-20.9 653.1l-62.9 37"/><path class="st24" d="M-86.3 691.6l-1.6.9"/><path class="st26" d="M-21.4 743.3l-1.5-.8"/><path class="st27" d="M-27.3 739.9l-56.9-33.5"/><path class="st26" d="M-86.4 705.1l-1.5-.9"/><path class="st28" d="M-.3 745.5l1.5-.9"/><path class="st29" d="M5.9 741.9L66 706.5"/><path class="st28" d="M68.4 705.1l1.5-.9"/><circle class="st8" cx="-9.6" cy="645.3" r="6"/><circle class="st30" cx="-9.6" cy="748.4" r="12.8"/><circle class="st8" cx="74.9" cy="698.5" r="6"/><circle class="st8" cx="-92.6" cy="698.5" r="6"/><path class="st24" d="M-14.4 850.3l-1.6-.9"/><path class="st25" d="M-20.9 846.5l-62.9-37.1"/><path class="st24" d="M-86.3 808l-1.6-.9m84.3 43.2l1.6-.9"/><path class="st25" d="M2.9 846.5l62.9-37.1"/><path class="st24" d="M68.3 808l1.6-.9"/><circle class="st8" cx="-9.6" cy="851.3" r="6"/><circle class="st8" cx="74.9" cy="801.4" r="6"/><circle class="st8" cx="-92.6" cy="801.4" r="6"/><path class="st31" d="M75 795.3v-1.6"/><path class="st32" d="M75 788.7v-80"/><path class="st31" d="M75 706.2v-1.7"/><path class="st33" d="M-9.6 844.1v-1.6"/><path class="st34" d="M-9.6 837.9v-75"/><path class="st33" d="M-9.6 760.5v-1.6"/><path class="st31" d="M-92.6 795.3v-1.6"/><path class="st32" d="M-92.6 788.7v-80"/><path class="st31" d="M-92.6 706.2v-1.7"/><path class="st35" d="M-85.3 784.7l72-102.3m10.4 43.7l58.6-85.8m8.7 26.7v11.9m6-5.9h-12"/><circle class="st35" cx="-7.4" cy="672.5" r="5.3"/><path class="st36" d="M78 824.9l26-11.8v26.8l-26-10.6"/><path class="st35" d="M73.9 822.6H78v8.7h-4.1zm16.8 12.8c-.9 1.9-3.2 2.7-5.2 1.8-1.9-.9-2.7-3.3-1.8-5.2"/><path class="st37" d="M-116.2 803.5l4 22.7-6.4 5.5-6.3-5.5 4.1-22.7m-5.3 14.8h7.7m2.2-23h-4.7l-2.1 2.7 2.2 5.5h4.6l2.1-5.5z"/><path class="st36" d="M-116.2 803.5l4 22.7-6.4 5.5-6.3-5.5 4.1-22.7m-5.3 14.8h7.7m2.2-23h-4.7l-2.1 2.7 2.2 5.5h4.6l2.1-5.5zm3.8-90.7c-.3-4.8-4.2-8.6-9-8.8-2.9-.1-5.6 1.1-7.3 3.2-1.8-2-4.4-3.3-7.3-3.2-4.7.2-8.6 4-8.9 8.7-.2 2.8 1.1 5 2.7 7.2 2.3 2.8 7.3 8.8 13.1 13.7.3.2.6.2.9 0 5.7-4.8 10.7-10.7 13-13.6 1.6-2.1 3-4.3 2.8-7.2z"/><path class="st35" d="M75.1 618.8l-5 3.6 3.5 10.9-9.2-6.7-9.3 6.7 3.6-10.9-9.3-6.7h11.4l3.6-10.9 3.5 10.9h11.4"/><path class="st0" d="M-203.6-1.8c-.2.2-.2.5-.1.7l3.9 4.7-3.9 4.7c-.2.2-.1.5.1.7.2.2.5.1.7-.1l4.2-5c.1-.1.1-.2.1-.3 0-.1 0-.2-.1-.3l-4.2-5c-.2-.3-.5-.3-.7-.1zm-6.2 0c.2.2.2.5.1.7l-3.9 4.7 3.9 4.7c.2.2.1.5-.1.7-.2.2-.5.1-.7-.1l-4.2-5c-.1-.1-.1-.2-.1-.3 0-.1 0-.2.1-.3l4.2-5c.2-.3.5-.3.7-.1z"/><path class="st1" d="M-142.1 19.3c-.4.3-.4.8-.1 1.2l6.9 8.2-6.9 8.2c-.3.4-.3.9.1 1.2.4.3.9.3 1.2-.1l7.3-8.8c.1-.2.2-.4.2-.6 0-.2-.1-.4-.2-.6l-7.3-8.8c-.3-.2-.9-.2-1.2.1zm-10.8 0c.4.3.4.8.1 1.2l-6.9 8.2 6.9 8.2c.3.4.3.9-.1 1.2-.4.3-.9.3-1.2-.1l-7.3-8.8c-.1-.2-.2-.4-.2-.6 0-.2.1-.4.2-.6l7.3-8.8c.3-.2.8-.2 1.2.1z"/><path class="st5" d="M-191 19.3c-.4.3-.4.8-.1 1.2l6.9 8.2-6.9 8.2c-.3.4-.3.9.1 1.2.4.3.9.3 1.2-.1l7.3-8.8c.1-.2.2-.4.2-.6 0-.2-.1-.4-.2-.6l-7.3-8.8c-.3-.2-.8-.2-1.2.1zm-10.8 0c.4.3.4.8.1 1.2l-6.9 8.2 6.9 8.2c.3.4.3.9-.1 1.2-.4.3-.9.3-1.2-.1l-7.3-8.8c-.1-.2-.2-.4-.2-.6 0-.2.1-.4.2-.6l7.3-8.8c.3-.2.9-.2 1.2.1z"/><path class="st1" d="M-172.6-1.8c-.2.2-.2.5-.1.7l3.9 4.7-3.9 4.7c-.2.2-.1.5.1.7.2.2.5.1.7-.1l4.2-5c.1-.1.1-.2.1-.3 0-.1 0-.2-.1-.3l-4.2-5c-.2-.3-.5-.3-.7-.1zm-6.2 0c.2.2.2.5.1.7l-3.9 4.7 3.9 4.7c.2.2.1.5-.1.7-.2.2-.5.1-.7-.1l-4.2-5c-.1-.1-.1-.2-.1-.3 0-.1 0-.2.1-.3l4.2-5c.2-.3.5-.3.7-.1z"/><path class="st35" d="M-122 0v12m6-6h-12"/><g id="Mail_1"><g id="_Group_"><path id="_Rectangle_" class="st4" d="M-272.9-3.6h16.7c.5 0 1 .5 1 1V8.9c0 .5-.5 1-1 1h-16.7c-.5 0-1-.5-1-1V-2.6c0-.6.5-1 1-1z"/><path id="_Rectangle_2" class="st4" d="M-261-1h3.2v3.9h-3.2z"/><path id="_Path_" class="st4" d="M-271.3 7.3h6.4"/><path id="_Path_2" class="st4" d="M-271.3 5.4h3.2"/></g></g><path class="st0" d="M-384.6 35.6c.1.4-.3 1.2-1.3 2.5-.1.2-.3.4-.6.7-.2.3-.4.5-.5.6-.1.1-.2.3-.3.4-.1.2-.1.3-.1.4 0 .1.1.2.1.3.1.1.1.2.3.4l.5.5c.8.8 1.4 1.4 1.6 1.9 0 0 0 .1.1.1 0 0 0 .1.1.2v.3c0 .1-.1.2-.2.2s-.3.1-.5.1h-2.7c-.2-.1-.3-.1-.4-.2l-.2-.1c-.2-.1-.4-.3-.6-.6-.2-.2-.4-.5-.6-.7-.2-.2-.3-.4-.5-.5-.2-.1-.3-.2-.5-.1h-.1l-.1.1c-.1.1-.1.2-.2.3-.1.1-.1.3-.1.4 0 .2-.1.4-.1.7v.2c0 .1 0 .1-.1.2s-.3.2-.5.2h-1c-.4 0-.8 0-1.3-.1-.4-.1-.8-.3-1.1-.5l-.9-.6c-.3-.2-.5-.4-.6-.5l-.2-.2c-.1-.1-.1-.1-.2-.3-.1-.1-.3-.4-.6-.8s-.6-.8-.9-1.3c-.3-.5-.7-1.1-1.1-1.8-.4-.8-.8-1.5-1.1-2.3 0-.1-.1-.2-.1-.2v-.2c.1-.1.3-.2.5-.2h2.4c.1 0 .1 0 .2.1.1 0 .1.1.1.1.1.1.2.2.2.3.1.3.2.6.4.9.1.3.3.5.4.7l.1.3c.2.3.3.6.5.9.2.3.3.5.4.6s.2.3.4.3c.1.1.2.1.3.1h.2s.1-.1.1-.2c.1-.1.1-.2.1-.4s.1-.4.1-.7V37c0-.2 0-.4-.1-.6s-.1-.3-.1-.4l-.1-.1c-.1-.2-.4-.3-.7-.4-.1 0-.1-.1 0-.2l.3-.3c.3-.1 1-.2 2.1-.2.5 0 .9 0 1.2.1.1 0 .2.1.3.1.1 0 .1.1.2.2s.1.2.1.3v3.3c0 .1.1.2.1.3 0 .1.1.2.2.2h.1c.1 0 .1 0 .2-.1l.3-.3c.1-.1.3-.3.4-.6l.6-.9c.3-.6.7-1.2.9-1.9 0-.1.1-.1.1-.2l.1-.1h3.4c.4.2.5.3.6.4zm19.9 3.8c.1.2.1.3.1.4v.3c0 .1-.1.2-.2.3-.1.1-.2.2-.4.3-.1.1-.3.2-.5.4-.7.4-1.6.7-2.7.8l.6.6 2.3 2.3c.2.2.3.4.3.6 0 .2-.1.5-.3.6l-.1.1c-.2.2-.4.3-.6.3-.2 0-.5-.1-.6-.3l-2.3-2.3-2.3 2.3c-.2.2-.4.3-.6.3-.2 0-.5-.1-.6-.3l-.1-.1c-.2-.2-.3-.4-.3-.6 0-.2.1-.5.3-.6l2.3-2.3.6-.6c-1.2-.1-2.1-.4-2.7-.8-.2-.1-.4-.3-.5-.4-.1-.1-.3-.2-.4-.3-.1-.1-.2-.2-.2-.3 0-.1-.1-.2 0-.3 0-.1.1-.3.1-.4.1-.1.1-.2.2-.3.1-.1.2-.1.4-.2h.5l.6.3.1.1c.1 0 .2.1.4.2l.6.3c.2.1.5.1.8.2s.6.1 1 .1c.5 0 1-.1 1.5-.2s.8-.3 1-.4l.3-.2c.2-.1.4-.3.6-.3.2-.1.3-.1.5 0 .1 0 .3.1.4.2-.2 0-.1.1-.1.2zm-1.7-1.6c-.8.8-1.7 1.1-2.8 1.1-1.1 0-2-.4-2.8-1.1-.8-.8-1.1-1.7-1.1-2.8 0-1.1.4-2 1.1-2.8.8-.8 1.7-1.1 2.8-1.1 1.1 0 2 .4 2.8 1.1.8.8 1.1 1.7 1.1 2.8 0 1.1-.3 2-1.1 2.8zm-1.4-4.1c-.4-.4-.8-.6-1.4-.6-.5 0-1 .2-1.4.6-.4.4-.6.8-.6 1.4 0 .5.2 1 .6 1.4.4.4.8.6 1.4.6.5 0 1-.2 1.4-.6.4-.4.6-.8.6-1.4 0-.6-.2-1-.6-1.4zm-39.8-1.2v2.3h-1.4c-.5 0-.8.1-1 .3-.2.2-.3.5-.3.9v1.6h2.5l-.3 2.6h-2.2v6.5h-2.6v-6.5h-2.2v-2.6h2.2v-1.9c0-1.1.3-1.9.9-2.5.6-.6 1.4-.9 2.4-.9.9.1 1.6.2 2 .2z"/><path class="st38" d="M-384.6 54.9c.1.4-.3 1.2-1.3 2.5-.1.2-.3.4-.6.7-.2.3-.4.5-.5.6-.1.1-.2.3-.3.4-.1.2-.1.3-.1.4 0 .1.1.2.1.3.1.1.1.2.3.4l.5.5c.8.8 1.4 1.4 1.6 1.9 0 0 0 .1.1.1 0 0 0 .1.1.2v.3c0 .1-.1.2-.2.2-.1.1-.3.1-.5.1h-2.7c-.2-.1-.3-.1-.4-.2l-.2-.1c-.2-.1-.4-.3-.6-.6-.2-.2-.4-.5-.6-.7-.2-.2-.3-.4-.5-.5-.2-.1-.3-.2-.5-.1h-.1l-.1.1c-.1.1-.1.2-.2.3-.1.1-.1.3-.1.4 0 .2-.1.4-.1.7v.2c0 .1 0 .1-.1.2s-.3.2-.5.2h-1c-.4 0-.8 0-1.3-.1-.4-.1-.8-.3-1.1-.5l-.9-.6c-.3-.2-.5-.4-.6-.5l-.2-.2c-.1-.1-.1-.1-.2-.3-.1-.1-.3-.4-.6-.8s-.6-.8-.9-1.3c-.3-.5-.7-1.1-1.1-1.8-.4-.8-.8-1.5-1.1-2.3 0-.1-.1-.2-.1-.2v-.2c.1-.1.3-.2.5-.2h2.4c.1 0 .1 0 .2.1.1 0 .1.1.1.1.1.1.2.2.2.3.1.3.2.6.4.9.1.3.3.5.4.7l.1.3c.2.3.3.6.5.9.2.3.3.5.4.6s.2.3.4.3c.1.1.2.1.3.1h.2s.1-.1.1-.2c.1-.1.1-.2.1-.4s.1-.4.1-.7v-1.1c0-.2 0-.4-.1-.6s-.1-.3-.1-.4l-.1-.1c-.1-.2-.4-.3-.7-.4-.1 0-.1-.1 0-.2l.3-.3c.3-.1 1-.2 2.1-.2.5 0 .9 0 1.2.1.1 0 .2.1.3.1.1 0 .1.1.2.2s.1.2.1.3v3.3c0 .1.1.2.1.3 0 .1.1.2.2.2h.1s.1 0 .2-.1l.3-.3c.1-.1.3-.3.4-.6l.6-.9c.3-.6.7-1.2.9-1.9 0-.1.1-.1.1-.2l.1-.1h3.4c.4.2.5.3.6.4z"/><path class="st39" d="M-364.7 58.7c.1.2.1.3.1.4v.3c0 .1-.1.2-.2.3-.1.1-.2.2-.4.3-.1.1-.3.2-.5.4-.7.4-1.6.7-2.7.8l.6.6 2.3 2.3c.2.2.3.4.3.6 0 .2-.1.5-.3.6l-.1.1c-.2.2-.4.3-.6.3-.2 0-.5-.1-.6-.3l-2.3-2.3-2.3 2.3c-.2.2-.4.3-.6.3-.2 0-.5-.1-.6-.3l-.1-.1c-.2-.2-.3-.4-.3-.6 0-.2.1-.5.3-.6l2.3-2.3.6-.6c-1.2-.1-2.1-.4-2.7-.8-.2-.1-.4-.3-.5-.4-.1-.1-.3-.2-.4-.3-.1-.1-.2-.2-.2-.3 0-.1-.1-.2 0-.3 0-.1.1-.3.1-.4.1-.1.1-.2.2-.3.1-.1.2-.1.4-.2h.5l.6.3.1.1c.1 0 .2.1.4.2l.6.3c.2.1.5.1.8.2.3.1.6.1 1 .1.5 0 1-.1 1.5-.2s.8-.3 1-.4l.3-.2c.2-.1.4-.3.6-.3.2-.1.3-.1.5 0 .1 0 .3.1.4.2-.2 0-.1.1-.1.2zm-1.7-1.6c-.8.8-1.7 1.1-2.8 1.1-1.1 0-2-.4-2.8-1.1-.8-.8-1.1-1.7-1.1-2.8 0-1.1.4-2 1.1-2.8.8-.8 1.7-1.1 2.8-1.1 1.1 0 2 .4 2.8 1.1.8.8 1.1 1.7 1.1 2.8 0 1.1-.3 2.1-1.1 2.8zm-1.4-4.1c-.4-.4-.8-.6-1.4-.6-.5 0-1 .2-1.4.6-.4.4-.6.8-.6 1.4 0 .5.2 1 .6 1.4.4.4.8.6 1.4.6.5 0 1-.2 1.4-.6.4-.4.6-.8.6-1.4 0-.6-.2-1-.6-1.4z"/><path class="st40" d="M-407.6 51.8v2.3h-1.4c-.5 0-.8.1-1 .3-.2.2-.3.5-.3.9V57h2.5l-.3 2.6h-2.2v6.5h-2.6v-6.5h-2.2V57h2.2v-1.9c0-1.1.3-1.9.9-2.5.6-.6 1.4-.9 2.4-.9.9 0 1.6.1 2 .1z"/><path class="st35" d="M-304.3 67.4c-.4 0-.8 0-1.2-.2-1.6-.4-5.6-4.5-6-6-.1-.4-.2-.7-.2-1.1m4.3-8c2.2-2.4 4.5-4.2 4.8-4.4 5.6-4 13.4-5.6 16-5.4.3 2.5-1.3 10.4-5.3 16-.3.4-2 2.6-4.4 4.8"/><path class="st35" d="M-295.5 55.1c-1.1 1.7-3.5 1.7-4.6 0-.6-.9-.6-2.2 0-3.1 1.1-1.7 3.5-1.7 4.6 0 .6.9.6 2.2 0 3.1z"/><circle class="st35" cx="-293.1" cy="48.7" r="1.7"/><path class="st35" d="M-311.6 60l-7.3-1.5 3.7-3.7c2.3-2.3 5.5-3.2 8.6-2.6l2.3.5-7.3 7.3zm7.3 7.3l1.5 7.3 3.7-3.7c2.3-2.3 3.2-5.5 2.6-8.6l-.5-2.3-7.3 7.3zm2.6-10.1l-11.2 11.3"/><path class="st10" d="M-232.7 55.6c-.1-.3-.2-.6-.4-.9v-.1c-.2-.3-.3-.5-.5-.8 0 0 0-.1-.1-.1-.2-.2-.4-.5-.7-.6l-.1-.1c-.3-.2-.5-.4-.8-.5-.3-.1-.6-.3-.9-.4h-.1c-.3-.1-.6-.1-.9-.2h-1.1c-.3 0-.7.1-1 .2-1.4.4-2.5 1.4-3.1 2.6-.7 1.3-.8 2.7-.4 4.1.1.3.2.6.4.9.1.1.1.2.2.3.1.2.2.3.3.5l.3.3.4.4.3.3c.2.1.4.3.6.4.1 0 .1.1.2.1h.1c.2.1.4.2.7.3h.2c.2.1.4.1.6.2h.1c.3 0 .5.1.8.1.5 0 1.1-.1 1.6-.2 1.4-.4 2.5-1.4 3.1-2.6.5-1.3.6-2.8.2-4.2zm-4.1 4.8c-1.3.4-2.6 0-3.5-1 0 0-.1 0-.1-.1-.1-.1-.2-.3-.3-.4 0-.1-.1-.1-.1-.1-.1-.2-.2-.3-.2-.5v-.1c-.3-.9-.2-1.8.2-2.6s1.1-1.4 2-1.6c.2-.1.4-.1.7-.1h.1c1.1-.1 2.1.4 2.8 1.2.1.1.2.3.3.5 0 0 0 .1.1.1l.3.6c0 .1.1.3.1.4.1.7 0 1.5-.3 2.1-.5.8-1.2 1.4-2.1 1.6z"/><path class="st10" d="M-218.5 58.6c-1.6-1.9-3.6-3.7-5.9-5.5 2.9-8.9 2.5-16.3-1.5-18.4-2.9-1.5-6.9 0-11.1 3.8-1.7 1.5-3.3 3.3-4.9 5.4-.3-.1-.5-.2-.8-.2-.4-.1-.9-.3-1.3-.4-.2-.1-.4-.1-.6-.2-.5-.1-1-.3-1.5-.4-.1 0-.2 0-.3-.1l-1.8-.3c-.5-.1-1-.2-1.4-.2-5.4-.6-9.1.6-10.5 3.3-1.4 2.7-.3 6.4 3.3 10.5 1.6 1.9 3.6 3.7 5.9 5.5-2.9 8.9-2.5 16.3 1.5 18.4.7.4 1.5.6 2.4.6 1 0 2.1-.3 3.3-.7.3-.1.6-.3.9-.4.1 0 .2-.1.2-.1 2.9-1.6 6.1-4.5 9.2-8.5l.9.3c.2.1.4.1.6.2 2.2.6 4.4 1.1 6.4 1.3.9.1 1.8.1 2.6.1 4 0 6.8-1.2 8-3.4 1.1-2.8-.1-6.5-3.6-10.6zm-7.6-6.8c-2.1-1.5-4.3-2.8-6.7-4.1-.1-.1-.2-.1-.3-.2-.6-.3-1.3-.7-1.9-1-.4-.2-.7-.3-1.1-.5-.4-.2-.8-.4-1.2-.5-.4-.2-.8-.3-1.1-.5-.4-.2-.8-.3-1.1-.4-.1 0-.2-.1-.4-.1 2.1-2.6 4.2-4.7 6.1-6.1 2.9-2.1 5.4-2.8 7-2 2.7 1.5 3.2 7.5.7 15.4zm-8.3 16.4c-1.1-.4-2.1-.8-3.2-1.3-.1 0-.1-.1-.2-.1-.6-.3-1.3-.6-1.9-.9-.7-.3-1.4-.7-2.2-1.1-2.5-1.3-4.8-2.8-6.9-4.3.9-2.4 1.9-4.9 3.3-7.5 1.4-2.6 2.8-4.9 4.3-6.9 1.7.6 3.5 1.4 5.3 2.2.6.3 1.1.5 1.7.8.2.1.3.2.5.2 2.5 1.3 4.8 2.8 6.9 4.3-.9 2.4-1.9 4.9-3.3 7.5-1.3 2.8-2.8 5.1-4.3 7.1zm-21.1-13.6c-2.9-3.4-4-6.4-3-8.3.1-.2.3-.5.5-.7l.3-.3.3-.3c.1-.1.2-.1.4-.2s.3-.2.5-.3h.1c1.5-.6 3.8-.8 6.5-.5 2.1.2 4.4.7 6.8 1.5-1.4 2-2.8 4.3-4.1 6.7-1.3 2.4-2.3 4.8-3.2 7.1-2-1.5-3.8-3.1-5.1-4.7zm6 8c2.1 1.5 4.3 2.8 6.7 4.1.8.4 1.7.8 2.5 1.2.3.1.6.3.8.4.5.2 1.1.5 1.6.7.3.1.6.3.9.4.4.2.8.3 1.3.5-1.2 1.5-2.4 2.9-3.6 4-3.9 3.7-7.5 5.2-9.5 4.1-2.7-1.4-3.2-7.4-.7-15.4zm32 6.2c-.1.1-.3.3-.5.4l-.2.2c-.1.1-.3.2-.4.2-.1.1-.3.2-.4.2h-.1c-1.5.6-3.7.8-6.4.5-2.1-.2-4.4-.7-6.8-1.5 1.4-2 2.8-4.2 4.1-6.7 1.3-2.4 2.3-4.8 3.2-7.1 2 1.6 3.7 3.2 5.1 4.8 2.9 3.4 4 6.4 3 8.3-.2.3-.4.5-.6.7z"/></svg>