<svg id="Layer_1" xmlns="http://www.w3.org/2000/svg" viewBox="0 0 209 47.9"><style>.st0{fill:#212121}.st1{fill:#354a9f}.st2{fill:#ef3e57}.st3{fill:#04aa4d}</style><path class="st0" d="M89.6 8.4c-.5.5-1.4.8-2.3.8-2.2 0-3.8-1.5-3.8-3.8 0-2.1 1.3-3.8 3.7-3.8 1 0 1.7.3 2.2.7l-.6 1c-.4-.3-.9-.5-1.7-.5-1.4 0-2.4 1-2.4 2.6 0 1.5 1 2.6 2.5 2.6.6 0 1.2-.2 1.7-.6l.7 1zm5.3-6.7c2.2 0 3.8 1.5 3.8 3.8 0 2.2-1.6 3.8-3.8 3.8-2.2 0-3.8-1.5-3.8-3.8 0-2.2 1.5-3.8 3.8-3.8zm0 6.3c1.5 0 2.5-1.1 2.5-2.6s-1.1-2.6-2.5-2.6-2.4 1.1-2.4 2.6 1 2.6 2.4 2.6zm6.2-6.2h1.3v6.1h3.2V1.8h1.3v6.1h1v2.5h-1.2V9.1h-5.6V1.8zm9 7.3V1.8h1.3V7l3.8-5.2h1.1v7.3H115V3.9l-3.8 5.2h-1.1zm11.4-7.3h1.1l3.1 7.3h-1.4l-.8-1.9h-3.1l-.8 1.9h-1.3l3.2-7.3zM121 6h2.1L122 3.4 121 6zm11.6-3h-2.1l-.1 1.4c-.4 4.3-1.4 4.9-2.8 4.7V7.8c.6.1 1.3-.2 1.6-4.6l.1-1.5h4.6V9h-1.3V3zm5.4 1.3c.3 0 .6-.1.8-.1 1.9 0 2.8.9 2.8 2.4s-1.1 2.5-3 2.5h-1.9V1.8h1.3v2.5zm0 1.2v2.4h.7c.9 0 1.5-.4 1.5-1.3 0-.8-.6-1.2-1.5-1.2-.2 0-.4.1-.7.1zm10.5.5h-3.3v3.1h-1.3V1.8h1.3v3h3.3v-3h1.3v7.3h-1.3V6zm5.4-1.7c.3 0 .6-.1.8-.1 1.8 0 2.7.9 2.7 2.4s-1.1 2.5-3 2.5h-1.8V1.8h1.3v2.5zm0 1.2v2.4h.7c.9 0 1.4-.4 1.4-1.3 0-.8-.5-1.2-1.4-1.2-.2 0-.4.1-.7.1zm4.5-3.7h1.3v7.3h-1.3V1.8zm4.1 7.3V1.8h1.3V7l3.8-5.2h1.1v7.3h-1.3V3.9l-3.8 5.2h-1.1zm2.4-9.1c.1.4.4.6.9.6s.8-.2.8-.6h1.2c0 .9-.9 1.5-2 1.5-1.3 0-2-.6-2.1-1.5h1.2zM84 14.3h1.3v3.5l2.9-3.5h1.5l-3 3.4 3.2 3.9h-1.6l-3-3.8v3.8H84v-7.3zm10.8-.1c2.2 0 3.8 1.5 3.8 3.8 0 2.2-1.6 3.8-3.8 3.8-2.2 0-3.8-1.5-3.8-3.8 0-2.1 1.6-3.8 3.8-3.8zm0 6.4c1.5 0 2.5-1.1 2.5-2.6s-1.1-2.6-2.5-2.6-2.4 1.1-2.4 2.6 1 2.6 2.4 2.6zm10.8-2.1h-3.3v3.1H101v-7.3h1.3v3h3.3v-3h1.3v7.3h-1.3v-3.1zm9.8 2.5c-.5.5-1.4.8-2.3.8-2.2 0-3.8-1.5-3.8-3.8 0-2.1 1.3-3.8 3.7-3.8 1 0 1.7.3 2.2.7l-.6 1c-.4-.3-.9-.5-1.7-.5-1.4 0-2.4 1-2.4 2.6 0 1.5 1 2.6 2.5 2.6.6 0 1.2-.2 1.7-.6l.7 1zm1.6-6.7h6v1.2h-2.4v6.1h-1.3v-6.1H117v-1.2zm8.2 7.4v-7.3h2.1c2.2 0 2.8 1.2 2.8 2.4s-.9 2.4-2.7 2.4h-1v2.6h-1.2zm1.3-6.2v2.2c.3 0 .6.1.9.1.8 0 1.4-.4 1.4-1.2 0-.8-.5-1.1-1.3-1.1h-1zM136 20c-.5 1.1-1.1 1.7-2 1.7-.4 0-.8-.1-1-.3l.5-1.1c.2.1.3.2.5.2.3 0 .6-.2.7-.5l.1-.3-3.2-5.4h1.5l2.4 4.1 1.7-4.1h1.3L136 20zm4.6-5.7h1.3v3.5l2.9-3.5h1.5l-3 3.4 3.2 3.9h-1.6l-3-3.8v3.8h-1.3v-7.3zm7.5 0h6v1.2h-2.4v6.1h-1.3v-6.1H148v-1.2zm11.3-.1c2.2 0 3.8 1.5 3.8 3.8 0 2.2-1.6 3.8-3.8 3.8-2.2 0-3.8-1.5-3.8-3.8 0-2.1 1.6-3.8 3.8-3.8zm0 6.4c1.5 0 2.5-1.1 2.5-2.6s-1.1-2.6-2.5-2.6-2.4 1.1-2.4 2.6 1.1 2.6 2.4 2.6zm6.2 1.1v-7.3h2.1c2.2 0 2.8 1.2 2.8 2.4s-.9 2.4-2.7 2.4h-1v2.6h-1.2zm1.3-6.2v2.2c.3 0 .6.1.9.1.8 0 1.4-.4 1.4-1.2 0-.8-.5-1.1-1.3-1.1h-1zm9.4-1.2h1.3v3h1.2c.3-1.8 1.6-3.1 3.6-3.1 2.2 0 3.7 1.5 3.7 3.8 0 2.2-1.5 3.8-3.7 3.8-1.9 0-3.4-1.3-3.6-3.2h-1.2v3.1h-1.3v-7.4zm6.2 6.3c1.5 0 2.3-1.1 2.3-2.6s-.9-2.6-2.3-2.6c-1.3 0-2.3 1.1-2.3 2.6s1 2.6 2.3 2.6zm6-6.3h4.1v1.2h-2.8v6.1h-1.3v-7.3zm6.3 7.4v-7.3h2.1c2.2 0 2.8 1.2 2.8 2.4s-.9 2.4-2.7 2.4h-1v2.6h-1.2zm1.3-6.2v2.2c.3 0 .6.1.9.1.8 0 1.4-.4 1.4-1.2 0-.8-.5-1.1-1.3-1.1h-1zm7.2 1.4c.3 0 .6-.1.8-.1 1.8 0 2.7.9 2.7 2.4s-1.1 2.5-3 2.5H202v-7.3h1.3v2.5zm0 1.2v2.4h.7c.9 0 1.4-.4 1.4-1.3 0-.8-.5-1.2-1.4-1.2-.2 0-.4 0-.7.1zm4.5-3.8h1.3v7.3h-1.3v-7.3z"/><path class="st1" d="M5.5 14.1C3 14.1.9 12 .9 9.5S3 4.9 5.5 4.9s4.6 2.1 4.6 4.6-2 4.6-4.6 4.6zm0-6.4c-1 0-1.8.8-1.8 1.8s.8 1.8 1.8 1.8 1.8-.8 1.8-1.8-.8-1.8-1.8-1.8z"/><path transform="rotate(45.001 9.457 5.352)" class="st1" d="M8.9 3.6H10V7H8.9z"/><path transform="rotate(45.001 1.612 13.726)" class="st1" d="M1.1 12h1.1v3.4H1.1z"/><path transform="rotate(45.001 1.612 5.352)" class="st1" d="M-.1 4.8h3.4v1.1H-.1z"/><path transform="rotate(44.992 9.457 13.726)" class="st1" d="M7.7 13.2h3.4v1.1H7.7z"/><path class="st2" d="M49.3 47.9l-5.8-12.1 4.1-6.7 12.9 9.3-11.2 9.5zm-3.8-12l4.4 9.1 7.6-6.5-9.4-6.8-2.6 4.2z"/><path transform="rotate(24.694 41.034 34.247)" class="st2" d="M37.3 33.3h7.6v1.8h-7.6z"/><path class="st2" d="M22.4 29.2L19 16.1l11-1.7.3 1.8-9 1.4 2.9 11.1z"/><path class="st2" d="M21.1 16.9l-1.8-.1.4-11.1 5.7.7 6.7 4.8-1.4 4.2-1.7-.6 1-2.9-5.3-3.8-3.3-.4z"/><path class="st2" d="M57.2 14.3l-1.4-1.1L62 5l-30.8 7.4-.4-1.7L66.6 2zm-37.7 3.2l-9.3-8.4 9.7-3.4.6 1.7-6.8 2.4 7.1 6.3z"/><path class="st3" d="M37.8 34.1l-15.4-4.9 6.7-14.6h.1L74.3 12 48.1 31l-10.3 3.1zm-6-17.9L38.3 32l9-2.6 21-15.3-36.5 2.1zm-6.9 11.9l11.3 3.6-6.1-14.9-5.2 11.3z"/></svg>