<svg id="Layer_1" xmlns="http://www.w3.org/2000/svg" viewBox="0 0 74.3 47.9"><style>.st0{fill:#354a9f}.st1{fill:#ef3e57}.st2{fill:#04aa4d}</style><path class="st0" d="M5.5 14.1C3 14.1.9 12 .9 9.5S3 4.9 5.5 4.9s4.6 2.1 4.6 4.6-2 4.6-4.6 4.6zm0-6.4c-1 0-1.8.8-1.8 1.8s.8 1.8 1.8 1.8 1.8-.8 1.8-1.8-.8-1.8-1.8-1.8z"/><path transform="rotate(45.001 9.457 5.352)" class="st0" d="M8.9 3.6H10V7H8.9z"/><path transform="rotate(45.001 1.612 13.726)" class="st0" d="M1.1 12h1.1v3.4H1.1z"/><path transform="rotate(45.001 1.612 5.352)" class="st0" d="M-.1 4.8h3.4v1.1H-.1z"/><path transform="rotate(44.992 9.457 13.726)" class="st0" d="M7.7 13.2h3.4v1.1H7.7z"/><path class="st1" d="M49.3 47.9l-5.8-12.1 4.1-6.7 12.9 9.3-11.2 9.5zm-3.8-12l4.4 9.1 7.6-6.5-9.4-6.8-2.6 4.2z"/><path transform="rotate(24.694 41.034 34.247)" class="st1" d="M37.3 33.3h7.6v1.8h-7.6z"/><path class="st1" d="M22.4 29.2L19 16.1l11-1.7.3 1.8-9 1.4 2.9 11.1z"/><path class="st1" d="M21.1 16.9l-1.8-.1.4-11.1 5.7.7 6.7 4.8-1.4 4.2-1.7-.6 1-2.9-5.3-3.8-3.3-.4z"/><path class="st1" d="M57.2 14.3l-1.4-1.1L62 5l-30.8 7.4-.4-1.7L66.6 2zm-37.7 3.2l-9.3-8.4 9.7-3.4.6 1.7-6.8 2.4 7.1 6.3z"/><path class="st2" d="M37.8 34.1l-15.4-4.9 6.7-14.6h.1L74.3 12 48.1 31l-10.3 3.1zm-6-17.9L38.3 32l9-2.6 21-15.3-36.5 2.1zm-6.9 11.9l11.3 3.6-6.1-14.9-5.2 11.3z"/></svg>