<svg id="Слой_1" xmlns="http://www.w3.org/2000/svg" viewBox="0 0 84.9 73.8"><style>.st0{fill:none;stroke:#ef3b57;stroke-width:.75;stroke-miterlimit:10}</style><path class="st0" d="M20.5 16l-1.9-.1h-.8c2.2-1.4 3.7-4 3.7-6.8 0-4.5-3.6-8.2-8.2-8.2s-8 3.6-8 8.1c0 2.9 1.5 5.4 3.7 6.8h-.9l-1.7.2c-3.4.2-6 3.1-5.7 6.5l1 16.3c.2 2.4 2 4.4 4.3 4.7L7.6 68c.2 3.2 2.2 4.7 4.2 4.7h3.3c2 0 4-1.4 4.2-4.7L21 43.5c2.4-.3 4.2-2.3 4.3-4.7l1-16.3c.2-3.4-2.4-6.3-5.8-6.5zm29 0l-1.9-.1h-.8c2.2-1.4 3.7-4 3.7-6.8 0-4.5-3.6-8.2-8.2-8.2s-8 3.6-8 8.1c0 2.9 1.5 5.4 3.7 6.8h-.8l-1.8.2c-3.4.2-6 3.1-5.7 6.5l1 16.3c.2 2.4 2 4.4 4.3 4.7L36.6 68c.2 3.2 2.2 4.7 4.2 4.7h3.3c2 0 4-1.4 4.2-4.7L50 43.5c2.4-.3 4.2-2.3 4.3-4.7l1-16.3c.2-3.4-2.4-6.3-5.8-6.5zm29 0l-1.9-.1h-.8c2.2-1.4 3.7-4 3.7-6.8 0-4.5-3.6-8.2-8.2-8.2-4.5 0-8.2 3.6-8.2 8.2 0 2.9 1.5 5.4 3.7 6.8H66l-1.6.1c-3.4.2-6 3.1-5.7 6.5l1 16.3c.2 2.4 2 4.4 4.3 4.7L65.6 68c.2 3.2 2.2 4.7 4.2 4.7h3.3c2 0 4-1.4 4.2-4.7L79 43.5c2.4-.3 4.2-2.3 4.3-4.7l1-16.3c.2-3.4-2.4-6.3-5.8-6.5z"/></svg>